<svg width="471" height="362" viewBox="0 0 471 362" fill="none" xmlns="http://www.w3.org/2000/svg">
<path fill-rule="evenodd" clip-rule="evenodd" d="M190.585 170.732C243.213 170.732 285.877 213.396 285.877 266.024C285.877 318.653 243.213 361.317 190.585 361.317C137.956 361.317 95.2923 318.653 95.2923 266.024C95.2923 213.396 137.956 170.732 190.585 170.732ZM381.169 170.732C433.798 170.732 476.461 213.396 476.461 266.024C476.461 318.653 433.798 361.317 381.169 361.317C328.541 361.317 285.877 318.653 285.877 266.024C285.877 213.396 328.541 170.732 381.169 170.732ZM381.169 95.2924C381.169 42.6639 338.505 6.10352e-05 285.877 6.10352e-05C233.248 6.10352e-05 190.585 42.6639 190.585 95.2924C190.585 147.921 233.248 190.585 285.877 190.585C338.505 190.585 381.169 147.921 381.169 95.2924ZM190.585 95.2924C190.585 147.921 147.921 190.585 95.2923 190.585C42.6638 190.585 0 147.921 0 95.2924C0 42.6639 42.6638 6.10352e-05 95.2923 6.10352e-05C147.921 6.10352e-05 190.585 42.6639 190.585 95.2924Z" fill="#A3320B"/>
<path fill-rule="evenodd" clip-rule="evenodd" d="M190.585 170.732C243.213 170.732 285.877 213.396 285.877 266.024C285.877 318.653 243.213 361.317 190.585 361.317C137.956 361.317 95.2923 318.653 95.2923 266.024C95.2923 213.396 137.956 170.732 190.585 170.732ZM381.169 170.732C433.798 170.732 476.461 213.396 476.461 266.024C476.461 318.653 433.798 361.317 381.169 361.317C328.541 361.317 285.877 318.653 285.877 266.024C285.877 213.396 328.541 170.732 381.169 170.732ZM381.169 95.2924C381.169 42.6639 338.505 6.10352e-05 285.877 6.10352e-05C233.248 6.10352e-05 190.585 42.6639 190.585 95.2924C190.585 147.921 233.248 190.585 285.877 190.585C338.505 190.585 381.169 147.921 381.169 95.2924ZM190.585 95.2924C190.585 147.921 147.921 190.585 95.2923 190.585C42.6638 190.585 0 147.921 0 95.2924C0 42.6639 42.6638 6.10352e-05 95.2923 6.10352e-05C147.921 6.10352e-05 190.585 42.6639 190.585 95.2924Z" fill="#A3320B"/>
</svg>
