<svg width="1920" height="999" viewBox="0 0 1920 999" fill="none" xmlns="http://www.w3.org/2000/svg">
<path fill-rule="evenodd" clip-rule="evenodd" d="M419.5 253C489.364 253 546 196.364 546 126.5C546 196.364 602.636 253 672.5 253C742.364 253 799 196.364 799 126.5C799 196.364 855.636 253 925.5 253C995.364 253 1052 196.364 1052 126.5C1052 56.636 995.364 0 925.5 0C855.636 0 799 56.636 799 126.5C799 56.636 742.364 0 672.5 0C602.636 0 546 56.636 546 126.5C546 56.636 489.364 0 419.5 0C349.636 0 293 56.636 293 126.5C293 196.364 349.636 253 419.5 253ZM671 354.5C671 424.364 614.364 481 544.5 481C474.636 481 418 424.364 418 354.5C418 284.636 474.636 228 544.5 228C614.364 228 671 284.636 671 354.5ZM924 354.5C924 424.364 867.364 481 797.5 481C727.636 481 671 424.364 671 354.5C671 284.636 727.636 228 797.5 228C867.364 228 924 284.636 924 354.5ZM924 354.5C924 284.636 980.636 228 1050.5 228C1120.36 228 1177 284.636 1177 354.5C1177 424.364 1120.36 481 1050.5 481C980.636 481 924 424.364 924 354.5ZM418.5 703C488.364 703 545 646.364 545 576.5C545 646.364 601.636 703 671.5 703C741.364 703 798 646.364 798 576.5C798 646.364 854.636 703 924.5 703C994.364 703 1051 646.364 1051 576.5C1051 506.636 994.364 450 924.5 450C854.636 450 798 506.636 798 576.5C798 506.636 741.364 450 671.5 450C601.636 450 545 506.636 545 576.5C545 506.636 488.364 450 418.5 450C348.636 450 292 506.636 292 576.5C292 646.364 348.636 703 418.5 703ZM671 800.5C671 870.364 614.364 927 544.5 927C474.636 927 418 870.364 418 800.5C418 730.636 474.636 674 544.5 674C614.364 674 671 730.636 671 800.5ZM924 800.5C924 870.364 867.364 927 797.5 927C727.636 927 671 870.364 671 800.5C671 730.636 727.636 674 797.5 674C867.364 674 924 730.636 924 800.5ZM924 800.5C924 730.636 980.636 674 1050.5 674C1120.36 674 1177 730.636 1177 800.5C1177 870.364 1120.36 927 1050.5 927C980.636 927 924 870.364 924 800.5ZM36 1022.5C36 1092.36 -20.636 1149 -90.5 1149C-160.364 1149 -217 1092.36 -217 1022.5C-217 952.636 -160.364 896 -90.5 896C-20.636 896 36 952.636 36 1022.5ZM36 1022.5C36 952.636 92.636 896 162.5 896C232.364 896 289 952.636 289 1022.5C289 1092.36 232.364 1149 162.5 1149C92.636 1149 36 1092.36 36 1022.5ZM545 1022.5C545 1092.36 488.364 1149 418.5 1149C348.636 1149 292 1092.36 292 1022.5C292 952.636 348.636 896 418.5 896C488.364 896 545 952.636 545 1022.5ZM798 1022.5C798 1092.36 741.364 1149 671.5 1149C601.636 1149 545 1092.36 545 1022.5C545 952.636 601.636 896 671.5 896C741.364 896 798 952.636 798 1022.5ZM798 1022.5C798 952.636 854.636 896 924.5 896C994.364 896 1051 952.636 1051 1022.5C1051 1092.36 994.364 1149 924.5 1149C854.636 1149 798 1092.36 798 1022.5ZM1307 1022.5C1307 1092.36 1250.36 1149 1180.5 1149C1110.64 1149 1054 1092.36 1054 1022.5C1054 952.636 1110.64 896 1180.5 896C1250.36 896 1307 952.636 1307 1022.5ZM1307 1022.5C1307 952.636 1363.64 896 1433.5 896C1503.36 896 1560 952.636 1560 1022.5C1560 1092.36 1503.36 1149 1433.5 1149C1363.64 1149 1307 1092.36 1307 1022.5ZM1814 1045.03C1803.37 1104.14 1751.68 1149 1689.5 1149C1619.64 1149 1563 1092.36 1563 1022.5C1563 952.636 1619.64 896 1689.5 896C1751.68 896 1803.37 940.856 1814 999.972C1824.63 940.856 1876.32 896 1938.5 896C2008.36 896 2065 952.636 2065 1022.5C2065 1092.36 2008.36 1149 1938.5 1149C1876.32 1149 1824.63 1104.14 1814 1045.03ZM35.5 927C105.364 927 162 870.364 162 800.5C162 870.364 218.636 927 288.5 927C358.364 927 415 870.364 415 800.5C415 730.636 358.364 674 288.5 674C218.636 674 162 730.636 162 800.5C162 730.636 105.364 674 35.5 674C-34.364 674 -91 730.636 -91 800.5C-91 870.364 -34.364 927 35.5 927ZM1306.5 927C1376.36 927 1433 870.364 1433 800.5C1433 870.364 1489.64 927 1559.5 927C1629.36 927 1686 870.364 1686 800.5C1686 730.636 1629.36 674 1559.5 674C1489.64 674 1433 730.636 1433 800.5C1433 730.636 1376.36 674 1306.5 674C1236.64 674 1180 730.636 1180 800.5C1180 870.364 1236.64 927 1306.5 927ZM1815.5 927C1877.68 927 1929.37 882.144 1940 823.028C1950.63 882.144 2002.32 927 2064.5 927C2134.36 927 2191 870.364 2191 800.5C2191 730.636 2134.36 674 2064.5 674C2002.32 674 1950.63 718.856 1940 777.972C1929.37 718.856 1877.68 674 1815.5 674C1745.64 674 1689 730.636 1689 800.5C1689 870.364 1745.64 927 1815.5 927ZM36 576.5C36 646.364 -20.636 703 -90.5 703C-160.364 703 -217 646.364 -217 576.5C-217 506.636 -160.364 450 -90.5 450C-20.636 450 36 506.636 36 576.5ZM36 576.5C36 506.636 92.636 450 162.5 450C232.364 450 289 506.636 289 576.5C289 646.364 232.364 703 162.5 703C92.636 703 36 646.364 36 576.5ZM1307 576.5C1307 646.364 1250.36 703 1180.5 703C1110.64 703 1054 646.364 1054 576.5C1054 506.636 1110.64 450 1180.5 450C1250.36 450 1307 506.636 1307 576.5ZM1307 576.5C1307 506.636 1363.64 450 1433.5 450C1503.36 450 1560 506.636 1560 576.5C1560 646.364 1503.36 703 1433.5 703C1363.64 703 1307 646.364 1307 576.5ZM1814 599.028C1803.37 658.144 1751.68 703 1689.5 703C1619.64 703 1563 646.364 1563 576.5C1563 506.636 1619.64 450 1689.5 450C1751.68 450 1803.37 494.856 1814 553.972C1824.63 494.856 1876.32 450 1938.5 450C2008.36 450 2065 506.636 2065 576.5C2065 646.364 2008.36 703 1938.5 703C1876.32 703 1824.63 658.144 1814 599.028ZM35.5 481C105.364 481 162 424.364 162 354.5C162 424.364 218.636 481 288.5 481C358.364 481 415 424.364 415 354.5C415 284.636 358.364 228 288.5 228C218.636 228 162 284.636 162 354.5C162 284.636 105.364 228 35.5 228C-34.364 228 -91 284.636 -91 354.5C-91 424.364 -34.364 481 35.5 481ZM1306.5 481C1376.36 481 1433 424.364 1433 354.5C1433 424.364 1489.64 481 1559.5 481C1629.36 481 1686 424.364 1686 354.5C1686 284.636 1629.36 228 1559.5 228C1489.64 228 1433 284.636 1433 354.5C1433 284.636 1376.36 228 1306.5 228C1236.64 228 1180 284.636 1180 354.5C1180 424.364 1236.64 481 1306.5 481ZM1815.5 481C1877.68 481 1929.37 436.144 1940 377.028C1950.63 436.144 2002.32 481 2064.5 481C2134.36 481 2191 424.364 2191 354.5C2191 284.636 2134.36 228 2064.5 228C2002.32 228 1950.63 272.856 1940 331.972C1929.37 272.856 1877.68 228 1815.5 228C1745.64 228 1689 284.636 1689 354.5C1689 424.364 1745.64 481 1815.5 481ZM37 126.5C37 196.364 -19.636 253 -89.5 253C-159.364 253 -216 196.364 -216 126.5C-216 56.636 -159.364 0 -89.5 0C-19.636 0 37 56.636 37 126.5ZM37 126.5C37 56.636 93.636 0 163.5 0C233.364 0 290 56.636 290 126.5C290 196.364 233.364 253 163.5 253C93.636 253 37 196.364 37 126.5ZM1308 126.5C1308 196.364 1251.36 253 1181.5 253C1111.64 253 1055 196.364 1055 126.5C1055 56.636 1111.64 0 1181.5 0C1251.36 0 1308 56.636 1308 126.5ZM1308 126.5C1308 56.636 1364.64 0 1434.5 0C1504.36 0 1561 56.636 1561 126.5C1561 196.364 1504.36 253 1434.5 253C1364.64 253 1308 196.364 1308 126.5ZM1815 149.028C1804.37 208.144 1752.68 253 1690.5 253C1620.64 253 1564 196.364 1564 126.5C1564 56.636 1620.64 0 1690.5 0C1752.68 0 1804.37 44.856 1815 103.972C1825.63 44.856 1877.32 0 1939.5 0C2009.36 0 2066 56.636 2066 126.5C2066 196.364 2009.36 253 1939.5 253C1877.32 253 1825.63 208.144 1815 149.028Z" fill="#A3320B"/>
</svg>
