<svg width="720" height="546" viewBox="0 0 720 546" fill="none" xmlns="http://www.w3.org/2000/svg">
<path fill-rule="evenodd" clip-rule="evenodd" d="M288 288C367.529 288 432 223.529 432 144C432 223.529 496.471 288 576 288C655.529 288 720 223.529 720 144C720 64.471 655.529 0 576 0C496.471 0 432 64.471 432 144C432 64.471 367.529 0 288 0C208.471 0 144 64.471 144 144C144 223.529 208.471 288 288 288ZM576 402C576 481.529 511.529 546 432 546C352.471 546 288 481.529 288 402C288 322.471 352.471 258 432 258C511.529 258 576 322.471 576 402ZM288 402C288 322.471 223.529 258 144 258C64.471 258 0 322.471 0 402C0 481.529 64.471 546 144 546C223.529 546 288 481.529 288 402Z" fill="#A3320B"/>
<path fill-rule="evenodd" clip-rule="evenodd" d="M288 288C367.529 288 432 223.529 432 144C432 223.529 496.471 288 576 288C655.529 288 720 223.529 720 144C720 64.471 655.529 0 576 0C496.471 0 432 64.471 432 144C432 64.471 367.529 0 288 0C208.471 0 144 64.471 144 144C144 223.529 208.471 288 288 288ZM576 402C576 481.529 511.529 546 432 546C352.471 546 288 481.529 288 402C288 322.471 352.471 258 432 258C511.529 258 576 322.471 576 402ZM288 402C288 322.471 223.529 258 144 258C64.471 258 0 322.471 0 402C0 481.529 64.471 546 144 546C223.529 546 288 481.529 288 402Z" fill="#A3320B"/>
</svg>
