<svg width="277" height="205" viewBox="0 0 277 205" fill="none" xmlns="http://www.w3.org/2000/svg">
<path d="M187.872 53.952C191.009 63.4753 188.929 76.7407 188.139 86.4336C187.275 97.0875 183.491 115.877 187.139 128.044C185.208 123.19 184.418 116.868 183.792 112.128C182.346 101.159 184.565 90.7463 184.847 79.9636C184.858 79.6111 184.528 79.5365 184.475 79.8661C182.308 92.6868 181.292 105.512 183.818 118.687C184.439 121.927 185.426 126.666 187.109 130.199C179.008 120.615 175.97 103.313 176.021 88.7506C176.093 88.631 176.146 88.4725 176.1 88.2907C176.078 88.1854 176.043 88.0931 176.019 87.9903C176.022 87.3153 176.049 86.6575 176.07 85.9977C176.271 85.9679 176.397 85.6021 176.195 85.387C176.158 85.342 176.129 85.2804 176.09 85.2358C176.136 84.03 176.198 82.842 176.286 81.6995C176.512 78.7715 184.999 45.2401 187.871 53.9521L187.872 53.952ZM206.173 70.6054C212.622 65.8376 208.471 77.3986 207.136 81.6066C205.247 87.5629 202.051 92.7543 199.024 97.5503C195.294 103.457 187.843 111.74 187.169 121.11C186.98 119.005 186.941 116.801 186.978 114.577C188.202 107.992 190.429 102.831 193.734 97.7078C196.676 93.1465 200.664 89.4293 202.826 83.982C202.967 83.6386 202.61 83.2952 202.408 83.5008C198.114 87.8115 194.206 94.0886 190.81 99.7657C189.4 102.128 188.189 104.744 187.346 107.575C187.778 102.343 188.465 97.3029 188.853 93.2958C188.939 93.2724 189.027 93.2204 189.082 93.0905C193.403 82.9588 198.754 76.0984 206.173 70.6054L206.173 70.6054ZM189.342 133.642C182.616 131.925 176.225 119.619 172.85 112.317C168.171 102.198 164.106 92.1235 158.918 82.3603C157.03 78.8076 154.676 75.711 152.579 72.4048C146.991 63.5965 153.882 66.9376 157.777 68.954C164.557 72.4604 170.274 78.4931 174.512 86.7062C174.391 90.4292 174.468 94.1869 174.754 97.9193C175.018 101.404 175.645 105.295 176.591 109.219C175.591 106.224 174.602 103.256 173.517 100.483C170.26 92.1542 166.43 83.7294 160.453 78.9307C160.258 78.7745 160.124 79.1649 160.273 79.365C167.531 88.7727 172.414 99.6545 176.695 112.051C178.953 118.588 181.039 126.778 185.92 130.256C186.997 131.571 188.133 132.727 189.342 133.642L189.342 133.642ZM211.231 134.614C212.205 135.595 213.279 136.401 214.375 137.144C212.83 136.441 211.317 135.608 209.869 134.704C207.523 133.237 205.286 131.246 203.559 128.491C202.048 126.074 201.027 119.152 204.481 119.435C208.039 119.728 211.92 125.385 214.424 128.646C216.536 131.398 218.396 134.406 220.24 137.475C218.684 135.955 217.132 134.436 215.481 133.116C215.213 132.901 215.021 133.139 214.97 133.456C214.873 133.411 214.776 133.352 214.676 133.31C214.331 133.166 214.187 133.854 214.429 134.146C215.699 135.703 217.201 137.078 218.723 138.356C217.755 137.874 216.792 137.123 216.007 136.604C214.525 135.617 213.073 134.295 211.483 133.764C211.152 133.651 210.947 134.327 211.231 134.614L211.231 134.614ZM209.005 142.626C208.884 142.549 208.749 142.534 208.603 142.642C207.468 143.482 206.429 144.538 205.327 145.454C204.99 145.734 205.072 146.284 205.31 146.61C204.9 147.003 204.488 147.398 204.093 147.817C203.677 148.26 204.165 149.183 204.597 148.779C205.451 147.973 206.379 147.289 207.24 146.503C204.077 153.664 200.807 161.308 194.566 162.254C190.574 162.861 190.666 157.717 191.795 154.368C192.636 151.871 194.13 150.364 195.666 148.807C199.558 144.874 203.716 142.864 207.981 140.375C208.64 140.489 209.299 140.6 209.96 140.716C209.633 141.33 209.319 141.972 209.005 142.626L209.005 142.626ZM144.304 161.722C138.313 160.59 145.595 150.627 146.605 149.264C149.073 145.965 152.056 143.465 155.074 141.288C158.708 138.668 162.685 137.047 166.532 135.063C163.479 137.115 160.388 140.245 159.48 144.33C159.339 144.963 159.644 145.536 160.114 145.543C160.389 145.541 160.648 145.455 160.908 145.407C160.781 145.901 161.187 146.54 161.572 146.168C162.06 145.699 162.508 145.168 162.965 144.646C165.66 142.95 167.845 139.195 169.789 136.456C170.209 135.863 169.484 134.811 169.035 135.338C167.207 137.476 165.529 139.859 163.745 142.072C162.921 142.85 162.022 143.418 161.036 143.676C162.81 138.915 167.409 137.135 170.215 133.953C170.488 133.644 170.234 133.031 169.902 133.183C169.87 133.195 169.841 133.209 169.809 133.226C170.415 132.849 171.016 132.461 171.603 132.041C166.134 146.159 157.304 164.168 144.304 161.722L144.304 161.722ZM135.196 133.124C130.084 138.331 124.718 142.907 119.976 148.799C115.081 154.88 110.163 160.738 103.81 163.793C101.759 164.779 99.471 165.156 97.3182 165.62C96.9489 165.698 86.9664 165.829 88.3144 163.959C93.345 156.961 97.549 149.492 103.465 143.777C109.564 137.881 117.115 136.03 124.179 133.351C128.581 131.679 132.893 129.674 137.231 127.774C133.073 130.312 129.172 133.623 125.134 136.612C118.388 141.597 111.018 145.659 105.309 152.862C105.137 153.077 105.338 153.456 105.537 153.287C111.406 148.166 117.57 143.832 123.646 139.204C129.525 134.729 135.164 129.536 141.528 126.521C139.144 128.664 136.91 131.384 135.196 133.124L135.196 133.124ZM124.874 152.145C127.477 148.168 130.323 144.707 133.108 140.996C129.393 147.774 125.813 155.59 123.637 163.127C122.646 166.562 120.376 191.77 122.717 193.893C115.109 186.981 113.927 166.528 116.755 156.211C117.038 155.85 117.319 155.491 117.6 155.149C117.734 154.982 117.695 154.738 117.592 154.593C122.166 149.232 126.441 143.369 131.438 138.629C133.739 136.445 136.983 132.367 140.322 129.161C137.052 132.573 134.741 137.181 131.77 141.073C129.186 144.449 126.047 147.156 124.462 151.775C124.339 152.131 124.701 152.405 124.874 152.145L124.874 152.145ZM79.9157 141.358C76.7763 140.372 90.8457 134.164 90.6457 134.232C94.0266 133.141 97.5746 132.708 101.038 132.22C110.792 130.849 120.686 130.323 130.334 128.252C123.404 130.892 116.529 133.796 109.942 137.106C106.968 138.598 104.346 140.642 101.935 143.034C94.4221 144.352 87.4938 143.723 79.9157 141.358ZM98.2071 122.814C95.6451 123.25 92.1427 120.353 94.6204 116.045C95.7818 114.025 97.6862 112.689 99.3811 111.777C103.801 109.394 108.929 110.698 113.612 109.988C113.837 110.094 114.06 110.201 114.285 110.307C110.883 116.857 103.583 121.894 98.2071 122.814L98.2071 122.814ZM112.406 106.896C108.217 101.737 104.784 95.9269 103.327 88.1783C102.624 84.4185 101.966 77.6662 105.581 76.8669C107.462 76.4498 108.92 80.1756 109.657 82.07C112.33 88.9604 113.037 96.6048 113.801 104.133C113.685 103.859 113.558 103.589 113.435 103.32C112.228 99.3088 111.344 95.0805 109.684 91.432C109.537 91.1105 109.149 91.3136 109.209 91.6798C109.633 94.2539 110.262 96.8504 111.002 99.4026C110.91 99.3026 110.829 99.1806 110.731 99.0883C110.089 98.4484 109.422 99.3951 109.818 100.318C110.765 102.517 112.163 104.565 112.685 107.027C112.595 106.984 112.501 106.941 112.406 106.896L112.406 106.896ZM94.643 101.557C94.5435 101.434 94.4271 101.35 94.2802 101.392C93.516 101.607 91.7916 102.176 91.2411 103.418C90.3979 103.93 89.5613 104.44 88.7492 105.032C88.4053 105.289 88.6229 106.106 88.9992 105.88C90.3807 105.036 91.862 104.492 93.251 103.659C89.5264 108.891 84.5128 113.102 79.3705 113.843C76.7261 114.225 73.1601 110.649 75.9238 107.094C77.1038 105.579 78.6352 104.535 80.1063 103.683C83.4084 101.782 86.9053 101.488 90.4069 101.082C88.2037 102.567 86.0513 104.279 83.7375 105.278C83.2759 105.479 83.5797 106.464 84.0378 106.281C87.3652 104.95 90.6878 102.814 93.8138 100.572C94.1857 100.506 94.5592 100.439 94.928 100.354C95.0427 100.414 95.1548 100.484 95.2681 100.549C95.0742 100.892 94.8491 101.22 94.643 101.557ZM92.1395 96.1717C87.4697 89.8308 80.6039 70.9174 86.7263 67.4862C92.1609 64.4402 94.2348 82.1329 95.0424 92.5828C94.5374 90.2762 93.6095 88.0234 92.4194 86.5938C91.9971 86.0891 91.3914 86.5869 91.4588 87.3159C91.698 89.8115 92.4979 92.0694 93.2625 94.3465C93.611 95.3915 93.8786 96.4474 94.2998 97.3965C93.5797 96.9882 92.8614 96.5822 92.1395 96.1717L92.1395 96.1717ZM76.1848 90.1403C76.096 90.0687 76.0045 90.0068 75.8856 90.0231C75.009 90.1852 74.2784 90.6426 73.6106 91.2877C73.1766 91.5229 72.7459 91.7578 72.3188 92.0185C72.0701 92.1683 72.0751 92.8237 72.4022 92.8509C72.4341 92.8525 72.4695 92.8358 72.5029 92.8372C72.5084 93.3239 72.935 93.7974 73.2891 93.6301C73.7205 93.426 74.1165 93.151 74.4784 92.8239C71.222 97.1765 66.2668 100.516 62.1512 100.025C56.3926 99.3372 62.088 92.8759 64.0284 91.6844C68.1574 89.1446 72.1917 89.8363 76.5409 89.4561C76.4317 89.6855 76.3072 89.9112 76.1847 90.1415L76.1848 90.1403ZM74.3615 85.4707C71.3987 81.0141 69.0204 75.4127 67.4471 69.8685C66.3941 66.1545 65.8999 61.4592 68.3057 58.873C69.9948 57.0567 71.5603 61.5608 72.1216 63.1645C74.2796 69.3102 74.8779 75.8889 75.7884 82.3843C75.3724 81.8744 74.8678 81.4924 74.3183 81.3301C73.8283 81.1823 73.5272 81.9989 73.8132 82.5544C74.1876 83.2837 74.4727 84.0888 74.7209 84.9133C74.7995 85.1782 74.9089 85.5167 74.9987 85.8639C74.7852 85.7329 74.5734 85.6017 74.3615 85.4706L74.3615 85.4707ZM59.6162 79.4632C59.5591 79.4365 59.4957 79.4132 59.3846 79.3788C59.2461 79.3349 59.1917 79.5385 59.2297 79.6876C58.7536 80.0044 58.3101 80.3995 57.9034 80.8821C56.7876 81.559 55.6664 82.2079 54.5689 82.9287C54.0797 83.2488 54.3984 84.384 54.911 84.0858C55.7892 83.5743 56.681 83.1306 57.5779 82.689C57.7503 82.8065 57.9577 82.8358 58.1341 82.699C58.5749 82.3564 59.0267 82.0486 59.4741 81.7269C59.7208 81.594 59.9631 81.4471 60.2144 81.3091C56.7303 87.2425 48.9391 90.4878 44.0263 90.74C41.0256 90.8911 39.7209 87.4838 41.9987 84.6199C43.2254 83.0814 44.7829 82.0309 46.2747 81.1018C50.637 78.3635 55.2766 79.249 59.9402 79.2724C59.829 79.3234 59.7263 79.398 59.6162 79.4635L59.6162 79.4632ZM60.7665 75.2029C60.4513 74.5712 60.164 73.8899 59.8951 73.2095C59.6449 72.5776 59.4081 71.9233 59.202 71.2571C60.0178 72.4588 60.5571 74.1663 61.233 75.5022C61.288 75.7641 61.3378 76.0217 61.396 76.281C61.1421 76.1008 60.9083 75.4867 60.7665 75.2029L60.7665 75.2029ZM55.996 72.802C53.4899 68.2773 52.2953 61.4899 52.0038 56.6104C51.8973 54.7605 51.9433 49.6485 54.0977 51.7124C55.7664 53.3146 56.7715 56.4905 57.6297 58.9221C59.0135 62.8389 59.6856 66.9599 60.4029 71.0821C59.8517 70.0907 59.1904 69.274 58.4153 68.8652C57.988 68.6436 57.6459 69.1212 57.7756 69.7267C58.1413 71.3668 58.7449 72.8912 59.3984 74.3476C59.6292 74.8574 59.8931 75.3861 60.1997 75.8403C58.7952 74.8357 57.3922 73.8286 55.996 72.802ZM42.3055 70.1616C42.4668 70.1115 42.6239 70.0494 42.7833 69.9968C43.4971 69.9092 44.1891 69.7324 44.7995 69.3388C41.1233 74.6359 26.8361 80.1125 26.8616 72.683C26.8735 67.911 33.9104 67.2777 36.1888 66.9941C38.752 66.684 41.3382 66.826 43.893 67.474C42.6403 67.5174 41.4533 68.0479 40.365 68.9533C40.1737 69.1129 40.1553 69.3947 40.2273 69.6387C39.9691 69.7962 40.0095 70.4109 40.3308 70.5099C40.9707 70.6986 41.7023 70.3625 42.3057 70.1616L42.3055 70.1616ZM45.3043 64.6431C41.2266 59.5447 37.616 52.4646 38.2192 45.086C38.5875 40.5029 41.2097 42.2935 42.5908 44.7371C43.5959 46.516 44.2126 48.7783 44.8213 50.8488C45.976 54.8022 46.5127 58.8099 46.938 62.9094C46.3697 61.9549 45.7262 61.087 44.9466 60.4243C44.5288 60.0642 44.1361 60.883 44.41 61.3896C45.1414 62.7308 45.8863 64.0091 46.4036 65.5164C46.0361 65.2261 45.672 64.9356 45.3043 64.6429L45.3043 64.6431ZM31.8831 57.8477C31.353 58.0261 30.8337 58.2796 30.3155 58.4832C29.2423 58.9098 28.0898 59.1714 27.0946 59.8772C26.7197 60.1435 26.8526 60.9435 27.3031 60.9233C28.1445 60.8901 28.9298 60.6468 29.6835 60.2732C29.9093 60.1939 30.1406 60.1218 30.3651 60.0476C30.8858 59.877 31.4251 59.7313 31.9306 59.493C30.1308 60.9969 27.4164 62.231 26.6709 62.6017C24.2544 63.8272 19.6541 66.3769 17.4623 62.8855C15.8401 60.3008 23.3804 58.289 24.1063 58.1194C26.4555 57.5619 29.4023 56.9682 31.8831 57.8477L31.8831 57.8477ZM27.4186 35.3291C29.185 29.1802 31.6799 39.9264 31.9682 42.0167C32.2424 43.944 32.2483 45.8516 32.2138 47.7574C32.2039 47.7394 32.1923 47.7166 32.1797 47.7008C31.7813 47.0707 31.0021 47.3513 31.0912 48.2759C31.2277 49.6222 31.2984 51.1826 31.5166 52.6818C28.9099 47.3854 25.6948 41.3324 27.4189 35.3293L27.4186 35.3291ZM22.7471 49.6387C21.7915 49.771 20.8354 50.0272 19.9468 50.1855C19.5609 50.2649 19.6408 51.0905 20.0351 51.0555C20.5832 51.0036 21.171 50.9902 21.7634 50.9732C21.7507 50.9802 21.7346 50.9854 21.7215 50.9931C19.3666 51.9122 17.0546 52.9991 14.5629 53.1113C13.145 53.1746 9.51495 50.658 12.3387 49.109C13.4772 48.4897 14.7806 48.5207 15.9922 48.4209C18.4003 48.2199 20.5532 48.8252 22.747 49.6387L22.7471 49.6387ZM20.9127 43.7985C19.7879 41.5227 18.6315 39.2921 17.8847 36.7023C17.3045 34.6771 17.3085 32.6144 17.871 30.68C18.1636 29.6859 18.7559 28.0961 19.6051 29.1028C20.8563 30.6109 21.2485 33.9501 21.4947 36.0341C21.647 37.3056 21.6359 38.5348 21.5898 39.7644C21.3614 39.3946 21.1204 39.0352 20.893 38.7009C20.4316 38.0329 19.7857 38.8997 19.9823 39.6379C20.36 41.0655 21.0924 42.6371 21.3461 44.1882C21.2024 44.0543 21.0543 43.9278 20.9127 43.7985L20.9127 43.7985ZM9.75368 40.52C10.3856 40.8661 11.0381 41.1536 11.7013 41.407C11.3219 41.4193 10.9338 41.447 10.5706 41.4315C8.90386 41.3595 7.24838 41.1296 5.60924 40.5683C4.2124 40.1002 1.00839 36.3725 3.42205 34.8264C5.49234 33.5014 9.38522 36.9459 11.2181 38.3169C11.9667 38.8798 12.6953 39.487 13.42 40.1087C12.2119 39.8613 11.004 39.6829 9.82229 39.7162C9.53213 39.7169 9.47516 40.3677 9.75364 40.5199L9.75368 40.52ZM8.24054 30.376C7.49942 29.1258 6.70907 27.668 6.4681 26.0659C6.27801 24.8022 6.89796 23.8138 7.66784 24.6768C9.34407 26.5516 10.1246 29.386 10.9419 32.1557C10.5052 31.4169 9.99975 30.719 9.35966 30.528C9.18233 30.4774 9.07799 30.7705 9.1768 30.972C9.6371 31.8872 10.1118 32.7942 10.5647 33.7219C9.7446 32.6821 8.9572 31.5899 8.24054 30.3759L8.24054 30.376ZM132.85 102.429C130.524 97.8975 128.71 93.0512 127.759 87.6757C127.358 85.3969 127.369 83.0153 127.509 80.7306C127.793 76.1968 130.998 80.6966 131.674 81.5977C135.059 86.1218 137.397 92.0233 138.926 98.0888C139.893 101.942 140.44 106.125 141.1 110.254C140.185 108.267 139.143 106.369 138.035 104.644C137.601 103.964 136.836 104.469 137.072 105.373C138.353 110.234 140.27 114.614 142.364 118.864C138.546 114.441 135.606 107.797 132.85 102.429L132.85 102.429ZM178.677 41.8127C178.411 42.1134 178.189 42.4345 177.961 42.7633C177.758 42.6909 177.556 42.6231 177.354 42.5554C176.249 42.1671 175.848 43.9941 176.397 45.038C176.362 45.1356 176.325 45.2193 176.293 45.3809C176.127 45.788 176.151 46.1854 176.274 46.5324C175.566 49.1835 175.433 52.2161 175.363 55.2913C175.202 62.5197 175.368 69.773 175.388 77.0184C175.111 78.9737 174.878 80.9447 174.732 82.9398C174.499 82.4064 174.289 81.8332 174.089 81.2307C173.738 76.1349 172.82 71.0181 171.838 66.075C171.263 63.1893 170.39 60.3787 169.652 57.5577C169.489 56.9334 169.154 55.1793 168.845 53.4447C169.133 53.9549 169.457 54.4648 169.874 55.0149C170.248 55.4996 170.91 55.0165 170.798 54.317C170.682 53.5869 170.522 52.9077 170.367 52.2139C170.455 52.0551 170.527 51.8666 170.57 51.6234C170.806 50.2534 169.814 49.0177 169.315 47.9913C169.215 47.7947 169.105 47.6439 168.988 47.5293C168.74 47.1396 168.461 46.7498 168.137 46.3422C167.908 46.0603 167.506 46.0103 167.28 46.2865C165.527 48.4166 167.847 55.5265 168.499 58.171C169.693 63.01 170.999 67.926 172.007 72.9123C171.753 71.8767 171.488 70.9038 171.187 70.0596C168.81 63.4126 165.559 57.6213 162.102 52.0145C161.723 51.3971 160.994 51.6953 160.95 52.364C160.064 51.7356 159.083 53.4644 159.711 54.7469C160.664 56.6984 161.356 58.178 162.602 59.7483C163.054 60.3173 163.649 59.9131 163.792 59.2534C164.203 59.5024 164.588 59.2851 164.823 58.8586C167.67 63.7968 170.188 69.4517 171.638 75.041C172.047 76.6135 172.392 78.5616 172.874 80.409C167.196 70.8044 156.467 64.8058 148.878 63.887C148.361 63.8243 147.998 64.4176 148.184 65.1495C150.031 72.5474 154.537 77.3635 158.051 83.2464C162.646 90.9402 166.341 99.3825 169.936 107.965C168.317 106.464 166.656 105.073 164.949 103.775C162.236 101.711 159.732 99.2013 157.072 97.0264C156.866 96.8592 156.644 97.2635 156.799 97.5106C160.335 103.199 166.223 105.431 170.608 109.544C170.671 109.703 170.739 109.86 170.805 110.014C171.509 111.709 172.462 113.876 173.591 116.214C169.092 111.207 163.263 107.853 158.774 103.114C154.704 98.8209 150.579 93.9114 148.467 87.2584C147.222 83.3334 155.087 87.9687 155.881 88.4568C158.703 90.1893 161.032 93.0549 163.547 95.4999C163.787 95.7358 164.112 95.3662 163.91 95.0112C160.056 88.0614 153.339 84.0821 147.411 83.1288C146.95 83.0525 146.587 83.5221 146.635 84.1933C148.066 102.812 166.139 109.625 175.235 119.476C177.921 124.584 181.276 129.873 184.751 132.624C175.646 130.405 166.585 127.881 157.596 125.029C153.357 123.68 149.138 122.211 144.924 120.673C143.18 110.043 141.368 97.7524 137.142 88.6284C135.989 86.1386 130.813 74.8942 127.85 77.0906C123.516 80.3161 127.7 93.7558 129.464 97.9358C132.185 104.376 136.026 113.632 140.834 119.128C132.355 115.911 123.929 112.359 115.585 108.397C115.474 108.147 115.371 107.886 115.261 107.626C115.759 102.341 114.101 95.4708 113.131 90.5696C112.155 85.645 110.545 77.5898 106.671 75.529C102.402 73.2538 101.566 81.5247 101.867 85.4435C102.51 93.7367 106.178 100.423 110.469 105.942C105.797 103.629 101.145 101.212 96.5283 98.6635C97.1654 91.009 93.3329 57.5194 84.7118 67.1199C80.7369 71.544 85.3816 87.346 90.0312 94.9715C85.8848 92.5728 81.7555 90.1158 77.6611 87.5255C77.8864 82.4021 76.2564 75.9641 75.3466 71.3101C74.5095 67.0164 73.2535 59.1004 69.8658 57.1142C66.1477 54.9298 65.3054 63.5861 65.6717 66.7182C66.4048 72.9445 69.3517 79.3078 72.5564 84.2877C69.0515 81.9896 65.561 79.6406 62.0953 77.2017C62.103 77.1728 62.1185 77.1596 62.1196 77.1308C62.5478 69.4923 59.9661 60.4256 57.0838 53.8814C55.6807 50.6931 52.3604 46.7747 51.0375 51.7872C49.669 56.9672 51.6597 64.3708 53.2617 69.1999C53.4891 69.8835 53.7609 70.623 54.0685 71.3741C52.2576 70.0276 50.4525 68.6711 48.6532 67.2809C48.5117 66.674 48.3573 66.0727 48.157 65.5036C48.5888 58.915 46.6161 51.3984 44.4228 45.5761C43.5913 43.3634 40.8123 38.3439 38.6895 40.3786C35.7806 43.1696 36.9641 50.0291 38.1946 53.9695C39.1131 56.9073 40.4911 59.6366 42.0998 62.0892C39.0865 59.6561 36.0817 57.1796 33.1095 54.6293C33.1422 54.5743 33.1897 54.5449 33.2092 54.472C33.326 54.014 33.4111 53.5347 33.4995 53.0551C33.5038 53.0692 33.5101 53.0825 33.5224 53.0957C33.7069 53.4571 34.1465 53.2524 34.0822 52.8035C34.0081 52.2484 33.8898 51.7276 33.7509 51.2202C34.1845 46.9458 33.6724 42.038 32.8007 38.0986C32.162 35.2012 30.4912 30.3654 27.9235 31.2057C25.2206 32.0896 25.5562 39.1803 26.0731 41.9041C26.7439 45.462 28.2579 48.8794 29.9723 51.9512C27.3606 49.6656 24.7702 47.3309 22.1987 44.959C22.2266 44.5174 22.223 44.078 22.1813 43.6417C22.3898 43.9037 22.7924 43.8895 22.7988 43.4067C22.8051 43.007 22.7406 42.6223 22.657 42.2509C23.4881 39.9895 22.9825 36.3881 22.6154 34.0971C22.2047 31.541 21.3709 27.6605 19.3307 26.8281C17.1924 25.9557 16.1107 31.3299 16.1709 33.3165C16.2572 36.211 17.1271 38.9269 18.3211 41.3874C18.0046 41.0885 17.6827 40.8042 17.3628 40.5032C17.3971 40.2985 17.3477 40.0648 17.1839 39.9537C16.8683 39.7307 16.5482 39.6008 16.2273 39.44C16.173 39.3848 16.1107 39.3324 16.0529 39.2751C15.9611 39.187 15.8705 39.1798 15.7888 39.2027C15.3735 39.0278 14.9477 38.8916 14.5157 38.7607C14.0687 38.3672 13.5969 37.9994 13.116 37.6441C13.343 37.6248 13.4653 37.261 13.3958 36.9622L13.3642 36.7912C13.3464 36.6881 13.2938 36.5899 13.2283 36.5188C13.0272 34.0013 11.7439 31.1983 10.9315 29.0816C10.2758 27.3782 8.71053 22.6366 6.93992 22.886C4.71418 23.2036 5.65959 27.4082 6.38709 29.1346C7.23264 31.1395 8.47834 32.8809 9.68819 34.4587C10.1887 35.1142 10.7688 35.8516 11.3887 36.4766C10.5535 35.9369 9.7449 35.4618 9.07273 35.0475C7.42063 34.0334 3.29187 31.4955 2.07828 34.5133C-1.3937 43.1568 12.1676 43.519 16.6373 42.8611C16.925 42.9364 17.2159 43.0117 17.4942 43.095C17.8641 43.1997 18.1103 42.929 18.2168 42.555C18.7352 43.0737 19.2633 43.5679 19.7896 44.0813C20.348 44.9914 20.9347 45.8589 21.5167 46.665C21.7705 47.0162 22.0492 46.6263 22.0146 46.2396C22.3586 46.5721 22.6991 46.9025 23.0433 47.2373C20.4288 46.1138 17.3972 46.2103 14.9755 46.4739C13.1837 46.6636 9.33228 47.3594 9.83322 51.0301C10.3728 54.9878 14.7883 54.9732 16.6919 54.6303C18.3633 54.3266 19.9836 53.5945 21.5823 52.9304C22.8611 52.4001 24.6813 52.1659 25.7417 51.0275C25.8009 50.9731 25.8027 50.8873 25.8067 50.8086C25.8875 50.8402 25.965 50.8724 26.0506 50.9016C26.2827 50.9908 26.4463 50.8188 26.5104 50.5671C28.4421 52.3796 30.3952 54.1453 32.352 55.894C32.4353 56.0232 32.5226 56.1614 32.606 56.2928C32.612 56.3024 32.6185 56.3019 32.6254 56.3058C32.6366 56.3217 32.6465 56.3399 32.6545 56.358C28.672 54.9257 12.7549 57.4762 16.8368 64.1116C19.9467 69.1604 33.7804 62.6397 34.2956 57.6439C37.2736 60.2697 40.2826 62.8006 43.3052 65.2899C36.9729 63.5123 24.1115 65.7364 26.0456 74.0353C27.3797 79.7451 33.0637 77.6922 35.9617 76.7435C38.5331 75.9076 46.2217 73.1312 46.3345 68.0639C46.3356 67.9046 46.2839 67.7732 46.2122 67.6646C46.2121 67.6626 46.2151 67.6583 46.2151 67.6583C49.4747 70.2817 52.7717 72.8047 56.078 75.2748C56.5094 75.9214 56.9696 76.5087 57.4616 76.9866C52.6724 76.4786 47.7282 77.4532 43.7132 80.7422C40.9165 83.0376 37.0357 87.5139 41.0802 91.6097C44.1385 94.7189 49.9793 91.2926 52.7985 89.7487C55.7312 88.1415 61.5281 84.8611 61.9859 79.594C65.7561 82.2852 69.5606 84.8787 73.3917 87.3847C69.4163 87.1138 65.1163 88.683 62.004 91.1474C60.1433 92.618 56.9606 96.1903 58.8044 99.6893C60.9354 103.737 66.0589 101.399 68.4706 100.045C71.7764 98.191 75.941 94.8525 77.2423 89.863C82.2774 93.0634 87.3694 96.0693 92.4858 98.9593C87.1819 98.8517 81.5653 100.239 77.1371 103.795C74.2885 106.087 71.5214 110.404 75.2035 114.103C78.6163 117.529 83.7424 114.31 86.7636 112.159C90.0932 109.787 94.3022 105.982 95.9689 100.95C100.431 103.403 104.927 105.737 109.442 107.97C104.759 107.888 99.7902 109.041 96.2028 112.055C93.039 114.718 90.7387 119.665 94.6568 123.483C97.8564 126.607 103.088 122.933 105.862 121.02C108.933 118.908 113.082 115.677 115.023 111.195C115.481 111.953 116.011 112.538 116.645 112.617C116.857 112.644 117.013 112.444 116.996 112.134C116.985 111.924 116.938 111.716 116.892 111.515C125.765 115.65 134.734 119.389 143.769 122.758C130.779 128.408 117.087 128.783 103.435 129.961C93.735 130.795 84.2035 132.156 76.4498 140.536C75.9261 141.103 76.1651 142.287 76.8247 142.493C83.7945 144.602 90.823 146.869 97.6847 145.645C95.5344 146.492 93.3176 147.013 91.0862 147.518C89.7075 147.833 88.3359 148.152 86.9658 148.513C86.4814 148.657 85.9992 148.808 85.5178 148.968C84.7446 148.89 84.2291 149.238 83.9567 149.972C83.9157 149.937 83.8947 149.881 83.8421 149.869C83.7132 149.841 83.6013 149.84 83.4814 149.821C83.8301 149.582 83.7909 149.592 83.3855 149.809C83.1593 149.774 82.9284 149.742 82.718 149.739C80.601 148.316 78.6265 148.648 76.5251 149.806C75.526 150.351 75.7359 152.506 76.8235 152.792C78.8081 153.312 80.3793 153.268 82.0207 152.398C82.22 152.409 82.446 152.42 82.7409 152.438C83.2739 152.471 83.5112 151.911 83.5142 151.296C83.5526 151.209 83.589 151.119 83.5865 151.019C83.6414 150.996 83.6984 150.978 83.7516 150.954C83.7469 150.985 83.7406 151.007 83.7367 151.043C83.902 151.068 84.0108 150.963 84.0867 150.821C89.1867 148.766 94.6362 148.575 99.5188 145.637C99.3148 145.893 99.1092 146.148 98.898 146.397C93.2008 148.91 88.0562 153.262 82.5595 156.369C80.1666 156.049 78.4111 156.737 76.7527 159.194C75.964 160.374 76.934 162.108 77.914 162.078C80.5019 162.004 82.5501 160.935 84.3952 158.474C84.7555 157.995 84.5849 156.856 83.9604 156.999C83.8574 157.026 83.7569 157.064 83.6566 157.084C83.6215 157.013 83.5781 156.952 83.5345 156.882C87.8892 153.652 92.6771 151.309 97.1903 148.493C93.2299 153.565 89.6613 159.331 85.7675 164.728C85.5127 165.083 85.6204 165.792 85.8952 166.094C90.6397 171.296 99.351 168.871 105.643 165.306C101.594 168.545 97.6417 172.409 94.4049 176.713C94.3273 176.811 94.2807 176.943 94.2533 177.085C94.1889 177.117 94.1289 177.162 94.0669 177.2C94.0666 177.178 94.0698 177.164 94.0713 177.147C94.1532 176.625 93.6246 176.147 93.3417 176.504C93.007 176.926 92.6583 177.295 92.2978 177.641C92.1464 177.624 91.9968 177.631 91.8517 177.718C90.9143 178.241 90.0533 178.782 89.1866 179.487C88.2202 180.265 88.9565 182.869 90.0778 182.503C90.4228 182.391 90.7395 182.258 91.0385 182.111C91.4847 182.602 92.1509 182.699 92.5694 181.999C93.5655 180.324 94.7123 179.421 96.1389 178.642C96.829 178.266 96.6821 176.956 96.0968 176.588C100.606 170.977 106.48 168.026 110.891 162.345C111.046 162.148 110.984 161.765 110.82 161.649C111.965 160.637 113.064 159.548 114.138 158.418C109.644 164.429 105.916 171.664 102.785 179.205C102.602 179.319 102.432 179.491 102.312 179.802C102.289 179.861 102.27 179.922 102.246 179.983C102.119 180.261 102.012 180.586 101.919 180.942C101.591 181.903 101.298 182.881 101.028 183.909C100.831 184.658 101.104 185.535 101.598 185.866C101.908 186.603 102.751 186.864 103.099 186.122C103.195 185.922 103.255 185.744 103.333 185.56C104.94 184.698 106.374 182.692 104.672 180.23C104.527 180.025 104.392 179.862 104.258 179.713C106.169 172.312 110.149 165.312 114.217 159.6C111.239 170.794 116.891 190.741 123.144 196.395C123.607 196.811 124.275 196.494 124.179 195.617C122.52 180.668 123.514 164.335 129.389 152.341C134.677 141.557 138.784 128.674 148.399 124.633C148.468 124.605 148.509 124.544 148.531 124.469C150.426 125.148 152.325 125.835 154.228 126.483C159.222 128.166 164.253 129.729 169.306 131.213C161.131 134.613 153.061 139.643 146.556 147.095C144.624 149.312 138.169 157.756 141.676 161.827C146.392 167.302 154.611 161.341 158.307 157.608C164.515 151.336 168.817 141.598 172.311 132.104C179.378 134.125 186.496 135.907 193.642 137.492L193.644 137.491C193.743 137.555 193.839 137.567 193.928 137.555C197.358 138.315 200.798 139.04 204.241 139.698C196.627 143.279 185.953 153.431 190.681 162.056C193.438 167.091 199.529 161.957 201.74 159.314C205.739 154.536 208.594 147.418 211.184 140.93C242.303 146.175 273.742 146.966 304.051 141.746C305.245 141.541 304.977 138.874 303.775 139.078C277.193 143.535 250.06 143.426 223.007 139.876C222.96 139.631 222.825 139.398 222.6 139.39C222.562 139.392 222.523 139.385 222.479 139.38C221.417 133.811 216.149 128.219 213.194 124.672C210.784 121.777 205.308 115.117 202.168 118.877C198.498 123.258 203.377 130.762 206.046 133.333C208.32 135.523 211.053 137.308 213.897 138.554C206.588 137.39 199.293 135.981 192.022 134.353C190.276 132.569 189.103 130.195 188.313 127.48C186.761 113.939 196.683 104.365 202.021 95.9541C207.107 87.9332 210.493 77.937 211.417 67.0292C211.47 66.4121 211.004 65.8418 210.591 66.0849C202.048 71.0176 193.665 78.2952 189.177 89.9319C190.452 77.1557 192.64 59.4911 186.943 48.3578C186.768 48.0101 186.422 47.8511 186.156 48.0093C182.308 50.1855 179.658 60.4888 177.975 65.5835C177.335 67.5286 176.823 69.5398 176.374 71.5844C176.38 68.0222 176.32 64.4508 176.412 60.901C176.508 57.2013 176.021 51.4481 177.141 47.449C177.495 47.5621 177.868 47.4575 178.113 47.0064C179.125 45.1422 179.106 45.184 179.844 43.1626C180.189 42.2214 179.241 41.1867 178.675 41.8122" fill="#FEBC71"/>
</svg>
