<svg width="686" height="893" viewBox="0 0 686 893" fill="none" xmlns="http://www.w3.org/2000/svg">
<g clip-path="url(#clip0)">
<path d="M213.473 246.902C213.461 247.219 213.597 247.529 213.88 247.705C212.418 247.525 210.995 247.233 209.614 246.835C210.876 246.729 212.182 246.783 213.473 246.902L213.473 246.902ZM215.103 232.459C218.232 234.578 222.257 237.931 222.985 240.846C222.216 240.228 221.459 239.606 220.758 238.956C218.614 236.966 216.631 234.878 215.103 232.459ZM264.485 273.854C260.897 273.309 257.38 272.382 254.328 270.687C255.363 270.522 256.429 270.514 257.505 270.585C257.431 270.894 257.544 271.242 257.943 271.394C260.123 272.237 262.3 273.037 264.485 273.854L264.485 273.854ZM293.914 290.103C287.817 291.097 279.54 291.712 275.035 288.071C276.681 287.55 278.381 287.197 280.121 287.011C280.14 287.246 280.241 287.47 280.524 287.535C284.932 288.652 289.767 288.297 293.914 290.103L293.914 290.103ZM316.5 304.452C315.512 304.406 314.52 304.3 313.508 304.081C310.313 303.394 307.243 302.359 304.364 300.869C306.482 300.687 308.709 300.912 310.91 301.432C312.599 302.816 314.467 303.822 316.5 304.452L316.5 304.452ZM340.021 317.949C340.275 318.119 340.526 318.297 340.779 318.462C337.405 318.094 334.019 317.878 330.637 317.792C334.295 317.614 337.969 317.588 340.021 317.949L340.021 317.949ZM381.676 312.105C380.494 309.916 379.346 307.662 378.631 305.28C378.489 304.791 376.327 298.45 378.808 300.46C380.151 301.553 381.536 302.933 382.884 304.496C382.879 304.527 382.845 304.556 382.848 304.599C382.991 307.941 384.635 311.157 386.04 314.138C387.103 316.386 388.133 319.151 389.49 321.541C386.215 319.079 383.63 315.741 381.676 312.105L381.676 312.105ZM387.885 313.741C386.617 311.406 385.203 308.903 384.366 306.335C385.328 307.577 386.271 308.875 387.116 310.258C387.355 311.426 387.627 312.585 387.885 313.741ZM391.624 315.921C391.602 315.856 391.562 315.779 391.541 315.712C391.555 314.907 391.575 314.088 391.619 313.242C391.821 313.23 392.016 313.144 392.09 312.943C393.794 308.409 393.268 302.889 396.461 299.112C397.012 304.85 394.796 311.018 391.624 315.921L391.624 315.921ZM383.821 289.703C383.434 283.111 381.054 276.585 378.566 270.509C382.418 275.473 384.431 283.519 383.821 289.703ZM387.864 282.562C388.009 280.593 388.467 278.56 389.22 276.579C389.253 276.496 389.281 276.412 389.318 276.328C390.136 274.247 391.268 272.267 392.602 270.499C392.238 274.768 390.694 279.472 387.868 282.564L387.864 282.562ZM393.168 276.728C394.073 273.952 394.493 271.032 394.464 268.341C395.228 267.566 396.043 266.88 396.892 266.279C396.623 270.013 395.232 273.578 393.168 276.728ZM378.578 275.507C379.584 278.349 380.438 281.267 381.025 284.221C379.975 281.363 379.043 278.483 378.578 275.507ZM385.693 261.096C385.696 260.988 385.692 260.885 385.695 260.777C388.937 256.095 389.278 249.033 387.219 243.518C387.633 242.434 388.143 241.397 388.707 240.392C390.311 246.785 390.571 256.447 385.693 261.096L385.693 261.096ZM386.182 247.049C386.752 250.103 386.61 253.402 385.696 256.275C385.697 254.678 385.7 253.076 385.709 251.47C385.714 251.318 385.64 251.204 385.542 251.124C385.668 249.752 385.879 248.386 386.183 247.049L386.182 247.049ZM329.653 233.542C331.482 228.67 329.773 222.777 331.687 217.835C333.292 222.558 332.523 229.315 329.653 233.542ZM329.946 215.484C330.528 213.598 331.356 211.901 332.52 210.517C332.867 211.961 333.152 213.52 333.357 215.152C333.175 214.785 332.996 214.42 332.789 214.08C332.339 213.353 331.134 213.476 330.695 214.118C330.395 214.554 330.189 215.025 329.946 215.484L329.946 215.484ZM317.64 203.684C317.589 197.544 317.063 191.426 318.305 185.425C319.764 190.533 319.846 196.279 318.399 201.45C318.263 201.895 318.128 202.343 317.983 202.794C317.889 203.093 317.752 203.383 317.638 203.683L317.64 203.684ZM321.158 187.194C320.72 185.033 320.102 182.927 319.232 180.974C319.229 180.97 319.222 180.961 319.21 180.949C319.7 180.359 320.274 179.834 320.89 179.346C321.246 181.957 321.324 184.578 321.155 187.191L321.158 187.194ZM294.591 175.172C291.706 172.878 288.616 170.873 285.543 169.124C288.83 170.361 291.884 172.52 294.591 175.172ZM291.316 175.858C294.124 177.905 296.761 180.219 298.968 182.805C296.453 180.464 293.839 178.205 291.316 175.858ZM303.639 170.73C303.508 166.327 302.43 161.608 303.876 157.62C304.485 159.607 304.927 161.871 305.034 164.13C305.005 164.363 304.987 164.597 304.963 164.834C304.677 166.896 304.19 168.831 303.639 170.73L303.639 170.73ZM292.371 140.648C292.827 136.57 292.556 132.454 293.658 128.489C295.156 132.322 294.646 137.228 292.371 140.648ZM285.053 107.053C284.756 105.987 284.295 104.987 283.603 104.107C284.102 102.483 284.791 100.97 285.742 99.6498C285.977 102.224 285.68 104.677 285.053 107.053ZM257.987 82.4315C261.596 84.1569 265.399 88.0559 268.049 92.362C268.109 92.5314 268.164 92.7047 268.214 92.8785C268.194 92.8484 268.173 92.8235 268.155 92.7911C267.99 92.6026 267.78 92.5639 267.574 92.5943C265.933 90.3304 264.352 88.0253 262.632 85.8197C262.147 85.2074 261.313 85.8416 261.557 86.465L261.512 86.484C262.501 88.4871 263.662 90.4297 264.92 92.3208C264.917 92.3282 264.917 92.3282 264.917 92.3282C264.402 91.8636 263.894 91.3821 263.425 90.8656C263.117 90.5393 262.571 90.9569 262.873 91.2978C263.76 92.3046 264.814 93.1508 265.629 94.2246C265.792 94.4262 266.064 94.4162 266.255 94.2875C267.025 95.3827 267.811 96.473 268.61 97.5377C268.921 97.9493 269.379 98.0075 269.774 97.8662C269.845 98.0991 269.909 98.3208 269.987 98.5508C265.408 99.0486 259.393 87.7673 257.987 82.4316L257.987 82.4315ZM273.899 85.2353C274.242 83.7704 274.78 82.3661 275.556 81.1174C275.682 82.8013 275.628 84.5181 275.517 86.2011C275.436 85.8578 275.362 85.5174 275.243 85.1844C275.026 84.5294 274.109 84.668 273.898 85.2353L273.899 85.2353ZM256.255 62.5347C258.022 64.4341 259.536 66.5693 260.827 68.8324C259.129 66.8568 257.342 64.8655 256.255 62.5347ZM268.431 73.972C267.561 68.6798 265.826 62.9726 270.162 59.3509C270.611 61.8413 270.532 64.4678 270.188 66.9471C269.881 69.1409 269.504 71.815 268.431 73.972ZM261.428 51.0281C261.225 50.2244 260.998 49.4391 260.792 48.6427C260.601 47.9281 259.793 47.8749 259.456 48.3357C257.533 44.4574 255.486 40.3954 257.061 36.7072C257.958 34.6121 258.398 36.8103 258.955 38.2024C259.626 39.9032 260.189 41.6484 260.573 43.4346C260.915 45.0615 262.188 49.2737 261.428 51.0281ZM284.722 151.396C281.55 148.767 278.774 145.583 276.728 142.046C277.55 143.044 278.379 144.025 279.228 144.998C281.065 147.129 282.91 149.247 284.722 151.396ZM307.494 207.994C304.267 205.873 300.749 204.137 297.373 202.635C296.77 202.371 296.278 202.561 295.964 202.935C295.726 202.297 295.549 201.655 295.41 201.017C299.766 201.928 303.753 204.6 307.009 207.545C307.116 207.646 307.291 207.802 307.494 207.994L307.494 207.994ZM301.807 207.723C306.277 210.064 310.617 213.026 313.42 217.023C309.561 213.878 305.344 211.206 301.807 207.723ZM328.798 248.796C328.784 248.891 328.792 248.992 328.771 249.085C328.365 248.871 327.959 248.659 327.555 248.441C324.731 246.283 322.019 243.999 319.476 241.524C322.806 243.705 326.038 246.021 328.798 248.795L328.798 248.796ZM339.013 311.823C336.914 306.815 332.837 301.445 332.974 295.909C333.942 300.548 335.685 305.045 338.227 308.983C338.567 309.51 339.286 309.553 339.803 309.279C339.731 310.352 339.483 311.226 339.013 311.823L339.013 311.823ZM336.679 295.59C336.07 294.595 335.42 293.637 334.701 292.719C334.583 291.893 334.485 291.072 334.414 290.239C335.144 291.778 335.928 293.622 336.679 295.59ZM313.309 290.008C312.947 289.226 312.593 288.441 312.26 287.653C311.833 286.615 311.485 285.681 311.231 285.017C310.821 283.804 310.493 282.575 310.32 281.318C312.634 284.928 314.893 289.188 315.293 292.806C314.599 292.296 313.918 291.225 313.309 290.008ZM272.723 269.018C268.796 262.662 262.622 257.827 261.922 249.976C266.223 254.181 273.317 263.364 272.723 269.018ZM246.83 254.813C245.46 252.984 243.47 249.491 243.037 248.818C241.986 247.188 241.018 245.538 240.205 243.818C243.155 247.494 246.786 252.432 246.83 254.813ZM186.425 228.026C186.513 228.075 186.61 228.116 186.698 228.162C186.698 228.162 186.697 228.167 186.698 228.171L186.819 228.227C189.753 229.885 192.899 231.228 196.164 232.172C196.49 232.287 196.822 232.416 197.153 232.519C197.228 232.543 197.3 232.513 197.371 232.504C205.45 237.319 213.925 241.323 222.428 245.437C222.364 245.456 222.302 245.435 222.236 245.487C222.233 245.495 222.228 245.495 222.224 245.494C219.799 244.929 217.314 244.607 215.279 245.4C214.583 245.278 213.972 245.169 213.54 245.129C210.964 244.931 208.175 244.694 205.742 245.727C204.892 246.089 205.006 247.196 205.769 247.568C212.453 250.766 220.847 250.763 227.994 249.422C228.487 249.329 228.788 249.039 228.919 248.693C234.742 251.745 240.313 255.164 245.812 258.694C242.106 257.37 238.271 256.478 234.183 256.326C233.232 256.295 232.764 257.127 233.045 257.858C232.785 258.405 232.862 259.095 233.449 259.548C237.464 262.733 242.78 263.821 247.835 264.221C249.425 264.525 251 264.795 252.515 265.07C253.219 265.197 253.774 264.657 253.952 264.038C254.072 264.096 254.19 264.163 254.316 264.221C257.109 266.052 259.92 267.871 262.741 269.663C258.912 268.403 254.895 267.957 251.19 269.238C250.362 269.521 250.35 270.646 250.969 271.127C257.039 275.827 265.636 276.519 273.012 277.122C273.521 277.167 273.904 276.934 274.13 276.603C278.569 279.26 282.983 281.934 287.408 284.608C282.019 284.028 276.208 284.882 272.298 286.43C271.557 286.723 271.349 287.683 271.832 288.292C277.243 295.193 290.167 293.454 297.628 291.975C298.029 291.895 298.293 291.641 298.467 291.351C302.585 293.883 306.691 296.433 310.788 298.996C310.753 298.985 310.726 298.972 310.698 298.961C310.468 298.858 310.244 298.896 310.038 298.983C306.841 298.396 303.597 298.36 300.662 299.255C299.829 299.509 299.74 300.786 300.439 301.236C304.301 303.746 308.705 305.533 313.25 306.368C316.122 306.894 319.89 307.527 323.008 306.756C327.609 309.718 332.192 312.707 336.753 315.737C330.524 315.242 321.757 316.289 319.9 316.625C319.204 316.75 318.613 317.725 319.226 318.315C324.068 322.998 332.334 322.782 339.621 322.192C341.969 322.398 344.301 322.5 346.629 322.443C348.188 323.502 349.754 324.543 351.299 325.611C370.804 339.172 390.024 353.133 409.06 367.33C413.743 372.943 418.49 378.508 423.374 383.925C450.633 414.16 481.122 444.273 515.814 465.986C516.49 466.405 517.144 465.506 516.54 464.992C483.754 437.238 450.908 410.882 422.516 378.383C421.757 377.524 421.024 376.626 420.274 375.76C423.371 378.096 426.473 380.417 429.562 382.758C455.652 402.581 479.987 424.568 506.088 444.297C507.072 445.037 508.019 443.603 507.175 442.807C477.817 414.963 445.709 389.439 412.723 365.268C405.175 352.631 398.507 339.73 393.911 325.823C394.472 325.453 394.496 324.358 393.731 324.033C393.58 323.968 393.431 323.881 393.277 323.815C393.203 323.575 393.136 323.333 393.06 323.095C393.011 321.64 392.781 320.106 392.387 318.517C392.658 318.159 392.929 317.809 393.192 317.429C399.348 311.934 402.008 300.635 399.779 293.023C399.585 292.374 398.728 292.31 398.265 292.634C392.877 296.422 390.61 303.503 389.825 310.4C388.136 302.126 387.115 293.87 386.519 285.599C386.826 285.704 387.194 285.665 387.453 285.473C388.81 284.438 389.952 283.104 390.903 281.613C395.217 277.136 398.371 271.244 398.4 264.948C398.399 264.474 397.93 263.921 397.405 264.207C396.174 264.883 395.026 265.775 393.944 266.742C393.637 266.606 393.273 266.617 393.021 266.84C389.341 270.151 387.218 275.224 386.173 280.12C385.875 274.381 385.744 268.622 385.708 262.832C392.794 257.858 392.066 245.199 389.763 237.966C389.566 237.346 388.651 237.301 388.305 237.798C387.507 238.946 386.861 240.178 386.277 241.45C386.144 241.215 386.045 240.954 385.907 240.718C385.491 240.046 384.548 240.401 384.265 240.965C381.413 246.769 382.152 253.811 382.531 260.073C382.574 260.662 383.443 260.596 383.529 260.058C383.614 259.501 383.668 258.93 383.723 258.369C383.789 259.037 383.848 259.7 383.951 260.352C383.959 260.391 383.99 260.415 383.997 260.449C383.95 261.165 383.898 261.887 383.855 262.607C383.68 262.849 383.664 263.129 383.807 263.356C383.569 267.534 383.494 271.76 383.548 276.011C382.222 272.49 380.293 269.316 377.924 267.128C377.367 266.613 376.592 267.156 376.472 267.756C374.745 276.436 378.646 284.993 381.851 292.889C382.08 293.456 382.755 293.616 383.26 293.421C383.348 293.627 383.448 293.829 383.541 294.031C383.729 294.445 384.459 294.28 384.344 293.81C384.229 293.401 384.093 292.999 383.969 292.591C384.141 292.634 384.308 292.611 384.46 292.534C384.903 296.99 385.55 301.431 386.318 305.855C383.58 302.086 380.299 299.025 377.047 297.651C376.579 297.454 375.988 297.798 375.949 298.304C375.286 307.357 381.713 320.887 390.731 325.011C393.893 335.72 398.13 346.048 403.538 355.611C383.846 331.035 365.768 305.059 349.97 277.931C346.016 271.124 342.197 264.225 338.497 257.255C338.963 257.165 339.249 256.521 338.766 256.203C338.348 255.937 337.943 255.662 337.528 255.394C334.535 249.705 331.605 243.978 328.771 238.187C328.838 238.138 328.908 238.07 328.983 238.015C329.015 238.603 329.746 239.127 330.257 238.634C337.601 231.592 337.004 216.629 334.316 207.627C334.077 206.837 332.966 206.672 332.383 207.134C325.44 212.659 325.879 224.438 326.431 233.361C322.848 225.93 319.386 218.423 316.042 210.857C316.323 210.889 316.623 210.807 316.789 210.494C316.916 210.255 317.028 209.991 317.149 209.745C317.175 209.719 317.207 209.72 317.227 209.689C319.409 206.504 320.769 202.748 321.41 198.827C323.39 191.759 324.093 184.221 322.853 177.286C322.739 176.649 321.974 176.069 321.331 176.431C310.929 182.224 313.169 198.403 314.964 208.392C310.667 198.579 306.551 188.672 302.633 178.677C304.138 177.224 305.131 175.147 305.812 172.922C307.253 170.235 307.689 166.897 307.488 163.574C307.956 159.23 308.055 154.828 307.347 150.514C307.197 149.625 306.063 149.075 305.343 149.712C298.444 155.715 299.514 166.056 300.951 174.295C297.489 165.336 294.132 156.335 290.937 147.277C291.041 147.293 291.146 147.312 291.274 147.259C295.185 145.6 296.535 139.925 297.01 136.154C297.584 131.563 297.677 126.287 295.401 122.09C295.11 121.557 294.287 121.139 293.769 121.671C288.5 127.06 288.549 137.118 289.881 144.036C290.05 144.911 291.047 145.347 291.769 144.799C291.905 144.696 292.021 144.573 292.157 144.459C291.697 145.115 291.216 145.727 290.672 146.254C290.633 146.292 290.638 146.322 290.613 146.36C287.551 137.641 284.596 128.888 281.754 120.119C286.32 113.466 289.503 104.774 287.734 96.8045C287.552 95.9838 286.542 95.4102 285.824 96.0402C281.156 100.147 280.099 106.748 279.791 112.959C279.769 113.228 279.749 113.492 279.732 113.763C278.079 108.556 276.452 103.351 274.871 98.1334C276.338 96.2977 276.804 93.3003 277.111 91.2267C277.734 87.0748 278.163 82.437 277.391 78.2654C277.257 77.5483 276.248 76.95 275.637 77.5697C273.246 79.9874 271.889 83.123 271.379 86.442C270.511 83.486 269.645 80.5333 268.798 77.5825C268.789 77.0212 268.751 76.454 268.692 75.8699C272.506 71.5736 272.876 62.7774 271.564 57.7698C271.391 57.1099 270.787 56.8906 270.204 57.2318C266.968 59.1497 265.733 62.2211 265.446 65.7238C264.154 61.0833 262.881 56.439 261.64 51.8048C261.714 51.806 261.783 51.7936 261.855 51.7386C264.11 50.0013 262.86 45.5037 262.347 43.1898C261.593 39.8634 260.713 35.9328 258.133 33.5099C257.857 33.2441 257.248 33.2609 256.987 33.5276C252.157 38.4139 255.958 48.1546 259.712 53.5087C260.138 57.9076 260.777 62.2979 261.576 66.6791C259.774 63.6923 257.57 60.9587 254.936 58.7054C254.288 58.1491 253.388 58.8439 253.468 59.582C253.817 63.0002 255.595 65.8765 257.752 68.4877C259.623 70.7589 261.338 73.5903 263.438 75.6523C264.292 79.3427 265.262 83.0149 266.302 86.6812C263.442 83.4049 260.084 80.8313 257.058 79.9534C256.3 79.7265 255.713 80.2422 255.73 81.0032C255.798 84.7333 265.378 104.56 270.666 100.519C270.933 101.305 271.22 102.083 271.494 102.87C271.484 102.954 271.495 103.025 271.487 103.103C271.46 103.42 271.602 103.636 271.802 103.774C273.683 109.153 275.68 114.495 277.734 119.824C276.688 118.542 275.569 117.339 274.54 116.245C271.631 113.148 268.507 109.877 264.63 108.017C263.809 107.622 263.223 108.562 263.423 109.258C265.571 116.769 271.48 123.999 278.715 127.128C279.307 127.391 279.805 127.108 280.044 126.662C280.118 126.845 280.205 127.023 280.259 127.207C280.345 127.468 280.558 127.563 280.785 127.594C283.275 133.892 285.792 140.15 288.247 146.35C284.45 140.729 278.805 135.644 273.117 134.074C272.376 133.868 271.392 134.367 271.592 135.271C273.79 144.963 281.431 153.29 290.09 157.88C291.229 158.491 292.117 156.894 291.478 156.008C290.929 155.266 290.347 154.559 289.783 153.826C289.808 153.704 289.785 153.574 289.685 153.454C285.826 148.565 281.472 144.078 277.544 139.235C276.87 138.411 275.797 138.844 275.472 139.595C275.08 138.725 274.741 137.854 274.45 136.965C281.71 140.018 287.376 148.024 290.76 154.625C290.96 155.032 291.333 155.101 291.637 154.994C292.724 157.816 293.788 160.625 294.818 163.413C296.865 168.949 298.951 174.473 301.063 179.976C296.72 173.481 290.308 167.759 283.114 166.193C282.414 166.039 281.874 166.767 281.941 167.391C282.027 168.162 282.203 168.941 282.421 169.717C282.432 169.809 282.454 169.901 282.496 169.988C284.797 177.747 293.299 185.535 300.987 188.185C301.796 188.788 302.611 189.377 303.427 189.938C303.986 190.334 304.633 189.937 304.759 189.406C307.871 197.27 311.078 205.096 314.396 212.863C309.786 206.012 302.085 199.979 294.291 198.789C293.596 198.685 293.168 199.312 293.187 199.925C293.436 208.826 303.327 218.055 312.463 219.529C313.862 220.38 315.262 221.206 316.637 221.983C317.306 222.357 318.253 221.596 317.647 220.933C317.217 220.46 316.747 220.039 316.294 219.596C316.628 219.47 316.888 219.212 317.027 218.877C320.875 227.66 324.891 236.367 329.113 244.99C325.461 239.2 313.914 234.089 309.683 232.833C308.73 232.556 308.01 233.522 308.563 234.34C312.532 240.189 317.967 245.149 324.037 249C327.292 251.556 330.773 253.805 334.452 255.609C339.298 265.011 344.396 274.297 349.852 283.426C364.81 308.469 381.447 332.796 399.659 355.775C383.504 344.175 367.199 332.881 350.949 321.769C351.08 321.398 350.909 320.915 350.431 320.841C350.093 320.783 349.744 320.746 349.403 320.698C349.22 320.569 349.043 320.452 348.861 320.323C345.626 318.115 342.377 315.935 339.116 313.779C346.472 310.707 336.806 288.876 334.048 285.079C333.509 284.334 332.153 284.677 332.113 285.617C332.033 287.335 332.089 289.059 332.228 290.782C331.837 290.86 331.482 291.092 331.32 291.524C328.668 298.43 332.983 306.291 336.773 312.251C333.177 309.895 329.563 307.562 325.942 305.263C326.074 304.869 325.835 304.371 325.373 304.337C325.064 304.318 324.762 304.342 324.462 304.33C321.389 302.39 318.319 300.457 315.239 298.54C315.304 298.518 315.367 298.445 315.433 298.407C315.47 298.453 315.503 298.513 315.534 298.556C315.817 298.946 316.507 298.667 316.409 298.182C316.346 297.879 316.258 297.581 316.182 297.282C318.902 291.799 314.086 284.023 310.255 278.321C310.308 277.739 310.415 277.157 310.553 276.57C315.788 280.253 320.609 291.036 318.274 296.773C317.928 297.609 319.168 298.054 319.564 297.272C323.07 290.395 316.639 277.733 310.327 274.321C309.903 274.089 309.296 274.407 309.153 274.832C309 275.257 308.894 275.705 308.797 276.152C308.336 275.471 307.915 274.827 307.557 274.251C307.066 273.462 305.907 274.125 305.999 274.913C306.131 276.131 307.533 281.104 309.362 285.761C310.473 289.89 312.463 293.96 314.551 297.124C314.501 297.211 314.476 297.313 314.426 297.4C314.295 297.589 314.267 297.786 314.307 297.958C300.523 289.4 286.608 281.034 272.667 272.624C272.734 272.597 272.79 272.583 272.852 272.535C273.512 272.981 274.459 272.24 274.091 271.497C274.039 271.373 273.968 271.258 273.906 271.138C277.432 264.174 265.958 250.427 261.445 246.836C260.852 246.363 259.895 246.792 259.835 247.536C259.146 255.883 265.269 266.013 271.701 271.563C271.704 271.573 271.712 271.573 271.702 271.578C271.587 271.706 271.594 271.833 271.581 271.965C269.995 271.015 268.418 270.06 266.829 269.103C260.765 265.428 254.9 261.436 248.932 257.611C249.059 257.209 249.003 256.733 248.775 256.385C248.672 256.196 248.515 256.044 248.381 255.879C250.132 251.391 239.988 240.542 238.214 238.318C237.62 237.575 236.256 238.081 236.457 239.069C237.378 243.563 239.461 247.563 241.976 251.376C242.439 252.072 242.998 253.18 243.649 254.306C239.265 251.632 234.79 249.113 230.106 246.948C229.21 246.537 228.31 246.139 227.415 245.731C227.455 245.559 227.449 245.375 227.344 245.204C226.667 244.132 225.757 243.234 224.795 242.382C225.741 237.007 216.537 230.614 212.875 228.759C212.022 228.323 211.255 229.356 211.549 230.115C213.22 234.46 217.132 239.635 221.479 243.085C214.407 239.961 207.334 236.857 200.553 233.178C201.952 233.395 203.35 233.573 204.762 233.616C206.168 233.651 206.941 231.512 205.391 231.072C202.664 230.307 199.658 229.878 196.723 229.24C194.557 226.709 186.407 223.613 185.297 223.306C184.299 223.037 183.416 224.044 184.084 224.948C184.651 225.721 185.267 226.394 185.93 226.998C185.853 227.369 185.967 227.759 186.426 228.03" fill="#FFF1E1"/>
</g>
<g clip-path="url(#clip1)">
<path d="M445.308 598.734C448.095 617.738 439.807 642.087 435.127 660.12C429.99 679.94 416.669 714.154 419.55 738.315C417.503 728.519 418.091 716.329 418.469 707.179C419.349 686.003 426.962 667.082 431.043 646.827C431.18 646.165 430.581 645.916 430.372 646.52C422.065 670.002 415.929 693.871 416.36 719.564C416.467 725.884 416.769 735.151 418.783 742.371C406.649 721.622 406.609 687.969 411.495 660.505C411.671 660.303 411.823 660.021 411.796 659.663C411.789 659.457 411.752 659.271 411.742 659.07C411.97 657.797 412.237 656.564 412.494 655.326C412.883 655.336 413.24 654.687 412.93 654.215C412.876 654.118 412.84 653.992 412.781 653.895C413.266 651.634 413.774 649.413 414.316 647.286C415.706 641.835 442.754 581.348 445.307 598.734L445.308 598.734ZM474.367 636.183C488.105 629.307 476.468 649.758 472.565 657.26C467.04 667.879 459.301 676.625 452.01 684.679C443.028 694.6 426.242 707.779 421.887 725.24C422.222 721.206 422.874 717.033 423.676 712.847C428.153 700.823 434.054 691.818 441.975 683.236C449.027 675.596 457.778 669.894 463.65 660.325C464.029 659.723 463.468 658.958 463.018 659.279C453.497 666.001 444.056 676.561 435.781 686.158C432.342 690.153 429.196 694.691 426.675 699.755C429.212 690.024 432.166 680.739 434.215 673.304C434.387 673.288 434.569 673.219 434.716 672.992C446.203 655.294 458.559 644.108 474.367 636.183L474.367 636.183ZM421.865 749.604C409.736 744.151 401.725 718.825 397.757 703.934C392.257 683.3 387.901 662.95 381.322 642.819C378.928 635.493 375.505 628.875 372.634 621.946C364.988 603.485 376.892 612.057 383.58 617.144C395.221 625.991 404.025 639.257 409.32 656.15C407.868 663.137 406.777 670.253 406.088 677.391C405.441 684.054 405.342 691.604 405.836 699.32C404.935 693.338 404.045 687.411 402.911 681.821C399.504 665.033 395.047 647.874 385.348 636.852C385.031 636.493 384.65 637.185 384.864 637.612C395.466 657.753 401.102 679.896 405.102 704.698C407.213 717.778 408.454 733.919 416.522 742.089C418.12 744.925 419.884 747.479 421.864 749.604L421.865 749.604ZM462.853 758.641C464.369 760.812 466.13 762.687 467.954 764.45C465.27 762.613 462.688 760.545 460.252 758.362C456.308 754.822 452.742 750.328 450.389 744.562C448.333 739.503 448.683 726.104 455.108 727.773C461.727 729.498 467.189 741.451 470.842 748.429C473.922 754.316 476.442 760.605 478.913 767.003C476.477 763.622 474.047 760.246 471.367 757.211C470.931 756.717 470.491 757.104 470.291 757.686C470.122 757.569 469.957 757.426 469.782 757.313C469.179 756.926 468.681 758.178 469.043 758.81C470.927 762.165 473.308 765.254 475.76 768.167C474.092 766.939 472.522 765.205 471.211 763.966C468.74 761.617 466.434 758.645 463.608 757.118C463.021 756.797 462.412 758.006 462.853 758.641L462.853 758.641ZM456.016 773.027C455.814 772.843 455.564 772.769 455.252 772.925C452.833 774.137 450.526 775.788 448.144 777.154C447.416 777.572 447.39 778.636 447.733 779.33C446.83 779.936 445.922 780.546 445.039 781.209C444.108 781.907 444.724 783.809 445.673 783.189C447.55 781.948 449.527 780.963 451.41 779.763C443.084 792.236 434.398 805.586 422.31 805.317C414.578 805.15 416.444 795.472 419.674 789.524C422.084 785.088 425.4 782.736 428.81 780.303C437.449 774.161 445.957 771.736 454.823 768.443C456.03 768.874 457.237 769.301 458.446 769.737C457.628 770.789 456.823 771.896 456.016 773.027L456.016 773.027ZM327.634 787.777C316.7 783.671 333.721 767.264 336.075 765.025C341.818 759.611 348.27 755.875 354.68 752.76C362.401 749.01 370.44 747.26 378.351 744.782C371.916 747.649 365.052 752.539 361.994 759.95C361.521 761.099 361.907 762.28 362.793 762.448C363.313 762.534 363.829 762.456 364.335 762.451C363.933 763.342 364.488 764.682 365.337 764.107C366.412 763.381 367.433 762.527 368.467 761.692C374.112 759.378 379.47 753.011 384.04 748.482C385.027 747.501 384.006 745.278 382.984 746.123C378.831 749.557 374.881 753.502 370.787 757.092C368.975 758.289 367.092 759.065 365.146 759.228C370.06 750.825 379.325 748.98 385.667 743.897C386.284 743.405 386.007 742.166 385.33 742.342C385.265 742.355 385.206 742.371 385.14 742.392C386.408 741.881 387.67 741.346 388.915 740.746C373.951 765.591 351.362 796.671 327.634 787.778L327.634 787.777ZM319.855 730.813C308.494 738.958 296.862 745.827 285.975 755.386C274.736 765.252 263.528 774.689 250.534 778.363C246.339 779.549 241.897 779.508 237.682 779.675C236.959 779.701 218.078 776.665 221.237 773.578C233.033 762.028 243.424 749.317 256.468 740.477C269.918 731.357 284.776 730.348 298.988 727.617C307.846 725.91 316.642 723.545 325.454 721.387C316.773 724.807 308.321 729.772 299.718 734.084C285.347 741.273 270.103 746.513 256.959 758.229C256.564 758.578 256.819 759.36 257.249 759.105C270.011 751.373 283.068 745.22 296.057 738.486C308.624 731.976 320.974 724.032 333.976 720.436C328.771 723.695 323.66 728.094 319.855 730.813L319.855 730.813ZM294.117 763.312C300.338 756.663 306.847 751.068 313.324 744.982C304.084 756.551 294.756 770.122 288.171 783.629C285.169 789.787 272.592 836.611 276.311 841.388C264.229 825.841 268.726 786.854 277.458 768.315C278.111 767.726 278.759 767.141 279.401 766.588C279.709 766.316 279.717 765.843 279.57 765.537C289.965 756.925 299.962 747.267 310.951 739.966C316.012 736.602 323.476 729.972 330.832 725.02C323.539 730.384 317.661 738.32 310.773 744.686C304.786 750.208 297.972 754.283 293.462 762.478C293.113 763.11 293.704 763.747 294.117 763.312L294.117 763.312ZM212.823 728.165C207.223 725.272 235.817 718.184 235.417 718.246C242.156 717.301 248.994 717.651 255.691 717.869C274.549 718.491 293.394 720.753 312.281 720.019C298.334 722.721 284.405 725.94 270.885 730.019C264.784 731.856 259.162 734.851 253.826 738.571C239.214 738.588 226.346 735.12 212.823 728.165ZM253.443 699.186C248.465 699.166 242.808 692.547 248.901 685.234C251.757 681.803 255.791 679.908 259.289 678.745C268.414 675.701 277.663 679.849 286.733 680.05C287.123 680.325 287.509 680.6 287.899 680.874C279.324 692.115 263.89 699.219 253.443 699.186L253.443 699.186ZM285.475 673.819C279.267 662.706 274.7 650.611 274.5 635.509C274.41 628.182 275.39 615.223 282.475 614.904C286.162 614.736 287.687 622.247 288.454 626.064C291.233 639.947 290.051 654.605 289.017 669.064C288.888 668.509 288.736 667.956 288.594 667.409C287.635 659.442 287.358 651.172 285.426 643.74C285.255 643.086 284.456 643.341 284.448 644.052C284.401 649.049 284.734 654.156 285.292 659.216C285.149 658.997 285.037 658.74 284.884 658.534C283.881 657.115 282.312 658.682 282.756 660.553C283.819 665.015 285.783 669.34 285.958 674.158C285.802 674.047 285.64 673.935 285.475 673.819L285.475 673.819ZM253.71 657.899C253.563 657.634 253.371 657.438 253.08 657.469C251.567 657.623 248.125 658.13 246.678 660.293C244.918 660.98 243.172 661.669 241.444 662.519C240.711 662.89 240.853 664.504 241.637 664.202C244.522 663.062 247.496 662.524 250.392 661.408C241.642 670.056 230.795 676.354 220.847 676.059C215.731 675.912 210.178 667.989 216.563 662.191C219.288 659.718 222.522 658.252 225.578 657.129C232.435 654.627 239.131 655.224 245.872 655.61C241.226 657.687 236.601 660.209 231.906 661.333C230.968 661.562 231.218 663.519 232.142 663.326C238.86 661.909 245.832 658.971 252.469 655.768C253.193 655.766 253.92 655.763 254.644 655.723C254.84 655.874 255.029 656.043 255.221 656.203C254.743 656.786 254.21 657.332 253.71 657.899ZM250.758 646.913C244.031 633.41 237.297 595.459 249.979 590.998C261.238 587.038 259.33 621.109 257.416 641.095C257.222 636.576 256.212 632.02 254.437 628.93C253.806 627.839 252.499 628.579 252.386 629.977C252.017 634.765 252.784 639.289 253.477 643.838C253.791 645.925 253.949 648.005 254.431 649.935C253.207 648.928 251.985 647.925 250.758 646.913L250.758 646.913ZM222.633 630.282C222.489 630.117 222.337 629.97 222.107 629.962C220.399 629.98 218.87 630.602 217.398 631.6C216.501 631.901 215.611 632.203 214.719 632.554C214.201 632.755 213.995 633.994 214.603 634.153C214.663 634.166 214.735 634.146 214.797 634.16C214.648 635.08 215.297 636.114 216.02 635.915C216.902 635.672 217.739 635.283 218.53 634.785C210.952 641.927 200.503 646.599 192.897 644.319C182.256 641.126 195.13 630.806 199.184 629.196C207.812 625.762 215.197 628.394 223.53 629.108C223.248 629.505 222.939 629.889 222.632 630.284L222.633 630.282ZM220.729 620.87C216.603 611.485 213.958 600.131 212.813 589.151C212.048 581.796 212.66 572.772 218.051 568.683C221.836 565.812 223.308 574.827 223.84 578.038C225.891 590.346 224.855 602.957 224.437 615.515C223.819 614.415 222.993 613.529 222.009 613.041C221.133 612.601 220.296 614.043 220.653 615.186C221.12 616.685 221.393 618.298 221.59 619.936C221.651 620.462 221.746 621.136 221.802 621.821C221.442 621.504 221.085 621.187 220.729 620.869L220.729 620.87ZM194.878 604.681C194.779 604.612 194.667 604.547 194.469 604.446C194.222 604.317 194.053 604.684 194.075 604.978C193.072 605.419 192.106 606.019 191.179 606.795C188.851 607.706 186.521 608.562 184.213 609.561C183.185 610.004 183.413 612.251 184.478 611.857C186.304 611.181 188.133 610.637 189.971 610.098C190.257 610.377 190.639 610.5 191.017 610.3C191.961 609.799 192.915 609.366 193.866 608.907C194.375 608.737 194.88 608.539 195.4 608.362C186.873 618.413 171.102 621.974 161.748 620.833C156.036 620.131 154.694 613.272 159.935 608.617C162.756 606.117 166.041 604.647 169.162 603.384C178.295 599.652 186.759 602.849 195.553 604.428C195.326 604.488 195.108 604.595 194.878 604.682L194.878 604.681ZM198.451 597.02C198.064 595.724 197.746 594.344 197.462 592.971C197.198 591.697 196.966 590.384 196.797 589.059C197.941 591.595 198.397 594.995 199.233 597.738C199.25 598.251 199.26 598.753 199.284 599.262C198.864 598.838 198.625 597.602 198.451 597.02L198.451 597.02ZM190.238 590.92C186.997 581.556 186.976 568.355 188.031 559.05C188.439 555.524 190.208 545.892 193.594 550.496C196.216 554.069 197.068 560.393 197.888 565.264C199.21 573.111 199.123 581.109 199.12 589.124C198.406 587.072 197.427 585.313 196.099 584.286C195.365 583.728 194.563 584.516 194.608 585.702C194.759 588.917 195.396 591.992 196.15 594.956C196.418 595.994 196.742 597.078 197.172 598.036C194.852 595.678 192.535 593.316 190.238 590.92ZM165.271 581.433C165.592 581.391 165.909 581.326 166.227 581.279C167.603 581.348 168.967 581.243 170.248 580.701C161.568 589.487 132.804 595.122 135.296 581.11C136.889 572.108 150.377 573.228 154.77 573.443C159.709 573.701 164.543 574.82 169.151 576.883C166.773 576.553 164.358 577.164 162.006 578.514C161.593 578.752 161.465 579.278 161.521 579.762C160.982 579.975 160.856 581.148 161.43 581.44C162.575 582.007 164.066 581.613 165.271 581.433L165.271 581.433ZM172.746 572.005C166.728 561.042 162.243 546.493 165.809 532.767C168.012 524.239 172.371 528.481 174.174 533.547C175.485 537.234 175.905 541.707 176.372 545.814C177.251 553.655 176.945 561.395 176.399 569.271C175.64 567.283 174.712 565.433 173.459 563.926C172.788 563.109 171.778 564.525 172.128 565.571C173.067 568.343 174.052 571 174.533 574.015C173.935 573.346 173.343 572.678 172.746 572.005L172.746 572.005ZM149.654 554.766C148.595 554.928 147.531 555.235 146.486 555.449C144.321 555.901 142.059 556.016 139.949 557.02C139.154 557.399 139.142 558.953 139.998 559.063C141.597 559.277 143.159 559.076 144.705 558.619C145.157 558.544 145.617 558.484 146.065 558.418C147.104 558.267 148.169 558.17 149.202 557.886C145.311 560.132 139.782 561.568 138.253 562.022C133.29 563.54 123.77 566.838 120.782 559.528C118.571 554.117 133.463 552.801 134.888 552.72C139.505 552.441 145.261 552.29 149.654 554.766L149.654 554.766ZM148.637 510.801C153.993 499.778 155.166 520.879 155.023 524.918C154.906 528.646 154.289 532.247 153.597 535.833C153.585 535.795 153.57 535.749 153.552 535.714C153.007 534.394 151.444 534.668 151.308 536.442C151.123 539.027 150.743 541.995 150.662 544.896C147.485 534.044 143.409 521.563 148.637 510.801L148.637 510.801ZM135.113 536.268C133.266 536.204 131.378 536.373 129.649 536.379C128.895 536.402 128.774 537.986 129.529 538.05C130.581 538.132 131.694 538.3 132.818 538.463C132.792 538.472 132.759 538.477 132.732 538.487C127.986 539.447 123.265 540.737 118.526 540.129C115.83 539.782 109.807 533.838 115.645 531.844C117.998 531.05 120.447 531.538 122.766 531.748C127.377 532.161 131.241 534.011 135.113 536.268L135.113 536.268ZM133.573 524.643C132.199 519.979 130.751 515.389 130.193 510.256C129.765 506.243 130.451 502.352 132.149 498.886C133.028 497.106 134.669 494.301 135.94 496.48C137.805 499.738 137.447 506.169 137.226 510.182C137.095 512.632 136.67 514.948 136.178 517.253C135.869 516.48 135.532 515.723 135.213 515.017C134.562 513.605 133.058 515.028 133.186 516.486C133.429 519.304 134.294 522.511 134.263 525.522C134.036 525.222 133.798 524.934 133.573 524.643L133.573 524.643ZM113.593 514.785C114.672 515.646 115.808 516.404 116.976 517.1C116.257 516.998 115.515 516.923 114.835 516.774C111.713 516.09 108.664 515.111 105.756 513.513C103.274 512.17 98.4538 504.081 103.517 501.957C107.86 500.138 114.073 507.919 117.081 511.109C118.309 512.418 119.484 513.804 120.647 515.215C118.449 514.351 116.228 513.617 113.987 513.291C113.439 513.197 113.117 514.406 113.593 514.785L113.593 514.785ZM114.075 495.144C113.087 492.541 112.076 489.53 112.148 486.427C112.205 483.98 113.7 482.319 114.869 484.201C117.415 488.29 117.956 493.896 118.587 499.392C118.006 497.854 117.282 496.37 116.137 495.799C115.819 495.645 115.525 496.164 115.646 496.577C116.213 498.455 116.81 500.323 117.36 502.223C116.154 499.991 115.028 497.671 114.075 495.144L114.075 495.144ZM325.526 672.115C322.626 662.798 320.799 653.056 320.771 642.598C320.764 638.166 321.569 633.675 322.586 629.41C324.613 620.947 329.18 630.493 330.159 632.416C335.059 642.068 337.529 653.974 338.421 665.924C338.977 673.514 338.633 681.588 338.519 689.597C337.448 685.545 336.105 681.622 334.582 678C333.986 676.575 332.376 677.277 332.524 679.06C333.342 688.655 335.52 697.551 338.072 706.259C332.323 696.658 328.96 683.152 325.526 672.115L325.526 672.115ZM431.95 572.8C431.35 573.28 430.825 573.813 430.286 574.359C429.928 574.155 429.568 573.961 429.21 573.767C427.251 572.67 425.894 575.986 426.586 578.137C426.488 578.309 426.392 578.455 426.277 578.75C425.831 579.463 425.745 580.221 425.863 580.916C423.655 585.687 422.405 591.366 421.262 597.146C418.58 610.734 416.507 624.477 414.162 638.157C412.995 641.755 411.907 645.398 410.975 649.115C410.711 648.032 410.502 646.881 410.324 645.679C411.337 635.946 411.288 625.988 411.061 616.337C410.927 610.702 410.203 605.11 409.738 599.544C409.637 598.312 409.582 594.892 409.569 591.517C409.944 592.574 410.388 593.643 410.995 594.819C411.541 595.856 412.949 595.163 412.968 593.806C412.99 592.39 412.911 591.055 412.846 589.695C413.064 589.424 413.263 589.092 413.424 588.647C414.32 586.14 412.854 583.481 412.251 581.38C412.126 580.976 411.969 580.655 411.785 580.401C411.445 579.584 411.048 578.756 410.569 577.88C410.231 577.273 409.488 577.047 408.971 577.494C404.961 580.936 407.001 595.117 407.362 600.322C408.023 609.847 408.869 619.554 409.132 629.295C408.993 627.257 408.813 625.334 408.522 623.642C406.224 610.316 401.993 598.318 397.315 586.599C396.803 585.31 395.328 585.633 395.025 586.88C393.561 585.403 391.139 588.342 391.904 590.969C393.06 594.966 393.879 597.986 395.714 601.359C396.38 602.581 397.635 602.014 398.122 600.816C398.816 601.421 399.614 601.138 400.197 600.41C403.947 610.666 406.837 622.166 407.734 633.191C407.988 636.293 408 640.083 408.301 643.728C400.745 623.735 382.473 608.885 368.453 604.654C367.498 604.366 366.618 605.366 366.728 606.808C367.779 621.377 374.699 631.948 379.395 644.206C385.535 660.237 389.73 677.384 393.691 694.764C391.129 691.398 388.453 688.226 385.658 685.216C381.217 680.429 377.318 674.868 373.014 669.889C372.68 669.505 372.127 670.195 372.339 670.712C377.14 682.611 387.518 688.761 394.439 697.964C394.506 698.286 394.582 698.603 394.657 698.916C395.427 702.346 396.512 706.75 397.875 711.532C391.031 700.604 381.134 692.357 374.222 681.937C367.955 672.496 361.785 661.874 359.989 648.624C358.929 640.807 372.247 652.142 373.586 653.325C378.34 657.522 381.792 663.696 385.735 669.138C386.11 669.662 386.846 669.072 386.581 668.335C381.594 653.952 370.226 644.232 359.354 640.483C358.509 640.188 357.67 640.955 357.54 642.237C354.115 677.844 385.979 696.646 399.904 718.23C403.292 728.752 407.884 739.837 413.535 746.173C397.083 738.99 380.814 731.246 364.79 722.905C357.233 718.966 349.755 714.806 342.308 710.517C342.515 689.882 343.138 666.092 338.166 647.483C336.809 642.405 330.739 619.483 324.426 622.653C315.187 627.314 318.66 654.053 320.614 662.522C323.63 675.57 327.833 694.301 335.099 706.255C320.156 697.394 305.424 687.919 290.98 677.698C290.854 677.188 290.744 676.663 290.622 676.136C293.301 666.327 292.432 652.816 292.214 643.247C291.993 633.633 291.605 617.901 284.972 612.738C277.665 607.04 273.365 622.373 272.644 629.868C271.129 645.729 275.852 659.554 282.133 671.381C274.077 665.478 266.094 659.387 258.22 653.059C261.941 638.824 265.726 574.363 246.298 589.644C237.342 596.685 240.908 628.034 247.174 643.954C240.138 638.063 233.154 632.068 226.279 625.833C228.39 616.238 227.432 603.553 227.246 594.471C227.079 586.092 227.313 570.74 221.574 565.878C215.276 560.532 210.838 576.591 210.499 582.622C209.834 594.613 213.302 607.591 217.711 618.043C211.853 612.553 206.039 606.972 200.301 601.229C200.325 601.177 200.359 601.157 200.37 601.103C203.691 586.829 201.802 568.87 198.516 555.572C196.917 549.093 191.94 540.606 187.794 549.63C183.508 558.955 184.829 573.582 186.263 583.222C186.467 584.587 186.737 586.072 187.07 587.591C184.096 584.454 181.136 581.3 178.198 578.085C178.13 576.893 178.037 575.707 177.846 574.567C180.828 562.276 179.579 547.442 177.355 535.733C176.514 531.284 172.921 520.897 168.245 524.038C161.838 528.348 161.814 541.682 162.84 549.523C163.607 555.37 165.31 560.974 167.538 566.131C162.653 560.548 157.797 554.886 153.027 549.096C153.107 549.002 153.206 548.963 153.267 548.832C153.638 548.006 153.956 547.129 154.281 546.253C154.284 546.281 154.292 546.308 154.311 546.337C154.54 547.08 155.437 546.838 155.463 545.97C155.506 544.898 155.454 543.876 155.359 542.873C157.583 534.949 158.232 525.519 157.883 517.798C157.631 512.12 156.068 502.445 150.946 503.186C145.555 503.964 143.855 517.456 143.935 522.766C144.03 529.701 145.763 536.648 147.987 543.009C143.811 537.837 139.691 532.579 135.618 527.257C135.816 526.432 135.954 525.602 136.019 524.765C136.326 525.328 137.09 525.434 137.261 524.525C137.405 523.773 137.409 523.025 137.374 522.297C139.686 518.303 139.917 511.34 139.978 506.896C140.044 501.937 139.747 494.34 136.171 492.097C132.422 489.748 128.613 499.534 128.073 503.302C127.284 508.793 128.032 514.205 129.475 519.241C128.977 518.573 128.463 517.93 127.958 517.257C128.09 516.882 128.074 516.425 127.801 516.161C127.279 515.636 126.717 515.286 126.165 514.877C126.081 514.755 125.98 514.636 125.89 514.508C125.746 514.312 125.577 514.268 125.415 514.285C124.689 513.818 123.931 513.421 123.158 513.032C122.444 512.142 121.675 511.293 120.884 510.464C121.319 510.502 121.67 509.856 121.637 509.269L121.633 508.936C121.634 508.736 121.567 508.533 121.466 508.378C121.915 503.561 120.416 497.849 119.579 493.587C118.902 490.157 117.508 480.693 114.084 480.582C109.78 480.449 110.181 488.694 110.985 492.192C111.922 496.253 113.699 499.949 115.463 503.325C116.192 504.727 117.044 506.309 118.009 507.693C116.61 506.399 115.24 505.237 114.108 504.234C111.324 501.776 104.368 495.629 101.085 500.924C91.6887 516.094 117.162 521.239 125.813 521.468C126.331 521.705 126.855 521.943 127.353 522.191C128.017 522.511 128.57 522.081 128.894 521.41C129.702 522.559 130.536 523.666 131.361 524.808C132.115 526.709 132.937 528.539 133.77 530.252C134.133 530.998 134.787 530.354 134.849 529.613C135.389 530.353 135.923 531.089 136.462 531.834C131.898 528.854 126.145 528.038 121.488 527.739C118.045 527.507 110.547 527.554 110.285 534.645C110.001 542.292 118.339 543.717 122.044 543.696C125.298 543.673 128.597 542.824 131.832 542.097C134.42 541.517 137.932 541.674 140.308 539.874C140.437 539.791 140.469 539.63 140.502 539.483C140.644 539.569 140.78 539.655 140.932 539.738C141.341 539.983 141.706 539.712 141.91 539.258C144.959 543.314 148.064 547.289 151.181 551.233C151.296 551.504 151.415 551.794 151.529 552.069C151.538 552.089 151.55 552.09 151.562 552.1C151.577 552.134 151.59 552.171 151.599 552.208C144.555 548.195 113.678 547.771 119.198 561.636C123.406 572.187 151.657 564.433 154.273 555.175C159.029 561.11 163.875 566.876 168.76 572.568C157.395 567.13 132.392 567.096 133.312 583.393C133.951 594.608 145.353 592.604 151.134 591.767C156.261 591.035 171.684 588.325 173.564 578.8C173.619 578.499 173.564 578.234 173.465 578.006C173.465 578.002 173.472 577.995 173.472 577.995C178.761 584.018 184.152 589.864 189.579 595.613C190.181 596.975 190.856 598.235 191.627 599.299C182.756 596.764 173.105 596.977 164.446 601.863C158.413 605.275 149.617 612.445 155.902 621.505C160.651 628.379 172.8 623.835 178.628 621.849C184.692 619.78 196.711 615.497 199.307 605.708C205.537 612.027 211.863 618.173 218.269 624.162C210.856 622.343 202.225 623.89 195.54 627.517C191.545 629.68 184.364 635.374 186.692 642.584C189.382 650.923 199.82 648.197 204.816 646.436C211.665 644.024 220.623 639.094 224.72 630.106C233.169 637.802 241.789 645.15 250.494 652.287C240.52 650.339 229.464 651.109 219.938 656.363C213.808 659.751 207.166 666.989 212.898 675.179C218.211 682.769 228.944 678.379 235.353 675.314C242.416 671.934 251.611 666.137 256.412 657.19C264.026 663.287 271.742 669.171 279.529 674.87C270.718 673.176 260.962 673.715 253.2 678.223C246.353 682.208 240.385 690.787 246.523 699.281C251.533 706.23 262.614 701.017 268.479 698.319C274.969 695.344 283.863 690.613 288.999 682.792C289.615 684.374 290.423 685.652 291.592 686.011C291.983 686.131 292.344 685.805 292.414 685.215C292.463 684.814 292.441 684.406 292.422 684.012C307.805 694.735 323.502 704.74 339.442 714.071C313.07 720.46 287.108 716.663 260.958 714.394C242.377 712.777 223.942 712.21 206.553 725.472C205.378 726.371 205.44 728.684 206.616 729.29C219.076 735.563 231.594 742.152 244.945 742.101C240.609 742.991 236.254 743.245 231.877 743.465C229.171 743.605 226.478 743.755 223.774 743.987C222.812 744.099 221.853 744.225 220.891 744.369C219.458 743.967 218.371 744.454 217.615 745.749C217.549 745.67 217.528 745.558 217.433 745.517C217.199 745.422 216.988 745.383 216.768 745.307C217.504 744.973 217.427 744.979 216.591 745.254C216.176 745.113 215.75 744.977 215.354 744.902C211.827 741.521 207.992 741.497 203.645 742.992C201.58 743.691 201.267 747.828 203.226 748.724C206.8 750.359 209.78 750.793 213.163 749.692C213.536 749.778 213.959 749.873 214.509 750.004C215.504 750.241 216.136 749.263 216.345 748.102C216.445 747.952 216.544 747.793 216.572 747.604C216.683 747.579 216.797 747.562 216.905 747.535C216.886 747.593 216.867 747.633 216.848 747.698C217.151 747.8 217.391 747.637 217.581 747.395C227.882 745.194 238.229 746.626 248.409 742.689C247.94 743.104 247.468 743.519 246.988 743.919C235.409 746.786 224.269 753.307 212.874 757.363C208.463 755.971 204.924 756.691 200.986 760.784C199.109 762.75 200.37 766.341 202.229 766.608C207.137 767.319 211.354 765.975 215.645 761.939C216.483 761.154 216.536 758.948 215.31 759.012C215.107 759.028 214.905 759.068 214.709 759.073C214.666 758.927 214.604 758.798 214.545 758.651C223.826 753.989 233.632 751.143 243.075 747.313C233.933 755.581 225.301 765.289 216.178 774.192C215.58 774.777 215.55 776.151 215.969 776.812C223.211 788.189 240.449 786.48 253.496 781.822C244.789 786.603 236.059 792.594 228.535 799.651C228.356 799.811 228.224 800.045 228.126 800.304C227.994 800.342 227.866 800.407 227.737 800.458C227.743 800.417 227.754 800.391 227.762 800.36C228.089 799.402 227.248 798.327 226.597 798.907C225.826 799.594 225.047 800.175 224.253 800.709C223.973 800.628 223.688 800.592 223.386 800.707C221.445 801.386 219.642 802.124 217.774 803.17C215.695 804.319 216.227 809.477 218.464 809.155C219.152 809.057 219.793 808.909 220.406 808.731C221.086 809.805 222.312 810.206 223.332 809.023C225.763 806.189 228.224 804.863 231.172 803.862C232.598 803.38 232.752 800.859 231.769 799.971C242.125 790.867 254.181 787.23 264.374 777.96C264.731 777.639 264.739 776.897 264.467 776.624C266.961 775.092 269.394 773.398 271.794 771.619C261.335 781.483 251.919 793.911 243.53 807.112C243.147 807.266 242.769 807.535 242.441 808.083C242.376 808.186 242.321 808.294 242.256 808.402C241.924 808.885 241.616 809.462 241.323 810.104C240.387 811.81 239.514 813.559 238.667 815.41C238.047 816.759 238.275 818.504 239.099 819.291C239.441 820.783 240.945 821.553 241.846 820.267C242.094 819.922 242.266 819.606 242.473 819.284C245.789 818.186 249.156 814.872 246.752 809.666C246.548 809.231 246.345 808.879 246.143 808.554C252.184 795.217 261.997 783.316 271.553 773.875C262.25 794.019 266.354 833.522 276.295 846.249C277.03 847.187 278.395 846.808 278.503 845.122C280.291 816.365 287.541 785.869 302.573 765.167C316.1 746.557 328.088 723.595 347.563 719.133C347.704 719.102 347.799 719.001 347.867 718.866C351.22 720.772 354.577 722.692 357.955 724.541C366.826 729.36 375.807 733.966 384.853 738.428C368.307 742.156 351.423 748.992 336.695 760.916C332.32 764.464 317.361 778.276 322.64 787.111C329.738 798.994 347.209 790.45 355.412 784.622C369.192 774.827 380.515 757.865 390.231 741.099C402.902 747.238 415.749 752.942 428.714 758.284L428.718 758.284C428.883 758.437 429.06 758.49 429.231 758.498C435.456 761.059 441.708 763.56 447.989 765.935C432.443 770.188 408.96 785.835 415.044 803.666C418.59 814.076 431.773 806.389 436.816 802.13C445.935 794.43 453.665 781.935 460.685 770.544C517.687 790.68 576.757 802.516 635.672 802.638C637.992 802.643 638.364 797.522 636.029 797.511C584.397 797.176 533.23 788.045 483.345 772.445C483.337 771.966 483.159 771.483 482.736 771.392C482.664 771.385 482.592 771.359 482.511 771.335C482.34 760.476 474.238 748.19 469.829 740.524C466.234 734.268 458.09 719.899 450.927 725.96C442.561 733.021 449.299 748.786 453.489 754.517C457.06 759.398 461.632 763.665 466.589 766.952C453.178 762.351 439.875 757.292 426.688 751.828C423.98 747.887 422.548 743.021 421.951 737.638C423.476 711.573 445.351 696.769 458.191 682.653C470.428 669.19 480.108 651.44 485.44 631.159C485.742 630.012 485.051 628.782 484.191 629.105C466.447 635.603 448.232 646.579 435.935 667.063C442.544 643.372 452.485 610.756 445.397 587.871C445.181 587.158 444.58 586.744 444.026 586.955C436.047 589.796 427.658 608.368 422.804 617.428C420.956 620.888 419.329 624.515 417.809 628.226C418.992 621.506 420.055 614.746 421.396 608.078C422.794 601.127 423.768 590.11 427.198 582.932C427.829 583.261 428.566 583.187 429.178 582.416C431.7 579.231 431.652 579.304 433.709 575.732C434.67 574.069 433.221 571.805 431.947 572.799" fill="#FFF1E1"/>
</g>
<g clip-path="url(#clip2)">
<path d="M432.044 398.989C431.842 402.029 430.427 405.613 426.972 405.638C419.812 405.693 418.185 394.534 420.916 389.623C421.017 389.453 420.985 389.272 420.913 389.109C423.814 387.511 426.907 385.722 429.598 388.871C431.848 391.499 432.264 395.722 432.044 398.989L432.044 398.989ZM428.913 535.684C428.254 533.639 427.613 531.61 426.969 529.574C426.698 524.882 426.546 520.15 426.661 515.345C426.716 513.144 426.797 510.942 426.882 508.756C427.483 517.72 428.098 526.71 428.913 535.684L428.913 535.684ZM466.425 535.597C467.191 535.109 467.112 533.943 466.188 533.628C465.842 533.504 465.47 533.444 465.112 533.355C465.403 532.952 465.333 532.425 465.08 531.985C465.667 531.336 466.5 530.83 467.342 530.455C467.234 530.581 467.124 530.709 467.011 530.827C466.618 531.285 467.111 532.126 467.686 531.76C470.054 530.291 472.59 528.786 475.226 527.842C476.609 527.344 478.076 526.935 479.493 527.494C480.123 527.75 480.531 528.538 480.695 529.538C480.858 530.476 480.588 531.878 480.136 532.915C478.762 536.032 475.709 537.969 472.371 538.237C470.044 538.433 467.164 537.933 465.426 536.13C465.751 535.976 466.063 535.829 466.418 535.593L466.425 535.597ZM333.89 594.05C330.432 597.99 324.702 600.166 319.495 599.699C316.583 599.423 314.618 597.569 313.312 595.051C310.877 590.341 316.023 587.29 319.41 585.716C324.172 583.514 329.148 583.384 334.152 582.863C336.6 586.442 337.302 590.175 333.89 594.05ZM329.54 562.739C328.085 562.409 316.334 561.633 322.293 560.328C322.619 560.254 322.846 559.996 322.945 559.686C327.119 561.223 331.306 562.649 335.507 563.973C333.516 563.584 331.527 563.188 329.54 562.738L329.54 562.739ZM326.031 478.755C325.552 478.563 325.031 478.463 324.54 478.316C325.735 478.452 326.939 478.63 328.134 478.716C329.16 479.738 330.153 480.75 331.172 481.771C329.175 480.467 327.247 479.207 326.03 478.755L326.031 478.755ZM284.548 492.925C282.848 496.724 279.909 500.204 276.196 502.055C274.289 503.004 272.315 502.788 270.811 501.173C267.291 497.384 269.936 492.7 272.816 489.808C275.05 487.575 277.777 485.751 280.649 484.134C285.335 485.853 286.808 487.895 284.549 492.926L284.548 492.925ZM255.54 489.987C255.87 494.56 252.943 499.474 249.389 501.988C245.104 505.011 237.373 503.455 238.677 496.874C239.207 494.195 240.753 491.733 242.279 489.554C243.062 488.43 244.721 487.145 245.608 485.764C249.852 485.078 255.142 484.642 255.54 489.987ZM229.264 482.92C226.052 488.066 219.38 492.547 213.149 490.994C204.58 488.87 208.221 480.944 212.469 477.001C216.155 473.585 221.724 471.271 226.861 472.154C231.416 474.827 232.599 477.573 229.265 482.92L229.264 482.92ZM180.691 412.534C187.827 411.88 191.385 420.192 192.098 427.267C191.252 426.119 190.494 424.921 189.605 423.792C188.253 422.095 186.02 424.09 186.848 425.843C186.763 425.94 186.709 426.051 186.646 426.163C186.627 426.157 186.61 426.119 186.588 426.116C182.659 424.411 170.959 413.423 180.69 412.54L180.691 412.534ZM234.612 449.621C234.366 449.382 234.085 449.469 233.926 449.662C233.225 449.507 232.544 449.308 231.923 449.098C231.859 448.823 231.743 448.566 231.436 448.357C231.285 448.257 231.144 448.145 230.996 448.041C230.557 447.494 229.95 447.014 229.588 446.671C228.952 446.072 227.851 446.561 228.095 447.478C228.157 447.749 228.251 447.968 228.356 448.179C228.321 448.199 228.286 448.219 228.256 448.249C226.895 446.528 225.564 444.803 224.418 442.936C223.171 440.924 222.086 438.53 223.771 436.493C225.633 434.246 229.141 435.564 231.307 436.652C234.997 438.517 239.63 442.682 240.099 447.045C240.424 450.062 237.677 450.361 234.845 449.859C234.773 449.788 234.679 449.705 234.604 449.629L234.612 449.621ZM291.589 464.626C287.82 467.091 282.631 467.453 278.342 466.158C272.502 464.385 270.614 458.313 275.171 454.188C279.415 450.361 285.271 450.145 290.261 452.365C290.271 452.391 290.263 452.396 290.277 452.42C290.765 453.744 291.931 454.692 293.165 454.529C295.115 458.326 295.789 461.874 291.594 464.625L291.589 464.626ZM260.636 429.597C260.174 429.675 260.009 430.308 260.337 430.641C263.221 433.54 268.1 435.155 265.109 439.891C262.467 444.053 256.413 445.153 252.079 443.192C246.482 440.663 240.531 430.836 248.951 428.55C252.706 427.521 257.271 428.011 261.368 429.529C261.124 429.556 260.883 429.557 260.635 429.596L260.636 429.597ZM225.47 409.813C225.162 409.861 224.841 409.906 224.524 409.94C222.665 410.099 222.339 412.383 224.079 413.143C224.18 413.182 224.254 413.203 224.344 413.24C224.481 413.451 224.676 413.629 224.885 413.781C222.031 417.593 212.137 417.096 208.325 416.565C206.355 414.502 204.831 412.235 206.425 409.32C208.316 405.855 213.013 404.212 216.722 403.986C220.755 403.732 224.559 405.776 225.468 409.812L225.47 409.813ZM194.129 394.225C194.469 394.29 194.82 394.345 195.164 394.408C195.28 394.502 195.381 394.596 195.5 394.698C195.714 394.88 195.976 395.03 196.255 395.149C196.223 395.366 196.222 395.571 196.149 395.799C195.374 398.426 192.393 399.046 190.029 399.226C185.749 399.56 180.08 398.97 176.269 396.596C178.088 394.091 180.218 392.225 183.429 391.228C186.534 390.265 190.426 390.081 193.582 391.418C192.704 392.182 192.744 393.962 194.125 394.219L194.129 394.225ZM184.534 373.623C182.096 376.007 176.572 374.66 173.704 373.98C172.185 373.626 170.67 373.173 169.166 372.663C169.126 372.574 169.13 372.491 169.043 372.422C166.356 369.942 160.858 365.491 164.447 361.761C167.484 358.604 173.1 358.401 177.083 359.548C179.579 360.272 181.784 361.831 183.27 364.001C184.926 366.42 186.892 371.302 184.53 373.626L184.534 373.623ZM214.125 364.549C214.198 364.459 214.275 364.351 214.249 364.2C213.782 360.896 210.732 350.943 216.414 350.47C220.66 350.117 225.007 353.867 227.538 356.986C230.947 361.194 231.213 366.184 227.495 370.055C226.343 371.254 225.082 371.791 223.788 371.839C223.471 371.041 222.699 370.909 222.055 371.16C221.574 370.88 221.036 370.872 220.532 371.012C218.059 369.743 215.745 367.214 214.124 364.549L214.125 364.549ZM244.301 379.767C244.082 375.147 244.68 369.668 249.392 370.471C254.003 371.253 258.141 375.571 260.631 379.359C263.54 383.78 264.356 389.249 259.547 392.379C253.187 396.511 247.523 387.127 244.301 379.767ZM308.64 426.575C308.839 427.277 309.14 427.887 309.48 428.48C309.515 428.732 309.609 428.978 309.748 429.221C307.775 432.206 305.458 433.495 301.349 432.148C297.626 430.937 293.533 427.437 293.102 423.285C292.47 417.281 298.997 416.017 303.161 418.257C305.201 419.356 308.061 421.782 309.643 424.464C308.905 424.838 308.392 425.663 308.639 426.575L308.64 426.575ZM322.929 423.153C323.281 423.371 323.629 423.586 323.997 423.777C326.321 430.541 328.516 437.349 330.724 444.151C327.97 437.203 325.279 430.241 322.929 423.153L322.929 423.153ZM297.338 398.459C296.385 398.957 295.838 400.231 296.845 401.258C298.338 402.807 299.786 404.074 301.492 405.216C297.206 406.375 293.904 406.878 289.446 404.864C285.441 403.055 281.212 399.674 279.583 395.42C278.702 393.113 279.524 391.156 281.447 389.833C284.451 387.743 287.622 388.386 290.536 390.356C293.498 392.354 295.486 395.37 297.338 398.459ZM279.02 371.648C278.911 371.512 278.778 371.498 278.66 371.452C277.081 369.255 276.49 366.918 279.703 365.394C283.43 363.644 288.563 363.933 292.456 365.114C296.675 366.393 298.952 369.368 297.465 373.718C297.031 375.005 296.394 375.942 295.661 376.651C295.408 376.796 295.172 376.98 295.011 377.228C290.495 380.377 282.454 375.774 279.025 371.645L279.02 371.648ZM385.963 488.215C385.077 487.821 384.174 489.128 384.929 489.897C385.768 490.747 386.183 491.173 386.526 491.396C385.665 494.832 384.374 497.421 380.122 497.239C376.257 497.066 372.378 494.613 369.948 491.612C366.531 487.38 369.103 482.259 373.669 480.59C379.273 478.53 384.64 482.889 385.963 488.214L385.963 488.215ZM371.913 458.552C370.57 457.313 368.754 459.063 369.919 460.481C370.125 460.732 370.336 460.963 370.543 461.195C370.475 461.266 370.423 461.36 370.423 461.474C370.249 470.117 360.513 466.609 355.902 463.656C351.868 461.065 347.626 453.626 352.004 449.706C355.384 446.679 361.693 448.54 365.241 450.406C368.939 452.352 371.108 455.368 372.344 458.927C372.2 458.813 372.05 458.687 371.913 458.552L371.913 458.552ZM368.962 432.514C368.297 429.884 368.387 427.14 368.53 424.479C368.565 423.817 368.634 418.511 369.449 418.424C369.62 418.407 369.737 418.292 369.807 418.155C371.826 419.277 374.034 419.775 375.947 421.172C377.759 422.498 378.835 424.569 379.406 426.69C380.346 430.194 379.758 434.76 377.109 437.276C376.476 437.883 375.807 438.119 375.139 438.183C374.933 437.768 374.745 437.332 374.542 436.922C374.073 435.942 372.473 436.291 372.537 437.373C372.539 437.404 372.548 437.447 372.55 437.478C370.814 436.342 369.38 434.204 368.955 432.52L368.962 432.514ZM405.297 435.064C404.925 435.867 404.381 436.455 403.495 436.532C401.133 436.724 398.576 434.752 396.712 433.479C394.435 431.928 392.197 430.137 390.198 428.215C389.832 427.865 389.393 428.087 389.25 428.442C387.668 425.154 387.321 421.503 390.854 419.28C394.449 417.02 399.603 417.587 402.718 420.61C404.853 422.674 405.62 425.727 405.805 428.58C405.841 429.228 405.918 430.324 405.907 431.487C405.116 430.829 404.025 431.652 404.47 432.622C404.739 433.199 405.043 433.675 405.336 434.187C405.232 434.464 405.218 434.76 405.298 435.063L405.297 435.064ZM419.291 388.412C419.049 388.788 419.258 389.191 419.584 389.394C416.11 393.835 416.578 401.588 420.557 405.811C420.546 405.801 420.541 405.804 420.524 405.781C419.953 405.225 419.186 405.358 418.746 405.955C418.146 406.792 417.677 407.673 417.27 408.587C416.466 409.808 415.952 411.168 415.884 412.578C415.855 412.691 415.82 412.792 415.794 412.892C415.308 414.735 414.965 416.825 414.179 418.614C413.399 416.408 412.587 414.203 411.715 412.02C410.975 402.994 410.131 394.163 406.474 385.794C407.552 385.914 408.688 385.823 409.87 385.463C410.421 385.292 410.341 384.507 409.753 384.442C407.906 384.265 406.297 383.572 404.9 382.586C404.746 382.295 404.624 381.995 404.466 381.718C404.191 381.23 403.69 381.075 403.234 381.155C400.6 378.441 399.048 374.455 398.704 370.723C398.341 366.747 400.364 361.427 404.858 361.391C408.448 361.351 411.599 364.563 413.356 367.445C416.132 371.999 415.315 376.628 414.413 381.482C414.289 382.148 415.167 382.933 415.682 382.274C422.393 373.739 414.477 356.461 402.881 358.594C392.722 360.46 394.485 377.409 401.708 383.593C402.971 385.959 404.126 388.37 405.507 390.674C405.668 390.945 405.884 391.059 406.106 391.113C407.691 395.947 408.538 400.95 409.177 406.032C404.429 395.459 398.447 385.265 390.732 375.609C391.001 375.03 390.966 374.307 390.373 373.695C390.17 373.477 389.962 373.267 389.754 373.047C389.731 373.028 389.716 373.036 389.702 373.012C389.072 372.364 388.402 371.751 387.748 371.111C388.039 369.6 387.778 367.811 386.996 366.014C384.843 361.074 380.085 356.647 375.189 354.646C369.748 352.435 365.634 356.028 365.664 361.585C365.663 362.124 366.492 362.471 366.722 361.914C368.156 358.507 370.199 356.173 374.038 357.471C377.662 358.694 380.889 361.969 383.004 365.111C383.573 365.969 384.423 367.37 384.805 368.705C383.608 368.53 382.599 369.969 383.531 371.249C383.667 371.432 383.804 371.615 383.939 371.798C383.775 371.886 383.651 371.995 383.447 372.064C376.278 374.188 369.522 366.694 369.694 359.77C369.709 359.239 368.983 359.02 368.73 359.472C366.722 363.078 369.493 367.913 371.738 370.81C374.336 374.162 378.312 375.393 382.309 375.256C383.759 375.202 384.89 374.82 385.765 374.234C385.931 374.387 386.11 374.489 386.301 374.527C386.575 374.841 386.868 375.16 387.161 375.48C387.168 375.492 387.173 375.522 387.189 375.529C387.39 375.743 387.598 375.969 387.798 376.189C388.149 376.582 388.557 376.734 388.958 376.76C389.719 377.656 390.501 378.529 391.236 379.446C395.023 384.027 398.272 389.013 401.363 394.079C404.629 399.413 407.352 404.961 409.716 410.653C409.804 411.459 409.891 412.265 409.981 413.064C406.217 408.033 401.184 403.751 396.059 400.65C395.983 400.598 395.875 400.574 395.779 400.545C395.699 400.296 395.585 400.043 395.368 399.827C395.205 399.653 395.048 399.488 394.868 399.331C394.625 399.017 394.367 398.853 394.089 398.752C393.949 398.617 393.823 398.479 393.65 398.351C393.521 398.261 393.392 398.216 393.258 398.157C392.557 388.7 376.435 382.803 369.874 388.457C369.411 388.851 369.879 389.638 370.44 389.499C376.732 388.007 387.925 390.424 390.134 397.815C390.698 399.703 389.242 401.11 387.887 402.051C385.916 403.425 382.602 401.304 380.865 400.31C377.508 398.402 373.959 395.639 371.562 392.563C371.223 392.134 370.514 392.654 370.803 393.111C373.748 397.653 378.088 402.564 383.196 404.569C386.402 405.821 390.502 405.076 392.34 402.259C392.547 402.429 392.779 402.602 393.032 402.804C393.174 402.915 393.327 402.964 393.471 403.023C394.106 403.572 394.729 404.15 395.309 404.759C396.273 405.691 397.384 405.18 397.726 404.269C402.916 407.502 406.515 412.656 410.43 417.345C410.441 417.419 410.452 417.493 410.455 417.552C410.518 418.084 410.941 418.379 411.348 418.418C411.824 418.977 412.312 419.533 412.804 420.066C412.954 420.218 413.101 420.248 413.255 420.229C413.187 420.3 413.169 420.406 413.105 420.485C412.527 421.205 413.201 422.131 413.932 421.955C414.394 423.327 414.863 424.703 415.296 426.094C418.944 437.791 421.219 449.85 422.822 461.985C422.571 460.951 422.311 459.904 422.081 458.867C422.242 458.678 422.34 458.435 422.186 458.109C422.031 457.757 421.864 457.41 421.708 457.057C421.28 455.013 420.893 452.956 420.638 450.885C420.567 450.359 419.672 450.439 419.722 450.968C419.813 451.818 419.96 452.652 420.065 453.489C417.77 448.561 415.326 443.663 412.301 439.184C412.427 438.951 412.478 438.686 412.312 438.424C411.168 436.591 410.053 435.336 408.498 434.141C408.795 432.507 408.803 430.762 408.767 429.336C408.664 425.496 407.755 421.844 405.157 418.867C401.203 414.341 393.942 413.78 389.144 416.802C386.895 418.22 385.499 420.434 385.282 423.131C385.006 426.685 387.359 429.34 389.904 431.44C390.296 431.767 391.019 431.386 390.677 430.885C390.432 430.513 390.186 430.138 389.964 429.75C393.432 433.841 399.58 441.263 405.175 439.043C406.114 438.674 406.807 438.058 407.329 437.287C407.464 437.414 407.597 437.537 407.72 437.662C408.077 437.996 408.468 438.074 408.837 438.025C413.351 444.548 416.197 451.999 420.786 458.566C421.852 464.922 423.29 471.188 424.564 477.552C425.046 482.763 425.458 487.97 425.832 493.146C425.892 493.856 425.929 494.555 425.978 495.257C425.869 503.482 425.053 511.734 424.844 519.776C424.817 520.805 424.804 521.849 424.781 522.894C423.697 519.735 422.529 516.593 421.114 513.498C417.276 505.103 409.549 498.278 403.792 491.107C401.966 485.125 398.809 479.376 398.061 473.23C398.241 473.159 398.406 473.064 398.537 472.908C398.682 472.729 398.834 472.552 398.983 472.379C399.418 471.868 399.602 470.988 399.005 470.456C398.688 470.18 398.412 469.862 398.116 469.548C398.484 469.605 398.867 469.658 399.266 469.673C404.299 469.827 406.891 465.384 406.744 460.766C406.583 456.056 404.135 450.679 400.359 447.763C396.373 444.679 391.336 445.797 389.382 450.46C389.054 451.239 389.854 451.897 390.518 451.385C393.094 449.48 395.521 447.921 398.51 450.082C401.163 451.992 402.504 455.617 403.145 458.677C403.679 461.224 403.587 465.041 400.759 466.062C393.515 468.652 389.799 458.662 391.473 453.003C391.668 452.336 390.706 452.087 390.454 452.704C388.288 457.918 389.737 464.923 394.259 468.047C393.668 468.583 393.403 469.551 394.078 470.354C394.054 470.367 394.031 470.381 394.01 470.398C394.497 470.834 394.95 471.299 395.416 471.747C395.814 476.995 398.045 481.589 400.152 486.312C398.517 484.132 396.865 481.96 395.263 479.743C395.635 479.594 395.863 479.137 395.506 478.707C394.179 477.122 392.776 475.624 391.337 474.191C389.216 471.144 387.133 468.075 385.126 464.969C382.466 460.857 380.266 456.517 378.212 452.081C378.355 452.385 376.581 447.658 375.178 444.193C375.538 444.659 375.889 445.137 376.245 445.595C376.83 446.371 378.188 445.622 377.874 444.709C377.124 442.566 376.931 441.844 376.581 441.158C376.941 441.064 377.296 441.031 377.661 440.88C382.589 438.793 383.544 431.562 382.762 426.856C381.808 421.155 375.755 414.629 369.653 416.953C369.399 417.05 369.32 417.315 369.36 417.575C367.768 417.364 366.845 419.702 366.415 420.844C365.105 424.265 365.296 428.441 365.788 432.048C366.323 435.931 369.143 439.852 372.759 441.04C372.831 441.144 372.912 441.253 372.985 441.353C374.452 450.945 379.165 459.888 384.636 468.203C381.692 465.825 378.618 463.603 375.476 461.417C375.699 455.166 370.794 449.626 365.111 447.148C359.812 444.839 351.532 443.92 348.316 449.829C344.523 456.804 351.537 464.758 357.393 467.558C363.384 470.44 372.176 470.435 371.432 462.153C372.103 462.863 372.788 463.492 373.508 464.046C373.52 464.12 373.536 464.175 373.543 464.243C373.603 464.77 374.099 464.887 374.505 464.74C375.896 465.639 377.432 466.272 379.307 466.614C382.697 469.242 385.978 471.999 389.209 474.839C390.803 477.062 392.405 479.244 393.956 481.382C396.797 485.281 399.702 489.1 402.674 492.855C402.735 493.071 402.816 493.267 402.875 493.478C402.983 493.885 403.316 494.057 403.635 494.056C405.391 496.264 407.217 498.431 409.02 500.607C405.32 498.85 402.102 496.137 398.724 493.72C396.918 492.425 395.019 491.358 392.997 490.482C391.505 489.83 389.706 489.959 388.19 489.513C389.071 482.691 381.994 477.106 375.596 477.273C369.147 477.444 363.319 484.099 366.108 490.626C368.387 495.959 374.155 499.286 379.602 500.019C384.67 500.685 388.832 497.223 388.726 492.465C389.212 492.68 389.713 492.873 390.295 493.052C391.138 493.31 391.468 492.284 390.931 491.751C393.808 492.37 396.566 494.463 398.873 496.106C402.61 498.754 406.394 502.204 410.97 502.983C411.384 503.461 411.763 503.963 412.174 504.441C416.635 509.697 419.471 515.499 421.793 521.52C417.789 517.59 413.021 515.334 407.704 514.147C406.614 513.841 405.573 513.599 404.485 513.565C404.417 513.555 404.349 513.546 404.282 513.536C401.16 504.833 380.709 504.355 383.996 516.219C385.368 521.197 390.992 524.504 395.486 525.948C399.51 527.242 406.78 527.062 407.311 521.58C407.356 521.119 406.774 520.779 406.403 521.003C403.425 522.822 401.299 524.233 397.593 523.551C393.996 522.885 390.564 520.788 388.148 518.005C385.329 514.758 386.585 511.021 390.604 509.943C393.255 509.227 399.382 510.944 401.911 513.943C401.708 514.368 401.719 514.915 402.069 515.288C402.08 515.297 402.092 515.306 402.099 515.319C402.191 515.668 402.388 515.986 402.672 516.209C402.797 516.318 402.921 516.425 403.043 516.529C403.114 517.143 403.63 517.389 404.076 517.263C404.465 517.346 404.869 517.206 405.142 516.896C405.291 516.779 405.413 516.629 405.488 516.462C406.119 516.514 406.729 516.543 407.334 516.436C413.074 517.794 417.953 520.475 422.681 524.669C422.798 524.763 422.899 524.76 423.008 524.787C423.604 526.47 424.187 528.171 424.759 529.861C424.942 548.522 427.053 569.066 433.248 585.975C433.677 587.147 435.323 586.81 435.105 585.545C432.343 569.486 429.213 553.965 427.644 538.113C428.276 539.801 428.937 541.482 429.66 543.147C431.518 560.83 434.36 578.364 439.669 595.362C424.164 576.112 408.995 556.659 391.738 538.923C391.314 538.491 390.678 539.111 391.08 539.562C408.66 559.465 424.982 580.458 441.611 601.171C441.813 601.741 441.985 602.322 442.19 602.892C427.053 584.831 412.066 566.685 396.785 548.758C384.057 530.384 369.334 513.747 353.827 497.825C350.177 491.006 346.956 483.963 344.022 476.789C344.012 469.701 345.058 462.6 345.473 455.57C345.754 450.891 346.202 445.016 344.976 439.993C345.411 440.118 345.856 440.203 346.332 440.254C347.291 440.361 347.535 439.019 346.806 438.535C346.203 438.144 345.672 437.701 345.16 437.24C344.911 436.815 344.592 436.386 344.429 435.964C344.148 435.201 343.558 434.791 342.936 434.648C340.64 431.083 340.426 426.676 342.459 422.324C343.794 419.484 350.946 413.775 353.351 418.452C355.168 421.979 353.36 427.46 352.262 430.839C350.992 434.753 348.902 438.542 346.592 441.901C346.141 442.573 347.008 443.386 347.67 443.041C353.017 440.225 355.311 432.776 356.484 427.155C357.416 422.709 357.832 416.172 352.842 413.97C350.421 412.897 347.402 414.202 345.261 415.202C341.813 416.844 339.788 420.017 338.678 423.624C337.578 427.152 337.84 431.962 339.735 435.508C339.526 435.962 339.513 436.496 339.892 437.051C347.048 447.394 343.125 461.033 342.627 473.319C338.987 464.066 335.77 454.618 332.69 445.124C332.687 445.11 332.695 445.105 332.688 445.093C329.414 435.172 330.48 424.033 332.927 414.093C334.295 414.924 335.61 412.855 334.601 411.642C334.274 411.262 333.952 410.875 333.637 410.488C333.609 410.44 333.619 410.402 333.587 410.346C333.473 410.156 333.369 409.967 333.264 409.783C337.105 413.698 342.998 415.247 346.595 410.425C349.755 406.187 350.186 399.868 348.709 394.802C347.338 390.077 341.88 384.503 336.902 388.076C336.495 388.374 336.443 389.082 337.034 389.248C340.887 390.322 343.865 390.781 345.363 395.076C346.62 398.664 346.442 403.069 344.979 406.492C343.455 410.059 340.651 411.048 337.302 408.931C332.405 405.836 328.045 395.335 333.966 391.352C334.343 391.104 334.141 390.475 333.668 390.587C326.301 392.106 327.891 401.529 331.195 407.091C329.895 406.64 328.258 407.895 329.149 409.431C329.41 409.877 329.651 410.335 329.894 410.785C329.923 411.132 330.052 411.482 330.386 411.806C330.5 411.951 330.628 412.093 330.745 412.242C329.845 419.617 328.581 426.674 329.04 433.758C326.393 425.451 323.739 417.158 320.884 408.998C320.855 408.919 320.803 408.847 320.757 408.766C318.683 402.437 319.959 397.363 318.953 390.967C318.804 389.073 318.36 387.253 317.706 385.468C317.751 385.41 317.752 385.329 317.78 385.261C319.864 386.13 321.999 386.301 323.705 384.944C327.313 382.082 325.765 375.798 324.449 372.079C322.899 367.684 318.251 358.681 312.728 358.739C312.143 358.745 311.631 359.4 311.988 359.984C312.911 361.485 314.568 362.554 315.817 363.811C317.546 365.541 318.883 367.564 320.034 369.728C321.752 372.944 323.268 377.302 322.516 380.947C321.609 385.379 315.344 380.194 313.843 378.758C309.893 374.95 306.467 367.548 308.911 362.264C309.282 361.451 308.236 360.808 307.722 361.523C303.802 367.03 307.058 374.546 310.669 379.501C311.519 380.669 312.911 382.105 314.525 383.328C317.358 388.769 316.674 394.331 316.836 399.851C312.398 392.161 305.503 384.746 300.038 379.227C299.985 379.113 299.918 378.991 299.814 378.891C299.554 378.655 299.302 378.431 299.041 378.195C299.282 377.875 299.521 377.574 299.731 377.199C303.178 371.203 301.392 365.033 295.007 362.173C289.807 359.846 282.394 359.872 277.571 362.823C272.357 366.015 274.946 370.791 278.822 373.643C282.879 378.427 290.506 383.404 296.005 380.825C296.872 381.797 297.896 382.117 299.573 382.198C307.229 390.204 313.168 399.374 318.639 408.977C318.805 409.431 318.98 409.881 319.155 410.331C319.192 410.503 319.256 410.67 319.347 410.829C320.667 414.256 321.914 417.72 323.127 421.18C316.177 414.522 311.215 406.084 303.129 400.576C302.915 400.421 302.709 400.42 302.508 400.405C302.471 400.149 302.362 399.905 302.044 399.758C301.955 399.713 301.232 399.486 300.574 399.251C298.432 393.783 294.039 387.956 288.993 386.222C283.587 384.36 276.343 387.219 276.314 393.634C276.278 399.499 282.594 404.428 287.129 406.931C291.395 409.282 300.319 411.708 302.943 406.026C303.895 406.371 304.91 405.681 304.886 404.64C311.33 409.485 315.094 417.532 321.542 422.21C323.884 430.052 326.604 437.768 329.466 445.442C328.591 444.271 327.705 443.129 326.851 441.992C324.842 439.294 322.746 436.674 320.585 434.086C319.525 432.822 318.158 431.571 316.844 430.277C317.059 429.74 316.956 429.04 316.39 428.774C315.924 428.548 315.35 428.305 314.777 428.026C314.226 427.344 313.741 426.653 313.369 425.925C313.148 425.484 312.678 425.199 312.206 425.107C311.05 420.882 306.605 417.046 303.217 415.343C297.837 412.633 290.836 415.511 290.441 422.019C289.794 432.89 308.969 440.222 311.953 431.449C312.421 431.707 312.92 431.722 313.378 431.59C314.005 431.627 314.668 431.525 315.416 431.255C317.677 433.565 319.753 436.083 321.797 438.574C325.189 442.724 328.066 447.793 331.818 451.686C334.465 458.639 337.167 465.583 339.732 472.566C341.848 478.314 343.714 484.105 345.834 489.755C327.39 471.344 308.189 453.647 290.223 434.963C289.851 434.586 289.336 435.108 289.653 435.516C294.2 441.386 299.191 446.864 304.404 452.154C292.555 441.444 280.465 431.014 268.207 420.811C266.996 418.189 265.842 415.54 264.668 412.907C263.191 409.581 260.397 405.128 259.588 401.277C259.822 400.982 259.945 400.602 259.95 400.15C259.965 400.013 259.917 399.875 259.91 399.736C259.892 399.65 259.911 399.575 259.889 399.481C259.879 399.455 259.876 399.44 259.866 399.414C259.843 399.347 259.832 399.273 259.808 399.203C259.685 398.798 259.579 398.381 259.449 397.98C259.205 397.219 258.567 396.66 257.839 396.403C257.727 396.234 257.587 396.072 257.472 395.898C257.563 395.894 257.653 395.907 257.741 395.888C265.997 394.757 267.553 386.404 264.347 379.715C261.561 373.902 255.342 367.914 248.829 367.214C243.905 366.685 242.322 370.12 242.165 374.236C242.085 374.015 242.01 373.775 241.948 373.585C241.793 373.124 241.015 373.121 241.06 373.679C241.257 375.8 241.917 378.613 242.972 381.529C243.252 382.768 243.566 383.893 243.845 384.753C243.955 385.08 244.232 385.155 244.449 385.076C246.655 389.713 249.832 393.958 253.762 395.397C253.474 395.97 253.363 396.652 253.642 397.33C253.618 397.344 253.58 397.36 253.559 397.378C254.121 398.195 254.62 399.037 255.133 399.877C255.208 400.254 255.356 400.622 255.697 400.971C255.856 401.14 256.009 401.326 256.172 401.493C256.288 401.613 256.396 401.665 256.52 401.753C256.541 401.773 256.552 401.783 256.571 401.788C256.773 401.95 256.98 402.069 257.194 402.134C259.624 404.664 260.886 409.009 262.253 412.018C263.207 414.124 264.198 416.21 265.218 418.278C264.98 418.08 264.739 417.884 264.498 417.675C261.823 415.467 259.112 413.273 256.383 411.107C256.398 411.114 256.427 411.13 256.441 411.154C256.837 411.46 257.306 410.819 256.968 410.489C249.587 403.222 241.075 397.17 232.272 391.62C231.12 389.502 230.238 387.167 229.454 385.377C228.311 382.767 227.201 380.132 226.112 377.491C226.446 376.987 226.53 376.316 226.138 375.594C225.775 374.934 225.394 374.296 225.001 373.666C225.349 373.611 225.698 373.573 226.048 373.474C233.104 371.584 233.896 362.916 230.718 357.401C227.945 352.589 221.811 347.556 216.077 348.025C210.697 348.467 210.229 353.656 211.284 358.397C211.176 358.454 211.083 358.545 211.102 358.723C211.53 363.495 214.577 369.629 219.04 372.355C218.892 372.826 218.912 373.352 219.274 373.888C220.25 375.318 220.825 376.621 222.035 377.861C222.411 378.24 223.044 378.325 223.545 378.142C223.659 378.205 223.751 378.256 223.858 378.285C225.464 381.934 226.829 385.727 228.523 389.308C224.297 386.718 220.042 384.214 215.836 381.737C215.36 381.465 215.008 382.116 215.421 382.446C216.735 383.479 218.065 384.463 219.405 385.458C217.607 384.425 215.81 383.374 213.984 382.397C212.951 380.087 210.861 377.9 209.514 376.251C205.65 371.51 201.052 367.348 197.116 362.681C197.129 362.513 197.114 362.371 197.077 362.21C197.078 362.193 197.087 362.173 197.084 362.142C197.061 361.747 197.055 361.467 197.035 361.19C197.376 361.199 197.702 361.267 198.037 361.228C205.507 360.416 201.48 345.155 199.523 341.271C196.567 335.391 189.6 331.759 183.406 333.942C176.526 336.378 175.581 344.76 179.356 350.482C179.812 351.168 180.859 350.835 180.686 349.987C179.688 344.998 178.762 338.617 184.557 336.583C189.552 334.826 194.594 338.234 197.067 342.577C198.618 345.293 202.105 359.044 196.498 358.629C196.462 358.538 196.453 358.495 196.43 358.401C196.129 357.52 195.146 357.38 194.613 358.093C194.594 358.115 194.584 358.126 194.568 358.151C190.271 356.572 185.948 352.269 182.927 349.255C182.272 348.61 181.31 349.536 181.931 350.228C184.318 352.902 187.452 356.747 191.026 359.12C190.719 359.671 190.677 360.336 191.156 361.007C192.025 362.216 192.621 363.189 193.707 363.786C194.044 364.03 194.423 364.163 194.824 364.177C194.887 364.206 194.912 364.223 194.961 364.227C195.134 364.257 195.288 364.249 195.444 364.244C200.705 368.985 205.736 374.486 210.002 380.295C202.978 376.736 195.75 373.627 188.278 371.101C188.48 368.542 187.602 365.684 186.616 363.59C185.091 360.331 182.203 358.08 179.01 356.707C173.639 354.399 165.977 355.355 161.899 359.558C158.037 363.552 160.228 367.971 163.773 370.928C163.641 371.168 163.654 371.518 163.904 371.714C168.971 375.704 182.047 380.733 187.019 374.583C187.494 373.999 187.783 373.323 187.998 372.611C196.716 376.408 205.221 380.717 213.565 385.448C213.611 385.518 213.675 385.611 213.733 385.686C213.857 385.875 214.12 385.946 214.319 385.883C216.32 387.021 218.32 388.165 220.292 389.348C213.624 387.745 206.556 388.518 199.835 389.848C199.551 389.882 199.28 389.928 199.033 390.007C198.36 390.148 197.702 390.288 197.036 390.432C190.513 384.442 172.761 388.499 174.077 398.414C174.138 398.867 174.789 398.915 174.984 398.563C175.256 398.096 175.542 397.654 175.831 397.227C180.24 400.999 187.087 402.358 192.584 401.419C195.807 400.864 199.12 397.786 199.047 394.449C199.766 394.07 200.323 393.458 200.781 392.662C208.146 391.167 215.743 391.337 223.298 392.211C223.756 392.261 224.04 392.008 224.152 391.674C231.619 396.306 238.936 401.251 246.131 406.454C241.772 405.834 237.544 406.97 233.248 408.111C233.255 408.043 233.282 407.979 233.287 407.907C233.361 407.219 232.476 406.683 231.916 407.032C230.778 407.765 230.141 408.509 229.437 409.076C229.07 409.158 228.698 409.228 228.326 409.3C227.632 404.822 222.47 401.505 218.326 401.125C213.022 400.633 206.808 403.146 203.951 407.72C200.614 413.062 205.57 419.922 211.127 421C211.727 421.116 212.137 420.486 211.726 419.982C211.205 419.345 210.568 418.701 209.91 418.063C215.572 419.938 224.076 419.173 227.233 414.218C230.283 414.256 231.924 413.054 232.739 410.546C238.652 409.045 244.835 408.563 250.814 409.887C258.825 415.851 266.689 422.087 274.379 428.587C273.867 428.405 273.369 428.22 272.824 428.102C271.285 427.77 269.702 427.651 268.148 427.448C266.662 427.257 266.364 428.986 267.149 429.931C261.25 425.5 252.436 424.083 246.008 426.702C237.029 430.357 244.632 441.856 250.126 445.147C256.006 448.682 263.816 446.609 267.828 441.504C269.7 439.11 269.681 436.156 268.494 433.758C268.621 433.871 268.758 433.974 268.875 434.089C269.716 434.939 270.891 433.801 270.234 432.884C270.824 432.876 271.411 432.856 271.908 432.866C273.554 432.903 275.196 432.944 276.844 432.985C277.66 433.005 278.173 432.547 278.394 431.952C286.235 438.695 293.905 445.649 301.426 452.7C299.399 452.104 297.334 451.643 295.121 451.557C294.878 451.535 294.691 451.605 294.532 451.701C294.273 451.538 293.989 451.463 293.699 451.418C293.264 451.226 292.848 451.028 292.436 450.799C292.206 450.671 291.952 450.628 291.688 450.627C287.391 445.311 277.437 448.63 273.161 451.959C267.232 456.582 269.061 464.559 275.291 468.069C280.973 471.276 289.106 470.305 294.162 466.636C298.23 463.685 298.891 459.101 296.747 455.324C296.885 455.373 297.035 455.43 297.184 455.488C298.148 455.826 298.969 454.817 298.755 453.935C300.597 454.218 302.415 454.768 304.224 455.33C311.328 462.047 318.283 468.849 325.129 475.635C318.923 474.01 312.248 474.038 305.969 473.526C294.523 472.598 282.995 472.22 271.636 470.175C271.165 470.094 270.955 470.804 271.434 470.91C280.854 472.904 290.178 473.915 299.74 474.688C304.24 475.045 308.737 475.811 313.224 476.587C312.779 476.559 312.313 476.534 311.862 476.498C296.685 475.537 281.646 473.509 266.541 471.616C266.655 470.575 265.932 469.42 264.737 469.373C254.04 469.041 245.603 460.566 238.122 453.027C240.21 452.828 241.998 451.844 242.871 449.506C245.129 443.462 238.212 437.034 233.619 434.275C228.662 431.295 220.558 430.973 219.866 438.325C219.267 444.65 226.903 449.633 231.044 453.043C231.473 453.397 232.006 452.906 231.655 452.448C231.448 452.169 231.233 451.902 231.022 451.631C232.686 452.327 234.6 452.897 236.423 453.043C239.682 456.742 243.083 460.349 246.933 463.386C248.231 464.411 249.562 465.332 250.917 466.177C247.13 465.104 243.016 464.191 239.871 463.459C239.723 463.147 239.442 462.9 239.018 462.894C238.532 462.872 238.05 462.904 237.559 462.903C236.658 462.677 235.888 462.466 235.382 462.285C231.634 460.964 227.941 459.611 224.155 458.703C224.049 458.6 223.919 458.509 223.73 458.459C222.923 458.264 222.118 458.069 221.312 457.872C220.998 457.797 220.743 457.869 220.547 458.017C219.261 457.83 217.97 457.691 216.645 457.656C216.384 457.642 216.129 457.669 215.877 457.67C216.155 457.098 216.041 456.352 215.417 455.916C206.761 449.749 200.975 442.662 195.166 434.199C195.188 434.155 195.209 434.11 195.212 434.06C196.938 423.592 190.836 405.433 177.379 409.874C173.292 411.226 173.248 415.474 174.686 418.953C176.646 423.669 181.423 427.643 186.379 427.728C186.507 427.735 186.565 427.669 186.659 427.632C186.69 427.694 186.686 427.761 186.717 427.814C188.328 430.434 190.291 432.523 192.418 434.717C192.73 435.042 193.204 435.213 193.655 435.221C195.996 439.997 195.875 442.736 188.987 439.864C183.763 437.676 178.651 435.282 173.403 433.205C173.419 432.505 173.384 431.731 173.23 430.838C172.089 424.014 166.953 419.078 160.338 418.028C155.613 417.278 149.7 419 147.401 423.464C144.422 429.276 150.334 435.661 155.477 437.544C155.969 437.721 156.243 437.094 155.955 436.743C153.506 433.747 147.831 429.448 149.802 424.94C151.252 421.62 155.598 420.631 158.856 420.697C163.429 420.797 167.309 423.511 169.366 427.639C170.295 429.504 170.895 431.689 170.89 433.756C170.894 436.01 168.236 435.956 166.666 435.927C163.349 435.856 159.922 435.104 156.61 434.735C156.159 434.688 156.06 435.418 156.501 435.524C161.756 436.815 171.702 440.899 173.209 434.757C180.962 438.897 188.942 442.453 197.031 445.816C198.19 446.302 198.892 444.894 198.509 443.966C198.069 442.92 197.638 441.869 197.205 440.824C200.661 446.106 205.026 451.348 210.001 455.119C211.393 456.175 206.803 456.888 205.481 456.945C203.623 457.46 201.195 458.181 199.435 458.867C197.986 455.888 194.653 453.665 191.259 453.24C185.397 452.485 178.582 454.44 174.715 459.021C170.842 463.61 173.14 469.686 178.424 472.015C178.84 472.202 179.274 471.624 179.027 471.25C176.803 467.887 174.103 464.4 177.178 460.761C179.832 457.619 184.518 456.265 188.495 456.084C191.153 455.966 194.147 456.75 195.83 458.592C195.377 458.839 195.158 459.437 195.605 459.928C195.968 460.343 196.468 460.617 197.034 460.844C197.218 461.644 197.219 462.551 196.987 463.569C195.648 469.484 184.925 471.202 180.142 469.697C179.733 469.569 179.452 470.205 179.844 470.406C186.262 473.803 195.785 472.24 199.312 465.547C200.069 464.121 200.305 462.716 200.175 461.395C202.219 461.415 204.613 461.029 206.947 460.519C212.056 460.006 217.1 459.258 222.294 460.124C225.506 461.05 228.71 462.037 231.911 463.06C230.528 463.28 230.224 465.025 231.247 465.878C230.768 466.233 230.297 466.661 229.822 467.11C229.327 467.58 229.211 468.157 229.292 468.701C228.849 469.141 228.406 469.577 227.985 470.044C227.311 470.011 226.603 470.054 225.844 470.189C212.956 469.513 196.279 486.254 212.584 493.123C220.708 496.546 229.644 488.935 233.214 482.376C235.584 478.036 234.57 472.953 231.074 470.926C232.242 470.273 234.355 469.013 234.554 468.899C234.646 468.841 234.719 468.773 234.792 468.699C235.51 468.271 236.225 467.846 236.966 467.447C237.779 467.03 238.047 466.029 237.813 465.187C237.958 465.168 238.089 465.141 238.23 465.109C243.051 466.7 247.864 468.352 252.657 469.942C254.01 470.397 256.701 471.683 259.064 472.194C256.683 473.719 254.403 475.37 251.899 476.89C248.968 478.666 246.438 480.132 244.296 482.88C244.193 483.036 244.164 483.189 244.156 483.346C241.918 484.216 239.677 488.051 238.651 489.614C236.804 492.396 235.094 496.109 235.596 499.608C236.669 506.976 245.808 507.866 250.842 504.59C255.765 501.4 259.126 494.785 258.289 488.761C257.651 484.218 254.31 482.663 250.651 482.736C251.999 482.186 253.309 481.531 254.602 480.665C254.981 480.415 254.783 479.666 254.283 479.832C252.158 480.534 250.014 481.155 247.845 481.713C252.483 477.286 258.419 476.124 264.245 473.578C264.334 473.714 264.468 473.83 264.687 473.859C267.698 474.202 267.055 474.242 269.072 473.948C269.205 474.699 270.637 474.853 273.387 474.377C277.69 474.995 281.995 475.589 286.295 476.163C287.343 476.3 288.376 476.404 289.414 476.524C288.711 476.863 287.988 476.65 287.035 476.697C287.034 476.713 287.044 476.74 287.04 476.758C285.932 476.776 285.495 477.926 285.956 478.711C278.751 482.761 269.848 486.328 267.311 494.574C265.656 499.949 270.463 505.607 275.781 504.481C281.396 503.287 285.966 497.022 287.742 491.866C289.12 487.863 287.479 483.395 283.849 482.414C285.855 481.408 287.884 480.48 289.844 479.567C290.262 479.509 290.659 479.309 291.031 479.016C291.055 479.002 291.092 478.986 291.128 478.966C291.125 478.962 291.121 478.954 291.114 478.942C291.3 478.787 291.491 478.677 291.67 478.441C292.08 477.917 291.907 477.251 291.5 476.77C296.855 477.408 302.212 477.944 307.588 478.293C309.913 478.44 312.16 478.574 314.376 478.771C313.97 479.339 313.903 480.126 314.574 480.711C314.866 480.976 315.173 481.16 315.484 481.357C313.832 484.759 312.823 488.455 312.439 492.252C312.116 492.7 311.775 493.12 311.482 493.6C310.844 494.629 311.955 495.858 313.021 495.537C313.505 495.776 314.115 495.765 314.544 495.349C315.028 494.867 315.524 494.387 316.015 493.909C316.744 493.193 316.336 492.078 315.578 491.688C315.745 490.959 315.923 490.243 316.109 489.53C316.219 489.531 316.32 489.58 316.472 489.692C316.632 489.808 316.857 489.584 316.751 489.419C316.586 489.158 316.415 489.023 316.263 488.951C316.946 486.415 317.797 483.932 319.073 481.547C319.116 481.458 319.112 481.396 319.146 481.299C319.148 481.293 319.153 481.283 319.153 481.283C319.651 480.779 319.664 479.936 319.28 479.352C323.425 480.004 327.473 481.1 331.556 483.256C335.623 485.405 335.164 487.438 337.478 488.045C338.696 489.266 339.935 490.496 341.137 491.719C344.595 495.225 348.011 498.755 351.401 502.317C353.552 506.314 356.077 510.147 359.238 513.703C359.631 514.143 360.385 513.608 360.057 513.105C359.109 511.642 358.232 510.165 357.364 508.684C379.915 532.858 401.118 558.151 422.232 583.517C422.199 583.488 422.181 583.45 422.141 583.441C412.104 579.985 401.702 577.948 391.227 576.168C397.425 577.028 403.652 577.794 409.942 578.403C410.512 578.456 410.582 577.616 410.072 577.439C393.013 571.387 373.927 571.753 356.284 568.479C353.695 567.996 351.143 567.406 348.602 566.749C339.236 562.474 331.699 555.138 325.347 547.004C325.344 546.861 325.311 546.723 325.26 546.575C326.678 545.81 327.864 544.584 328.593 542.8C331.128 536.636 327.506 529.144 322.651 525.083C316.335 519.79 307.289 521.954 301.482 526.398C300.854 526.887 301.517 527.871 302.201 527.733C308.193 526.515 313.622 524.113 319.638 527.211C323.664 529.286 325.983 535.043 325.937 539.295C325.906 542.316 324.555 543.726 322.704 544.136C322.336 543.83 321.955 543.522 321.587 543.206C320.446 542.254 319.051 542.817 318.632 543.816C316.396 543.152 314.182 541.854 312.878 540.559C309.614 537.323 307.96 533.18 306.498 528.956C306.255 528.244 305.33 528.331 305.249 529.064C304.584 534.784 309.314 542.125 313.811 545.319C315.801 546.725 318.329 547.571 320.768 547.619C321.552 548.429 321.97 548.59 324.194 549.801C324.347 549.877 324.491 549.878 324.632 549.884C329.271 554.577 333.669 559.964 338.938 563.912C327.42 560.167 316.199 555.357 304.759 551.317C304.288 551.158 303.959 551.92 304.427 552.132C308.982 554.199 313.566 556.107 318.17 557.884C316.399 557.764 314.654 557.717 312.931 557.775C313.555 557.305 313.462 556.319 312.638 555.988C307.938 554.089 303.351 552.273 299.026 549.734C299.243 549.497 299.351 549.157 299.283 548.826C298.968 547.17 298.495 545.538 297.934 543.926C298.026 543.633 298.048 543.327 297.923 543.042C296.892 540.514 295.664 538.082 294.239 535.748C293.987 534.271 293.637 533.258 293.206 532.677C293.474 532.126 293.47 531.476 292.97 530.97C296.19 529.611 298.573 526.42 298.355 522.571C297.995 516.485 293.191 510.507 288.142 507.528C283.558 504.815 276.266 506.091 276.738 512.698C276.772 513.217 277.385 513.609 277.797 513.192C280.526 510.316 282.291 508.217 286.428 510.477C290.082 512.471 293.091 516.415 294.445 520.352C295.85 524.438 293.963 527.61 289.934 528.248C289.701 528.031 289.457 527.819 289.223 527.612C288.194 526.701 287.062 526.993 286.472 527.76C281.648 525.838 274.577 519.765 276.763 515.893C277.036 515.408 276.422 514.972 276.022 515.292C269.996 520.065 282.412 529.429 286.204 531.021C286.581 531.179 286.966 531.235 287.345 531.33C289.206 533.897 291.023 536.497 292.828 539.1C292.892 539.192 293.162 539.6 293.53 540.188C292.943 540.395 291.749 540.126 289.564 539.033C286.07 537.299 282.726 535.557 279.198 534.032C279.104 533.679 278.859 533.387 278.394 533.302C276.875 532.67 275.366 532.515 273.88 532.806C273.98 530.837 273.562 528.821 272.67 527.217C269.782 522.014 263.543 518.605 257.875 518.043C251.395 517.403 247.165 522.839 248.654 529.127C248.839 529.929 250.003 529.971 250.205 529.18C251.346 524.83 252.8 521.246 257.835 521.518C261.886 521.737 265.975 524.325 268.668 527.324C269.676 528.44 270.354 529.889 270.59 531.331C270.386 531.416 270.193 531.543 270.103 531.739C270.027 531.879 269.963 532.012 269.887 532.15C269.576 532.75 269.832 533.525 270.522 533.738L270.525 533.742C270.166 535.354 269.127 536.731 267.096 537.31C261.994 538.774 254.445 531.686 251.955 527.734C251.513 527.017 250.401 527.6 250.83 528.347C254.126 534.089 260.782 540.995 267.822 540.259C271.064 539.92 272.931 537.585 273.608 534.789C281.273 537.527 288.393 541.332 295.951 544.354C297.058 546.475 297.642 548.197 295.938 547.117C295.584 546.883 295.28 546.949 295.027 547.105C295.016 547.096 294.995 547.075 294.969 547.058C293.918 546.272 292.972 547.974 293.975 548.773C294.609 549.301 295.282 549.783 295.94 550.278C297.187 552.002 296.889 551.559 296.343 550.586C296.68 550.839 297.002 551.121 297.351 551.356C297.488 551.46 297.624 551.518 297.758 551.538C298.187 551.922 299.105 552.456 300.988 553.303C300.991 553.307 309.534 556.665 308.215 557.024C304.135 558.121 299.613 558.281 295.418 558.792C295.147 558.819 294.956 558.928 294.785 559.042C291.954 554.4 283.005 553.208 278.573 554.161C272.269 555.517 266.689 561.816 269.686 568.525C274.658 579.671 298.548 579.115 297.105 564.799C297.002 563.757 295.759 563.557 295.372 564.505C293.564 568.921 291.314 572.086 286.421 572.917C282.308 573.61 277.392 572.162 274.23 569.315C269.932 565.447 272.718 560.384 276.924 558.133C280.027 556.467 283.91 556.488 287.275 557.411C291.062 558.454 292.601 561.217 294.241 564.501C294.491 564.992 295.206 564.889 295.353 564.396C295.528 563.769 295.619 563.179 295.652 562.621C295.991 562.995 296.495 563.208 297.16 563.015C302.117 561.624 313.774 557.222 318.835 558.126C318.917 558.159 318.98 558.188 319.051 558.213C318.202 558.279 317.822 559.518 318.667 560.06C327.786 565.901 338.685 566.297 348.811 569.236C348.303 569.205 347.787 569.148 347.27 569.121C345.954 569.053 346.011 570.949 347.252 571.145L347.75 571.303C345.996 572.404 344.451 573.867 342.974 575.393C342.443 574.712 341.486 574.393 340.735 575.176C339.397 576.368 338.14 577.605 337.336 579.238C337.284 579.365 337.253 579.496 337.225 579.63C336.062 579.224 334.758 579.015 333.381 578.937C333.248 578.868 333.121 578.791 332.976 578.729C332.604 578.56 332.225 578.669 331.979 578.901C325.345 578.963 317.328 581.923 313.432 585.02C306.882 590.224 308.983 599.548 316.722 602.589C328.58 607.262 345.792 591.712 337.959 582.312C338.025 582.29 338.104 582.293 338.164 582.275C338.409 582.231 338.605 582.102 338.75 581.924C339.201 581.97 339.667 581.864 340.112 581.506C341.329 580.496 342.702 579.528 343.524 578.149C345.587 575.964 347.661 573.778 350.131 572.084L352.726 572.932C353.394 573.299 354.214 572.385 353.576 571.849C353.451 571.74 353.362 571.667 353.251 571.571C355.912 571.776 358.569 572.106 361.219 572.492C376.714 576.776 392.882 579.477 408.737 582.016C415.699 583.883 422.347 586.382 427.757 590.153C444.619 610.417 461.509 630.663 479.107 650.347C480.411 651.805 482.53 649.756 481.231 648.297C469.195 634.791 457.474 621.038 445.858 607.217C445.679 606.741 445.529 606.26 445.355 605.782C462.694 627.291 481.023 650.383 504.008 665.901C504.585 666.29 505.266 665.442 504.759 664.944C484.336 645.126 464.531 625.809 446.436 603.673C445.354 602.342 444.286 601.016 443.208 599.683C440.584 591.684 438.513 583.535 436.834 575.284C437.356 574.283 437.855 573.289 438.328 572.28C438.484 572.175 438.615 572.02 438.699 571.84C441.302 565.256 443.782 558.66 446.114 552.024C451.282 547.168 455.851 541.65 461.074 536.861C461.611 536.894 462.124 536.895 462.636 536.867C463.554 538.387 465.063 539.604 466.652 540.33C471.419 542.536 477.474 541.322 480.977 537.556C483.445 534.906 484.867 530.826 483.325 527.26C481.535 523.139 476.477 523.815 473.33 525.396C471.669 526.236 470.248 527.436 468.94 528.758C468.829 528.617 468.659 528.538 468.447 528.558C466.044 528.729 463.391 529.478 462.281 531.617C460.591 532.058 458.885 532.426 457.205 532.916C455.256 533.501 455.389 536.78 457.642 536.714C457.733 536.71 457.808 536.715 457.895 536.714C454.367 540.35 450.972 544.121 447.544 547.862C449.891 540.898 452.055 533.875 453.885 526.681C454.684 523.502 455.055 520.335 455.182 517.155C456.966 515.686 458.318 513.788 459.784 511.984C460.692 510.878 461.727 509.879 462.971 509.195C463.445 509.369 463.934 509.493 464.418 509.55C466.799 511.013 470.267 510.425 472.935 508.085C474.018 507.141 472.685 505.662 471.526 506.127C470.34 506.603 468.459 507.74 466.925 507.572C466.916 507.448 466.948 507.339 466.904 507.227C467.031 506.708 466.849 506.182 466.483 505.79C466.055 505.332 465.407 505.121 464.802 505.411C464.536 504.264 464.638 502.936 464.725 501.963C465.169 496.781 468.318 492.138 472.715 489.713C476.527 487.592 481.741 487.668 482.347 493.076C482.893 497.95 479.506 501.955 476.939 505.586C476.584 506.09 477.266 506.76 477.773 506.474C482.842 503.558 486.124 496.602 484.314 490.677C482.328 484.185 475.1 485.285 470.516 487.577C464.807 490.451 461.24 497.996 461.692 504.386C461.711 504.637 461.757 504.864 461.788 505.092C460.964 505.404 460.374 506.325 460.548 507.196C459.777 507.799 459.051 508.485 458.416 509.201C457.343 510.394 456.345 511.718 455.392 513.071C455.319 513.081 455.279 513.12 455.224 513.162C455.068 506.318 453.977 499.467 453.333 492.579C453.77 492.313 454.038 491.762 453.76 491.161C453.491 490.584 453.262 490.103 453.073 489.69C453.049 489.341 452.903 489.068 452.69 488.86C452.213 487.864 451.965 487.404 451.493 486.78C451.616 486.629 451.766 486.527 451.882 486.364C454.873 482.292 455.023 476.53 453.171 471.838C451.366 467.248 445.275 463.855 441.014 467.115C440.673 467.374 440.862 468.02 441.268 468.115C444.955 468.956 447.92 468.731 449.902 472.611C451.432 475.607 451.218 479.481 450.147 482.512C449.925 483.155 449.618 483.694 449.278 484.165C447.911 482.75 445.685 484.382 446.257 486.13C445.284 486.295 444.197 486.187 443.057 485.754C437.6 483.699 435.449 473.038 440.661 469.92C441.194 469.599 440.75 468.786 440.194 469.05C433.705 472.112 434.534 481.216 438.613 486.219C440.961 489.115 444.672 490.102 447.835 489.165C448.656 490.589 449.542 491.981 450.528 493.316C450.783 493.679 451.097 493.896 451.431 493.999C450.917 495.052 451.071 496.359 451.913 497.934C452.53 502.526 453.066 507.093 453.337 511.716C453.418 513.174 453.387 514.619 453.324 516.056C453.264 516.17 453.208 516.267 453.149 516.366C452.994 516.693 453.077 517.076 453.256 517.388C452.803 523.39 451.24 529.224 449.708 535.016C448.253 540.501 446.431 545.863 444.487 551.175C444.402 551.272 444.322 551.366 444.227 551.452C443.972 551.727 443.986 552.031 444.087 552.302C441.972 558.028 439.709 563.706 437.587 569.42C436.93 570.222 436.897 570.397 436.813 571.518C436.814 571.528 436.813 571.528 436.811 571.535C436.655 571.974 436.5 572.415 436.338 572.842C431.123 545.892 429.969 517.833 427.556 490.257C427.853 490.215 428.127 489.994 428.081 489.606C427.212 482.585 427.315 475.723 427.78 468.722C428.284 461.136 428.941 451.888 431.836 444.661C432.562 444.409 433.152 443.584 433.108 442.748C433.325 442.799 433.528 442.79 433.73 442.766C436.12 444.514 438.954 444.568 440.753 440.645C441.001 440.117 440.362 439.492 439.899 439.943C438.015 441.834 436.424 441.767 435.159 440.723C435.082 440.301 434.841 439.891 434.342 439.586C434.202 439.505 434.106 439.447 433.999 439.382C432.413 436.893 431.683 432.788 432.075 430.55C432.739 426.701 436.005 421.813 440.391 422.922C444.057 423.853 446.259 428.097 447.224 431.443C448.66 436.419 447.227 441.104 445.909 445.828C445.743 446.432 446.558 447.014 446.999 446.51C451.508 441.369 451.625 433.695 448.907 427.502C446.836 422.793 441.855 418.522 436.617 420.095C430.166 422.041 428.052 430.929 429.71 436.81C429.889 437.438 430.137 438.063 430.431 438.664C430.105 438.883 429.839 439.208 429.691 439.62C429.377 440.589 429.417 441.179 429.576 441.954C429.507 442.106 429.433 442.253 429.429 442.419C429.249 450.233 426.887 458.162 426.167 465.984C425.941 468.404 425.865 470.828 425.845 473.252C423.771 455.318 420.651 437.74 415.015 420.95C416.722 418.866 417.401 416.13 418.123 413.404C419.631 411.894 420.085 409.456 421.295 407.687C421.563 407.3 421.495 406.777 421.251 406.378C422.108 407.145 423.086 407.765 424.213 408.166C429.509 410.036 433.584 406.799 434.882 401.723C436.134 396.788 435.1 390.736 431.84 386.692C428.145 382.108 422.067 384.061 419.324 388.365" fill="#FFF1E1"/>
</g>
<defs>
<clipPath id="clip0">
<rect width="332.203" height="469.83" fill="white" transform="translate(75 308.894) rotate(-68.4091)"/>
</clipPath>
<clipPath id="clip1">
<rect width="402.278" height="568.936" fill="white" transform="translate(0 701.703) rotate(-65.0391)"/>
</clipPath>
<clipPath id="clip2">
<rect width="317.013" height="448.346" fill="white" transform="translate(93 380.639) rotate(-29.8191)"/>
</clipPath>
</defs>
</svg>
