<svg width="226" height="219" viewBox="0 0 226 219" fill="none" xmlns="http://www.w3.org/2000/svg">
<path d="M83.0157 197.437C81.5082 196.095 80.2096 193.897 81.6016 192.081C84.4841 188.314 90.9816 192.002 92.4385 195.426C92.4865 195.548 92.5941 195.605 92.7085 195.634C92.3647 197.801 92.0422 200.146 89.3012 200.273C87.0121 200.38 84.6345 198.88 83.0157 197.437L83.0157 197.437ZM12.8099 140.209C14.1472 140.696 15.4688 141.186 16.7952 141.677C19.3592 143.443 21.8953 145.289 24.361 147.303C25.49 148.226 26.608 149.165 27.7166 150.098C22.7853 146.767 17.8336 143.432 12.81 140.209L12.8099 140.209ZM-2.39959 159.86C-2.45638 160.459 -1.81433 160.892 -1.2741 160.536C-1.06819 160.406 -0.885561 160.236 -0.693445 160.085C-0.601132 160.401 -0.296916 160.579 0.0359655 160.626C0.136211 161.196 0.0622456 161.838 -0.0841742 162.431C-0.106124 162.322 -0.128056 162.213 -0.143663 162.106C-0.223481 161.714 -0.863609 161.63 -0.906698 162.08C-1.10123 163.915 -1.3455 165.853 -1.92415 167.616C-2.22584 168.541 -2.60887 169.475 -3.47716 169.988C-3.8673 170.214 -4.44491 170.107 -5.03466 169.786C-5.5916 169.489 -6.21489 168.778 -6.57301 168.12C-7.64415 166.134 -7.41603 163.75 -6.19875 161.895C-5.35486 160.599 -3.92198 159.296 -2.27217 159.12C-2.3237 159.353 -2.37393 159.576 -2.39509 159.858L-2.39959 159.86ZM20.9329 66.7843C20.2792 63.374 21.4711 59.4929 23.8335 56.96C25.1617 55.5498 26.9305 55.2758 28.7783 55.6172C32.2316 56.2589 31.7341 60.1907 31.1796 62.6022C30.3946 65.988 28.4391 68.6423 26.6765 71.471C23.8091 71.2954 21.572 70.1444 20.9329 66.7843ZM39.0753 77.2432C39.8393 76.6165 45.0239 70.7876 43.2828 74.4344C43.1891 74.635 43.2318 74.8585 43.3534 75.0361C40.8525 76.5936 38.4035 78.2033 36.003 79.8613C37.0159 78.9786 38.0325 78.0996 39.0754 77.2435L39.0753 77.2432ZM84.4183 109.562C84.7132 109.39 84.9773 109.159 85.2543 108.961C84.697 109.531 84.1139 110.088 83.5833 110.678C82.6316 110.799 81.6985 110.907 80.7499 111.024C82.2443 110.51 83.6873 110.014 84.4184 109.562L84.4183 109.562ZM93.8782 82.1081C92.5834 79.6746 91.9586 76.7222 92.5008 74.0278C92.7804 72.6449 93.6957 71.7005 95.152 71.5709C98.5647 71.271 99.9383 74.5591 100.28 77.2412C100.539 79.3171 100.383 81.4847 100.061 83.6445C97.2562 85.3957 95.5898 85.3356 93.8779 82.1082L93.8782 82.1081ZM107.212 68.1344C104.686 66.4473 103.307 62.9183 103.438 60.0377C103.599 56.567 107.557 53.1572 110.468 56.5161C111.654 57.8824 112.312 59.6921 112.831 61.3764C113.1 62.2426 113.097 63.6324 113.459 64.6585C112.092 67.1564 110.168 70.0998 107.212 68.1344ZM121.593 57.2687C120.208 53.4961 120.578 48.1848 123.924 45.5579C128.52 41.941 131.184 47.068 131.518 50.8931C131.805 54.21 130.751 58.0627 128.2 60.3898C124.95 61.6848 123.032 61.1865 121.593 57.2686L121.593 57.2687ZM178.152 60.493C175.592 64.4906 169.798 62.9708 165.809 60.4662C166.753 60.491 167.688 60.5816 168.64 60.5759C170.077 60.5591 169.942 58.5803 168.688 58.3006C168.672 58.2168 168.636 58.1428 168.603 58.0648C168.614 58.0572 168.641 58.0635 168.652 58.0535C171.141 56.6925 181.645 55.0431 178.149 60.4905L178.152 60.493ZM136.83 73.607C137.055 73.5754 137.124 73.393 137.088 73.2312C137.454 72.9278 137.835 72.6528 138.197 72.4133C138.367 72.4917 138.549 72.5355 138.783 72.4599C138.897 72.4216 139.013 72.3936 139.127 72.3581C139.591 72.3514 140.09 72.2289 140.416 72.179C140.988 72.0906 141.18 71.3154 140.601 71.0704C140.435 70.9926 140.282 70.9528 140.128 70.922C140.132 70.8954 140.136 70.8687 140.133 70.8411C141.586 70.8293 143.029 70.8351 144.471 70.9947C146.031 71.161 147.724 71.5673 148.104 73.2764C148.522 75.1638 146.406 76.4626 144.956 77.1524C142.48 78.3236 138.418 79.0529 135.946 77.5237C134.236 76.4663 135.197 74.9086 136.611 73.6319C136.678 73.6232 136.759 73.6076 136.829 73.5994L136.83 73.607ZM105.813 97.2983C106.057 94.325 107.978 91.4644 110.399 89.7485C113.701 87.4156 117.644 88.8974 117.948 92.9582C118.223 96.7338 115.955 99.8839 112.765 101.59C112.747 101.585 112.748 101.579 112.729 101.576C111.838 101.293 110.869 101.518 110.452 102.229C107.673 101.704 105.544 100.614 105.812 97.3017L105.813 97.2983ZM136.718 95.3583C136.865 95.0847 136.601 94.7411 136.293 94.7773C133.604 95.1063 130.776 97.0012 129.516 93.5112C128.414 90.437 130.301 86.8236 133.089 85.3546C136.687 83.4569 144.246 84.3411 142.018 89.6736C141.028 92.0557 138.916 94.2435 136.456 95.7685C136.541 95.6301 136.638 95.5035 136.718 95.3581L136.718 95.3583ZM161.364 85.0151C161.465 84.8344 161.571 84.6484 161.682 84.4684C162.355 83.4321 161.293 82.3325 160.188 82.9337C160.127 82.9704 160.086 83.0007 160.03 83.0327C159.864 83.0183 159.692 83.0483 159.527 83.0957C158.694 80.0531 162.978 75.0816 164.806 73.3042C166.686 73.1126 168.491 73.2376 169.367 75.2568C170.41 77.6546 169.359 80.779 167.969 82.8102C166.461 85.0229 163.846 86.1807 161.365 85.0146L161.364 85.0151ZM182.261 74.9658C182.088 75.1171 181.917 75.2786 181.744 75.4327C181.648 75.4553 181.558 75.4697 181.456 75.4907C181.274 75.5283 181.088 75.6044 180.913 75.702C180.812 75.5971 180.706 75.5132 180.616 75.3818C179.558 73.9087 180.446 72.0973 181.313 70.7881C182.879 68.4143 185.493 65.69 188.284 64.6626C188.854 66.6323 188.964 68.505 188.179 70.5898C187.42 72.6048 185.934 74.715 183.951 75.8216C183.909 75.0519 182.961 74.3488 182.265 74.9661L182.261 74.9658ZM196.936 78.3272C196.681 76.0824 199.631 73.7414 201.154 72.5184C201.957 71.8682 202.809 71.2601 203.688 70.6811C203.751 70.6964 203.792 70.7322 203.864 70.7152C206.253 70.3184 210.816 69.2537 211.307 72.6472C211.723 75.519 209.545 78.5382 207.326 80.1547C205.932 81.1657 204.22 81.6843 202.481 81.5789C200.543 81.4614 197.19 80.504 196.936 78.3235L196.936 78.3272ZM189.647 97.4905C189.664 97.5654 189.69 97.6496 189.779 97.6976C191.697 98.7971 198.142 101.249 196.078 104.413C194.536 106.777 190.807 107.525 188.147 107.58C184.56 107.651 181.843 105.761 181.33 102.243C181.172 101.153 181.404 100.275 181.905 99.5785C182.451 99.7374 182.834 99.3874 182.965 98.9484C183.307 98.8111 183.53 98.5328 183.661 98.2124C185.331 97.4355 187.594 97.2539 189.647 97.4901L189.647 97.4905ZM169.418 107.081C171.922 108.845 174.544 111.386 172.208 113.524C169.924 115.617 165.983 116.025 162.99 115.786C159.495 115.509 156.304 113.712 156.622 109.925C157.048 104.919 164.259 105.773 169.418 107.081ZM118.776 121.689C118.328 121.507 117.886 121.417 117.438 121.353C117.292 121.269 117.125 121.218 116.941 121.192C116.183 118.947 116.452 117.211 118.827 115.61C120.974 114.156 124.469 113.439 126.815 114.902C130.212 117.013 128.218 120.94 125.353 122.207C123.949 122.826 121.518 123.336 119.472 123.072C119.576 122.534 119.354 121.93 118.776 121.688L118.776 121.689ZM114.754 130.553C114.498 130.648 114.244 130.742 113.994 130.857C109.512 129.322 105.059 127.701 100.604 126.089C105.357 127.475 110.092 128.899 114.754 130.553L114.754 130.553ZM138.074 127.213C138.202 126.512 137.758 125.708 136.811 125.817C135.394 125.968 134.143 126.209 132.851 126.637C133.989 123.925 135.068 121.994 137.934 120.481C140.509 119.123 143.997 118.287 146.884 119.165C148.449 119.642 149.137 120.868 149.047 122.412C148.918 124.832 147.293 126.229 145.078 126.951C142.828 127.688 140.443 127.501 138.074 127.213ZM159.543 128.538C159.659 128.536 159.72 128.472 159.793 128.429C161.583 128.497 163.046 129.139 162.536 131.438C161.936 134.099 159.697 136.665 157.496 138.221C155.112 139.907 152.63 139.888 150.96 137.341C150.463 136.591 150.232 135.877 150.16 135.205C150.187 135.014 150.187 134.815 150.123 134.63C150.312 130.988 155.99 128.656 159.543 128.541L159.543 128.538ZM55.0985 137.055C55.6647 136.751 55.3487 135.748 54.6395 135.829C53.8539 135.923 53.4621 135.966 53.2064 136.055C51.7595 134.208 50.9307 132.479 52.7553 130.331C54.4172 128.379 57.2778 127.349 59.8352 127.299C63.4374 127.233 65.0696 130.66 64.0855 133.727C62.8836 137.495 58.4213 138.529 55.0986 137.055L55.0985 137.055ZM76.3235 141.771C77.5175 141.572 77.3413 139.911 76.1259 139.944C75.9105 139.949 75.704 139.965 75.4986 139.98C75.4892 139.915 75.4611 139.849 75.4014 139.803C70.9524 136.198 76.7463 132.533 80.1659 131.323C83.1611 130.267 88.7763 131.074 89.0456 134.957C89.2537 137.956 85.7152 140.498 83.2963 141.595C80.7746 142.737 78.3157 142.645 75.9521 141.844C76.0699 141.815 76.197 141.788 76.3234 141.771L76.3235 141.771ZM91.1391 150.816C92.7844 151.538 94.1829 152.701 95.5164 153.859C95.848 154.146 98.5943 156.34 98.3085 156.801C98.2482 156.898 98.261 157.006 98.3039 157.098C96.8961 157.698 95.738 158.649 94.229 159.081C92.7989 159.49 91.2786 159.21 89.9369 158.646C87.7226 157.713 85.5744 155.549 85.3357 153.14C85.2756 152.562 85.4245 152.117 85.6623 151.741C85.9634 151.802 86.2674 151.881 86.5649 151.942C87.2679 152.095 87.736 151.116 87.144 150.71C87.1271 150.698 87.1008 150.686 87.0838 150.674C88.3843 150.228 90.0851 150.348 91.1385 150.81L91.1391 150.816ZM75.0291 168.779C74.7605 168.258 74.6741 167.735 74.9941 167.24C75.8544 165.927 77.9254 165.392 79.3488 164.935C81.0863 164.375 82.933 163.933 84.7506 163.67C85.0831 163.62 85.1451 163.3 85.0176 163.081C87.3806 163.591 89.4306 164.895 89.1564 167.646C88.876 170.445 86.4833 172.91 83.6362 173.309C81.688 173.586 79.7799 172.745 78.213 171.682C77.8596 171.437 77.255 171.032 76.6517 170.553C77.3169 170.407 77.3303 169.502 76.6423 169.341C76.2312 169.246 75.8584 169.211 75.4714 169.157C75.3692 168.989 75.2202 168.862 75.0293 168.781L75.0291 168.779ZM93.7329 195.069C93.6344 194.79 93.3389 194.736 93.0999 194.823C92.1908 191.201 87.946 188.292 84.1201 188.656C84.1294 188.654 84.13 188.65 84.1488 188.651C84.6721 188.578 84.9146 188.123 84.781 187.65C84.5872 186.996 84.3172 186.392 84.0051 185.808C83.6936 184.891 83.1912 184.069 82.4817 183.46C82.4343 183.399 82.3961 183.339 82.3543 183.286C81.5878 182.282 80.6344 181.252 80.0188 180.114C81.4896 180.603 82.9731 181.075 84.4685 181.507C89.4896 184.79 94.4504 187.941 100.314 189.432C99.8132 189.947 99.3983 190.578 99.106 191.342C98.9715 191.7 99.4145 191.977 99.6875 191.696C100.531 190.802 101.548 190.243 102.631 189.914C102.846 189.951 103.053 190.009 103.262 190.039C103.629 190.094 103.914 189.895 104.058 189.624C106.548 189.351 109.263 190.16 111.355 191.498C113.581 192.925 115.541 196.146 113.732 198.511C112.293 200.404 109.332 200.746 107.11 200.493C103.6 200.092 101.511 197.783 99.3399 195.337C99.0423 195.001 98.2752 195.141 98.4101 195.678C100.144 202.658 112.398 205.546 115.998 198.615C119.154 192.544 109.574 186.573 103.403 187.835C101.652 187.533 99.922 187.156 98.1556 186.942C97.9485 186.916 97.801 186.982 97.6823 187.076C94.5097 185.939 91.5494 184.348 88.6322 182.615C96.0919 184.432 103.856 185.45 112.042 185.342C112.236 185.718 112.628 185.994 113.189 185.933C113.385 185.915 113.58 185.892 113.779 185.872C113.799 185.868 113.8 185.857 113.818 185.86C114.414 185.794 115.007 185.693 115.608 185.611C116.279 186.378 117.321 186.969 118.578 187.291C122.037 188.174 126.287 187.486 129.325 185.74C132.694 183.794 132.487 180.181 129.57 177.937C129.288 177.718 128.769 178.009 128.968 178.356C130.166 180.492 130.555 182.509 128.315 183.989C126.202 185.387 123.177 185.742 120.674 185.57C119.994 185.519 118.915 185.394 118.062 185.05C118.641 184.496 118.298 183.383 117.25 183.35C117.099 183.347 116.948 183.343 116.797 183.34C116.818 183.218 116.811 183.109 116.858 182.975C118.663 178.362 125.329 177.876 128.88 180.783C129.151 181.007 129.561 180.716 129.428 180.4C128.359 177.883 124.704 177.366 122.276 177.361C119.466 177.357 117.206 178.936 115.652 181.081C115.091 181.862 114.83 182.608 114.781 183.304C114.633 183.329 114.507 183.38 114.409 183.465C114.134 183.481 113.848 183.505 113.561 183.527C113.552 183.526 113.535 183.517 113.525 183.522C113.331 183.54 113.128 183.557 112.932 183.572C112.583 183.596 112.338 183.748 112.161 183.946C111.383 183.98 110.609 184.034 109.831 184.045C105.895 184.162 101.966 183.834 98.0605 183.39C93.9432 182.929 89.9345 182.096 85.9967 181.018C85.5394 180.736 85.0827 180.454 84.6284 180.175C88.79 180.253 93.0755 179.363 96.7809 177.944C96.8396 177.925 96.8956 177.879 96.9504 177.84C97.1127 177.9 97.2913 177.943 97.4927 177.917C97.6495 177.903 97.8 177.888 97.9554 177.858C98.2183 177.859 98.4089 177.79 98.5748 177.686C98.7024 177.668 98.8259 177.658 98.9629 177.62C99.0625 177.588 99.1385 177.539 99.2242 177.494C104.454 180.973 114.094 174.94 113.806 169.21C113.788 168.808 113.186 168.733 113.031 169.082C111.252 172.98 105.436 177.849 100.673 175.999C99.4567 175.526 99.313 174.193 99.372 173.101C99.4552 171.512 101.912 170.642 103.138 170.138C105.501 169.158 108.389 168.426 110.972 168.424C111.335 168.42 111.351 167.838 110.995 167.803C107.422 167.496 103.089 167.768 99.9633 169.624C98.0047 170.792 96.7272 173.239 97.4526 175.345C97.2791 175.384 97.0947 175.435 96.8861 175.485C96.7701 175.514 96.6823 175.574 96.5929 175.626C96.0477 175.735 95.4919 175.825 94.9377 175.881C94.0582 176.006 93.8739 176.795 94.2111 177.344C90.4098 178.743 86.251 178.529 82.2069 178.67C82.1637 178.645 82.1205 178.621 82.0883 178.598C81.7849 178.415 81.4581 178.516 81.2726 178.713C80.7864 178.735 80.2977 178.764 79.8187 178.805C79.6783 178.821 79.603 178.885 79.5503 178.974C79.5409 178.909 79.4922 178.857 79.4774 178.792C79.3359 178.196 78.5777 178.172 78.3724 178.626C77.4671 178.31 76.5567 177.995 75.6533 177.656C68.0534 174.807 60.8224 171.092 53.8245 166.995C54.4674 167.285 55.1207 167.575 55.7567 167.876C55.7899 168.037 55.8768 168.187 56.1101 168.239C56.3569 168.301 56.6068 168.355 56.8545 168.417C58.0977 169.024 59.3307 169.659 60.5172 170.367C60.8214 170.544 61.1433 170.044 60.8463 169.855C60.3652 169.557 59.8689 169.294 59.3887 169.009C62.8987 169.813 66.4537 170.527 70.0263 170.767C70.097 170.927 70.215 171.062 70.4193 171.082C71.8431 171.229 72.9526 171.156 74.2098 170.829C74.9436 171.648 75.8527 172.362 76.6127 172.923C78.6631 174.431 80.9419 175.441 83.5556 175.293C87.5302 175.066 90.7764 171.498 91.1474 167.76C91.3208 166.007 90.7306 164.376 89.4083 163.166C87.662 161.577 85.3171 161.728 83.1837 162.204C82.8536 162.276 82.7586 162.809 83.1598 162.834C83.454 162.858 83.7501 162.881 84.0437 162.923C80.4938 163.073 74.1123 163.269 72.9984 167.098C72.8089 167.738 72.849 168.352 73.0402 168.938C72.919 168.957 72.8006 168.977 72.6849 168.99C72.3652 169.041 72.1654 169.214 72.0411 169.426C66.7942 169.134 61.7407 167.592 56.4407 167.321C52.6836 165.294 48.8218 163.498 44.9763 161.576C42.0552 159.708 39.1648 157.807 36.3063 155.897C35.9108 155.639 35.5304 155.375 35.143 155.115C30.8865 151.713 26.9031 147.93 22.7832 144.551C22.2558 144.118 21.7152 143.686 21.1782 143.249C23.2708 143.968 25.3888 144.634 27.5828 145.153C33.5334 146.56 40.2448 145.295 46.3356 145.201C50.2064 146.679 54.4964 147.366 58.0146 149.475C57.9787 149.598 57.961 149.723 57.9889 149.854C58.0238 150.003 58.0546 150.155 58.084 150.303C58.1745 150.738 58.5599 151.192 59.081 151.096C59.3545 151.043 59.6327 151.028 59.9173 151.001C59.7375 151.17 59.5546 151.349 59.3842 151.551C57.2571 154.121 58.5266 157.283 61.001 159.084C63.5288 160.915 67.3366 161.821 70.397 161.033C73.6304 160.203 75.0944 157.114 73.4506 154.197C73.1766 153.708 72.5073 153.858 72.5047 154.414C72.4536 156.536 72.2813 158.439 69.9361 159.123C67.8584 159.734 65.4175 158.961 63.5566 158.051C62.0077 157.295 60.0492 155.695 60.6654 153.8C62.257 148.959 68.9919 151.079 71.2702 154.256C71.5401 154.629 72.0615 154.227 71.8414 153.844C69.9955 150.591 65.7436 148.5 62.2711 149.594C62.2309 149.068 61.8324 148.535 61.1382 148.561C61.1407 148.544 61.1432 148.526 61.1427 148.508C60.7167 148.585 60.2891 148.633 59.8654 148.695C56.9592 146.769 53.6496 146.067 50.3231 145.248C52.1285 145.28 53.9357 145.299 55.7466 145.363C55.6733 145.618 55.8194 145.923 56.1896 145.911C57.558 145.862 58.9122 145.737 60.2463 145.568C62.7022 145.698 65.1544 145.857 67.5947 146.07C70.8263 146.352 73.9902 146.966 77.1454 147.696C76.9284 147.648 80.1213 148.642 82.5041 149.317C82.1143 149.316 81.7213 149.305 81.3372 149.305C80.6931 149.296 80.5327 150.31 81.1377 150.517C82.5635 150.997 83.0196 151.189 83.5204 151.286C83.4231 151.512 83.2961 151.71 83.2267 151.963C82.3139 155.389 85.7066 158.828 88.4855 160.334C91.8545 162.153 97.7284 161.642 98.9948 157.506C99.0472 157.334 98.9414 157.185 98.7892 157.1C99.5468 156.354 98.6993 154.92 98.2773 154.231C97.0211 152.154 94.7595 150.556 92.6733 149.346C90.4252 148.047 87.2278 147.927 85.1365 149.335C85.0532 149.33 84.9629 149.328 84.8812 149.326C79.2687 146.192 72.6759 145.019 66.1026 144.498C68.5436 143.926 70.9557 143.223 73.376 142.469C76.5541 145.127 81.4458 144.816 85.0528 142.852C88.4152 141.02 92.2628 137.064 90.481 132.979C88.3762 128.159 81.3645 128.592 77.5189 130.516C73.5753 132.476 70.0027 137.075 74.6357 140.055C73.9917 140.117 73.3846 140.219 72.8015 140.371C72.7583 140.346 72.723 140.332 72.6843 140.309C72.3847 140.126 72.1215 140.338 72.0335 140.61C70.9974 140.971 70.0422 141.517 69.1005 142.359C66.348 143.062 63.572 143.657 60.7727 144.191C58.9625 144.121 57.1699 144.071 55.4208 144.013C52.2266 143.913 49.0486 143.879 45.8761 143.906C45.7385 143.85 45.6029 143.813 45.4689 143.758C45.212 143.649 44.9864 143.753 44.8573 143.92C42.9883 143.94 41.1127 144.014 39.2417 144.072C41.6652 142.852 44.3925 142.272 47.0307 141.488C48.4419 141.071 49.772 140.511 51.0525 139.81C52.0003 139.296 52.6643 138.303 53.5144 137.691C56.7229 140.926 62.5219 139.497 65.036 136.083C67.5691 132.641 66.4594 126.888 61.9122 125.691C58.1967 124.714 54.1115 126.377 51.5127 128.928C49.1038 131.307 49.2213 134.891 51.7524 136.771C51.4424 136.938 51.1375 137.121 50.8072 137.353C50.3297 137.688 50.7322 138.279 51.2292 138.214C49.7356 139.467 47.5193 140.058 45.7221 140.596C42.8172 141.473 39.4747 142.049 37.2065 144.125C36.7882 144.147 36.3712 144.141 35.9545 144.162C31.3919 144.357 27.2045 143.48 23.1117 142.246C26.795 141.751 29.9141 140.175 32.697 137.877C33.3002 137.432 33.8502 136.986 34.3105 136.431C34.3431 136.399 34.3755 136.368 34.4079 136.336C40.2285 138.243 48.7954 127.744 41.2549 124.637C38.0939 123.33 34.0775 124.926 31.4949 126.689C29.1813 128.267 26.3193 132.142 28.97 134.649C29.193 134.86 29.6073 134.694 29.6411 134.409C29.9008 132.112 30.0274 130.426 31.8912 128.766C33.7025 127.156 36.1945 126.214 38.6325 126.082C41.477 125.928 42.9198 128.105 41.8496 130.645C41.1458 132.322 37.7559 134.828 35.1592 134.931C35.0196 134.652 34.7294 134.435 34.3919 134.467C34.3825 134.469 34.3727 134.471 34.3635 134.47C34.1436 134.375 33.8973 134.35 33.6652 134.407C33.5568 134.428 33.4512 134.45 33.3465 134.471C32.997 134.259 32.6586 134.428 32.5428 134.713C32.3415 134.882 32.2504 135.15 32.301 135.419C32.3019 135.545 32.3308 135.67 32.3875 135.777C32.1041 136.086 31.8405 136.393 31.6505 136.753C28.606 139.202 25.22 140.663 21.1038 141.43C21.0073 141.452 20.968 141.506 20.9092 141.553C19.7867 141.18 18.6602 140.793 17.5443 140.405C7.71148 132.912 -3.88932 125.661 -15.2509 122.023C-16.0381 121.772 -16.5313 122.769 -15.7807 123.17C-6.26066 128.256 3.12874 132.931 12.0557 138.558C10.9159 138.202 9.76823 137.863 8.60347 137.564C-1.39888 131.345 -11.7232 125.7 -22.7709 121.564C-6.39902 121.285 9.94216 121.264 26.2342 119.452C26.6325 119.406 26.567 118.822 26.1676 118.848C8.61104 119.947 -9.00414 119.945 -26.5978 120.217C-26.9782 120.091 -27.3521 119.945 -27.7334 119.82C-12.1334 119.25 3.45043 118.792 19.039 118.092C33.8228 118.909 48.51 117.976 63.1422 116.342C68.1921 117.207 73.1851 118.386 78.1298 119.77C81.84 122.647 85.1281 126.082 88.6352 129.158C90.9676 131.207 93.8574 133.831 96.9829 135.232C96.7405 135.409 96.5147 135.607 96.2949 135.835C95.8486 136.293 96.4511 136.967 97.0005 136.782C97.4507 136.626 97.8982 136.529 98.3475 136.448C98.6707 136.491 99.025 136.499 99.3121 136.585C99.8253 136.748 100.28 136.607 100.607 136.34C103.405 136.589 105.797 138.269 107.245 141.102C108.188 142.955 108.264 149.016 104.841 148.372C102.257 147.888 100.127 144.713 98.8061 142.765C97.276 140.509 96.1448 137.875 95.3277 135.302C95.16 134.792 94.3819 134.915 94.2934 135.402C93.5912 139.343 96.5531 143.572 99.0156 146.471C100.961 148.766 104.211 151.643 107.392 149.929C108.937 149.099 109.482 146.99 109.83 145.463C110.374 142.993 109.538 140.643 108.103 138.596C106.706 136.586 104.084 134.767 101.459 134.316C101.307 134.022 101.033 133.798 100.589 133.77C92.2699 133.306 86.7336 125.708 80.5115 120.452C86.8299 122.311 93.0791 124.471 99.296 126.722C99.3045 126.726 99.3037 126.732 99.313 126.733C105.832 129.056 111.223 134.143 115.426 139.465C114.435 139.842 114.982 141.371 116.027 141.337C116.359 141.321 116.692 141.31 117.022 141.302C117.059 141.307 117.075 141.328 117.117 141.334C117.263 141.351 117.404 141.374 117.543 141.394C113.933 141.81 110.727 144.262 111.786 148.103C112.717 151.48 115.845 154.275 119.095 155.562C122.123 156.767 127.258 156.18 127.414 152.124C127.424 151.79 127.075 151.475 126.748 151.716C124.619 153.294 123.168 154.665 120.313 153.702C117.926 152.9 115.695 151.015 114.499 148.858C113.254 146.611 113.877 144.742 116.346 143.852C119.956 142.55 127.22 144.54 126.895 149.257C126.872 149.554 127.282 149.705 127.416 149.412C129.618 144.942 124.044 141.941 119.792 141.407C120.556 140.91 120.566 139.544 119.4 139.385C119.061 139.34 118.723 139.281 118.389 139.224C118.196 139.098 117.961 139.023 117.655 139.066C117.533 139.067 117.407 139.076 117.282 139.077C113.791 135.607 110.615 132.076 106.724 129.435C112.144 131.43 117.56 133.414 122.988 135.24C123.041 135.256 123.1 135.259 123.161 135.267C127.314 136.756 129.448 139.487 133.202 141.562C134.253 142.255 135.385 142.763 136.584 143.147C136.596 143.194 136.638 143.227 136.662 143.27C135.36 144.006 134.403 145.053 134.419 146.497C134.448 149.547 138.364 151.293 140.843 152.117C143.772 153.094 150.37 154.325 152.586 151.414C152.82 151.105 152.686 150.572 152.235 150.52C151.075 150.393 149.843 150.824 148.677 150.966C147.069 151.167 145.468 151.043 143.868 150.765C141.488 150.356 138.593 149.376 136.992 147.5C135.044 145.224 140.303 144.056 141.664 143.856C145.261 143.339 150.525 144.557 152.295 147.984C152.569 148.509 153.33 148.223 153.166 147.664C151.88 143.374 146.626 142.02 142.566 141.894C141.61 141.863 140.293 142.007 138.997 142.354C135 141.622 132.369 139.003 129.417 136.843C135.243 137.649 141.924 137.059 147.033 136.446C147.114 136.465 147.205 136.48 147.3 136.466C147.529 136.426 147.748 136.385 147.978 136.344C148.047 136.601 148.107 136.848 148.219 137.11C149.952 141.351 153.905 142.927 157.997 140.751C161.328 138.978 164.329 135.091 164.747 131.369C165.198 127.344 161.649 126.756 158.581 127.623C154.429 127.799 148.725 129.763 147.837 133.687C146.977 133.745 146.393 134.151 145.668 134.995C138.369 135.742 131.158 135.118 123.912 134.074C123.607 133.976 123.301 133.885 122.994 133.794C122.889 133.742 122.776 133.708 122.656 133.691C120.327 132.988 118.009 132.231 115.706 131.458C122.014 130.532 128.444 131.368 134.612 129.38C134.78 129.332 134.865 129.224 134.954 129.125C135.104 129.21 135.275 129.252 135.481 129.145C135.541 129.118 135.954 128.832 136.344 128.583C140.075 129.687 144.908 129.759 147.867 127.826C151.039 125.756 152.49 120.806 149.148 118.182C146.095 115.778 140.949 117.076 137.796 118.429C134.831 119.704 129.934 123.384 131.838 127.067C131.271 127.424 131.219 128.235 131.772 128.646C126.619 130.046 120.88 128.741 115.812 130.211C110.759 128.246 105.618 126.531 100.441 124.907C101.409 124.925 102.366 124.926 103.309 124.942C105.536 124.989 107.759 124.958 109.991 124.88C111.082 124.84 112.293 124.634 113.504 124.473C113.698 124.804 114.105 125.035 114.474 124.847C114.782 124.696 115.143 124.494 115.521 124.308C116.102 124.297 116.661 124.325 117.193 124.426C117.513 124.49 117.853 124.36 118.094 124.15C120.773 125.264 124.586 124.5 126.855 123.421C130.46 121.71 131.802 116.878 128.559 114.025C123.138 109.266 111.506 116.311 114.88 121.439C114.555 121.579 114.344 121.834 114.227 122.127C113.952 122.44 113.736 122.828 113.573 123.329C111.446 123.571 109.285 123.633 107.151 123.689C103.601 123.775 99.7806 123.218 96.2191 123.597C91.507 122.153 86.7769 120.742 82.0824 119.244C78.2166 118.013 74.4294 116.633 70.6129 115.444C87.7405 113.287 104.803 110.444 121.88 108.647C122.228 108.606 122.164 108.125 121.822 108.124C116.904 108.115 112.009 108.497 107.123 109.071C117.542 107.231 127.913 105.151 138.233 102.89C140.097 103.323 141.952 103.797 143.805 104.254C146.145 104.834 149.61 105.184 151.953 106.327C152.012 106.57 152.161 106.788 152.395 106.974C152.46 107.038 152.552 107.069 152.628 107.122C152.68 107.148 152.711 107.189 152.769 107.215C152.787 107.221 152.796 107.225 152.814 107.23C152.858 107.246 152.901 107.27 152.948 107.286C153.21 107.386 153.471 107.5 153.733 107.595C154.231 107.777 154.782 107.671 155.213 107.395C155.347 107.405 155.488 107.398 155.626 107.408C155.591 107.458 155.548 107.5 155.521 107.553C152.756 112.33 156.491 116.541 161.292 117.585C165.465 118.491 171.125 117.675 174.14 114.554C176.419 112.194 175.267 109.97 173.178 108.213C173.326 108.261 173.482 108.32 173.607 108.365C173.911 108.471 174.229 108.066 173.919 107.862C172.73 107.102 170.99 106.304 169.037 105.669C168.275 105.312 167.559 105.019 166.996 104.815C166.78 104.739 166.628 104.854 166.581 104.999C163.259 104.267 159.747 104.202 157.397 105.672C157.215 105.288 156.903 104.953 156.435 104.823C156.437 104.805 156.444 104.779 156.444 104.761C155.788 104.722 155.144 104.64 154.497 104.567C154.269 104.453 154.016 104.381 153.695 104.417C153.542 104.431 153.383 104.436 153.229 104.453C153.119 104.465 153.048 104.5 152.951 104.529C152.932 104.532 152.923 104.534 152.912 104.542C152.745 104.581 152.599 104.641 152.479 104.727C150.167 104.969 147.382 103.861 145.252 103.353C143.763 102.995 142.27 102.665 140.773 102.357C140.973 102.313 141.174 102.267 141.381 102.226C143.624 101.725 145.874 101.199 148.116 100.654C148.106 100.659 148.086 100.668 148.068 100.665C147.746 100.747 147.891 101.253 148.201 101.211C155.003 100.307 161.629 98.3167 168.111 95.9704C169.687 96.2296 171.267 96.7177 172.522 97.0357C174.351 97.4994 176.181 97.9911 178.005 98.4956C178.132 98.8751 178.449 99.1918 178.986 99.2805C179.479 99.3593 179.967 99.4193 180.457 99.4704C180.344 99.6746 180.222 99.8721 180.131 100.096C178.25 104.554 182.461 108.493 186.637 109.074C190.28 109.581 195.407 108.42 197.494 105.231C199.451 102.238 196.927 99.8833 194.019 98.5066C194.034 98.4271 194.024 98.3414 193.923 98.2791C191.253 96.5621 186.807 95.6612 183.566 96.8862C183.38 96.6171 183.097 96.4138 182.67 96.3851C181.525 96.3137 180.609 96.0845 179.469 96.2131C179.118 96.2559 178.816 96.552 178.708 96.8884C178.629 96.9224 178.565 96.9495 178.506 96.9938C175.945 96.3496 173.406 95.5211 170.845 94.9508C173.918 93.7938 176.958 92.5875 179.963 91.3953C180.299 91.2571 180.102 90.8079 179.761 90.8902C178.687 91.1568 177.631 91.4523 176.566 91.7486C177.837 91.228 179.118 90.7159 180.371 90.1581C181.999 90.5579 183.993 90.3544 185.403 90.3201C189.454 90.2282 193.5 89.5161 197.541 89.3558C197.623 89.4309 197.704 89.4813 197.803 89.527C197.811 89.5345 197.819 89.5473 197.836 89.5588C198.051 89.7071 198.2 89.8179 198.353 89.9202C198.21 90.0948 198.042 90.2376 197.926 90.4287C195.313 94.665 204.931 98.7652 207.757 99.3217C212.034 100.167 216.767 98.0011 218.144 93.8744C219.668 89.286 215.669 85.3832 211.142 85.0303C210.598 84.9896 210.347 85.6725 210.86 85.9269C213.875 87.4339 217.588 89.5447 216.295 93.4019C215.183 96.7286 211.35 97.9793 208.073 97.5062C206.022 97.2126 197.414 93.444 199.911 90.6808C199.974 90.6988 200 90.7116 200.058 90.7379C200.641 90.9391 201.114 90.4814 200.958 89.9127C200.954 89.894 200.952 89.8848 200.946 89.8657C203.519 88.2609 207.527 87.7508 210.331 87.3965C210.935 87.3161 210.842 86.4363 210.228 86.4803C207.859 86.6407 204.574 86.7159 201.879 87.6196C201.716 87.235 201.386 86.9427 200.84 86.9198C199.855 86.8828 199.103 86.7991 198.349 87.1237C198.085 87.2014 197.861 87.3455 197.69 87.5488C197.65 87.5702 197.631 87.5765 197.609 87.6006C197.523 87.6791 197.464 87.7623 197.403 87.846C192.785 88.6693 187.862 89.0627 183.09 88.9308C187.808 86.7057 192.372 84.1903 196.732 81.3104C197.988 82.4566 199.84 83.1598 201.336 83.4961C203.66 84.0234 206.011 83.4292 208.028 82.3174C211.419 80.4478 214.035 76.0522 213.496 72.2106C212.978 68.567 209.776 67.9158 206.788 68.5669C206.717 68.4001 206.528 68.2646 206.324 68.3155C202.177 69.3428 194.23 74.1348 195.423 79.2357C195.535 79.7218 195.772 80.1476 196.056 80.5495C190.526 83.5642 184.813 86.2592 178.946 88.6989C178.891 88.6942 178.816 88.6896 178.754 88.6898C178.604 88.6777 178.46 88.786 178.412 88.916C177.003 89.4995 175.592 90.0799 174.171 90.6301C177.721 87.7954 180.191 83.7851 182.229 79.7296C182.327 79.5676 182.413 79.4067 182.472 79.2457C182.672 78.8363 182.867 78.4353 183.062 78.0283C188.847 77.0536 193.945 66.1209 188.225 62.7769C187.964 62.6249 187.674 62.9454 187.778 63.1903C187.912 63.5227 188.027 63.8525 188.132 64.1769C184.367 64.9483 180.871 67.9761 179.127 71.2326C178.107 73.1434 178.369 76.1276 180.144 77.4462C180.05 77.9766 180.143 78.5169 180.373 79.0801C178.159 83.539 174.981 87.4428 171.451 91.0379C171.24 91.257 171.256 91.5085 171.385 91.7026C165.926 93.7238 160.365 95.5387 154.719 97.185C156.815 95.1579 157.941 92.4851 159.091 89.7744C159.124 89.8063 159.146 89.8457 159.182 89.8779C159.512 90.1964 160.152 89.9518 160.197 89.5169C160.277 88.6239 160.146 87.9883 160.136 87.3891C160.243 87.164 160.357 86.9411 160.471 86.7171C163.095 88.175 166.928 86.8253 168.813 84.8128C171.227 82.2393 172.44 77.968 171.21 74.6137C169.773 70.6962 164.171 70.498 161.347 72.9654C161.043 73.2321 161.206 73.7028 161.636 73.693C162.181 73.6795 162.777 73.608 163.378 73.5236C160.095 75.7217 157.036 80.4798 158.344 84.1456C157.084 85.7253 157.045 87.0719 158.025 88.5178C156.405 92.2202 154.143 95.6495 151.019 98.2376C144.642 100.001 138.183 101.577 131.657 102.955C131.96 102.761 132.26 102.576 132.543 102.339C133.342 101.67 134.048 100.89 134.787 100.16C135.491 99.4609 134.708 98.6021 133.894 98.6277C138.611 97.3452 142.936 93.3129 144.181 88.8863C145.921 82.7047 136.816 82.0045 132.861 83.5384C128.621 85.1759 126.528 90.1027 127.567 94.2771C128.057 96.2292 129.61 97.4205 131.346 97.7749C131.235 97.7955 131.126 97.8253 131.018 97.8399C130.232 97.9334 130.349 99.011 131.096 99.04C130.86 99.3519 130.632 99.6675 130.424 99.9231C129.735 100.769 129.047 101.611 128.354 102.456C128.013 102.874 128.043 103.329 128.264 103.686C121.55 105.044 114.795 106.227 108.049 107.292C109.185 106.475 110.265 105.583 111.211 104.46C111.321 104.342 111.36 104.216 111.375 104.094C111.565 104.025 111.72 103.906 111.861 103.773C112.139 103.624 112.412 103.487 112.699 103.364C112.859 103.296 112.985 103.181 113.093 103.043C117.62 102.958 119.933 96.4035 119.931 92.8137C119.925 87.8329 115.009 85.5457 110.64 87.3759C106.653 89.0427 103.853 93.6904 103.716 97.8262C103.604 101.154 105.733 103.363 108.579 103.779C108.497 103.831 108.407 103.886 108.316 103.94C107.747 104.307 107.941 105.146 108.489 105.393C107.592 106.241 106.565 106.968 105.535 107.686C99.134 108.669 92.7489 109.54 86.4163 110.36C89.7901 107.775 92.49 104.274 95.311 101.198C100.451 95.5906 105.337 89.7165 111.025 84.6081C111.26 84.3948 110.974 83.9964 110.723 84.2038C105.85 88.3184 101.529 92.7828 97.2368 97.4686C95.2198 99.6764 92.9902 101.717 90.7604 103.747C90.9559 103.526 91.1578 103.293 91.3607 103.071C98.0353 95.5261 105.211 88.4866 112.344 81.3579C112.842 81.8406 113.74 81.9324 114.251 81.3269C118.774 75.8683 126.637 74.9032 133.622 74.0568C132.877 75.2299 132.664 76.5646 133.531 77.9723C135.774 81.6107 141.948 80.6079 145.259 79.3281C148.833 77.9481 152.297 73.8417 148.734 70.4896C145.67 67.6045 139.959 69.5706 136.492 70.3493C136.132 70.4297 136.172 70.9084 136.555 70.9108C136.784 70.9161 137.012 70.912 137.239 70.9116C136.198 71.4992 135.122 72.2678 134.305 73.1621C131.045 73.3623 127.776 73.6735 124.622 74.4515C123.558 74.7132 122.535 75.0351 121.542 75.3997C123.643 73.8559 125.794 72.0762 127.455 70.729C127.679 70.7788 127.922 70.7317 128.098 70.5128C128.307 70.2678 128.486 70.0024 128.687 69.7462C129.171 69.3672 129.595 69.0502 129.895 68.8592C132.11 67.437 134.319 66.0555 136.334 64.4451C136.431 64.4317 136.532 64.4006 136.634 64.3218C137.064 63.9794 137.494 63.638 137.925 63.2961C138.092 63.1631 138.158 63.0002 138.16 62.8375C138.781 62.2413 139.378 61.6226 139.935 60.9438C140.049 60.8131 140.138 60.669 140.24 60.5367C140.426 60.9146 140.863 61.1585 141.345 61.0092C148.09 58.9909 154.149 58.8477 160.936 59.252C160.951 59.2812 160.965 59.3105 160.99 59.3321C165.762 64.4918 177.739 68.6861 180.889 59.8431C181.845 57.156 179.641 55.4058 177.238 54.7429C173.974 53.8499 169.953 54.7319 167.894 57.2883C167.838 57.3529 167.849 57.4097 167.83 57.4741C167.785 57.4646 167.752 57.4359 167.711 57.4302C165.686 57.207 163.795 57.3844 161.783 57.6046C161.486 57.635 161.204 57.8135 161.016 58.0461C157.567 57.3279 156.184 56.1508 160.487 53.7168C163.755 51.8747 167.086 50.1756 170.306 48.2755C170.666 48.5692 171.085 48.865 171.614 49.1483C175.647 51.3266 180.317 50.6478 183.556 47.6161C185.87 45.4503 187.374 41.658 185.975 38.6408C184.147 34.7192 178.404 35.2139 175.328 37.1377C175.035 37.3228 175.252 37.7213 175.552 37.7131C178.115 37.6507 182.67 36.4317 184.227 39.2956C185.373 41.4044 184.123 44.0787 182.763 45.7561C180.851 48.1066 177.854 49.0314 174.859 48.4287C173.506 48.1556 172.119 47.5807 171.041 46.7377C169.86 45.8232 170.969 44.4549 171.623 43.6461C173.009 41.9404 174.796 40.4543 176.336 38.8727C176.544 38.6557 176.202 38.3075 175.968 38.4945C173.156 40.7175 166.975 44.2572 169.574 47.5432C164.256 49.9136 159.151 52.6402 154.103 55.5026C153.377 55.911 153.828 56.8509 154.469 57.028C155.195 57.2231 155.92 57.4254 156.643 57.6236C152.475 57.2831 147.959 57.4337 143.964 58.5018C142.846 58.8002 144.34 56.1097 144.848 55.3953C145.334 54.2143 145.944 52.6513 146.301 51.452C148.448 51.9062 150.966 51.0669 152.568 49.4653C155.347 46.7069 157.096 42.3485 156.274 38.4635C155.449 34.5719 151.337 33.3029 147.971 35.1183C147.703 35.2599 147.829 35.7217 148.125 35.7445C150.788 35.9492 153.71 35.9557 154.362 39.0434C154.926 41.7091 153.728 44.7104 152.206 46.8635C151.186 48.3014 149.559 49.5479 147.911 49.6792C147.966 49.3417 147.743 48.9839 147.304 49.0179C146.939 49.0388 146.592 49.189 146.244 49.3925C145.75 49.1632 145.276 48.7952 144.838 48.2602C142.29 45.1539 145.752 38.8484 148.484 36.9592C148.718 36.7974 148.499 36.3923 148.234 36.5152C143.848 38.49 140.793 44.1052 142.858 48.671C143.296 49.647 143.935 50.3416 144.678 50.8112C143.837 51.8715 143.065 53.2806 142.382 54.7088C140.573 57.5883 138.913 60.5306 136.347 62.8941C134.557 64.1974 132.738 65.4711 130.901 66.7295C131.348 65.9166 130.56 65.0479 129.698 65.2358C129.707 64.8412 129.675 64.4208 129.633 63.9898C129.589 63.5395 129.334 63.2443 129.017 63.0654C128.967 62.6551 128.919 62.2461 128.846 61.8361C129.137 61.4968 129.403 61.1094 129.641 60.6573C135.235 54.1932 133.263 38.6643 123.041 44.3968C117.947 47.2529 118.293 55.021 120.271 59.5553C121.577 62.5592 124.647 64.0964 127.128 63.0923C126.995 63.9686 126.794 65.5861 126.773 65.7365C126.766 65.808 126.772 65.8741 126.781 65.9424C126.713 66.4918 126.645 67.0386 126.552 67.588C126.439 68.1829 126.854 68.7303 127.389 68.9499C127.34 69.0336 127.301 69.1132 127.26 69.1999C124.468 71.0742 121.647 72.9188 118.866 74.7788C118.078 75.3006 116.311 76.1849 115.083 77.213C115.253 75.348 115.318 73.484 115.541 71.5563C115.804 69.3017 116.066 67.3827 115.5 65.145C115.461 65.028 115.393 64.9504 115.314 64.8821C115.769 63.358 114.675 60.6269 114.275 59.4547C113.571 57.3574 112.325 54.9532 110.291 53.7929C106.003 51.3577 101.82 55.7746 101.486 59.7388C101.152 63.6103 103.245 68.0584 106.734 70.0705C109.37 71.5845 111.542 70.4698 112.991 68.5266C112.731 69.4551 112.541 70.4062 112.468 71.4347C112.444 71.7348 112.917 71.9358 113.033 71.6071C113.53 70.2103 114.077 68.8365 114.667 67.4753C115.096 71.7009 113.29 75.2777 112.252 79.3596C112.145 79.351 112.03 79.3734 111.925 79.4765C110.521 80.9112 110.762 80.5584 110.096 81.7331C109.649 81.4968 108.986 82.1831 108.116 83.8151C106.043 85.8136 103.982 87.8233 101.933 89.838C101.435 90.3302 100.961 90.8287 100.476 91.3227C100.585 90.8171 100.99 90.5256 101.353 90.0084C101.345 90.0007 101.327 89.9956 101.319 89.9855C101.76 89.3992 101.336 88.7031 100.738 88.6248C101.551 83.2101 103.306 77.1041 100.026 72.4239C97.8884 69.3726 92.9749 69.5851 91.4008 72.8241C89.7418 76.246 91.1591 81.1835 93.1333 84.2085C94.6661 86.5574 97.6702 87.5163 99.6593 86.0172C99.3692 87.4752 99.0293 88.9134 98.7096 90.3098C98.5699 90.5519 98.5131 90.841 98.5153 91.1548C98.5127 91.1726 98.506 91.1988 98.5022 91.2254C98.5052 91.2259 98.5111 91.2267 98.5204 91.228C98.5258 91.3882 98.5053 91.533 98.5559 91.7223C98.6634 92.1498 99.0818 92.3304 99.499 92.3133C96.9874 94.8539 94.5287 97.437 92.1601 100.106C91.1374 101.263 90.1538 102.383 89.1492 103.462C89.018 103.018 88.6335 102.663 88.0543 102.776C87.797 102.821 87.576 102.907 87.3469 102.989C86.2394 100.742 84.7168 98.7112 82.8876 96.9661C82.7852 96.6154 82.704 96.266 82.5724 95.9177C82.2936 95.1652 81.1993 95.2469 80.9334 95.935C80.6119 96.0906 80.3693 96.4142 80.4126 96.8074C80.4675 97.2564 80.517 97.711 80.567 98.1621C80.6453 98.8346 81.3941 99.0747 81.9063 98.8373C82.2196 99.2205 82.5215 99.6048 82.8185 99.9924C82.7732 100.049 82.7069 100.083 82.5864 100.116C82.4609 100.153 82.4865 100.361 82.6153 100.373C82.8196 100.393 82.9598 100.358 83.0592 100.308C84.1069 101.697 85.0595 103.151 85.788 104.789C85.817 104.847 85.8511 104.87 85.8877 104.928C85.8902 104.931 85.8934 104.938 85.8934 104.938C85.9544 105.403 86.39 105.753 86.8512 105.789C84.8248 107.692 82.605 109.363 79.8175 110.621C77.0398 111.874 76.1637 110.807 74.905 111.77C73.7709 111.911 72.624 112.058 71.4961 112.189C68.2566 112.572 65.0215 112.923 61.78 113.247C58.8148 112.746 55.7839 112.507 52.6389 112.715C52.249 112.741 52.2222 113.352 52.6186 113.386C53.7691 113.485 54.8985 113.627 56.0253 113.776C34.214 115.736 12.3653 116.538 -9.48565 117.263C-9.45686 117.258 -9.42993 117.264 -9.40862 117.246C-3.52006 113.403 1.77533 108.792 6.96646 104.039C3.99644 106.93 1.06311 109.874 -1.81366 112.916C-2.07297 113.193 -1.66191 113.571 -1.36194 113.376C8.74004 106.917 16.3102 96.7877 25.1974 88.8941C26.5028 87.7363 27.8493 86.6418 29.2259 85.5804C35.2708 82.4211 42.1717 81.4638 49.0081 81.4498C49.0841 81.5059 49.17 81.5452 49.2678 81.579C49.091 82.6312 49.2498 83.75 49.8864 84.8565C52.0783 88.689 57.4697 89.8419 61.5671 88.9545C66.9038 87.8046 69.451 82.1942 69.4884 77.3506C69.4884 76.8233 68.7041 76.7694 68.498 77.1833C66.6978 80.8121 65.7464 84.6282 61.6798 86.514C58.9576 87.7749 55.0039 86.6466 52.7991 84.8932C51.2324 83.6486 51.0443 82.369 51.583 81.2339C51.892 81.1661 52.2084 81.0922 52.5235 81.0281C53.4849 80.8189 53.7582 79.8603 53.4059 79.2351C54.6628 78.3358 56.242 77.7058 57.4489 77.5505C60.4686 77.1596 63.3076 77.9799 66.1113 78.933C66.5818 79.0956 66.9128 78.5761 66.5626 78.2357C63.8417 75.5621 58.0796 75.0504 54.5808 76.1027C53.0362 76.5719 51.5661 77.5493 50.549 78.8053C49.8062 78.8859 49.5521 79.0384 48.0149 79.7093C47.9128 79.7583 47.8537 79.8333 47.7932 79.9045C43.4523 80.4217 38.8466 80.5308 34.6399 81.6808C41.2823 77.1804 48.3606 73.2691 55.1256 68.93C55.4003 68.7487 55.1355 68.2664 54.8342 68.4249C51.9013 69.9661 49.0393 71.5876 46.2378 73.2719C47.0204 72.3951 47.7545 71.5017 48.425 70.5769C48.4171 71.094 48.9707 71.4469 49.4788 71.1509C52.3835 69.4651 55.1984 67.8049 58.2848 66.5763C58.3204 66.7861 58.4542 66.9808 58.6548 67.0799C59.6486 67.5884 60.6951 68.0046 61.766 68.3673C61.8814 68.534 62.0328 68.6705 62.2328 68.7205C63.9735 69.2097 65.7448 69.5563 67.545 69.7603C68.4197 70.2293 69.0916 70.4584 69.5708 70.4692C69.7497 70.8334 70.0913 71.0955 70.5594 71.0404C69.9604 73.2762 70.6601 75.8205 72.7615 77.2717C76.09 79.5582 81.1698 79.4778 84.7812 78.0487C88.0634 76.7551 90.3615 72.4231 86.7153 69.983C86.4302 69.7895 85.9755 69.9508 86.0264 70.3358C86.4202 72.9327 86.7999 74.7093 83.936 75.9533C81.4074 77.0531 78.121 77.0227 75.5118 76.1294C72.8037 75.2026 71.9123 72.9256 73.2175 70.5595C73.4257 70.5255 73.6357 70.4846 73.8389 70.4463C74.7339 70.2785 75.0416 69.5681 74.8803 68.9475C77.8477 67.2067 83.8987 65.9789 85.0347 68.6967C85.1769 69.0367 85.6543 68.8931 85.6501 68.5536C85.6047 63.4618 75.6586 66.1458 73.2842 67.4816C73.0481 67.6141 72.8624 67.7925 72.6589 67.9522C70.5595 67.8817 68.4614 67.7742 66.3657 67.6597C66.2915 67.6556 65.9687 67.6307 65.5116 67.5842C65.6417 67.1931 66.2686 66.6781 67.7285 65.98C70.0558 64.8582 72.3265 63.8179 74.5592 62.5931C74.7817 62.688 75.034 62.6784 75.2679 62.4696C76.2161 61.9324 76.9107 61.2061 77.3628 60.3111C78.3514 61.1641 79.5759 61.7654 80.7774 61.9514C84.6725 62.5569 88.9924 60.6813 91.5916 57.9455C94.5614 54.8177 93.4389 50.395 89.5451 48.6166C89.0506 48.3871 88.5554 48.9785 88.8868 49.4059C90.6973 51.7717 91.9802 53.9893 89.7904 56.5114C88.0286 58.5411 85.0125 59.6263 82.3492 59.8152C81.3556 59.8884 80.322 59.6534 79.472 59.1906C79.5106 59.0493 79.5226 58.897 79.4568 58.7699C79.4145 58.6733 79.371 58.5856 79.3294 58.49C79.1426 58.083 78.6328 57.9022 78.2411 58.1765L78.2381 58.1761C77.5412 57.3327 77.2433 56.2294 77.7662 54.9322C79.0759 51.6686 85.8521 50.6041 88.9312 50.9087C89.4861 50.9691 89.6335 50.151 89.0683 50.071C84.7252 49.4598 78.4073 50.132 75.9289 54.1123C74.788 55.9455 75.2497 57.871 76.4368 59.3623C71.8878 62.2571 67.0026 64.433 62.3485 67.1562C60.7894 66.8722 59.651 66.4773 60.9092 66.0256C61.1757 65.9355 61.2645 65.7496 61.2856 65.5542C61.295 65.5522 61.3144 65.5492 61.3339 65.5429C62.1724 65.3127 61.6668 64.1261 60.841 64.3257C60.3078 64.4423 59.7816 64.598 59.255 64.7409C57.8469 64.6921 58.1995 64.7166 58.9304 64.8264C58.6607 64.8997 58.3826 64.9536 58.1175 65.0402C58.0079 65.07 57.9219 65.1177 57.8572 65.1792C57.4819 65.2475 56.8294 65.5103 55.6205 66.1508C55.6175 66.1504 50.3871 69.2524 50.7355 68.4163C51.8215 65.837 53.5767 63.4069 55.0155 61.0054C55.1117 60.8532 55.1322 60.7084 55.1419 60.5729C58.7209 60.9806 62.9833 56.7857 64.2875 54.0806C66.142 50.2325 65.1176 44.7529 60.3909 43.5918C52.5402 41.6592 43.1154 54.3772 51.1882 59.4446C51.7748 59.8148 52.3848 59.2461 52.0466 58.6583C50.4729 55.9169 49.7327 53.4532 51.288 50.5568C52.5987 48.1245 55.355 46.1427 58.1295 45.6467C61.9001 44.972 63.4145 48.4881 62.8811 51.6026C62.4903 53.9031 60.9004 55.9251 59.0491 57.3093C56.9637 58.8649 54.8929 58.5464 52.5092 58.0685C52.1505 57.9996 51.9135 58.4155 52.1112 58.6926C52.3682 59.0388 52.64 59.3265 52.9179 59.5706C52.585 59.5959 52.268 59.7731 52.0985 60.1994C50.8103 63.3573 48.3714 71.2429 45.8405 73.5218C45.7897 73.5508 45.7494 73.5723 45.7074 73.599C46.0184 73.1284 45.5245 72.4256 44.8972 72.6472C38.1351 75.0402 33.4955 80.5783 27.8404 84.6781C28.0636 84.4252 28.3029 84.1782 28.527 83.9191C29.0981 83.2587 28.0836 82.5171 27.4767 83.0864L27.1915 83.2825C27.3286 81.9179 27.1923 80.5146 26.9948 79.1218C27.5667 79.1212 28.123 78.7505 28.0192 78.0394C27.9396 76.855 27.8043 75.6947 27.2769 74.6101C27.2321 74.5313 27.1757 74.4617 27.1174 74.3928C27.8023 73.9497 28.4419 73.3527 29.0432 72.6643C29.133 72.6227 29.2247 72.5876 29.3168 72.5372C29.5556 72.4115 29.6534 72.169 29.6318 71.9457C32.2974 68.4521 34.0096 63.056 33.9746 59.7588C33.9173 54.2178 28.1871 51.5243 23.4497 54.3349C16.1841 58.6351 17.3154 73.9587 25.4163 73.6858C25.4011 73.7289 25.3672 73.7695 25.3523 73.8081C25.2756 73.954 25.2631 74.109 25.2979 74.2571C25.09 74.4741 24.956 74.7614 24.9622 75.1397C24.9951 76.1864 24.9432 77.2978 25.33 78.289C25.6337 80.2562 25.9332 82.2292 25.8147 84.2102L24.3154 85.2222C23.8524 85.4222 23.9967 86.2224 24.5363 86.107C24.6447 86.0861 24.7188 86.0694 24.8139 86.0502C23.6248 87.3587 22.3715 88.6134 21.0919 89.8418C12.5503 96.2023 4.56269 103.558 -3.2126 110.817C-7.02027 113.698 -11.0306 116.158 -15.2026 117.453C-32.6559 118.03 -50.112 118.628 -67.5614 119.825C-68.8543 119.914 -68.6443 121.855 -67.3533 121.77C-55.3955 120.968 -43.4373 120.432 -31.4866 119.979C-31.1649 120.079 -30.8523 120.196 -30.532 120.3C-48.8305 120.619 -68.359 120.813 -85.8212 126.521C-86.2593 126.664 -86.0927 127.365 -85.6258 127.303C-66.958 124.683 -48.8023 122.182 -29.8683 121.723C-28.7324 121.698 -27.6049 121.679 -26.4693 121.657C-21.2195 123.538 -16.1159 125.769 -11.1191 128.247C-10.8077 128.927 -10.4904 129.592 -10.1556 130.25C-10.164 130.374 -10.1358 130.505 -10.0759 130.622C-7.69232 134.661 -5.25131 138.641 -2.72945 142.558C-2.29215 147.236 -1.26521 151.869 -0.884763 156.548C-1.12037 156.815 -1.32985 157.083 -1.52323 157.362C-2.69134 157.224 -3.94133 157.518 -4.96715 158.054C-8.05948 159.649 -9.88703 163.309 -9.34246 166.672C-8.96025 169.04 -7.40538 171.444 -4.91295 172.087C-2.0303 172.828 -0.326466 169.907 0.125991 167.619C0.362438 166.409 0.312818 165.178 0.153522 163.957C0.272167 163.955 0.382818 163.898 0.458416 163.779C1.3465 162.454 2.03357 160.761 1.36671 159.312C1.82318 158.248 2.32499 157.206 2.75161 156.129C3.23832 154.871 1.46924 153.608 0.58793 154.813C0.552865 154.862 0.519671 154.899 0.48529 154.945C0.0183419 151.622 -0.572793 148.313 -1.13487 144.999C1.55222 149.058 4.34421 153.046 7.36202 156.928C8.69948 158.639 10.2047 160.121 11.8159 161.48C11.8586 163.011 12.3014 164.49 12.6484 165.99C12.8571 166.915 12.9591 167.862 12.8109 168.79C12.5265 168.968 12.2633 169.173 12.0368 169.403C10.3034 170.053 9.20045 172.105 9.33902 174.452C9.39203 175.402 10.7077 175.307 10.9358 174.512C11.1694 173.698 11.3395 172.252 12.0515 171.518C12.1198 171.564 12.1642 171.625 12.2403 171.648C12.4604 171.925 12.8092 172.044 13.1631 172.012C13.5761 171.974 13.9505 171.721 14.0446 171.287C14.7529 171.614 15.4054 172.208 15.8789 172.649C18.4082 174.989 19.5557 178.523 19.0356 181.809C18.5942 184.665 16.4339 187.36 13.3596 185.478C10.5888 183.781 9.87211 180.381 9.01754 177.563C8.89843 177.172 8.27087 177.256 8.21408 177.637C7.6773 181.474 9.97964 186.019 13.8139 187.482C18.017 189.083 20.3811 184.857 21.0464 181.528C21.8656 177.373 19.3706 172.44 15.8458 170.078C15.7068 169.985 15.5691 169.917 15.4372 169.84C15.6094 169.283 15.3674 168.6 14.8412 168.337C14.8397 167.688 14.7761 167.03 14.6601 166.406C14.4723 165.36 14.1858 164.3 13.866 163.251C13.8905 163.209 13.8862 163.172 13.8867 163.126C17.529 165.828 21.5552 168.044 25.419 170.508C25.3804 170.845 25.5595 171.209 25.9868 171.308C26.3978 171.402 26.7425 171.478 27.0353 171.547C27.2277 171.676 27.4299 171.711 27.6249 171.684C28.3398 171.84 28.681 171.897 29.1994 171.904C29.2283 172.03 29.2205 172.15 29.2586 172.277C30.1719 175.497 33.1239 177.919 36.3307 178.858C39.4648 179.781 43.7156 177.976 43.7441 174.422C43.7471 174.138 43.3327 173.975 43.1179 174.148C41.1787 175.734 40.0904 177.376 37.2555 176.835C35.0664 176.416 33.1277 174.729 31.9788 172.936C31.7328 172.559 31.5757 172.179 31.4676 171.809C32.7637 171.67 32.8154 169.842 31.6689 169.431C31.978 168.855 32.4766 168.33 33.1667 167.91C36.4603 165.893 42.91 169.103 42.4209 173.097C42.3722 173.506 42.9778 173.604 43.0659 173.206C44.1037 168.568 39.0054 165.299 34.7303 165.397C32.2617 165.448 30.2364 166.986 29.4397 169.021C28.3618 168.872 27.2733 168.769 26.1744 168.742C25.8807 168.727 25.6396 168.804 25.4501 168.936C25.1084 168.239 24.3621 167.788 23.1961 167.588C20.5443 166.043 17.9381 164.466 15.4103 162.727C14.615 162.177 13.8717 161.573 13.1465 160.956C13.1108 160.878 13.0834 160.809 13.0551 160.738C12.9472 160.525 12.7132 160.412 12.4773 160.378C9.52309 157.701 7.10781 154.511 4.70202 151.354C2.42588 148.363 0.362714 145.23 -1.62387 142.053C-1.64009 141.969 -1.65671 141.889 -1.66346 141.805C-1.70332 141.559 -1.86789 141.443 -2.05097 141.385C-4.1848 137.951 -6.23333 134.458 -8.35839 131.025C-8.51074 130.355 -8.58876 130.267 -9.1407 129.767C-9.14621 129.763 -9.14621 129.763 -9.14863 129.759C-9.31519 129.499 -9.48267 129.239 -9.64008 128.98C6.57306 137.213 21.7146 148.021 37.116 157.974C37.0171 158.145 37.0214 158.379 37.2431 158.513C41.2675 160.914 44.8139 163.758 48.2857 166.848C52.0475 170.196 56.616 174.301 59.2177 178.754C59.0544 179.236 59.2459 179.88 59.701 180.197C59.5862 180.29 59.5081 180.4 59.4387 180.515C57.5526 181.054 56.3717 182.514 57.6917 185.05C57.8668 185.395 58.4537 185.314 58.4056 184.889C58.1837 183.135 58.8656 182.33 59.926 182.093C60.1779 182.225 60.4903 182.266 60.8529 182.128C60.952 182.088 61.0209 182.062 61.0989 182.032C63.0451 182.215 65.4889 183.503 66.4996 184.618C68.2421 186.53 69.4697 190.226 67.1063 192.068C65.1286 193.607 62.0144 193.032 59.8719 192.176C56.6855 190.903 54.8192 188.249 52.8849 185.639C52.6363 185.306 52.0004 185.495 52.0843 185.931C52.9392 190.38 56.9045 193.562 61.2482 194.659C64.5526 195.491 68.8118 194.624 70.1192 191.245C71.7249 187.08 67.9375 182.36 64.1879 180.835C63.7864 180.674 63.3591 180.549 62.925 180.458C62.9431 180.199 62.8816 179.928 62.726 179.683C62.347 179.124 62.0225 178.905 61.5525 178.673C61.5011 178.575 61.4543 178.477 61.3691 178.407C57.3563 175.135 54.1707 170.676 50.3731 167.118C49.2 166.016 47.963 164.99 46.7041 163.994C56.9255 170.203 67.386 175.72 78.4574 179.601C78.8529 181.341 80.0072 182.809 81.1392 184.295C81.3157 185.698 82.4057 186.926 82.8389 188.279C82.932 188.576 83.2335 188.753 83.5411 188.788C82.7914 188.924 82.0697 189.184 81.4016 189.61C78.2699 191.618 78.3053 195.066 80.4318 197.809C82.5035 200.471 86.0885 202.391 89.5292 202.331C93.4285 202.263 94.8791 198.29 93.7436 195.106" fill="#FEBC71"/>
</svg>
