<svg width="686" height="827" viewBox="0 0 686 827" fill="none" xmlns="http://www.w3.org/2000/svg">
<g clip-path="url(#clip0)">
<path d="M464.478 695.962C461.117 695.711 457.166 694.111 457.169 690.288C457.172 682.365 469.533 680.67 474.94 683.738C475.127 683.851 475.328 683.817 475.509 683.739C477.251 686.964 479.202 690.404 475.694 693.352C472.766 695.816 468.09 696.237 464.478 695.963L464.478 695.962ZM313.285 691.21C315.553 690.499 317.804 689.81 320.062 689.116C325.255 688.86 330.491 688.737 335.806 688.909C338.24 688.99 340.675 689.101 343.093 689.216C333.171 689.796 323.22 690.392 313.285 691.209L313.285 691.21ZM313.042 732.717C313.574 733.569 314.866 733.493 315.222 732.473C315.363 732.091 315.433 731.681 315.534 731.285C315.978 731.612 316.561 731.538 317.05 731.263C317.762 731.919 318.315 732.845 318.722 733.781C318.583 733.659 318.443 733.537 318.314 733.41C317.81 732.971 316.876 733.508 317.275 734.149C318.879 736.783 320.521 739.602 321.541 742.529C322.08 744.063 322.519 745.691 321.887 747.253C321.599 747.948 320.724 748.391 319.616 748.564C318.576 748.735 317.028 748.423 315.885 747.913C312.449 746.363 310.333 742.967 310.067 739.272C309.871 736.695 310.451 733.513 312.461 731.606C312.629 731.967 312.789 732.314 313.046 732.709L313.042 732.717ZM249.575 585.516C245.248 581.652 242.893 575.292 243.457 569.534C243.789 566.315 245.857 564.158 248.655 562.737C253.887 560.086 257.216 565.809 258.927 569.573C261.32 574.863 261.418 580.369 261.95 585.911C257.967 588.586 253.832 589.327 249.575 585.516ZM284.254 580.997C284.632 579.391 285.597 566.396 286.987 573.002C287.066 573.363 287.349 573.617 287.691 573.729C285.953 578.333 284.337 582.953 282.834 587.588C283.282 585.389 283.739 583.192 284.255 580.998L284.254 580.997ZM377.195 577.906C377.411 577.379 377.527 576.804 377.694 576.261C377.533 577.582 377.324 578.913 377.218 580.234C376.079 581.359 374.95 582.449 373.811 583.567C375.272 581.369 376.683 579.248 377.194 577.905L377.195 577.906ZM361.894 531.873C357.707 529.956 353.883 526.671 351.869 522.545C350.837 520.426 351.093 518.244 352.894 516.595C357.117 512.736 362.275 515.707 365.449 518.921C367.899 521.413 369.891 524.448 371.655 527.641C369.71 532.81 367.438 534.421 361.893 531.873L361.894 531.873ZM365.407 499.803C360.345 500.125 354.935 496.84 352.186 492.884C348.88 488.113 350.671 479.573 357.941 481.079C360.899 481.691 363.609 483.424 366.006 485.134C367.242 486.011 368.648 487.858 370.169 488.853C370.889 493.555 371.323 499.413 365.407 499.803ZM373.463 470.795C367.799 467.192 362.901 459.768 364.676 452.887C367.103 443.426 375.839 447.529 380.162 452.267C383.908 456.378 386.417 462.561 385.394 468.237C382.396 473.252 379.347 474.535 373.462 470.795L373.463 470.795ZM451.768 417.712C452.427 425.614 443.199 429.473 435.365 430.195C436.643 429.27 437.976 428.443 439.233 427.469C441.122 425.99 438.936 423.5 436.989 424.4C436.882 424.305 436.759 424.244 436.637 424.173C436.643 424.153 436.685 424.134 436.689 424.11C438.611 419.778 450.873 406.936 451.762 417.712L451.768 417.712ZM410.252 477.027C410.518 476.757 410.424 476.445 410.213 476.267C410.39 475.493 410.617 474.742 410.855 474.056C411.16 473.988 411.445 473.862 411.679 473.524C411.791 473.358 411.916 473.203 412.032 473.04C412.641 472.56 413.178 471.892 413.56 471.495C414.23 470.797 413.698 469.574 412.681 469.836C412.381 469.901 412.138 470.004 411.904 470.118C411.882 470.079 411.86 470.04 411.827 470.006C413.743 468.517 415.664 467.061 417.739 465.81C419.976 464.449 422.635 463.271 424.873 465.154C427.341 467.236 425.852 471.105 424.628 473.492C422.532 477.557 417.883 482.645 413.052 483.122C409.711 483.453 409.406 480.411 409.987 477.282C410.066 477.203 410.158 477.1 410.243 477.018L410.252 477.027ZM393.137 539.93C390.444 535.736 390.091 529.991 391.562 525.258C393.576 518.813 400.31 516.78 404.833 521.862C409.028 526.594 409.214 533.076 406.713 538.576C406.684 538.587 406.679 538.578 406.652 538.593C405.183 539.121 404.124 540.403 404.293 541.769C400.074 543.891 396.143 544.603 393.138 539.936L393.137 539.93ZM432.168 506.011C432.086 505.499 431.387 505.31 431.016 505.67C427.782 508.834 425.953 514.218 420.74 510.864C416.16 507.901 414.997 501.191 417.206 496.414C420.055 490.245 430.98 483.753 433.433 493.091C434.537 497.256 433.954 502.302 432.237 506.821C432.209 506.551 432.21 506.285 432.169 506.01L432.168 506.011ZM454.373 467.286C454.323 466.944 454.275 466.589 454.241 466.238C454.082 464.18 451.558 463.797 450.702 465.716C450.658 465.827 450.633 465.909 450.592 466.008C450.357 466.157 450.159 466.372 449.989 466.601C445.797 463.408 446.437 452.465 447.059 448.252C449.358 446.091 451.88 444.426 455.09 446.218C458.906 448.342 460.682 453.555 460.898 457.661C461.143 462.127 458.848 466.316 454.374 467.284L454.373 467.286ZM471.901 432.754C471.826 433.13 471.762 433.518 471.689 433.898C471.584 434.026 471.48 434.136 471.366 434.267C471.162 434.502 470.993 434.791 470.86 435.098C470.62 435.061 470.393 435.058 470.141 434.974C467.242 434.093 466.583 430.788 466.405 428.171C466.075 423.431 466.779 417.165 469.439 412.97C472.194 415.006 474.24 417.38 475.314 420.943C476.351 424.388 476.519 428.696 475.011 432.176C474.174 431.197 472.204 431.225 471.907 432.75L471.901 432.754ZM494.779 422.332C492.164 419.611 493.704 413.512 494.482 410.344C494.888 408.667 495.402 406.995 495.98 405.336C496.079 405.292 496.171 405.298 496.248 405.203C499.016 402.253 503.99 396.211 508.083 400.218C511.549 403.607 511.722 409.823 510.418 414.22C509.594 416.975 507.849 419.4 505.435 421.024C502.745 422.833 497.326 424.963 494.776 422.327L494.779 422.332ZM504.55 455.16C504.649 455.241 504.768 455.328 504.935 455.301C508.595 454.815 519.633 451.533 520.104 457.825C520.457 462.527 516.269 467.301 512.795 470.072C508.109 473.805 502.586 474.052 498.338 469.902C497.022 468.616 496.44 467.215 496.397 465.783C497.283 465.44 497.436 464.587 497.164 463.872C497.479 463.342 497.493 462.747 497.342 462.189C498.768 459.464 501.587 456.927 504.55 455.159L504.55 455.16ZM487.442 488.406C492.554 488.207 498.611 488.921 497.679 494.127C496.773 499.221 491.959 503.759 487.745 506.479C482.828 509.656 476.771 510.507 473.352 505.157C468.838 498.081 479.27 491.902 487.442 488.406ZM435.078 559.156C434.298 559.369 433.621 559.696 432.962 560.067C432.683 560.103 432.41 560.205 432.14 560.357C428.855 558.146 427.451 555.569 428.978 551.035C430.352 546.927 434.26 542.432 438.857 541.994C445.505 541.351 446.844 548.586 444.329 553.172C443.094 555.418 440.385 558.561 437.404 560.285C436.996 559.466 436.089 558.889 435.077 559.155L435.078 559.156ZM438.734 574.999C438.489 575.386 438.248 575.769 438.034 576.175C430.53 578.682 422.978 581.047 415.433 583.426C423.145 580.445 430.871 577.533 438.734 574.999L438.734 574.999ZM466.284 546.916C465.741 545.856 464.336 545.239 463.191 546.343C461.465 547.981 460.049 549.571 458.77 551.448C457.528 546.694 457 543.036 459.269 538.122C461.306 533.708 465.086 529.06 469.806 527.298C472.366 526.344 474.523 527.273 475.97 529.414C478.254 532.757 477.515 536.26 475.309 539.465C473.072 542.724 469.717 544.895 466.284 546.916ZM496.109 526.9C496.261 526.78 496.278 526.633 496.33 526.502C498.774 524.776 501.365 524.145 503.022 527.714C504.925 531.854 504.558 537.531 503.216 541.828C501.763 546.484 498.452 548.976 493.652 547.289C492.232 546.797 491.202 546.083 490.424 545.265C490.266 544.984 490.065 544.721 489.792 544.541C486.348 539.514 491.514 530.66 496.113 526.904L496.109 526.9ZM366.187 644.133C366.631 643.156 365.193 642.144 364.335 642.972C363.388 643.893 362.912 644.348 362.663 644.725C358.869 643.74 356.017 642.287 356.257 637.585C356.483 633.309 359.233 629.041 362.574 626.38C367.286 622.639 372.929 625.533 374.734 630.601C376.962 636.821 372.091 642.719 366.188 644.133L366.187 644.133ZM399.13 628.866C400.512 627.391 398.593 625.365 397.014 626.641C396.734 626.867 396.476 627.098 396.219 627.325C396.14 627.249 396.037 627.19 395.91 627.189C386.35 626.916 390.319 616.176 393.628 611.101C396.53 606.662 404.799 602.038 409.096 606.919C412.414 610.689 410.298 617.652 408.202 621.56C406.015 625.634 402.659 628.005 398.711 629.339C398.838 629.181 398.979 629.016 399.13 628.866L399.13 628.866ZM427.961 625.846C430.876 625.135 433.912 625.26 436.855 625.444C437.586 625.489 443.455 625.615 443.544 626.518C443.562 626.707 443.688 626.837 443.838 626.916C442.579 629.14 442.009 631.578 440.445 633.682C438.962 635.674 436.662 636.845 434.309 637.457C430.425 638.465 425.379 637.77 422.619 634.816C421.954 634.11 421.699 633.368 421.634 632.628C422.095 632.403 422.579 632.2 423.034 631.978C424.123 631.469 423.751 629.695 422.553 629.756C422.519 629.758 422.471 629.768 422.437 629.77C423.71 627.859 426.088 626.293 427.954 625.838L427.961 625.846ZM424.812 666.026C423.927 665.608 423.281 665 423.204 664.019C423.013 661.403 425.218 658.593 426.642 656.543C428.38 654.038 430.381 651.578 432.525 649.385C432.916 648.982 432.674 648.495 432.282 648.333C435.935 646.614 439.976 646.264 442.404 650.195C444.871 654.193 444.197 659.891 440.825 663.309C438.522 665.653 435.138 666.472 431.98 666.65C431.263 666.683 430.049 666.758 428.764 666.735C429.498 665.867 428.597 664.651 427.521 665.135C426.88 665.427 426.35 665.759 425.781 666.079C425.476 665.96 425.149 665.942 424.813 666.028L424.812 666.026ZM476.295 681.951C475.881 681.68 475.434 681.907 475.205 682.266C470.325 678.38 461.743 678.825 457.036 683.188C457.046 683.176 457.043 683.17 457.069 683.152C457.689 682.524 457.549 681.675 456.892 681.183C455.971 680.511 455.001 679.983 453.994 679.524C452.651 678.624 451.15 678.042 449.592 677.954C449.467 677.921 449.356 677.88 449.245 677.851C447.21 677.296 444.901 676.896 442.929 676.009C445.377 675.168 447.824 674.289 450.246 673.346C460.238 672.612 470.015 671.762 479.307 667.794C479.165 668.985 479.255 670.244 479.642 671.554C479.827 672.166 480.696 672.085 480.773 671.435C480.985 669.392 481.767 667.619 482.87 666.083C483.193 665.915 483.526 665.783 483.834 665.61C484.377 665.31 484.552 664.757 484.469 664.252C487.495 661.363 491.918 659.683 496.05 659.338C500.452 658.974 506.319 661.262 506.318 666.236C506.329 670.209 502.748 673.665 499.544 675.582C494.48 678.61 489.367 677.663 484.005 676.619C483.27 676.476 482.394 677.439 483.118 678.015C492.499 685.521 511.685 676.926 509.43 664.075C507.458 652.816 488.691 654.607 481.785 662.541C479.156 663.916 476.478 665.171 473.917 666.678C473.616 666.853 473.488 667.091 473.426 667.336C468.064 669.045 462.522 669.935 456.894 670.594C468.633 665.439 479.965 658.916 490.716 650.471C491.355 650.774 492.155 650.742 492.838 650.092C493.081 649.869 493.315 649.642 493.56 649.413C493.581 649.387 493.572 649.372 493.599 649.356C494.321 648.665 495.006 647.929 495.72 647.212C497.388 647.548 499.37 647.277 501.365 646.428C506.849 644.092 511.791 638.869 514.049 633.47C516.543 627.47 512.605 622.885 506.458 622.865C505.862 622.86 505.47 623.773 506.085 624.033C509.841 625.652 512.404 627.935 510.933 632.17C509.548 636.169 505.895 639.709 502.4 642.019C501.446 642.641 499.888 643.568 498.408 643.977C498.613 642.655 497.03 641.526 495.605 642.545C495.402 642.693 495.198 642.843 494.994 642.991C494.898 642.808 494.779 642.67 494.705 642.444C492.419 634.492 500.771 627.086 508.43 627.342C509.017 627.364 509.265 626.563 508.768 626.278C504.797 624.022 499.423 627.043 496.197 629.499C492.466 632.343 491.068 636.731 491.183 641.155C491.231 642.759 491.642 644.014 492.283 644.988C492.112 645.17 491.997 645.367 491.954 645.579C491.604 645.879 491.249 646.2 490.891 646.522C490.878 646.529 490.845 646.534 490.838 646.552C490.599 646.772 490.346 647 490.102 647.22C489.663 647.604 489.492 648.054 489.46 648.497C488.462 649.331 487.489 650.188 486.468 650.992C481.365 655.139 475.82 658.688 470.188 662.06C464.258 665.624 458.095 668.584 451.777 671.147C450.884 671.236 449.992 671.325 449.107 671.416C454.707 667.299 459.49 661.771 462.966 656.13C463.025 656.045 463.052 655.927 463.086 655.82C463.361 655.734 463.642 655.611 463.883 655.372C464.077 655.194 464.261 655.022 464.436 654.824C464.786 654.558 464.97 654.275 465.084 653.968C465.235 653.814 465.389 653.676 465.531 653.486C465.632 653.344 465.683 653.201 465.75 653.054C476.219 652.367 482.888 634.584 476.692 627.27C476.261 626.755 475.385 627.265 475.535 627.887C477.128 634.863 474.353 647.226 466.157 649.601C464.063 650.207 462.519 648.582 461.491 647.074C459.988 644.88 462.364 641.233 463.48 639.321C465.622 635.624 468.709 631.723 472.135 629.1C472.612 628.728 472.043 627.94 471.535 628.254C466.484 631.47 461.011 636.226 458.748 641.859C457.334 645.396 458.121 649.939 461.22 651.999C461.03 652.227 460.837 652.481 460.611 652.759C460.486 652.915 460.431 653.084 460.365 653.243C459.752 653.941 459.106 654.625 458.428 655.261C457.387 656.318 457.943 657.553 458.948 657.94C455.325 663.652 449.59 667.585 444.367 671.874C444.285 671.885 444.203 671.897 444.138 671.899C443.549 671.964 443.218 672.43 443.172 672.879C442.549 673.401 441.93 673.935 441.336 674.475C441.166 674.639 441.132 674.801 441.152 674.972C441.074 674.896 440.956 674.876 440.87 674.804C440.078 674.157 439.048 674.894 439.236 675.705C437.714 676.203 436.187 676.709 434.645 677.175C421.672 681.101 408.311 683.505 394.871 685.164C396.017 684.897 397.178 684.619 398.327 684.373C398.535 684.554 398.802 684.665 399.165 684.497C399.555 684.329 399.941 684.147 400.333 683.978C402.598 683.524 404.878 683.115 407.17 682.852C407.754 682.779 407.672 681.788 407.087 681.838C406.146 681.93 405.222 682.085 404.295 682.194C409.767 679.701 415.208 677.043 420.191 673.738C420.447 673.879 420.74 673.938 421.031 673.757C423.07 672.509 424.467 671.286 425.804 669.577C427.609 669.921 429.539 669.946 431.117 669.921C435.366 669.843 439.414 668.872 442.731 666.024C447.774 661.692 448.461 653.664 445.16 648.325C443.612 645.823 441.175 644.258 438.194 643.993C434.264 643.654 431.306 646.233 428.96 649.029C428.595 649.459 429.009 650.263 429.567 649.889C429.981 649.622 430.398 649.353 430.83 649.111C426.272 652.91 418.006 659.643 420.411 665.854C420.81 666.897 421.485 667.67 422.334 668.254C422.193 668.403 422.055 668.549 421.915 668.684C421.543 669.076 421.453 669.508 421.504 669.916C414.247 674.849 405.978 677.928 398.672 682.944C391.631 684.063 384.686 685.596 377.634 686.945C371.864 687.429 366.101 687.836 360.371 688.201C359.585 688.26 358.812 688.295 358.035 688.343C348.936 688.144 339.815 687.164 330.92 686.856C329.782 686.817 328.627 686.793 327.471 686.757C330.976 685.588 334.462 684.325 337.899 682.788C347.221 678.621 354.841 670.135 362.827 663.833C369.461 661.869 375.849 658.43 382.656 657.66C382.732 657.86 382.836 658.044 383.007 658.19C383.204 658.353 383.398 658.522 383.588 658.689C384.149 659.174 385.121 659.386 385.715 658.731C386.024 658.382 386.377 658.08 386.728 657.756C386.661 658.163 386.6 658.586 386.579 659.027C386.364 664.595 391.256 667.504 396.366 667.385C401.577 667.252 407.548 664.593 410.808 660.443C414.255 656.061 413.064 650.477 407.924 648.272C407.064 647.901 406.329 648.78 406.89 649.52C408.974 652.388 410.676 655.089 408.259 658.376C406.122 661.293 402.1 662.742 398.708 663.423C395.886 663.99 391.665 663.852 390.56 660.713C387.761 652.673 398.846 648.656 405.091 650.562C405.828 650.784 406.112 649.721 405.432 649.437C399.683 646.991 391.921 648.528 388.424 653.502C387.836 652.844 386.767 652.541 385.873 653.28C385.858 653.254 385.844 653.228 385.824 653.204C385.338 653.739 384.82 654.237 384.32 654.748C378.51 655.139 373.408 657.564 368.164 659.851C370.591 658.062 373.008 656.254 375.476 654.503C375.637 654.916 376.14 655.173 376.619 654.781C378.385 653.328 380.055 651.789 381.653 650.211C385.043 647.893 388.457 645.617 391.912 643.425C396.484 640.522 401.305 638.128 406.231 635.897C405.894 636.052 411.139 634.134 414.985 632.613C414.467 633.008 413.934 633.392 413.424 633.781C412.56 634.421 413.377 635.931 414.389 635.592C416.768 634.783 417.568 634.575 418.33 634.195C418.43 634.594 418.463 634.987 418.628 635.393C420.892 640.865 428.882 641.99 434.096 641.17C440.411 640.167 447.685 633.531 445.169 626.757C445.064 626.476 444.773 626.385 444.485 626.427C444.733 624.668 442.154 623.625 440.895 623.138C437.122 621.656 432.5 621.828 428.505 622.339C424.205 622.894 419.841 625.978 418.495 629.967C418.38 630.045 418.258 630.135 418.147 630.214C407.522 631.747 397.586 636.877 388.337 642.852C390.995 639.617 393.481 636.237 395.928 632.781C402.841 633.087 409.014 627.712 411.807 621.447C414.41 615.606 415.501 606.453 408.993 602.838C401.311 598.575 392.448 606.261 389.298 612.715C386.055 619.317 385.981 629.044 395.15 628.3C394.358 629.035 393.657 629.787 393.037 630.579C392.955 630.591 392.894 630.608 392.819 630.616C392.236 630.677 392.101 631.225 392.261 631.676C391.253 633.207 390.539 634.899 390.144 636.972C387.206 640.697 384.127 644.302 380.955 647.85C378.482 649.593 376.053 651.345 373.674 653.041C369.334 656.148 365.084 659.326 360.903 662.58C360.664 662.645 360.446 662.733 360.212 662.796C359.761 662.912 359.567 663.279 359.566 663.632C357.106 665.554 354.693 667.554 352.269 669.529C354.247 665.451 357.277 661.916 359.982 658.2C361.431 656.215 362.628 654.123 363.615 651.894C364.351 650.25 364.224 648.258 364.731 646.584C372.27 647.624 378.513 639.845 378.386 632.765C378.254 625.627 370.945 619.116 363.699 622.14C357.779 624.612 354.046 630.962 353.186 636.983C352.404 642.584 356.195 647.222 361.46 647.149C361.218 647.686 361 648.238 360.797 648.881C360.504 649.81 361.636 650.186 362.23 649.596C361.52 652.774 359.179 655.806 357.341 658.343C354.377 662.453 350.526 666.607 349.624 671.664C349.091 672.117 348.532 672.532 348 672.982C342.145 677.869 335.7 680.952 329.018 683.464C333.402 679.071 335.942 673.817 337.303 667.945C337.651 666.742 337.928 665.592 337.976 664.388C337.987 664.313 337.998 664.238 338.009 664.163C347.665 660.791 348.38 638.167 335.225 641.692C329.705 643.163 325.996 649.355 324.358 654.314C322.89 658.755 323.024 666.801 329.083 667.44C329.593 667.494 329.974 666.853 329.73 666.44C327.745 663.128 326.203 660.763 326.991 656.668C327.76 652.694 330.111 648.916 333.212 646.269C336.829 643.18 340.951 644.606 342.108 649.062C342.876 652.003 340.921 658.767 337.58 661.536C337.112 661.308 336.507 661.314 336.092 661.699C336.081 661.711 336.071 661.724 336.057 661.732C335.67 661.829 335.316 662.045 335.067 662.357C334.945 662.495 334.826 662.63 334.709 662.765C334.03 662.837 333.753 663.406 333.888 663.9C333.793 664.33 333.944 664.778 334.284 665.084C334.412 665.249 334.578 665.386 334.762 665.471C334.699 666.168 334.66 666.843 334.774 667.514C333.219 673.852 330.21 679.225 325.526 684.417C325.421 684.545 325.424 684.657 325.393 684.778C323.526 685.422 321.639 686.051 319.765 686.668C299.119 686.695 276.372 688.836 257.61 695.532C256.31 695.996 256.668 697.82 258.07 697.59C275.86 694.686 293.059 691.369 310.609 689.782C308.736 690.466 306.87 691.181 305.022 691.965C285.443 693.855 266.02 696.834 247.167 702.548C268.604 685.574 290.262 668.972 310.038 650.044C310.519 649.579 309.839 648.869 309.337 649.31C287.16 668.575 263.788 686.437 240.724 704.642C240.091 704.86 239.447 705.045 238.814 705.267C258.932 688.688 279.142 672.275 299.112 655.536C319.554 641.626 338.092 625.492 355.846 608.483C363.423 604.509 371.244 601.011 379.207 597.832C387.048 597.889 394.895 599.113 402.668 599.638C407.841 599.993 414.337 600.545 419.905 599.235C419.762 599.715 419.664 600.207 419.604 600.733C419.476 601.793 420.959 602.076 421.5 601.274C421.939 600.61 422.434 600.027 422.949 599.465C423.421 599.193 423.899 598.844 424.367 598.667C425.213 598.363 425.673 597.715 425.836 597.028C429.801 594.521 434.678 594.326 439.474 596.616C442.603 598.12 448.854 606.088 443.659 608.705C439.74 610.682 433.693 608.63 429.965 607.383C425.647 605.941 421.474 603.592 417.779 601.005C417.04 600.499 416.132 601.451 416.508 602.187C419.575 608.13 427.794 610.739 434.002 612.09C438.913 613.163 446.141 613.685 448.622 608.184C449.831 605.515 448.415 602.163 447.327 599.784C445.542 595.953 442.05 593.683 438.07 592.421C434.177 591.17 428.854 591.415 424.914 593.478C424.414 593.243 423.822 593.223 423.206 593.637C411.698 601.458 396.645 596.988 383.059 596.322C393.327 592.382 403.808 588.91 414.34 585.592C414.355 585.589 414.36 585.598 414.374 585.591C425.379 582.061 437.692 583.346 448.666 586.147C447.734 587.653 450.011 589.128 451.362 588.022C451.786 587.664 452.217 587.312 452.648 586.966C452.701 586.936 452.743 586.947 452.805 586.912C453.016 586.788 453.227 586.675 453.431 586.56C449.065 590.774 447.298 597.28 452.6 601.305C457.26 604.842 464.246 605.379 469.864 603.791C475.104 602.32 481.32 596.333 477.412 590.791C477.086 590.338 476.304 590.274 476.114 590.925C474.891 595.179 474.357 598.47 469.592 600.087C465.611 601.444 460.74 601.205 456.965 599.554C453.034 597.834 451.965 594.723 454.337 591.036C457.806 585.647 469.461 580.922 473.815 587.511C474.085 587.93 474.783 587.713 474.663 587.189C473.05 579.022 462.61 580.693 456.428 584.296C456.938 582.862 455.565 581.039 453.857 582.011C453.362 582.295 452.853 582.558 452.353 582.822C451.969 582.851 451.581 582.99 451.219 583.357C451.057 583.482 450.899 583.622 450.734 583.75C442.583 582.685 434.787 581.22 426.946 581.661C436.161 578.81 445.358 575.951 454.411 572.87C454.499 572.838 454.579 572.781 454.669 572.731C461.689 570.495 467.291 571.956 474.376 570.902C476.472 570.756 478.49 570.282 480.471 569.575C480.535 569.625 480.624 569.627 480.699 569.659C479.718 571.957 479.51 574.318 480.996 576.218C484.129 580.237 491.096 578.583 495.221 577.162C500.098 575.488 510.1 570.43 510.085 564.318C510.084 563.671 509.364 563.099 508.714 563.488C507.046 564.495 505.848 566.318 504.447 567.689C502.517 569.586 500.267 571.046 497.863 572.299C494.289 574.17 489.454 575.806 485.428 574.94C480.534 573.894 486.327 567.011 487.929 565.364C492.177 561.029 500.396 557.308 506.22 560.062C507.117 560.48 507.837 559.329 507.05 558.753C500.994 554.364 492.649 557.896 487.136 561.844C485.836 562.774 484.234 564.3 482.867 566.076C476.822 569.159 470.675 568.349 464.568 568.477C473.114 563.639 481.38 556.079 487.535 550.084C487.661 550.026 487.797 549.954 487.908 549.84C488.172 549.554 488.422 549.278 488.685 548.99C489.037 549.26 489.368 549.528 489.782 549.763C496.383 553.634 503.226 551.716 506.447 544.678C509.068 538.947 509.106 530.743 505.885 525.379C502.401 519.58 497.095 522.399 493.904 526.661C488.575 531.106 483 539.498 485.804 545.607C484.72 546.556 484.357 547.687 484.252 549.542C475.327 557.937 465.128 564.422 454.455 570.385C453.951 570.565 453.452 570.755 452.953 570.944C452.762 570.983 452.576 571.052 452.4 571.151C448.597 572.579 444.754 573.926 440.915 575.236C448.343 567.609 457.722 562.198 463.889 553.303C464.063 553.068 464.065 552.84 464.084 552.618C464.368 552.578 464.638 552.461 464.804 552.11C464.855 552.012 465.112 551.214 465.378 550.489C471.446 548.17 477.932 543.363 479.897 537.797C482.005 531.833 478.908 523.791 471.812 523.698C465.323 523.603 459.813 530.545 457.003 535.539C454.364 540.238 451.6 550.089 457.862 553.046C457.472 554.096 458.225 555.225 459.377 555.209C453.959 562.293 445.023 566.383 439.789 573.473C431.093 575.99 422.532 578.928 414.017 582.022C415.32 581.065 416.591 580.095 417.857 579.16C420.86 576.963 423.777 574.669 426.66 572.302C428.067 571.141 429.465 569.64 430.907 568.199C431.5 568.441 432.275 568.334 432.574 567.71C432.829 567.197 433.103 566.564 433.416 565.932C434.176 565.33 434.945 564.799 435.754 564.395C436.243 564.154 436.563 563.637 436.669 563.115C441.353 561.876 445.637 556.994 447.552 553.261C450.599 547.333 447.478 539.56 440.282 539.062C428.262 538.243 419.976 559.391 429.656 562.775C429.365 563.291 429.344 563.843 429.487 564.351C429.44 565.044 429.546 565.779 429.838 566.609C427.262 569.089 424.458 571.362 421.684 573.601C417.062 577.315 411.428 580.45 407.088 584.565C399.372 587.429 391.665 590.353 383.917 593.125C377.54 595.412 371.116 597.422 364.847 599.715C385.381 579.481 405.132 558.401 425.964 538.698C426.384 538.29 425.812 537.716 425.358 538.062C418.823 543.038 412.717 548.509 406.818 554.227C418.773 541.218 430.421 527.938 441.819 514.471C444.732 513.156 447.673 511.903 450.596 510.63C454.289 509.027 459.24 505.977 463.508 505.119C463.832 505.38 464.251 505.519 464.75 505.529C464.902 505.547 465.055 505.495 465.209 505.489C465.305 505.47 465.388 505.492 465.491 505.468C465.521 505.458 465.537 505.455 465.566 505.444C465.641 505.419 465.722 505.407 465.8 505.381C466.249 505.249 466.711 505.136 467.156 504.995C468 504.732 468.624 504.032 468.915 503.229C469.103 503.107 469.284 502.953 469.477 502.828C469.481 502.929 469.466 503.028 469.485 503.126C470.663 512.271 479.889 514.072 487.318 510.588C493.773 507.559 500.455 500.735 501.288 493.534C501.918 488.091 498.132 486.308 493.58 486.095C493.825 486.008 494.091 485.928 494.302 485.86C494.814 485.693 494.824 484.833 494.206 484.877C491.858 485.075 488.74 485.779 485.504 486.918C484.131 487.217 482.884 487.554 481.93 487.855C481.567 487.973 481.482 488.279 481.568 488.519C476.418 490.917 471.692 494.392 470.066 498.727C469.434 498.403 468.681 498.274 467.927 498.576C467.913 498.55 467.895 498.508 467.876 498.484C466.967 499.098 466.03 499.642 465.096 500.201C464.679 500.281 464.27 500.442 463.881 500.816C463.692 500.99 463.486 501.158 463.3 501.337C463.166 501.464 463.107 501.583 463.008 501.719C462.986 501.743 462.975 501.755 462.969 501.775C462.788 501.997 462.654 502.225 462.581 502.461C459.76 505.126 454.942 506.481 451.601 507.966C449.262 509.002 446.946 510.078 444.649 511.188C444.87 510.926 445.089 510.662 445.322 510.397C447.789 507.457 450.241 504.478 452.662 501.479C452.654 501.496 452.636 501.528 452.609 501.543C452.267 501.978 452.972 502.503 453.341 502.133C461.447 494.034 468.218 484.672 474.438 474.984C476.791 473.73 479.382 472.775 481.369 471.925C484.267 470.684 487.193 469.482 490.124 468.301C490.678 468.676 491.42 468.775 492.223 468.348C492.956 467.953 493.665 467.537 494.366 467.109C494.424 467.494 494.462 467.88 494.569 468.269C496.596 476.094 506.178 477.051 512.308 473.588C517.655 470.565 523.279 463.824 522.812 457.475C522.372 451.518 516.636 450.952 511.381 452.074C511.32 451.954 511.22 451.85 511.022 451.87C505.739 452.298 498.926 455.612 495.87 460.525C495.351 460.356 494.768 460.374 494.172 460.769C492.581 461.835 491.134 462.459 489.752 463.787C489.329 464.2 489.229 464.899 489.428 465.454C489.357 465.58 489.299 465.681 489.266 465.8C485.215 467.542 481.007 469.017 477.03 470.858C479.932 466.206 482.742 461.522 485.519 456.891C485.825 456.367 485.108 455.971 484.739 456.425C483.585 457.869 482.484 459.332 481.371 460.805C482.53 458.825 483.709 456.847 484.806 454.835C487.372 453.714 489.81 451.422 491.646 449.947C496.926 445.717 501.572 440.668 506.77 436.357C506.956 436.373 507.114 436.358 507.291 436.318C507.31 436.32 507.333 436.329 507.367 436.327C507.804 436.305 508.113 436.301 508.421 436.282C508.408 436.658 508.329 437.019 508.37 437.39C509.2 445.663 526.119 441.351 530.434 439.222C536.965 436.007 541.047 428.332 538.687 421.458C536.054 413.822 526.791 412.698 520.426 416.821C519.664 417.318 520.023 418.48 520.962 418.297C526.491 417.239 533.557 416.275 535.755 422.706C537.654 428.25 533.838 433.797 529.011 436.492C525.992 438.183 510.749 441.912 511.258 435.712C511.36 435.672 511.408 435.662 511.511 435.638C512.489 435.314 512.652 434.227 511.868 433.63C511.844 433.609 511.833 433.599 511.805 433.58C513.591 428.84 518.39 424.098 521.751 420.784C522.471 420.065 521.455 418.991 520.684 419.673C517.704 422.288 513.423 425.719 510.765 429.652C510.158 429.307 509.423 429.254 508.676 429.777C507.331 430.728 506.249 431.379 505.579 432.574C505.306 432.945 505.156 433.364 505.136 433.806C505.104 433.876 505.084 433.904 505.079 433.958C505.045 434.149 505.052 434.319 505.056 434.492C499.764 440.269 493.633 445.784 487.167 450.449C491.169 442.711 494.673 434.743 497.535 426.498C500.364 426.746 503.535 425.801 505.86 424.73C509.479 423.073 511.995 419.899 513.543 416.379C516.145 410.458 515.156 401.971 510.544 397.418C506.161 393.107 501.252 395.49 497.949 399.385C497.685 399.236 497.297 399.248 497.078 399.522C492.618 405.092 486.936 419.512 493.694 425.072C494.336 425.604 495.082 425.929 495.867 426.174C491.588 435.784 486.744 445.155 481.435 454.343C481.357 454.393 481.253 454.463 481.17 454.527C480.96 454.662 480.879 454.952 480.947 455.173C479.67 457.377 478.386 459.579 477.059 461.75C478.894 454.387 478.102 446.559 476.692 439.109C476.657 438.795 476.608 438.494 476.523 438.221C476.373 437.475 476.224 436.745 476.071 436.006C482.757 428.845 478.429 409.165 467.448 410.528C466.947 410.591 466.888 411.31 467.275 411.529C467.79 411.835 468.276 412.156 468.745 412.48C464.533 417.322 462.967 424.886 463.957 430.977C464.541 434.548 467.917 438.243 471.608 438.194C472.022 438.993 472.694 439.615 473.57 440.129C475.157 448.293 474.901 456.698 473.865 465.049C473.806 465.555 474.083 465.872 474.452 465.999C469.26 474.218 463.723 482.267 457.903 490.179C458.628 485.362 457.409 480.673 456.185 475.909C456.261 475.917 456.331 475.947 456.411 475.954C457.171 476.042 457.773 475.068 457.391 474.445C456.591 473.179 455.774 472.467 455.152 471.683C455.065 471.276 454.991 470.864 454.914 470.451C459.874 469.725 463.591 464.045 464.049 459.463C464.641 453.599 461.918 446.699 456.883 443.495C451.003 439.752 443.37 445.171 442.127 451.31C441.993 451.973 442.687 452.432 443.248 451.983C443.957 451.412 444.675 450.713 445.387 449.991C443.262 456.238 444.03 465.656 449.484 469.195C449.415 472.57 450.729 474.397 453.496 475.322C455.103 481.879 455.581 488.725 454.062 495.328C447.391 504.136 440.421 512.779 433.161 521.227C433.367 520.662 433.577 520.113 433.712 519.51C434.093 517.811 434.239 516.061 434.478 514.343C434.703 512.701 432.792 512.355 431.74 513.214C436.695 506.729 438.343 496.99 435.504 489.852C431.542 479.882 418.752 488.187 415.061 494.235C411.097 500.708 413.319 509.37 418.931 513.857C421.562 515.951 424.83 515.957 427.494 514.666C427.367 514.806 427.252 514.957 427.125 515.085C426.176 516.007 427.424 517.319 428.445 516.6C428.449 517.252 428.466 517.903 428.45 518.453C428.394 520.274 428.334 522.09 428.273 523.913C428.244 524.815 428.747 525.388 429.402 525.638C421.872 534.25 414.109 542.671 406.242 550.927C406.919 548.69 407.448 546.41 407.563 543.961C407.589 543.692 407.513 543.485 407.409 543.309C407.592 543.024 407.677 542.709 407.729 542.39C407.946 541.91 408.169 541.451 408.425 540.997C408.57 540.744 408.619 540.464 408.623 540.171C414.542 535.467 410.961 524.422 407.317 519.659C402.256 513.054 393.415 515.004 389.475 521.864C385.876 528.12 386.877 537.129 390.89 542.758C394.117 547.288 399.183 548.061 403.381 545.726C403.325 545.877 403.26 546.043 403.195 546.207C402.813 547.271 403.921 548.188 404.899 547.96C404.569 549.995 403.944 552.002 403.306 553.998C395.811 561.796 388.223 569.427 380.655 576.939C382.508 570.086 382.538 562.7 383.161 555.758C384.291 543.101 384.814 530.35 387.178 517.8C387.273 517.279 386.489 517.04 386.367 517.57C384.076 527.973 382.873 538.281 381.932 548.854C381.496 553.83 380.608 558.799 379.709 563.756C379.744 563.264 379.775 562.749 379.82 562.25C381.021 545.466 383.399 528.844 385.63 512.149C386.781 512.284 388.066 511.495 388.128 510.174C388.592 498.341 398.045 489.085 406.452 480.878C406.653 483.191 407.726 485.178 410.304 486.167C416.97 488.721 424.143 481.129 427.237 476.072C430.58 470.615 431.009 461.652 422.881 460.817C415.89 460.094 410.308 468.496 406.499 473.046C406.102 473.518 406.642 474.112 407.151 473.728C407.461 473.502 407.759 473.266 408.06 473.035C407.275 474.87 406.627 476.982 406.45 478.998C402.328 482.57 398.307 486.298 394.912 490.53C393.767 491.956 392.736 493.421 391.789 494.911C393.01 490.732 394.058 486.188 394.895 482.715C395.242 482.555 395.517 482.245 395.528 481.777C395.557 481.239 395.526 480.705 395.532 480.162C395.79 479.167 396.031 478.317 396.235 477.759C397.731 473.625 399.26 469.551 400.3 465.37C400.415 465.253 400.516 465.11 400.573 464.902C400.796 464.011 401.019 463.122 401.244 462.232C401.331 461.886 401.253 461.603 401.091 461.384C401.31 459.963 401.475 458.536 401.525 457.07C401.543 456.782 401.516 456.5 401.516 456.221C402.147 456.533 402.973 456.414 403.461 455.728C410.362 446.208 418.255 439.873 427.67 433.525C427.719 433.549 427.767 433.574 427.822 433.577C439.388 435.585 459.532 429.005 454.74 414.073C453.282 409.537 448.583 409.449 444.722 411.007C439.487 413.132 435.047 418.38 434.908 423.863C434.899 424.005 434.971 424.069 435.012 424.174C434.942 424.207 434.869 424.203 434.81 424.236C431.897 425.994 429.568 428.147 427.122 430.48C426.758 430.822 426.566 431.344 426.553 431.843C421.248 434.388 418.219 434.229 421.459 426.634C423.926 420.874 426.62 415.241 428.966 409.453C429.741 409.478 430.596 409.446 431.586 409.285C439.145 408.087 444.652 402.449 445.874 395.14C446.747 389.919 444.895 383.36 439.978 380.774C433.575 377.423 426.457 383.904 424.328 389.577C424.127 390.12 424.819 390.429 425.21 390.113C428.546 387.432 433.353 381.193 438.323 383.416C441.983 385.053 443.037 389.87 442.935 393.476C442.783 398.535 439.745 402.802 435.161 405.039C433.088 406.049 430.666 406.692 428.38 406.667C425.886 406.651 425.969 403.71 426.015 401.973C426.125 398.303 426.987 394.519 427.426 390.858C427.482 390.359 426.675 390.243 426.554 390.729C425.078 396.532 420.469 407.498 427.25 409.224C422.601 417.764 418.594 426.56 414.801 435.479C414.253 436.757 415.804 437.547 416.834 437.132C417.996 436.655 419.162 436.188 420.322 435.719C414.448 439.493 408.609 444.274 404.393 449.743C403.212 451.273 402.464 446.187 402.413 444.724C401.86 442.663 401.084 439.97 400.341 438.016C403.651 436.441 406.139 432.773 406.64 429.023C407.529 422.543 405.427 414.984 400.395 410.662C395.353 406.333 388.611 408.819 385.986 414.643C385.775 415.102 386.411 415.587 386.827 415.317C390.567 412.888 394.449 409.934 398.447 413.371C401.9 416.337 403.355 421.535 403.52 425.937C403.626 428.88 402.731 432.185 400.679 434.03C400.409 433.526 399.75 433.278 399.203 433.768C398.74 434.165 398.432 434.717 398.176 435.34C397.289 435.536 396.286 435.529 395.162 435.263C388.63 433.725 386.827 421.844 388.535 416.566C388.681 416.114 387.979 415.798 387.753 416.23C383.937 423.3 385.58 433.851 392.952 437.816C394.523 438.668 396.075 438.942 397.538 438.811C397.497 441.072 397.903 443.725 398.446 446.313C398.967 451.97 399.749 457.559 398.743 463.298C397.69 466.843 396.569 470.379 395.409 473.912C395.178 472.379 393.251 472.026 392.297 473.15C391.909 472.617 391.44 472.091 390.948 471.561C390.432 471.009 389.795 470.876 389.192 470.96C388.71 470.466 388.232 469.971 387.718 469.502C387.761 468.756 387.72 467.972 387.578 467.13C388.442 452.877 370.072 434.266 362.326 452.242C358.466 461.199 366.804 471.159 374.029 475.171C378.808 477.834 384.44 476.76 386.714 472.911C387.426 474.209 388.801 476.56 388.925 476.781C388.989 476.883 389.064 476.964 389.145 477.046C389.611 477.844 390.076 478.639 390.51 479.463C390.964 480.366 392.069 480.673 393.002 480.421C393.022 480.582 393.051 480.728 393.085 480.883C391.282 486.203 389.41 491.513 387.608 496.802C387.092 498.294 385.645 501.26 385.059 503.87C383.393 501.221 381.587 498.682 379.928 495.897C377.99 492.638 376.391 489.825 373.37 487.429C373.199 487.313 373.03 487.28 372.856 487.269C371.914 484.784 367.692 482.269 365.972 481.119C362.911 479.049 358.819 477.121 354.944 477.644C346.783 478.762 345.716 488.866 349.294 494.466C352.778 499.944 360.067 503.725 366.738 502.857C371.77 502.193 373.52 498.511 373.472 494.462C374.069 495.958 374.781 497.413 375.728 498.852C376.001 499.275 376.831 499.062 376.653 498.508C375.895 496.15 375.227 493.772 374.629 491.366C379.485 496.54 380.717 503.119 383.481 509.59C383.33 509.687 383.2 509.834 383.166 510.076C382.759 513.404 382.721 512.692 383.028 514.927C382.195 515.067 382.012 516.65 382.514 519.698C381.792 524.453 381.096 529.211 380.421 533.963C380.26 535.121 380.136 536.264 379.994 537.412C379.626 536.63 379.867 535.832 379.825 534.778C379.806 534.775 379.777 534.787 379.756 534.782C379.747 533.556 378.478 533.062 377.605 533.565C373.191 525.554 369.325 515.669 360.226 512.784C354.294 510.902 347.991 516.167 349.189 522.063C350.459 528.287 357.348 533.403 363.036 535.416C367.452 536.979 372.411 535.205 373.529 531.198C374.623 533.427 375.631 535.681 376.623 537.859C376.684 538.322 376.902 538.763 377.223 539.177C377.238 539.203 377.255 539.245 377.277 539.284C377.282 539.282 377.29 539.277 377.304 539.269C377.474 539.476 377.593 539.689 377.853 539.889C378.429 540.348 379.167 540.163 379.703 539.717C378.948 545.636 378.307 551.559 377.873 557.504C377.689 560.076 377.52 562.56 377.282 565.011C376.658 564.556 375.788 564.474 375.134 565.211C374.838 565.532 374.632 565.87 374.412 566.212C370.663 564.353 366.583 563.201 362.386 562.74C361.894 562.379 361.432 561.997 360.904 561.668C359.771 560.952 358.402 562.171 358.747 563.354C358.479 563.886 358.485 564.562 358.941 565.04C359.47 565.58 359.996 566.133 360.52 566.681C361.306 567.494 362.543 567.054 362.982 566.219C363.786 566.41 364.577 566.614 365.364 566.827C365.362 566.949 365.307 567.06 365.182 567.227C365.052 567.403 365.298 567.653 365.481 567.538C365.772 567.358 365.923 567.17 366.004 567.002C368.802 567.782 371.542 568.747 374.169 570.182C374.267 570.23 374.336 570.226 374.443 570.265C374.45 570.267 374.46 570.273 374.46 570.273C375.013 570.828 375.946 570.851 376.595 570.431C375.837 575.012 374.587 579.481 372.165 583.978C369.751 588.458 367.507 587.93 366.814 590.485C365.452 591.822 364.08 593.181 362.716 594.499C358.807 598.292 354.871 602.039 350.9 605.757C346.457 608.099 342.194 610.857 338.232 614.321C337.742 614.752 338.327 615.591 338.886 615.233C340.514 614.198 342.156 613.241 343.801 612.295C316.854 637.019 288.682 660.242 260.429 683.365C260.462 683.33 260.503 683.31 260.514 683.266C264.428 672.193 266.775 660.702 268.84 649.128C267.833 655.977 266.928 662.86 266.197 669.815C266.134 670.446 267.063 670.53 267.263 669.967C274.112 651.149 273.88 630.027 277.662 610.536C278.22 607.676 278.895 604.858 279.645 602.053C284.46 591.728 292.643 583.459 301.699 576.507C301.857 576.504 302.01 576.469 302.174 576.415C303.007 577.991 304.353 579.315 306.32 580.138C313.116 583.001 321.438 579.063 325.973 573.73C331.887 566.791 329.575 556.761 324.711 550.295C324.176 549.595 323.08 550.319 323.227 551.077C324.52 557.719 327.129 563.749 323.647 570.376C321.315 574.811 314.925 577.323 310.221 577.232C306.88 577.169 305.333 575.662 304.896 573.609C305.237 573.205 305.582 572.786 305.935 572.382C306.998 571.129 306.388 569.579 305.286 569.107C306.042 566.639 307.498 564.201 308.941 562.771C312.551 559.189 317.149 557.399 321.836 555.82C322.625 555.559 322.537 554.533 321.727 554.437C315.405 553.648 307.242 558.813 303.667 563.758C302.094 565.947 301.135 568.735 301.06 571.434C300.157 572.294 299.974 572.754 298.616 575.204C298.53 575.372 298.527 575.532 298.519 575.688C293.285 580.777 287.286 585.593 282.872 591.386C287.118 578.676 292.541 566.305 297.114 553.685C297.294 553.166 296.454 552.794 296.215 553.31C293.887 558.33 291.735 563.385 289.727 568.462C289.876 566.505 289.944 564.574 289.895 562.667C290.409 563.361 291.502 563.268 291.876 562.36C294.019 557.176 296.069 552.118 298.917 547.357C299.177 547.599 299.552 547.722 299.919 547.65C301.753 547.317 303.564 546.808 305.352 546.203C305.675 546.308 306.014 546.335 306.33 546.199C309.136 545.083 311.837 543.746 314.432 542.191C316.069 541.927 317.192 541.549 317.839 541.077C318.446 541.379 319.165 541.381 319.73 540.833C321.204 544.408 324.713 547.075 328.973 546.87C335.708 546.529 342.366 541.271 345.707 535.711C348.749 530.665 347.403 522.585 340.091 523.044C339.516 523.076 339.076 523.752 339.535 524.211C342.691 527.258 344.997 529.231 342.46 533.787C340.221 537.811 335.83 541.104 331.463 542.565C326.93 544.081 323.437 541.963 322.769 537.499C323.01 537.243 323.247 536.975 323.478 536.718C324.495 535.588 324.183 534.333 323.339 533.673C325.51 528.353 332.292 520.586 336.556 523.041C337.09 523.348 337.577 522.674 337.227 522.227C332.002 515.515 321.529 529.165 319.735 533.346C319.556 533.761 319.49 534.186 319.382 534.605C316.526 536.64 313.633 538.626 310.737 540.599C310.634 540.669 310.181 540.963 309.527 541.365C309.303 540.714 309.612 539.395 310.841 536.988C312.79 533.138 314.747 529.454 316.467 525.564C316.858 525.465 317.183 525.196 317.282 524.682C317.995 523.007 318.18 521.339 317.871 519.692C320.048 519.822 322.283 519.378 324.065 518.406C329.847 515.259 333.675 508.389 334.348 502.121C335.115 494.958 329.139 490.226 322.169 491.815C321.281 492.012 321.224 493.299 322.097 493.53C326.899 494.834 330.85 496.476 330.504 502.045C330.226 506.525 327.325 511.025 323.983 513.977C322.74 515.082 321.13 515.818 319.533 516.066C319.441 515.839 319.302 515.625 319.086 515.523C318.932 515.437 318.785 515.365 318.633 515.28C317.972 514.93 317.112 515.207 316.871 515.968L316.867 515.971C315.087 515.558 313.572 514.396 312.95 512.144C311.377 506.484 319.286 498.198 323.68 495.48C324.478 494.997 323.843 493.762 323.012 494.229C316.63 497.822 308.931 505.122 309.681 512.919C310.027 516.509 312.593 518.597 315.68 519.372C312.582 527.828 308.308 535.67 304.897 544.005C302.54 545.209 300.629 545.84 301.84 543.964C302.102 543.574 302.032 543.238 301.861 542.957C301.872 542.945 301.895 542.921 301.914 542.893C302.793 541.737 300.918 540.675 300.025 541.777C299.436 542.473 298.896 543.213 298.342 543.937C296.425 545.3 296.918 544.975 297.999 544.38C297.715 544.75 297.401 545.104 297.137 545.488C297.022 545.639 296.956 545.789 296.933 545.936C296.504 546.408 295.905 547.418 294.951 549.494C294.947 549.497 291.155 558.919 290.769 557.456C289.593 552.931 289.456 547.925 288.929 543.279C288.902 542.979 288.782 542.766 288.658 542.576C293.819 539.488 295.218 529.597 294.204 524.684C292.761 517.695 285.843 511.461 278.395 514.714C266.019 520.111 266.417 546.55 282.268 545.089C283.422 544.985 283.654 543.611 282.609 543.174C277.74 541.132 274.259 538.613 273.384 533.191C272.655 528.633 274.301 523.207 277.479 519.735C281.797 515.015 287.373 518.146 289.825 522.821C291.64 526.271 291.582 530.567 290.53 534.282C289.342 538.462 286.271 540.139 282.624 541.922C282.079 542.195 282.186 542.987 282.729 543.154C283.422 543.353 284.074 543.459 284.69 543.502C284.274 543.873 284.034 544.429 284.241 545.167C285.736 550.665 290.5 563.605 289.454 569.197C289.416 569.287 289.384 569.356 289.356 569.434C289.291 568.494 287.923 568.062 287.315 568.992C280.772 579.027 280.235 591.083 276.892 602.26C276.931 601.698 276.998 601.128 277.033 600.556C277.12 599.101 275.022 599.145 274.794 600.516L274.615 601.066C273.413 599.116 271.808 597.391 270.133 595.743C270.891 595.162 271.253 594.106 270.394 593.267C269.087 591.776 267.731 590.373 265.931 589.469C265.791 589.409 265.646 589.374 265.498 589.342C265.958 588.059 266.201 586.618 266.3 585.095C266.377 584.948 266.463 584.809 266.534 584.648C266.723 584.239 266.607 583.818 266.352 583.544C266.344 576.203 263.141 567.305 259.75 562.964C254.053 555.668 243.719 557.904 240.285 566.439C235.008 579.516 252.054 598.707 262.524 590.129C262.548 590.201 262.544 590.29 262.564 590.356C262.61 590.628 262.751 590.846 262.947 591.007C262.891 591.506 263.005 592.023 263.397 592.519C264.502 593.875 265.561 595.403 267.08 596.326C269.478 598.629 271.877 600.944 273.73 603.694L272.767 606.557C272.356 607.292 273.359 608.208 273.958 607.508C274.08 607.37 274.162 607.273 274.268 607.151C274.018 610.093 273.628 613.03 273.177 615.958C268.298 633.063 265.164 650.928 262.212 668.448C260.083 676.134 257.258 683.465 253.037 689.416C230.468 707.883 207.917 726.382 185.982 745.668C184.357 747.097 186.605 749.46 188.23 748.037C203.281 734.846 218.602 722.007 233.996 709.284C234.524 709.09 235.058 708.929 235.588 708.742C211.637 727.724 185.925 747.787 168.55 773.074C168.114 773.708 169.046 774.47 169.602 773.913C191.71 751.503 213.26 729.771 237.913 709.957C239.394 708.772 240.871 707.603 242.355 706.423C251.228 703.595 260.262 701.38 269.404 699.601C270.507 700.188 271.603 700.749 272.715 701.282C272.829 701.455 273 701.601 273.198 701.696C280.458 704.639 287.733 707.445 295.053 710.088C300.378 715.852 306.441 720.96 311.692 726.784C311.651 727.378 311.644 727.946 311.671 728.512C309.981 729.514 308.621 731.172 307.804 732.924C305.32 738.178 306.608 744.889 310.742 748.8C313.652 751.556 318.153 753.169 322.112 751.495C326.687 749.554 325.985 743.95 324.264 740.454C323.35 738.608 322.035 737.024 320.585 735.565C320.741 735.443 320.83 735.255 320.81 735.021C320.644 732.361 319.838 729.417 317.483 728.169C317.009 726.294 316.618 724.403 316.091 722.541C315.461 720.378 311.832 720.495 311.886 722.988C311.889 723.089 311.883 723.172 311.884 723.268C307.893 719.33 303.752 715.538 299.644 711.709C307.327 714.372 315.076 716.833 323.018 718.925C326.528 719.839 330.028 720.28 333.545 720.45C335.155 722.438 337.242 723.952 339.224 725.591C340.439 726.607 341.536 727.761 342.281 729.144C342.083 729.667 341.943 730.207 341.875 730.742C340.235 733.362 340.854 737.205 343.418 740.179C344.453 741.387 346.102 739.926 345.598 738.64C345.082 737.322 343.84 735.23 344.041 733.535C344.178 733.526 344.299 733.562 344.422 733.514C344.996 733.66 345.579 733.464 346.016 733.062C346.526 732.593 346.766 731.877 346.45 731.206C347.722 730.922 349.19 731.048 350.265 731.153C355.994 731.693 361.102 735.221 363.746 740.11C366.057 744.348 365.926 750.117 359.937 750.735C354.541 751.294 350.141 747.508 346.147 744.634C345.593 744.236 344.846 744.984 345.157 745.548C348.337 751.184 356.002 754.882 362.573 752.935C369.774 750.798 368.623 742.79 366.128 737.697C363 731.352 354.686 727.334 347.613 727.774C347.335 727.793 347.083 727.841 346.83 727.873C346.493 726.959 345.479 726.298 344.514 726.482C343.854 725.623 343.102 724.814 342.315 724.103C341.005 722.905 339.549 721.789 338.061 720.721C338.051 720.641 338.008 720.596 337.962 720.534C345.535 720.426 353.124 719.284 360.75 718.636C361.041 719.122 361.648 719.424 362.314 719.122C362.956 718.83 363.49 718.581 363.948 718.375C364.335 718.352 364.638 718.194 364.87 717.96C365.976 717.441 366.487 717.172 367.182 716.655C367.347 716.792 367.459 716.96 367.638 717.09C372.116 720.437 378.49 720.658 383.697 718.652C388.791 716.699 392.599 709.991 389.032 705.246C388.748 704.866 388.032 705.069 387.923 705.517C386.959 709.588 387.181 712.872 382.871 715.028C379.542 716.693 375.259 716.42 371.916 715.206C371.207 714.955 370.613 714.609 370.094 714.228C371.673 712.729 369.887 710.251 367.948 710.867C367.774 709.789 367.904 708.588 368.393 707.33C370.716 701.312 382.529 699.032 385.932 704.828C386.282 705.421 387.185 704.937 386.898 704.319C383.57 697.111 373.49 697.943 367.918 702.409C364.694 704.98 363.568 709.076 364.576 712.585C362.994 713.48 361.446 714.447 359.96 715.525C359.556 715.804 359.313 716.15 359.197 716.518C358.036 715.94 356.589 716.098 354.839 717.015C349.753 717.654 344.696 718.204 339.579 718.46C337.966 718.536 336.367 718.489 334.778 718.405C334.652 718.338 334.546 718.274 334.436 718.209C334.077 718.034 333.652 718.122 333.305 718.317C326.669 717.759 320.229 715.975 313.835 714.225C307.781 712.564 301.865 710.497 296.007 708.295C295.901 708.201 295.797 708.111 295.703 708.006C295.4 707.72 295.065 707.733 294.763 707.843C288.448 705.448 282.188 702.89 275.886 700.489C275.004 699.754 274.811 699.716 273.572 699.613C273.56 699.613 273.56 699.613 273.553 699.61C273.068 699.433 272.582 699.258 272.111 699.074C301.972 693.558 333.023 692.546 363.552 690.136C363.595 690.464 363.838 690.77 364.268 690.723C372.042 689.828 379.633 690.007 387.373 690.587C395.761 691.216 405.986 692.03 413.955 695.302C414.226 696.107 415.134 696.768 416.059 696.727C416.001 696.966 416.009 697.192 416.034 697.415C414.078 700.043 413.993 703.178 418.317 705.206C418.898 705.486 419.596 704.784 419.101 704.268C417.027 702.165 417.115 700.405 418.281 699.015C418.749 698.935 419.205 698.672 419.547 698.122C419.637 697.968 419.702 697.863 419.775 697.744C422.543 696.013 427.091 695.244 429.563 695.699C433.815 696.47 439.193 700.13 437.926 704.973C436.864 709.021 432.149 711.416 428.438 712.453C422.92 713.996 417.751 712.365 412.537 710.862C411.87 710.673 411.218 711.569 411.771 712.063C417.419 717.1 425.907 717.302 432.783 714.353C438.011 712.106 442.781 706.635 441.088 700.824C438.993 693.668 429.181 691.244 422.659 693.023C421.962 693.216 421.269 693.484 420.601 693.804C420.362 693.441 420.005 693.143 419.551 692.976C418.481 692.62 417.829 692.658 416.97 692.826C416.802 692.749 416.641 692.666 416.456 692.659C407.814 692.386 399.064 689.699 390.417 688.828C387.742 688.554 385.061 688.448 382.38 688.402C402.238 686.277 421.713 682.99 440.337 676.912C442.628 678.821 445.648 679.598 448.658 680.423C450.315 682.106 453.007 682.631 454.954 683.987C455.379 684.287 455.958 684.216 456.402 683.95C455.546 684.892 454.851 685.968 454.397 687.211C452.28 693.053 455.825 697.593 461.428 699.077C466.877 700.509 473.581 699.421 478.085 695.852C483.189 691.807 481.083 685.063 476.346 681.988" fill="#FFF1E1"/>
</g>
<path d="M319.839 107.112C319.535 107.218 319.296 107.462 319.235 107.793C318.86 106.351 318.605 104.905 318.465 103.459C319.034 104.606 319.469 105.853 319.839 107.112L319.839 107.112ZM334.028 103.271C333.2 107.001 331.544 112.031 329.074 113.801C329.369 112.847 329.672 111.904 330.023 111.003C331.096 108.248 332.322 105.607 334.028 103.271ZM313.477 165.093C312.654 161.517 312.217 157.866 312.675 154.367C313.216 155.278 313.619 156.277 313.954 157.315C313.635 157.36 313.35 157.596 313.356 158.028C313.374 160.391 313.432 162.736 313.477 165.093H313.477ZM309.148 198.803C305.945 193.442 302.285 185.889 304.033 180.299C305.135 181.653 306.1 183.121 306.923 184.686C306.709 184.792 306.535 184.97 306.58 185.261C307.171 189.82 309.303 194.233 309.148 198.803L309.148 198.803ZM304.06 225.374C303.735 224.428 303.466 223.456 303.295 222.423C302.752 219.165 302.583 215.893 302.913 212.632C303.872 214.555 304.489 216.733 304.819 218.995C304.147 221.099 303.896 223.228 304.06 225.374H304.06ZM300.121 252.507C300.055 252.808 299.981 253.11 299.92 253.41C299.011 250.101 297.954 246.837 296.775 243.627C298.304 246.999 299.696 250.443 300.121 252.507H300.121ZM321.12 289.491C322.739 287.565 324.431 285.647 326.406 284.09C326.812 283.774 331.971 279.382 331.004 282.463C330.477 284.132 329.694 285.947 328.726 287.796C328.695 287.802 328.655 287.781 328.615 287.801C325.525 289.178 323.113 291.92 320.832 294.349C319.114 296.185 316.896 298.183 315.154 300.347C316.25 296.352 318.428 292.68 321.12 289.491L321.12 289.491ZM321.892 295.936C323.617 293.875 325.444 291.616 327.547 289.873C326.738 291.24 325.868 292.609 324.882 293.918C323.872 294.577 322.884 295.264 321.892 295.936ZM321.233 300.262C321.286 300.218 321.344 300.151 321.399 300.106C322.161 299.82 322.939 299.534 323.751 299.261C323.838 299.447 323.991 299.598 324.207 299.592C329.106 299.507 334.102 296.959 338.842 298.557C333.651 301.208 327.025 301.42 321.233 300.263L321.233 300.262ZM342.986 283.173C349.042 280.357 354.294 275.692 359.082 271.093C355.847 276.561 349.029 281.446 342.986 283.173ZM351.207 284.317C353.113 283.721 355.196 283.395 357.339 283.366C357.429 283.366 357.518 283.362 357.611 283.365C359.873 283.36 362.156 283.688 364.315 284.284C360.165 285.529 355.167 285.828 351.207 284.321L351.207 284.317ZM358.668 287.133C361.615 286.951 364.518 286.259 367.038 285.231C368.051 285.661 369 286.172 369.88 286.747C366.269 287.883 362.398 287.902 358.668 287.133ZM354.386 272.963C352.087 274.966 349.662 276.855 347.102 278.505C349.398 276.455 351.76 274.508 354.386 272.963ZM370.587 274.29C370.69 274.253 370.785 274.211 370.888 274.174C376.498 275.48 383.266 273.173 387.687 269.186C388.86 269.171 390.025 269.265 391.18 269.421C385.765 273.308 376.775 277.146 370.587 274.29L370.587 274.29ZM383.98 269.525C381.32 271.196 378.164 272.29 375.122 272.5C376.624 271.906 378.132 271.313 379.646 270.725C379.791 270.672 379.87 270.56 379.909 270.439C381.246 270.047 382.609 269.736 383.98 269.525H383.98ZM375.644 211.358C380.906 211.265 385.812 207.466 391.172 207.426C387.328 210.693 380.687 212.484 375.644 211.358ZM392.736 204.915C394.726 204.761 396.63 204.909 398.364 205.487C397.136 206.351 395.775 207.199 394.317 207.999C394.594 207.692 394.871 207.387 395.114 207.066C395.63 206.372 395.066 205.286 394.299 205.111C393.777 204.992 393.258 204.974 392.736 204.915V204.915ZM399.253 188.957C405.008 186.625 410.566 183.854 416.672 182.789C412.411 186.061 407.038 188.276 401.636 188.84C401.167 188.878 400.695 188.917 400.218 188.949C399.901 188.971 399.577 188.951 399.253 188.955V188.957ZM416.071 186.13C417.94 184.914 419.69 183.55 421.204 182.005C421.205 182.001 421.212 181.991 421.218 181.975C421.956 182.216 422.663 182.561 423.351 182.958C421.028 184.264 418.592 185.313 416.072 186.126L416.071 186.13ZM417.489 156.682C418.572 153.117 419.308 149.466 419.809 145.927C419.87 149.477 418.976 153.151 417.489 156.682ZM415.625 153.858C414.744 157.26 413.55 160.6 411.939 163.636C413.205 160.402 414.357 157.104 415.625 153.858ZM425.034 163.536C429.126 161.774 433.162 159.006 437.452 158.881C435.809 160.192 433.845 161.451 431.76 162.391C431.53 162.451 431.304 162.521 431.072 162.587C429.026 163.085 427.025 163.347 425.034 163.535L425.034 163.536ZM449.131 141.752C453.136 140.663 456.906 138.878 461.045 138.438C457.997 141.272 453.194 142.618 449.131 141.752ZM478.003 122.373C478.894 121.698 479.664 120.893 480.233 119.915C481.947 119.78 483.626 119.865 485.221 120.267C482.888 121.446 480.47 122.079 478.003 122.373ZM491.084 87.7705C490.805 91.8051 488.554 96.8305 485.49 100.923C485.353 101.043 485.211 101.159 485.066 101.27C485.087 101.241 485.102 101.212 485.126 101.183C485.242 100.958 485.2 100.746 485.095 100.563C486.613 98.179 488.192 95.8345 489.627 93.3973C490.022 92.7138 489.115 92.1655 488.62 92.6264L488.585 92.5918C487.069 94.2661 485.675 96.0807 484.364 97.9669C484.356 97.9669 484.356 97.9669 484.356 97.9669C484.601 97.3099 484.865 96.653 485.176 96.0198C485.369 95.6092 484.773 95.2516 484.565 95.6622C483.948 96.8702 483.544 98.1763 482.838 99.3419C482.709 99.5697 482.819 99.8213 483.012 99.9538C482.268 101.085 481.535 102.229 480.831 103.376C480.56 103.822 480.676 104.275 480.955 104.592C480.763 104.746 480.578 104.889 480.391 105.048C478.219 100.929 486.589 91.0766 491.084 87.7705L491.084 87.7705ZM494.369 103.771C495.875 103.549 497.396 103.533 498.859 103.798C497.322 104.542 495.688 105.13 494.064 105.652C494.356 105.448 494.649 105.252 494.918 105.016C495.453 104.568 494.981 103.758 494.369 103.771L494.369 103.771ZM509.152 78.7396C508.023 81.1079 506.579 83.3253 504.931 85.381C506.157 83.0498 507.364 80.6284 509.152 78.7396ZM502.927 94.441C507.581 91.6541 512.302 87.9003 517.322 90.6289C515.147 91.9773 512.648 92.8807 510.188 93.4794C508.01 94.0065 505.355 94.6477 502.927 94.441ZM521.899 79.3224C522.579 78.8324 523.233 78.3264 523.905 77.8363C524.506 77.3912 524.256 76.6124 523.697 76.4667C526.629 73.2162 529.687 69.7803 533.742 69.8889C536.046 69.9527 534.142 71.1843 533.04 72.2254C531.691 73.489 530.259 74.6679 528.722 75.6931C527.319 76.6203 523.831 79.3834 521.899 79.3224ZM436.176 138.56C437.468 134.599 439.429 130.806 441.994 127.566C441.362 128.71 440.747 129.855 440.149 131.015C438.828 133.534 437.523 136.056 436.176 138.56ZM391.423 181.023C392.216 177.2 392.54 173.247 392.696 169.515C392.72 168.85 392.359 168.458 391.889 168.301C392.401 167.84 392.939 167.435 393.487 167.067C394.252 171.502 393.223 176.243 391.665 180.4C391.61 180.538 391.528 180.76 391.423 181.023H391.423ZM389.561 175.576C389.023 180.649 387.853 185.831 385.137 189.953C386.659 185.155 387.602 180.196 389.561 175.576ZM360.98 216.229C360.885 216.252 360.793 216.297 360.698 216.311C360.748 215.85 360.795 215.389 360.851 214.928C361.829 211.471 362.968 208.072 364.349 204.761C363.537 208.703 362.562 212.602 360.98 216.229L360.98 216.229ZM305.507 249.28C309.435 245.444 312.968 239.613 318.225 237.682C314.223 240.318 310.643 243.629 307.885 247.484C307.516 248.001 307.743 248.692 308.194 249.076C307.157 249.407 306.243 249.5 305.507 249.28L305.507 249.28ZM319.905 241.047C320.614 240.103 321.273 239.136 321.869 238.119C322.602 237.701 323.337 237.303 324.094 236.927C322.918 238.185 321.476 239.608 319.905 241.047ZM316.456 217C317.057 216.37 317.664 215.745 318.28 215.138C319.098 214.351 319.847 213.676 320.376 213.191C321.365 212.354 322.399 211.588 323.516 210.958C320.983 214.476 317.816 218.185 314.563 219.906C314.785 219.064 315.539 218.026 316.456 217ZM321.091 171.038C325.607 164.982 327.856 157.379 334.98 153.8C332.625 159.408 326.63 169.493 321.091 171.038ZM324.814 141.413C326.024 139.444 328.568 136.273 329.04 135.616C330.181 134.022 331.373 132.498 332.689 131.094C330.329 135.235 327.036 140.486 324.814 141.413ZM327.524 74.6626C327.51 74.7633 327.508 74.8693 327.498 74.9699C327.498 74.9699 327.492 74.9699 327.489 74.9723L327.481 75.1074C327.015 78.4824 326.922 81.9395 327.249 85.3595C327.263 85.7092 327.265 86.0695 327.291 86.4192C327.296 86.4986 327.352 86.5543 327.386 86.6179C325.865 96.0037 325.253 105.461 324.549 114.985C324.507 114.931 324.504 114.866 324.431 114.823C324.422 114.823 324.42 114.819 324.42 114.814C324.048 112.324 323.426 109.869 321.923 108.25C321.778 107.551 321.655 106.936 321.531 106.515C320.758 104.019 319.943 101.309 318.066 99.4071C317.41 98.7422 316.411 99.2615 316.345 100.117C315.825 107.59 318.952 115.479 322.873 121.7C323.144 122.129 323.529 122.303 323.903 122.298C323.199 128.908 322.058 135.417 320.785 141.899C320.65 137.923 320.062 133.986 318.683 130.087C318.359 129.181 317.402 129.051 316.819 129.586C316.208 129.546 315.588 129.875 315.38 130.595C313.88 135.554 314.834 140.956 316.34 145.857C316.645 147.465 316.978 149.046 317.283 150.572C317.426 151.282 318.14 151.603 318.789 151.539C318.778 151.674 318.76 151.81 318.752 151.95C318.069 155.256 317.405 158.575 316.77 161.895C316.53 157.826 315.454 153.884 312.87 150.877C312.296 150.204 311.233 150.612 311.012 151.373C308.85 158.827 311.399 167.167 313.577 174.325C313.724 174.82 314.086 175.093 314.481 175.183C313.635 180.344 312.762 185.488 311.895 190.643C310.434 185.361 307.468 180.216 304.558 177.117C304.007 176.529 303.026 176.69 302.633 177.371C298.156 185.025 304.602 196.527 308.771 202.991C308.995 203.338 309.332 203.492 309.67 203.548C308.821 208.361 307.951 213.169 307.065 217.975C307.062 217.937 307.065 217.907 307.065 217.876C307.075 217.622 306.957 217.426 306.799 217.264C306.161 214.04 304.987 210.978 303.052 208.552C302.504 207.863 301.27 208.255 301.107 209.079C300.184 213.643 300.142 218.449 301.048 223.032C301.623 225.927 302.43 229.705 304.315 232.349C303.242 237.777 302.137 243.197 300.985 248.612C299.132 242.572 294.884 234.72 293.877 233.098C293.5 232.492 292.364 232.298 292.037 233.094C289.435 239.388 292.715 247.078 295.981 253.709C296.661 255.993 297.434 258.223 298.354 260.39C297.937 262.25 297.542 264.11 297.112 265.959C291.618 289.34 285.641 312.602 279.374 335.779C275.839 342.269 272.372 348.802 269.095 355.409C250.806 392.282 233.833 432.147 226.324 472.838C226.182 473.629 227.271 473.909 227.529 473.15C241.428 432.004 253.991 391.321 273.988 352.54C274.513 351.507 275.085 350.484 275.62 349.457C274.576 353.237 273.548 357.017 272.496 360.792C263.564 392.693 251.942 423.749 243.102 455.626C242.773 456.826 244.473 457.183 244.908 456.093C260.168 418.135 272.222 378.456 282.678 338.455C291.752 326.659 301.404 315.59 312.772 306.096C313.329 306.486 314.367 306.101 314.389 305.261C314.394 305.095 314.42 304.922 314.425 304.753C314.623 304.594 314.826 304.441 315.021 304.282C316.371 303.694 317.729 302.907 319.076 301.945C319.513 302.067 319.943 302.191 320.399 302.297C327.858 306.04 339.474 304.337 345.804 299.41C346.342 298.986 346.083 298.157 345.606 297.841C340.038 294.186 332.535 294.689 325.757 296.517C332.909 291.852 340.294 287.82 347.85 284.182C347.865 284.511 348.04 284.842 348.316 285.014C349.795 285.904 351.475 286.482 353.231 286.821C359.047 289.21 365.762 289.984 371.693 287.669C372.139 287.491 372.484 286.845 372.02 286.458C370.926 285.552 369.661 284.805 368.348 284.148C368.362 283.809 368.216 283.47 367.913 283.316C363.428 281.088 357.868 280.98 352.875 281.819C358.161 279.403 363.528 277.138 368.959 274.95C376.276 279.761 387.91 274.368 393.855 269.512C394.364 269.095 394.066 268.219 393.47 268.078C392.094 267.755 390.694 267.607 389.281 267.53C389.452 267.318 389.661 267.128 389.832 266.911C390.309 266.269 389.624 265.515 388.988 265.459C382.468 264.937 376.12 268.251 370.373 270.937C369.835 271.197 370.22 271.989 370.757 271.87C371.314 271.743 371.87 271.581 372.418 271.424C371.815 271.735 371.214 272.037 370.639 272.376C370.604 272.398 370.594 272.436 370.565 272.455C369.874 272.678 369.175 272.898 368.482 273.125C368.189 273.05 367.92 273.139 367.76 273.359C363.742 274.688 359.74 276.191 355.761 277.822C358.58 275.266 360.847 272.272 362.023 269.231C362.3 268.516 361.501 267.989 360.892 268.1C352.086 269.705 345.49 276.556 339.257 282.506C338.809 282.933 338.909 283.627 339.281 284.029C339.12 284.189 338.967 284.357 338.812 284.52C338.493 284.851 338.92 285.476 339.318 285.193C339.661 284.933 339.988 284.655 340.325 284.387C340.349 284.564 340.433 284.713 340.562 284.827C336.537 286.901 332.6 289.161 328.725 291.529C331.251 287.553 332.909 283.33 332.991 279.762C333.001 279.248 332.458 278.822 331.968 278.973C323.207 281.717 312.875 292.793 312.353 302.804C303.457 309.761 295.322 317.586 288.34 326.228C304.125 298.574 321.825 271.915 341.459 246.971C346.389 240.722 351.456 234.565 356.634 228.493C356.892 228.899 357.604 228.928 357.723 228.356C357.818 227.863 357.926 227.381 358.023 226.891C362.26 221.961 366.555 217.076 370.947 212.257C371.018 212.302 371.108 212.342 371.187 212.392C370.647 212.642 370.425 213.523 371.079 213.82C380.436 218.104 394.285 211.976 401.751 206.101C402.405 205.582 402.147 204.477 401.495 204.1C393.715 199.629 382.801 204.423 374.614 208.262C380.27 202.13 386.041 196.082 391.912 190.124C391.986 190.399 392.176 190.651 392.532 190.691C392.803 190.721 393.093 190.728 393.37 190.751C393.404 190.765 393.415 190.796 393.452 190.803C397.259 191.669 401.298 191.55 405.223 190.694C412.608 189.926 419.958 187.783 426.02 184.037C426.576 183.692 426.837 182.757 426.257 182.289C416.937 174.664 402.555 182.789 393.829 188.193C401.459 180.503 409.244 172.948 417.185 165.546C419.112 166.42 421.435 166.582 423.781 166.394C426.845 166.749 430.146 165.917 433.196 164.492C437.456 163.316 441.632 161.771 445.426 159.501C446.207 159.029 446.301 157.758 445.434 157.318C437.222 153.066 427.894 157.919 420.681 162.335C427.818 155.747 435.034 149.243 442.363 142.87C442.387 142.973 442.408 143.079 442.505 143.18C445.521 146.239 451.361 145.397 455.084 144.441C459.616 143.272 464.612 141.397 467.712 137.696C468.105 137.224 468.192 136.295 467.498 136.006C460.47 133.057 451.029 136.846 445.018 140.671C444.258 141.156 444.219 142.255 445.003 142.729C445.151 142.819 445.309 142.883 445.467 142.968C444.679 142.78 443.925 142.555 443.226 142.24C443.176 142.217 443.15 142.233 443.105 142.224C450.165 136.102 457.297 130.067 464.486 124.133C472.443 125.951 481.802 125.71 488.639 121.082C489.342 120.605 489.506 119.442 488.647 119.002C483.047 116.141 476.445 117.603 470.49 119.625C470.228 119.704 469.973 119.783 469.712 119.868C473.993 116.377 478.283 112.912 482.601 109.484C484.874 110.18 487.866 109.503 489.93 109.02C494.067 108.061 498.588 106.739 502.224 104.461C502.849 104.069 503.036 102.898 502.226 102.554C499.062 101.205 495.608 101.096 492.297 101.851C494.754 99.9361 497.209 98.0235 499.668 96.1293C500.193 95.9121 500.712 95.6657 501.24 95.3929C506.7 97.3797 515.11 94.4551 519.331 91.3583C519.887 90.9503 519.869 90.3013 519.331 89.8801C516.323 87.5515 512.974 87.5329 509.573 88.5661C513.457 85.6256 517.351 82.7009 521.247 79.8107C521.273 79.8798 521.311 79.9405 521.39 79.9882C523.863 81.4612 527.627 78.6133 529.613 77.2702C532.46 75.3231 535.829 73.0343 537.148 69.707C537.295 69.3493 537.052 68.7824 536.705 68.6367C530.311 65.9134 522.566 73.1111 518.927 78.6319C514.949 80.6691 511.058 82.9023 507.235 85.2839C509.373 82.4784 511.123 79.3895 512.262 76.0755C512.544 75.2595 511.556 74.6714 510.891 75.0211C507.807 76.6212 505.764 79.363 504.111 82.3619C502.671 84.966 500.646 87.631 499.489 90.3728C496.336 92.5478 493.243 94.826 490.182 97.1678C492.199 93.2604 493.37 89.1463 493.069 85.9753C493 85.1779 492.297 84.8176 491.588 85.117C488.105 86.5687 473.025 102.951 478.793 106.419C478.152 106.962 477.528 107.521 476.89 108.072C476.808 108.093 476.745 108.13 476.668 108.151C476.36 108.244 476.209 108.458 476.154 108.697C471.796 112.467 467.514 116.332 463.267 120.244C464.085 118.785 464.799 117.285 465.445 115.91C467.275 112.024 469.189 107.87 469.494 103.534C469.56 102.614 468.458 102.413 467.878 102.861C461.614 107.674 457.014 115.918 456.763 123.884C456.737 124.539 457.188 124.902 457.696 124.96C457.552 125.098 457.417 125.246 457.264 125.365C457.05 125.543 457.04 125.778 457.095 126.004C452.099 130.687 447.151 135.381 442.234 139.996C446.107 134.335 448.788 127.137 448.147 121.206C448.065 120.432 447.23 119.693 446.455 120.218C438.158 125.89 433.17 136.171 432.076 146.018C431.925 147.316 433.758 147.557 434.354 146.627C434.847 145.835 435.295 145.024 435.775 144.221C435.898 144.199 436.012 144.129 436.088 143.991C439.249 138.544 441.849 132.782 444.941 127.288C445.466 126.348 444.659 125.5 443.831 125.473C444.504 124.782 445.197 124.138 445.925 123.534C445.756 131.495 440.336 139.8 435.387 145.437C435.079 145.777 435.152 146.153 435.366 146.399C433.117 148.47 430.871 150.516 428.633 152.521C424.188 156.505 419.769 160.521 415.379 164.553C419.872 158.055 422.867 149.898 421.662 142.552C421.546 141.837 420.66 141.601 420.098 141.895C419.405 142.263 418.738 142.719 418.09 143.212C418.008 143.257 417.929 143.312 417.863 143.384C411.422 148.433 407.262 159.324 407.631 167.536C407.365 168.521 407.114 169.507 406.89 170.482C406.727 171.155 407.341 171.616 407.887 171.536C401.649 177.388 395.482 183.314 389.413 189.322C394.14 182.44 396.948 172.956 395.166 165.186C395.005 164.494 394.256 164.325 393.687 164.572C385.408 168.116 380.41 180.848 382.424 189.985C382.145 191.617 381.889 193.241 381.67 194.822C381.567 195.59 382.635 196.197 383.033 195.381C383.318 194.801 383.539 194.202 383.787 193.611C384.03 193.879 384.37 194.027 384.736 194.033C377.908 200.918 371.214 207.933 364.676 215.109C368.762 209.522 369.271 196.767 368.878 192.321C368.783 191.323 367.607 191.005 367.043 191.829C363.02 197.736 360.378 204.69 359.015 211.83C357.824 215.84 357.004 219.949 356.677 224.079C349.638 232.133 342.801 240.379 336.247 248.904C318.262 272.283 301.576 296.973 286.743 322.643C291.639 303.14 296.192 283.611 300.595 264.2C300.993 264.186 301.383 263.845 301.275 263.368C301.204 263.029 301.109 262.687 301.027 262.349C301.08 262.129 301.125 261.919 301.178 261.7C302.05 257.837 302.891 253.972 303.706 250.104C309.332 255.877 326.266 238.668 328.81 234.663C329.311 233.879 328.483 232.732 327.584 233.044C325.939 233.608 324.339 234.302 322.77 235.073C322.551 234.735 322.2 234.488 321.734 234.496C314.252 234.572 308.465 241.553 304.27 247.334C305.148 243.076 305.997 238.811 306.812 234.551C307.231 234.529 307.61 234.12 307.471 233.672C307.373 233.375 307.239 233.1 307.139 232.814C307.819 229.203 308.494 225.597 309.15 221.989C309.195 222.042 309.287 222.074 309.348 222.122C309.319 222.174 309.274 222.227 309.245 222.272C308.984 222.683 309.503 223.229 309.923 222.956C310.184 222.784 310.431 222.59 310.684 222.407C316.854 222.924 322.374 215.504 326.311 209.782C326.877 209.615 327.465 209.499 328.069 209.411C326.553 215.702 318.206 224.246 311.942 224.185C311.027 224.171 311.069 225.502 311.953 225.584C319.725 226.32 329.24 215.565 330.099 208.362C330.16 207.877 329.635 207.424 329.182 207.448C328.726 207.462 328.264 207.529 327.808 207.604C328.277 206.918 328.726 206.282 329.134 205.731C329.693 204.976 328.639 204.134 327.932 204.513C326.835 205.09 322.68 208.258 318.981 211.71C315.512 214.29 312.425 217.676 310.226 220.815C310.126 220.801 310.02 220.815 309.92 220.801C309.693 220.748 309.498 220.794 309.35 220.896C312.269 204.755 314.958 188.561 317.679 172.327C317.729 172.38 317.763 172.428 317.832 172.468C317.658 173.254 318.707 173.869 319.269 173.247C319.366 173.151 319.448 173.042 319.538 172.939C327.399 173.663 336.057 157.762 337.755 152.183C337.979 151.45 337.22 150.711 336.498 150.93C328.391 153.389 321.143 162.912 318.317 171.024C318.309 171.03 318.312 171.038 318.303 171.03C318.14 170.97 318.024 171.024 317.895 171.061C318.198 169.217 318.509 167.378 318.818 165.529C320.017 158.461 321.588 151.462 322.965 144.429C323.389 144.399 323.816 144.169 324.059 143.825C324.199 143.658 324.283 143.454 324.388 143.267C329.26 143.244 335.688 129.671 337.12 127.176C337.597 126.341 336.613 125.247 335.759 125.804C331.876 128.341 328.889 131.788 326.239 135.571C325.757 136.265 324.924 137.203 324.106 138.233C324.989 133.118 325.693 127.973 325.986 122.765C326.039 121.769 326.078 120.775 326.128 119.782C326.305 119.756 326.476 119.681 326.598 119.52C327.354 118.484 327.86 117.294 328.303 116.073C333.711 114.963 336.297 103.932 336.679 99.7996C336.772 98.8353 335.514 98.4989 334.91 99.0578C331.446 102.245 328.034 107.848 326.408 113.217C326.714 105.408 327.001 97.6034 327.937 89.86C328.253 91.2561 328.607 92.6363 329.092 93.9794C329.582 95.3146 331.881 95.2457 331.718 93.6245C331.422 90.7767 330.708 87.7911 330.215 84.7949C331.789 81.8173 331.667 73.0036 331.544 71.846C331.425 70.8075 330.149 70.3519 329.548 71.3161C329.031 72.1373 328.628 72.9665 328.306 73.8142C327.929 73.8803 327.605 74.1321 327.52 74.6646" fill="#FFF1E1"/>
<g clip-path="url(#clip1)">
<path d="M240.248 292.734C237.461 311.738 245.749 336.087 250.428 354.12C255.565 373.94 268.887 408.154 266.006 432.315C268.053 422.519 267.465 410.329 267.087 401.179C266.207 380.003 258.593 361.082 254.512 340.827C254.376 340.165 254.975 339.916 255.184 340.52C263.491 364.002 269.627 387.871 269.195 413.564C269.089 419.884 268.786 429.151 266.773 436.371C278.906 415.622 278.947 381.969 274.061 354.505C273.884 354.303 273.733 354.021 273.759 353.663C273.767 353.457 273.803 353.271 273.814 353.07C273.586 351.797 273.319 350.564 273.062 349.326C272.673 349.336 272.315 348.687 272.625 348.215C272.68 348.118 272.716 347.992 272.774 347.895C272.29 345.634 271.782 343.413 271.24 341.286C269.85 335.835 242.802 275.348 240.249 292.734L240.248 292.734ZM211.189 330.183C197.45 323.307 209.088 343.758 212.991 351.26C218.516 361.879 226.255 370.625 233.546 378.679C242.527 388.6 259.313 401.779 263.669 419.24C263.333 415.206 262.681 411.033 261.88 406.847C257.403 394.823 251.502 385.818 243.581 377.236C236.528 369.596 227.778 363.894 221.906 354.325C221.527 353.723 222.087 352.958 222.538 353.279C232.059 360.001 241.499 370.561 249.774 380.158C253.213 384.153 256.359 388.691 258.881 393.755C256.344 384.024 253.39 374.739 251.34 367.304C251.169 367.288 250.986 367.219 250.839 366.992C239.352 349.294 226.997 338.108 211.188 330.183L211.189 330.183ZM263.691 443.604C275.819 438.151 283.83 412.825 287.798 397.934C293.299 377.3 297.655 356.95 304.234 336.819C306.628 329.493 310.051 322.875 312.921 315.946C320.568 297.485 308.663 306.057 301.976 311.144C290.335 319.991 281.531 333.257 276.236 350.15C277.688 357.137 278.779 364.253 279.468 371.391C280.115 378.054 280.213 385.604 279.719 393.32C280.62 387.338 281.511 381.411 282.645 375.821C286.052 359.033 290.508 341.874 300.208 330.852C300.525 330.493 300.906 331.185 300.691 331.612C290.09 351.753 284.453 373.896 280.454 398.698C278.343 411.778 277.101 427.919 269.034 436.089C267.435 438.925 265.672 441.479 263.691 443.604L263.691 443.604ZM222.703 452.641C221.187 454.812 219.425 456.687 217.602 458.45C220.286 456.613 222.867 454.545 225.303 452.362C229.247 448.822 232.814 444.328 235.167 438.562C237.223 433.503 236.873 420.104 230.447 421.773C223.828 423.498 218.367 435.451 214.714 442.429C211.633 448.316 209.114 454.605 206.643 461.003C209.079 457.622 211.508 454.246 214.189 451.211C214.624 450.717 215.065 451.104 215.265 451.686C215.433 451.569 215.598 451.426 215.773 451.313C216.377 450.926 216.875 452.178 216.513 452.81C214.629 456.165 212.248 459.254 209.796 462.167C211.463 460.939 213.034 459.205 214.345 457.966C216.816 455.617 219.122 452.645 221.948 451.118C222.534 450.797 223.144 452.006 222.702 452.641L222.703 452.641ZM229.539 467.027C229.742 466.843 229.991 466.769 230.304 466.925C232.722 468.137 235.029 469.788 237.411 471.154C238.139 471.572 238.166 472.636 237.823 473.33C238.726 473.936 239.633 474.546 240.517 475.209C241.448 475.907 240.831 477.809 239.882 477.189C238.005 475.948 236.028 474.963 234.146 473.763C242.471 486.236 251.157 499.586 263.245 499.317C270.978 499.15 269.112 489.472 265.881 483.524C263.472 479.088 260.156 476.736 256.746 474.303C248.107 468.161 239.599 465.736 230.732 462.443C229.526 462.874 228.319 463.301 227.109 463.737C227.927 464.789 228.732 465.896 229.539 467.027L229.539 467.027ZM357.922 481.777C368.856 477.671 351.835 461.264 349.481 459.025C343.738 453.611 337.286 449.875 330.875 446.76C323.155 443.01 315.116 441.26 307.205 438.782C313.64 441.649 320.503 446.539 323.562 453.95C324.035 455.099 323.649 456.28 322.763 456.448C322.243 456.534 321.727 456.456 321.22 456.451C321.623 457.342 321.067 458.682 320.218 458.107C319.143 457.381 318.123 456.527 317.089 455.692C311.443 453.378 306.085 447.011 301.516 442.482C300.529 441.501 301.55 439.278 302.572 440.123C306.725 443.557 310.674 447.502 314.769 451.092C316.581 452.289 318.464 453.065 320.41 453.228C315.495 444.825 306.231 442.98 299.889 437.897C299.272 437.405 299.548 436.166 300.225 436.342C300.29 436.355 300.349 436.371 300.416 436.392C299.147 435.881 297.886 435.346 296.641 434.746C311.605 459.591 334.194 490.671 357.922 481.778L357.922 481.777ZM365.701 424.813C377.062 432.958 388.694 439.827 399.58 449.386C410.82 459.252 422.027 468.689 435.021 472.363C439.217 473.549 443.658 473.508 447.874 473.675C448.596 473.701 467.478 470.665 464.319 467.578C452.523 456.028 442.132 443.317 429.087 434.477C415.638 425.357 400.779 424.348 386.567 421.617C377.71 419.91 368.913 417.545 360.102 415.387C368.782 418.807 377.235 423.772 385.838 428.084C400.208 435.273 415.453 440.513 428.596 452.229C428.992 452.578 428.737 453.36 428.306 453.105C415.545 445.373 402.488 439.22 389.499 432.486C376.932 425.976 364.582 418.032 351.58 414.436C356.785 417.695 361.895 422.094 365.701 424.813L365.701 424.813ZM391.438 457.312C385.218 450.663 378.708 445.068 372.232 438.982C381.472 450.551 390.8 464.122 397.385 477.629C400.386 483.787 412.964 530.611 409.245 535.388C421.327 519.841 416.83 480.854 408.097 462.315C407.445 461.726 406.797 461.141 406.154 460.588C405.846 460.316 405.839 459.843 405.985 459.537C395.59 450.925 385.594 441.267 374.605 433.966C369.543 430.602 362.08 423.972 354.723 419.02C362.017 424.384 367.895 432.32 374.782 438.686C380.77 444.208 387.583 448.283 392.094 456.478C392.443 457.11 391.851 457.747 391.438 457.312L391.438 457.312ZM472.733 422.165C478.333 419.272 449.739 412.184 450.139 412.246C443.4 411.301 436.562 411.651 429.865 411.869C411.006 412.491 392.162 414.753 373.275 414.019C387.221 416.721 401.151 419.94 414.67 424.019C420.772 425.856 426.393 428.851 431.73 432.571C446.342 432.588 459.21 429.12 472.733 422.165ZM432.113 393.186C437.091 393.166 442.748 386.547 436.655 379.234C433.798 375.803 429.765 373.908 426.266 372.745C417.142 369.701 407.893 373.849 398.822 374.05C398.433 374.325 398.046 374.6 397.657 374.874C406.232 386.115 421.666 393.219 432.113 393.186L432.113 393.186ZM400.08 367.819C406.289 356.706 410.856 344.611 411.056 329.509C411.145 322.182 410.166 309.223 403.081 308.904C399.394 308.736 397.869 316.247 397.101 320.064C394.323 333.947 395.504 348.605 396.539 363.064C396.668 362.509 396.819 361.956 396.962 361.409C397.921 353.442 398.198 345.172 400.13 337.74C400.301 337.086 401.1 337.341 401.108 338.052C401.155 343.049 400.822 348.156 400.264 353.216C400.406 352.997 400.519 352.74 400.672 352.534C401.674 351.115 403.244 352.682 402.8 354.553C401.736 359.015 399.773 363.34 399.598 368.158C399.753 368.047 399.915 367.935 400.08 367.819L400.08 367.819ZM431.845 351.899C431.993 351.634 432.185 351.438 432.476 351.469C433.989 351.623 437.43 352.13 438.878 354.293C440.637 354.98 442.384 355.669 444.111 356.519C444.845 356.89 444.703 358.504 443.918 358.202C441.034 357.062 438.059 356.524 435.164 355.408C443.914 364.056 454.761 370.354 464.709 370.059C469.825 369.912 475.378 361.989 468.993 356.191C466.267 353.718 463.034 352.252 459.978 351.129C453.121 348.627 446.425 349.224 439.683 349.61C444.33 351.687 448.955 354.209 453.65 355.333C454.587 355.562 454.338 357.519 453.413 357.326C446.696 355.909 439.723 352.971 433.086 349.768C432.363 349.766 431.636 349.763 430.912 349.723C430.715 349.874 430.527 350.043 430.334 350.203C430.813 350.786 431.346 351.332 431.845 351.899ZM434.798 340.913C441.525 327.41 448.259 289.459 435.576 284.998C424.318 281.038 426.225 315.109 428.139 335.095C428.333 330.576 429.343 326.02 431.119 322.93C431.75 321.839 433.057 322.579 433.169 323.977C433.539 328.765 432.772 333.289 432.078 337.838C431.765 339.925 431.607 342.005 431.124 343.935C432.349 342.928 433.571 341.925 434.798 340.913L434.798 340.913ZM462.923 324.282C463.067 324.117 463.219 323.97 463.449 323.962C465.156 323.98 466.686 324.602 468.158 325.6C469.055 325.901 469.945 326.203 470.836 326.554C471.355 326.755 471.561 327.994 470.953 328.153C470.893 328.166 470.821 328.146 470.758 328.16C470.908 329.08 470.259 330.114 469.535 329.915C468.654 329.672 467.816 329.283 467.026 328.785C474.603 335.927 485.053 340.599 492.658 338.319C503.299 335.126 490.425 324.806 486.372 323.196C477.744 319.762 470.358 322.394 462.026 323.108C462.307 323.505 462.616 323.889 462.923 324.284L462.923 324.282ZM464.827 314.87C468.952 305.485 471.598 294.131 472.743 283.151C473.508 275.796 472.896 266.772 467.505 262.683C463.72 259.812 462.247 268.827 461.716 272.038C459.665 284.346 460.7 296.957 461.119 309.515C461.736 308.415 462.563 307.529 463.546 307.041C464.422 306.601 465.259 308.043 464.902 309.186C464.436 310.685 464.163 312.298 463.966 313.936C463.904 314.462 463.809 315.136 463.754 315.821C464.114 315.504 464.47 315.187 464.827 314.869L464.827 314.87ZM490.677 298.681C490.776 298.612 490.888 298.547 491.087 298.446C491.334 298.317 491.503 298.684 491.48 298.978C492.483 299.419 493.45 300.019 494.376 300.795C496.705 301.706 499.034 302.562 501.342 303.561C502.371 304.004 502.143 306.251 501.078 305.857C499.252 305.181 497.423 304.637 495.585 304.098C495.298 304.377 494.917 304.5 494.539 304.3C493.594 303.799 492.64 303.366 491.69 302.907C491.181 302.737 490.675 302.539 490.156 302.362C498.683 312.413 514.454 315.974 523.808 314.833C529.52 314.131 530.861 307.272 525.621 302.617C522.8 300.117 519.515 298.647 516.394 297.384C507.26 293.652 498.796 296.849 490.003 298.428C490.23 298.488 490.448 298.595 490.677 298.682L490.677 298.681ZM487.105 291.02C487.492 289.724 487.81 288.344 488.093 286.971C488.358 285.697 488.589 284.384 488.759 283.059C487.615 285.595 487.159 288.995 486.323 291.738C486.305 292.251 486.296 292.753 486.272 293.262C486.692 292.838 486.931 291.602 487.105 291.02L487.105 291.02ZM495.318 284.92C498.558 275.556 498.58 262.355 497.524 253.05C497.117 249.524 495.348 239.892 491.962 244.496C489.34 248.069 488.488 254.393 487.668 259.264C486.345 267.111 486.433 275.109 486.435 283.124C487.149 281.072 488.128 279.313 489.457 278.286C490.19 277.728 490.993 278.516 490.947 279.702C490.797 282.917 490.159 285.992 489.405 288.956C489.137 289.994 488.813 291.078 488.384 292.036C490.704 289.678 493.02 287.316 495.318 284.92ZM520.285 275.433C519.964 275.391 519.647 275.326 519.329 275.279C517.953 275.348 516.589 275.243 515.308 274.701C523.988 283.487 552.752 289.122 550.259 275.11C548.667 266.108 535.179 267.228 530.786 267.443C525.847 267.701 521.013 268.82 516.405 270.883C518.783 270.553 521.198 271.164 523.549 272.514C523.963 272.752 524.09 273.278 524.035 273.762C524.574 273.975 524.7 275.148 524.126 275.44C522.98 276.007 521.489 275.613 520.284 275.433L520.285 275.433ZM512.81 266.005C518.828 255.042 523.312 240.493 519.746 226.767C517.544 218.239 513.184 222.481 511.382 227.547C510.07 231.234 509.651 235.707 509.183 239.814C508.305 247.655 508.61 255.395 509.157 263.271C509.915 261.283 510.844 259.433 512.097 257.926C512.767 257.109 513.778 258.525 513.427 259.571C512.488 262.343 511.503 265 511.023 268.015C511.621 267.346 512.212 266.678 512.81 266.005L512.81 266.005ZM535.902 248.766C536.961 248.928 538.025 249.235 539.069 249.449C541.235 249.901 543.496 250.016 545.606 251.02C546.402 251.399 546.414 252.953 545.557 253.063C543.958 253.277 542.396 253.076 540.851 252.619C540.399 252.544 539.939 252.484 539.491 252.418C538.452 252.267 537.386 252.17 536.354 251.886C540.245 254.132 545.774 255.568 547.302 256.022C552.266 257.54 561.786 260.838 564.774 253.528C566.985 248.117 552.093 246.801 550.667 246.72C546.051 246.441 540.294 246.29 535.902 248.766L535.902 248.766ZM536.919 204.801C531.562 193.778 530.39 214.879 530.533 218.918C530.65 222.646 531.266 226.247 531.958 229.833C531.971 229.795 531.986 229.749 532.004 229.714C532.549 228.394 534.111 228.668 534.247 230.442C534.433 233.027 534.813 235.995 534.894 238.896C538.071 228.044 542.147 215.563 536.918 204.801L536.919 204.801ZM550.442 230.268C552.289 230.204 554.178 230.373 555.907 230.379C556.661 230.402 556.782 231.986 556.026 232.05C554.975 232.132 553.861 232.3 552.738 232.463C552.764 232.472 552.796 232.477 552.823 232.487C557.57 233.447 562.291 234.737 567.03 234.129C569.726 233.782 575.749 227.838 569.91 225.844C567.558 225.05 565.109 225.538 562.789 225.748C558.179 226.161 554.315 228.011 550.442 230.268L550.442 230.268ZM551.983 218.643C553.357 213.979 554.805 209.389 555.362 204.256C555.791 200.243 555.105 196.352 553.407 192.886C552.528 191.106 550.887 188.301 549.615 190.48C547.75 193.738 548.109 200.169 548.33 204.182C548.461 206.632 548.886 208.948 549.378 211.253C549.687 210.48 550.024 209.723 550.343 209.017C550.994 207.605 552.498 209.028 552.37 210.486C552.127 213.304 551.262 216.511 551.293 219.522C551.52 219.222 551.758 218.934 551.983 218.643L551.983 218.643ZM571.963 208.785C570.884 209.646 569.747 210.404 568.579 211.1C569.299 210.998 570.041 210.923 570.721 210.774C573.843 210.09 576.891 209.111 579.8 207.513C582.282 206.17 587.102 198.081 582.038 195.957C577.695 194.138 571.482 201.919 568.474 205.109C567.247 206.418 566.072 207.804 564.909 209.215C567.107 208.351 569.328 207.617 571.569 207.291C572.117 207.197 572.438 208.406 571.963 208.785L571.963 208.785ZM571.481 189.144C572.468 186.541 573.48 183.53 573.408 180.427C573.351 177.98 571.856 176.319 570.687 178.201C568.14 182.29 567.6 187.896 566.969 193.392C567.55 191.854 568.274 190.37 569.419 189.799C569.737 189.645 570.03 190.164 569.91 190.577C569.343 192.455 568.745 194.323 568.196 196.223C569.401 193.991 570.528 191.671 571.481 189.144L571.481 189.144ZM360.03 366.115C362.929 356.798 364.757 347.056 364.784 336.598C364.792 332.166 363.987 327.675 362.97 323.41C360.943 314.947 356.376 324.493 355.396 326.416C350.497 336.068 348.026 347.974 347.135 359.924C346.578 367.514 346.923 375.588 347.037 383.597C348.108 379.545 349.451 375.622 350.974 372C351.569 370.575 353.18 371.277 353.032 373.06C352.214 382.655 350.035 391.551 347.484 400.259C353.233 390.658 356.595 377.152 360.03 366.115L360.03 366.115ZM253.606 266.8C254.205 267.28 254.731 267.813 255.27 268.359C255.628 268.155 255.987 267.961 256.346 267.767C258.304 266.67 259.662 269.986 258.97 272.137C259.068 272.309 259.164 272.455 259.279 272.75C259.725 273.463 259.811 274.221 259.693 274.916C261.901 279.687 263.15 285.366 264.294 291.146C266.976 304.734 269.049 318.477 271.394 332.157C272.561 335.755 273.649 339.398 274.58 343.115C274.844 342.032 275.053 340.881 275.231 339.679C274.219 329.946 274.268 319.988 274.494 310.337C274.629 304.702 275.353 299.11 275.817 293.544C275.919 292.312 275.973 288.892 275.986 285.517C275.611 286.574 275.168 287.643 274.561 288.819C274.014 289.856 272.607 289.163 272.588 287.806C272.566 286.39 272.645 285.055 272.71 283.695C272.491 283.424 272.293 283.092 272.131 282.647C271.236 280.14 272.701 277.481 273.305 275.38C273.429 274.976 273.587 274.655 273.77 274.401C274.111 273.584 274.508 272.756 274.986 271.88C275.325 271.273 276.068 271.047 276.585 271.494C280.594 274.936 278.555 289.117 278.194 294.322C277.532 303.847 276.687 313.554 276.424 323.295C276.563 321.257 276.743 319.334 277.034 317.642C279.332 304.316 283.563 292.318 288.24 280.599C288.753 279.31 290.228 279.633 290.53 280.88C291.994 279.403 294.416 282.342 293.652 284.969C292.495 288.966 291.676 291.986 289.842 295.359C289.176 296.581 287.921 296.014 287.434 294.816C286.74 295.421 285.941 295.138 285.359 294.41C281.609 304.666 278.719 316.166 277.821 327.191C277.567 330.293 277.555 334.083 277.254 337.728C284.81 317.735 303.083 302.885 317.103 298.654C318.057 298.366 318.938 299.366 318.828 300.808C317.776 315.377 310.856 325.948 306.161 338.206C300.021 354.237 295.826 371.384 291.864 388.764C294.426 385.398 297.103 382.226 299.898 379.216C304.339 374.429 308.238 368.868 312.542 363.889C312.876 363.505 313.429 364.195 313.217 364.712C308.416 376.611 298.038 382.761 291.117 391.964C291.049 392.286 290.974 392.603 290.899 392.916C290.129 396.346 289.043 400.75 287.681 405.532C294.525 394.604 304.422 386.357 311.334 375.937C317.601 366.496 323.77 355.874 325.567 342.624C326.627 334.807 313.309 346.142 311.97 347.325C307.216 351.522 303.763 357.696 299.821 363.138C299.446 363.662 298.71 363.072 298.975 362.335C303.961 347.952 315.329 338.232 326.201 334.483C327.047 334.188 327.886 334.955 328.016 336.237C331.441 371.844 299.577 390.646 285.652 412.23C282.263 422.752 277.672 433.837 272.02 440.173C288.472 432.99 304.742 425.246 320.765 416.905C328.323 412.966 335.801 408.806 343.247 404.517C343.041 383.882 342.418 360.092 347.39 341.483C348.746 336.405 354.816 313.483 361.13 316.653C370.369 321.314 366.895 348.053 364.941 356.522C361.925 369.57 357.723 388.301 350.457 400.255C365.399 391.394 380.132 381.919 394.575 371.698C394.702 371.188 394.811 370.663 394.933 370.136C392.255 360.327 393.123 346.816 393.342 337.247C393.562 327.633 393.951 311.901 400.583 306.738C407.891 301.04 412.191 316.373 412.912 323.868C414.427 339.729 409.703 353.554 403.423 365.381C411.479 359.478 419.462 353.387 427.336 347.059C423.615 332.824 419.829 268.363 439.257 283.644C448.214 290.685 444.648 322.034 438.382 337.954C445.418 332.063 452.402 326.068 459.276 319.833C457.166 310.238 458.124 297.553 458.309 288.471C458.476 280.092 458.242 264.74 463.982 259.878C470.28 254.532 474.717 270.591 475.057 276.622C475.721 288.613 472.254 301.591 467.844 312.043C473.703 306.553 479.517 300.972 485.255 295.229C485.231 295.177 485.197 295.157 485.186 295.103C481.865 280.829 483.754 262.87 487.04 249.572C488.639 243.093 493.616 234.606 497.761 243.63C502.048 252.955 500.727 267.582 499.292 277.222C499.088 278.587 498.819 280.072 498.485 281.591C501.46 278.454 504.42 275.3 507.358 272.085C507.425 270.893 507.519 269.707 507.71 268.567C504.727 256.276 505.977 241.442 508.201 229.733C509.042 225.284 512.635 214.897 517.31 218.038C523.718 222.348 523.741 235.682 522.716 243.523C521.949 249.37 520.246 254.974 518.017 260.131C522.903 254.548 527.759 248.886 532.529 243.096C532.449 243.002 532.35 242.963 532.289 242.832C531.918 242.006 531.6 241.129 531.275 240.253C531.271 240.281 531.264 240.308 531.245 240.337C531.016 241.08 530.119 240.838 530.093 239.97C530.05 238.898 530.102 237.876 530.197 236.873C527.972 228.949 527.324 219.519 527.673 211.798C527.925 206.12 529.487 196.445 534.609 197.186C540.001 197.964 541.7 211.456 541.621 216.766C541.526 223.701 539.793 230.648 537.568 237.009C541.745 231.837 545.865 226.579 549.938 221.257C549.74 220.432 549.602 219.602 549.537 218.765C549.23 219.328 548.465 219.434 548.294 218.525C548.151 217.773 548.146 217.025 548.182 216.297C545.869 212.303 545.639 205.34 545.578 200.896C545.512 195.937 545.809 188.34 549.385 186.097C553.133 183.748 556.943 193.534 557.483 197.302C558.272 202.793 557.524 208.205 556.08 213.241C556.579 212.573 557.093 211.93 557.598 211.257C557.466 210.882 557.482 210.425 557.754 210.161C558.277 209.636 558.838 209.286 559.391 208.877C559.475 208.755 559.576 208.636 559.666 208.508C559.81 208.312 559.979 208.268 560.14 208.285C560.866 207.818 561.625 207.421 562.397 207.032C563.111 206.142 563.881 205.293 564.671 204.464C564.237 204.502 563.886 203.856 563.919 203.269L563.922 202.936C563.922 202.736 563.989 202.533 564.089 202.378C563.64 197.561 565.14 191.849 565.977 187.587C566.654 184.157 568.048 174.693 571.471 174.582C575.776 174.449 575.375 182.694 574.57 186.192C573.634 190.253 571.856 193.949 570.092 197.325C569.363 198.727 568.511 200.309 567.547 201.693C568.946 200.399 570.315 199.237 571.447 198.234C574.231 195.776 581.188 189.629 584.471 194.924C593.867 210.094 568.394 215.239 559.743 215.468C559.225 215.705 558.7 215.943 558.202 216.191C557.539 216.511 556.985 216.081 556.661 215.41C555.854 216.559 555.019 217.666 554.195 218.808C553.441 220.709 552.619 222.539 551.786 224.252C551.423 224.998 550.768 224.354 550.706 223.613C550.167 224.353 549.633 225.089 549.093 225.834C553.658 222.854 559.41 222.038 564.067 221.739C567.511 221.507 575.008 221.554 575.27 228.645C575.554 236.292 567.217 237.717 563.512 237.696C560.258 237.673 556.959 236.824 553.723 236.097C551.136 235.517 547.624 235.674 545.248 233.874C545.118 233.791 545.087 233.63 545.053 233.483C544.911 233.569 544.776 233.655 544.624 233.738C544.215 233.983 543.85 233.712 543.646 233.258C540.597 237.314 537.492 241.289 534.375 245.233C534.26 245.504 534.141 245.794 534.026 246.069C534.018 246.089 534.006 246.09 533.994 246.1C533.978 246.134 533.966 246.171 533.956 246.208C541.001 242.195 571.878 241.771 566.358 255.636C562.15 266.187 533.898 258.433 531.282 249.175C526.526 255.11 521.68 260.876 516.795 266.568C528.161 261.13 553.164 261.096 552.244 277.393C551.605 288.608 540.203 286.604 534.422 285.767C529.294 285.035 513.871 282.325 511.991 272.8C511.937 272.499 511.991 272.234 512.091 272.006C512.09 272.002 512.083 271.995 512.083 271.995C506.795 278.018 501.403 283.864 495.976 289.613C495.375 290.975 494.7 292.235 493.929 293.299C502.799 290.764 512.45 290.977 521.109 295.863C527.142 299.275 535.939 306.445 529.654 315.505C524.905 322.379 512.755 317.835 506.927 315.849C500.864 313.78 488.845 309.497 486.248 299.708C480.019 306.027 473.692 312.173 467.287 318.162C474.7 316.343 483.331 317.89 490.015 321.517C494.01 323.68 501.192 329.374 498.864 336.584C496.174 344.923 485.736 342.197 480.739 340.436C473.891 338.024 464.933 333.094 460.836 324.106C452.387 331.802 443.766 339.15 435.062 346.287C445.036 344.339 456.091 345.109 465.618 350.363C471.748 353.751 478.39 360.989 472.658 369.179C467.345 376.769 456.612 372.379 450.203 369.314C443.139 365.934 433.944 360.137 429.144 351.19C421.529 357.287 413.814 363.171 406.027 368.87C414.838 367.176 424.594 367.715 432.356 372.223C439.202 376.208 445.171 384.787 439.033 393.281C434.023 400.23 422.942 395.017 417.077 392.319C410.587 389.344 401.693 384.613 396.556 376.792C395.941 378.374 395.133 379.652 393.964 380.011C393.572 380.131 393.211 379.805 393.141 379.215C393.093 378.814 393.114 378.406 393.134 378.012C377.75 388.735 362.054 398.74 346.114 408.071C372.486 414.46 398.447 410.663 424.598 408.394C443.178 406.777 461.613 406.21 479.003 419.472C480.178 420.371 480.116 422.684 478.939 423.29C466.48 429.563 453.962 436.152 440.61 436.101C444.947 436.991 449.302 437.245 453.679 437.465C456.384 437.605 459.078 437.755 461.782 437.987C462.743 438.099 463.703 438.225 464.664 438.369C466.098 437.967 467.185 438.454 467.941 439.749C468.006 439.67 468.028 439.558 468.123 439.517C468.357 439.422 468.568 439.383 468.788 439.307C468.051 438.973 468.129 438.979 468.965 439.254C469.38 439.113 469.805 438.977 470.202 438.902C473.729 435.521 477.564 435.497 481.911 436.992C483.975 437.691 484.288 441.828 482.33 442.724C478.756 444.359 475.776 444.793 472.392 443.692C472.02 443.778 471.597 443.873 471.046 444.004C470.051 444.241 469.419 443.263 469.211 442.102C469.11 441.952 469.012 441.793 468.984 441.604C468.873 441.579 468.759 441.562 468.651 441.535C468.67 441.593 468.689 441.633 468.708 441.698C468.404 441.8 468.165 441.637 467.975 441.395C457.674 439.194 447.327 440.626 437.147 436.689C437.615 437.104 438.088 437.519 438.568 437.919C450.146 440.786 461.287 447.307 472.682 451.363C477.092 449.971 480.631 450.691 484.57 454.784C486.446 456.75 485.186 460.341 483.327 460.608C478.419 461.319 474.202 459.975 469.91 455.939C469.073 455.154 469.02 452.948 470.245 453.012C470.449 453.028 470.651 453.068 470.847 453.073C470.89 452.927 470.952 452.798 471.011 452.651C461.73 447.989 451.924 445.143 442.48 441.313C451.623 449.581 460.254 459.289 469.378 468.192C469.975 468.777 470.006 470.151 469.586 470.812C462.344 482.189 445.107 480.48 432.06 475.822C440.766 480.603 449.497 486.594 457.021 493.651C457.2 493.811 457.331 494.045 457.43 494.304C457.561 494.342 457.69 494.407 457.819 494.458C457.812 494.417 457.802 494.391 457.793 494.36C457.467 493.402 458.307 492.327 458.959 492.907C459.729 493.594 460.509 494.175 461.303 494.709C461.583 494.628 461.868 494.592 462.17 494.707C464.111 495.386 465.914 496.124 467.782 497.17C469.861 498.319 469.328 503.477 467.092 503.155C466.404 503.057 465.762 502.909 465.15 502.731C464.469 503.805 463.244 504.206 462.224 503.023C459.793 500.189 457.332 498.863 454.383 497.862C452.957 497.38 452.804 494.859 453.787 493.971C443.431 484.867 431.375 481.23 421.182 471.96C420.825 471.639 420.817 470.897 421.088 470.624C418.594 469.092 416.161 467.398 413.762 465.619C424.22 475.483 433.636 487.911 442.026 501.112C442.409 501.266 442.787 501.535 443.115 502.083C443.179 502.186 443.235 502.294 443.3 502.402C443.631 502.885 443.94 503.462 444.232 504.104C445.168 505.81 446.041 507.559 446.889 509.41C447.509 510.759 447.28 512.504 446.457 513.291C446.115 514.783 444.611 515.553 443.709 514.267C443.462 513.922 443.29 513.606 443.083 513.284C439.767 512.186 436.4 508.872 438.803 503.666C439.008 503.231 439.211 502.879 439.413 502.554C433.372 489.217 423.559 477.316 414.002 467.875C423.306 488.019 419.202 527.522 409.261 540.249C408.525 541.187 407.161 540.808 407.052 539.122C405.264 510.365 398.015 479.869 382.983 459.167C369.456 440.557 357.467 417.595 337.993 413.133C337.852 413.102 337.756 413.001 337.689 412.866C334.336 414.772 330.978 416.692 327.601 418.541C318.73 423.36 309.749 427.966 300.703 432.428C317.248 436.156 334.132 442.992 348.861 454.916C353.236 458.464 368.195 472.276 362.915 481.111C355.818 492.994 338.347 484.45 330.144 478.622C316.364 468.827 305.041 451.865 295.325 435.099C282.654 441.238 269.807 446.942 256.842 452.284L256.838 452.284C256.673 452.437 256.496 452.49 256.324 452.498C250.1 455.059 243.847 457.56 237.567 459.935C253.113 464.188 276.596 479.835 270.512 497.666C266.965 508.076 253.782 500.389 248.74 496.13C239.62 488.43 231.891 475.935 224.87 464.544C167.869 484.68 108.799 496.516 49.8841 496.638C47.5641 496.643 47.1913 491.522 49.5269 491.511C101.159 491.176 152.325 482.045 202.211 466.445C202.219 465.966 202.397 465.483 202.82 465.392C202.892 465.385 202.963 465.359 203.045 465.335C203.216 454.476 211.317 442.19 215.727 434.524C219.322 428.268 227.466 413.899 234.628 419.96C242.995 427.021 236.256 442.786 232.066 448.517C228.496 453.398 223.924 457.665 218.967 460.952C232.378 456.351 245.681 451.292 258.868 445.828C261.576 441.887 263.007 437.021 263.605 431.638C262.08 405.573 240.205 390.769 227.365 376.653C215.128 363.19 205.448 345.44 200.116 325.159C199.813 324.012 200.504 322.782 201.365 323.105C219.109 329.603 237.324 340.579 249.621 361.063C243.012 337.372 233.071 304.756 240.159 281.871C240.375 281.158 240.975 280.744 241.53 280.955C249.508 283.796 257.898 302.368 262.751 311.428C264.599 314.888 266.227 318.515 267.747 322.226C266.563 315.506 265.501 308.746 264.159 302.078C262.761 295.127 261.787 284.11 258.358 276.932C257.727 277.261 256.99 277.187 256.378 276.416C253.855 273.231 253.904 273.304 251.847 269.732C250.886 268.069 252.335 265.805 253.609 266.799" fill="#FFF1E1"/>
</g>
<defs>
<clipPath id="clip0">
<rect width="350.821" height="495.962" fill="white" transform="translate(468.948 276) rotate(51.8359)"/>
</clipPath>
<clipPath id="clip1">
<rect width="402.278" height="568.936" fill="white" transform="matrix(-0.422 -0.906596 -0.906596 0.422 685.556 395.703)"/>
</clipPath>
</defs>
</svg>
