<svg width="529" height="259" viewBox="0 0 529 259" fill="none" xmlns="http://www.w3.org/2000/svg">
<path d="M378.404 8.46338C378.129 8.13959 377.714 7.95933 377.276 8.04179C378.878 6.8948 380.542 5.89184 382.262 5.03194C381.116 6.27991 379.782 7.40978 378.404 8.46335L378.404 8.46338ZM389.887 24.1496C384.888 24.9006 377.891 25.2481 374.532 23.0403C375.85 22.9515 377.158 22.8775 378.437 22.8822C382.348 22.8971 386.192 23.1548 389.887 24.1496V24.1496ZM303.793 28.1681C307.818 25.4532 312.117 23.1782 316.656 22.0812C315.787 23.1813 314.746 24.1538 313.623 25.0605C313.416 24.6882 312.989 24.4489 312.459 24.6606C309.55 25.8068 306.683 26.9922 303.793 28.1681L303.793 28.1681ZM260.115 38.8463C265.214 32.3448 272.8 24.2391 280.532 23.7398C279.384 25.7433 278.031 27.6316 276.488 29.3909C276.256 29.1776 275.954 29.0475 275.616 29.2409C270.268 32.1365 265.832 36.8663 260.116 38.8462L260.115 38.8463ZM224.892 45.1945C225.905 44.3448 226.978 43.5509 228.172 42.8483C231.937 40.6295 235.896 38.8663 240.079 37.7232C238.161 39.8217 235.765 41.6179 233.128 43.0999C230.212 43.2698 227.463 43.9729 224.892 45.1945L224.892 45.1945ZM189.521 53.2282C189.117 53.2904 188.709 53.3426 188.31 53.4102C191.963 50.7152 195.491 47.8593 198.895 44.8789C195.458 48.3689 191.867 51.7236 189.521 53.2282L189.521 53.2282ZM153.832 96.7215C156.979 97.804 160.151 98.9814 163.013 100.678C163.595 101.029 171.469 105.31 167.205 105.58C164.894 105.722 162.282 105.618 159.539 105.303C159.516 105.267 159.523 105.208 159.48 105.168C156.312 102.01 151.78 100.336 147.698 98.6756C144.614 97.4266 141.095 95.6395 137.595 94.5174C143.048 93.9724 148.616 94.915 153.833 96.7212L153.832 96.7215ZM146.241 100.738C149.605 101.886 153.263 103.067 156.415 104.835C154.342 104.486 152.238 104.063 150.154 103.468C148.86 102.536 147.543 101.642 146.241 100.738ZM140.587 101.981C140.668 102.025 140.777 102.064 140.859 102.111C141.574 102.916 142.297 103.74 143.019 104.612C142.832 104.808 142.718 105.068 142.827 105.332C145.259 111.337 150.779 116.292 151.058 122.902C145.318 117.755 141.909 109.679 140.587 101.981L140.587 101.981ZM172.021 120.706C178.375 126.841 186.63 131.105 194.582 134.829C186.294 133.435 177.024 127.342 172.021 120.706ZM174.513 131.395C176.155 133.464 177.546 135.879 178.601 138.511C178.643 138.622 178.692 138.73 178.732 138.845C179.812 141.635 180.492 144.608 180.782 147.556C177.273 143.027 174.529 137 174.508 131.397L174.513 131.395ZM174.581 141.941C176.206 145.492 178.439 148.746 180.906 151.368C180.856 152.821 180.676 154.236 180.385 155.596C177.266 151.678 175.404 146.91 174.581 141.941V141.941ZM190.042 129.923C186.477 128.037 182.993 125.941 179.739 123.566C183.362 125.426 186.888 127.416 190.042 129.923ZM196.1 150.548C196.195 150.657 196.292 150.754 196.387 150.863C197.439 158.408 203.503 165.664 210.526 169.225C211.101 170.667 211.539 172.149 211.894 173.649C204.524 168.813 195.513 159.542 196.1 150.548L196.1 150.548ZM208.347 164.812C205.019 162.323 202.169 158.948 200.465 155.293C201.912 156.866 203.361 158.445 204.806 160.033C204.939 160.187 205.115 160.231 205.284 160.222C206.403 161.686 207.434 163.221 208.347 164.812L208.347 164.812ZM276.204 126.879C278.818 133.33 285.839 137.58 288.435 144.176C282.576 140.984 277.21 133.639 276.204 126.879ZM292.278 144.912C293.414 147.295 294.136 149.714 294.246 152.13C292.596 151.024 290.903 149.748 289.222 148.329C289.733 148.525 290.241 148.722 290.752 148.869C291.854 149.177 292.927 147.964 292.779 146.934C292.678 146.233 292.454 145.584 292.278 144.912L292.278 144.912ZM315.078 145.37C320.69 151.366 326.751 156.908 330.967 163.937C324.904 160.234 319.617 154.655 316.354 148.257C316.085 147.695 315.812 147.131 315.546 146.558C315.368 146.178 315.239 145.768 315.079 145.37L315.078 145.37ZM326.557 164.783C328.946 166.512 331.462 168.024 334.088 169.158C334.095 169.157 334.11 169.161 334.132 169.161C334.185 170.187 334.095 171.223 333.932 172.26C331.216 170.015 328.764 167.507 326.562 164.783L326.557 164.783ZM363.589 152.538C368.507 152.181 373.363 151.354 377.971 150.29C373.617 152.052 368.656 152.695 363.589 152.538ZM366.19 148.896C361.572 149.425 356.881 149.539 352.367 148.994C356.962 149.019 361.581 148.873 366.19 148.896ZM358.712 165.108C362.831 169.32 368.167 172.986 370.358 178.221C367.959 176.817 365.472 174.991 363.32 172.864C363.137 172.609 362.943 172.363 362.751 172.108C361.165 169.82 359.89 167.475 358.712 165.107L358.712 165.108ZM397.055 184.494C400.302 188.919 404.298 192.723 406.807 197.623C401.859 195.209 397.916 189.92 397.055 184.494ZM434.697 210.916C435.955 211.695 437.315 212.262 438.792 212.501C439.773 214.551 440.466 216.664 440.727 218.824C438.163 216.505 436.232 213.822 434.697 210.916ZM483.635 210.616C478.521 212.189 471.247 211.798 464.738 209.963C464.526 209.85 464.314 209.73 464.108 209.604C464.154 209.616 464.198 209.621 464.244 209.637C464.577 209.673 464.819 209.521 464.995 209.304C468.66 210.045 472.305 210.88 475.995 211.491C477.027 211.655 477.273 210.275 476.469 209.882L476.495 209.823C473.708 208.748 470.805 207.889 467.854 207.168C467.85 207.158 467.85 207.158 467.85 207.158C468.777 207.149 469.714 207.162 470.643 207.245C471.242 207.287 471.4 206.382 470.794 206.32C469.01 206.133 467.206 206.256 465.431 205.938C465.088 205.887 464.83 206.143 464.758 206.443C463.008 206.063 461.247 205.703 459.496 205.379C458.818 205.255 458.313 205.614 458.054 206.11C457.773 205.945 457.508 205.786 457.223 205.63C461.277 200.991 477.418 206.64 483.635 210.616L483.635 210.616ZM465.44 222.275C466.43 224.027 467.172 225.897 467.54 227.829C465.891 226.285 464.388 224.548 462.973 222.791C463.364 223.056 463.745 223.324 464.163 223.543C464.97 223.991 465.747 223.024 465.44 222.275L465.44 222.275ZM503.369 228.622C499.908 228.355 496.484 227.626 493.163 226.569C496.624 226.974 500.187 227.314 503.369 228.622V228.622ZM481.025 228.402C486.677 232.821 493.555 236.864 492.57 244.356C489.872 242.313 487.57 239.657 485.662 236.906C483.976 234.469 481.924 231.497 481.025 228.402V228.402ZM508.705 244.631C509.633 245.238 510.568 245.804 511.493 246.401C512.328 246.931 513.17 246.252 513.085 245.493C518.491 247.566 524.186 249.708 525.978 254.764C526.994 257.638 524.569 255.874 522.76 255.009C520.558 253.943 518.423 252.737 516.427 251.327C514.616 250.037 509.547 247.045 508.705 244.631V244.631ZM394.842 166.988C400.346 166.7 405.962 167.318 411.18 168.944C409.467 168.707 407.762 168.493 406.045 168.306C402.307 167.873 398.573 167.461 394.842 166.988V166.988ZM321.154 131.936C326.251 131.099 331.285 129.62 335.967 128.038C336.799 127.752 337.112 127.12 337.082 126.466C337.894 126.878 338.65 127.35 339.365 127.851C334.253 130.902 327.91 131.887 322.038 131.94C321.842 131.937 321.528 131.942 321.154 131.936L321.154 131.936ZM326.995 127.05C320.475 128.798 313.522 129.816 307.142 128.423C313.788 128.021 320.36 126.829 326.995 127.05ZM263.223 111.097C263.15 110.991 263.05 110.898 262.988 110.788C263.581 110.63 264.172 110.47 264.768 110.319C269.501 109.883 274.238 109.674 278.983 109.805C273.73 110.676 268.452 111.326 263.223 111.097L263.223 111.097ZM196.063 58.3422C202.665 61.3672 211.543 62.9562 216.425 68.5264C211.269 64.8398 205.48 61.995 199.41 60.4235C198.597 60.2135 197.851 60.8218 197.591 61.5608C196.69 60.4394 196.141 59.3543 196.063 58.3423L196.063 58.3422ZM213.068 72.198C214.57 72.625 216.077 72.9789 217.616 73.2308C218.48 73.9365 219.321 74.6554 220.145 75.4104C218.033 74.5573 215.591 73.4536 213.068 72.198ZM241.12 56.514C242.184 56.956 243.244 57.4074 244.286 57.8805C245.645 58.5152 246.835 59.1183 247.685 59.5419C249.189 60.3642 250.625 61.2758 251.934 62.3558C246.387 60.9009 240.304 58.7557 236.632 55.5589C237.778 55.4318 239.418 55.8689 241.12 56.514V56.514ZM300.07 40.3902C309.693 43.0858 320.148 42.2479 327.951 49.3386C319.909 49.0984 304.609 46.4924 300.07 40.3902ZM338.416 30.905C341.421 31.463 346.545 33.0959 347.581 33.3661C350.092 34.017 352.539 34.7638 354.897 35.7201C348.664 34.7758 340.617 33.2073 338.416 30.905V30.905ZM422.119 2.52649C421.988 2.55777 421.856 2.60535 421.727 2.64026C421.727 2.64026 421.725 2.63375 421.72 2.63134L421.55 2.68547C417.161 3.71355 412.849 5.24266 408.781 7.27156C408.356 7.45435 407.912 7.62831 407.493 7.82684C407.397 7.87112 407.355 7.96576 407.293 8.03839C394.981 10.6216 383.014 14.3615 370.921 18.0189C370.967 17.9418 371.047 17.9069 371.064 17.7956C371.06 17.7856 371.065 17.7805 371.07 17.7784C373.968 16.1362 376.704 14.2012 377.989 11.5773C378.783 11.066 379.484 10.621 379.945 10.2678C382.659 8.12851 385.618 5.83512 387.075 2.61447C387.584 1.48828 386.468 0.501902 385.38 0.827161C375.906 3.73782 367.651 11.3462 361.834 19.1407C361.433 19.6798 361.4 20.2379 361.584 20.6974C353.089 22.9699 344.51 24.6544 335.902 26.1637C340.747 24.108 345.329 21.5115 349.488 17.9565C350.453 17.1257 350.158 15.8829 349.221 15.4181C348.98 14.6443 348.28 14.0358 347.291 14.1212C340.455 14.6267 334.24 18.3716 328.904 22.5588C327.064 23.7004 325.269 24.862 323.53 25.9646C322.721 26.4776 322.665 27.5119 323.051 28.2821C322.879 28.3333 322.704 28.3746 322.527 28.4321C318.12 29.1606 313.706 29.9182 309.306 30.7116C314.216 28.4817 318.572 25.2807 321.057 20.663C321.615 19.634 320.607 18.5165 319.562 18.6047C309.331 19.4795 300.246 26.5892 292.443 32.6787C291.901 33.0964 291.736 33.6718 291.812 34.2026C285.039 35.6107 278.272 36.9787 271.495 38.3583C277.323 34.0452 282.266 27.9397 284.71 22.8745C285.175 21.9151 284.509 20.7814 283.482 20.6203C271.906 18.7327 260.766 32.1548 254.765 40.371C254.443 40.8125 254.414 41.302 254.505 41.745C248.159 42.9849 241.809 44.1962 235.455 45.3868C235.5 45.3657 235.539 45.3547 235.577 45.3401C235.896 45.2321 236.081 44.9926 236.206 44.7206C239.883 42.401 243.107 39.4976 245.184 35.9561C245.773 34.9521 244.703 33.6156 243.608 33.8054C237.535 34.8358 231.581 37.0676 226.353 40.3647C223.051 42.4501 218.77 45.2411 216.402 48.824C209.19 50.0795 201.973 51.2921 194.74 52.4436C201.317 47.2857 208.994 38.3122 210.518 36.2987C211.088 35.545 210.786 34.0508 209.649 34.0253C200.642 33.8052 192.704 41.5078 186.069 48.6905C183.573 50.6153 181.186 52.6287 178.948 54.7941C176.454 55.1639 173.97 55.5596 171.482 55.9081C140.004 60.2393 108.444 63.9184 76.85 67.1993C67.1569 65.9206 57.4441 64.7466 47.7299 63.8422C-6.485 58.795 -63.7677 56.793 -117.575 66.8649C-118.62 67.0654 -118.449 68.5424 -117.389 68.5004C-59.9831 66.0992 -3.7852 62.2687 53.5966 68.5177C55.1215 68.6741 56.6558 68.8943 58.1791 69.0663C53.0156 69.5744 47.8598 70.102 42.6997 70.5976C-0.93151 74.7352 -44.7965 75.1521 -88.3531 79.3917C-89.9918 79.5554 -89.6248 81.8238 -88.0719 81.8425C-33.9577 82.6359 20.7592 78.6545 75.1153 72.5481C93.9912 78.1411 112.242 84.793 129.365 94.3109C129.148 95.1827 130.117 96.2817 131.163 95.9089C131.371 95.8362 131.597 95.7863 131.808 95.7125C132.099 95.8808 132.384 96.0585 132.674 96.2237C134.041 97.6102 135.657 98.9119 137.485 100.118C137.542 100.716 137.593 101.305 137.679 101.918C136.6 112.902 144.221 126.429 153.312 131.899C154.091 132.362 154.992 131.649 155.155 130.91C157.023 122.301 152.837 113.279 147.36 105.783C156.518 112.393 165.005 119.591 173.085 127.187C172.687 127.363 172.361 127.735 172.28 128.159C171.883 130.407 171.968 132.754 172.383 135.082C172.196 143.396 174.431 152.051 180.108 158.271C180.538 158.737 181.501 158.856 181.758 158.099C182.357 156.318 182.678 154.402 182.865 152.469C183.291 152.325 183.64 151.984 183.686 151.537C184.306 144.943 181.799 138.029 178.39 132.266C183.884 137.642 189.23 143.19 194.512 148.853C192.048 160.168 204.234 171.964 213.054 176.993C213.809 177.423 214.75 176.639 214.641 175.837C214.386 173.985 213.904 172.187 213.327 170.406C213.67 170.517 214.005 170.683 214.354 170.792C215.372 171.076 215.979 169.871 215.746 169.061C213.293 160.766 206.185 154.506 200.138 148.689C199.562 148.149 198.767 149 199.17 149.608C199.591 150.234 200.055 150.843 200.508 151.446C199.839 150.848 199.18 150.25 198.489 149.701C198.445 149.67 198.393 149.675 198.355 149.648C197.753 148.901 197.149 148.143 196.539 147.396C196.492 146.999 196.254 146.71 195.907 146.615C192.357 142.288 188.601 138.063 184.696 133.929C189.191 136.192 193.964 137.568 198.278 137.574C199.292 137.575 199.564 136.339 199.137 135.64C192.972 125.535 181.38 120.65 171.073 115.786C170.333 115.436 169.524 115.889 169.203 116.54C168.93 116.417 168.649 116.308 168.375 116.194C167.815 115.957 167.246 116.781 167.785 117.138C168.268 117.437 168.767 117.709 169.258 117.998C169.05 118.112 168.907 118.286 168.827 118.5C164.353 114.517 159.694 110.734 154.928 107.076C161.038 108.303 167.039 108.343 171.484 106.748C172.123 106.517 172.392 105.644 171.973 105.11C164.422 95.6025 145.838 88.115 133.23 92.2285C120.415 84.5565 106.888 78.2345 92.9021 73.7255C134.545 80.0629 175.868 89.2392 215.993 101.615C226.051 104.73 236.06 108.057 246.016 111.562C245.638 112.074 245.94 112.966 246.703 112.841C247.357 112.724 248.003 112.628 248.655 112.515C256.755 115.401 264.826 118.38 272.862 121.51C272.841 121.619 272.834 121.749 272.809 121.871C272.245 121.322 271.051 121.468 270.995 122.416C270.151 136 284.296 150.179 295.097 156.602C296.049 157.162 297.29 156.318 297.445 155.335C299.27 143.608 288.165 132.416 279.537 124.138C289.795 128.203 300.004 132.451 310.15 136.865C309.844 137.088 309.624 137.441 309.744 137.899C309.835 138.249 309.964 138.61 310.068 138.963C310.067 139.012 310.034 139.039 310.042 139.089C310.781 144.199 312.847 149.127 315.769 153.565C320.225 162.314 326.363 170.367 333.868 176.067C334.557 176.59 335.836 176.467 336.139 175.529C341.125 160.403 324.261 146.515 313.443 138.314C326.563 144.075 339.59 150.093 352.501 156.376C352.337 159.17 353.241 162.113 354.588 164.919C355.605 168.869 358.2 172.547 361.409 175.635C364.885 180.334 368.776 184.754 373.381 188.357C374.334 189.096 375.949 188.609 376.08 187.329C377.428 175.173 367.005 165.968 358.126 159.164C369.651 164.841 381.109 170.656 392.46 176.672C392.344 176.751 392.223 176.827 392.145 176.995C389.8 182.172 393.614 188.978 396.563 193.118C400.159 198.156 404.848 203.431 410.89 205.498C411.659 205.759 412.848 205.424 412.875 204.431C413.177 194.356 404.015 184.504 396.436 178.904C395.477 178.197 394.1 178.671 393.888 179.864C393.846 180.089 393.843 180.315 393.813 180.55C393.672 179.488 393.59 178.451 393.648 177.438C393.652 177.366 393.619 177.341 393.609 177.281C404.522 183.085 415.361 189.019 426.103 195.071C427.639 205.755 432.383 217.191 441.345 223.429C442.268 224.071 443.781 223.72 443.916 222.45C444.788 214.18 439.847 206.727 434.522 200.338C434.3 200.053 434.08 199.775 433.852 199.494C440.197 203.118 446.513 206.765 452.796 210.466C453.016 213.602 455.273 216.973 456.851 219.291C460 223.94 463.78 228.892 468.32 232.296C469.101 232.881 470.635 232.556 470.676 231.392C470.838 226.847 469.331 222.533 466.826 218.805C470.358 220.927 473.885 223.047 477.393 225.183C477.91 225.727 478.461 226.251 479.048 226.772C479.189 234.455 486.795 243.444 492.624 247.182C493.392 247.674 494.185 247.343 494.449 246.479C495.895 241.66 494.328 237.519 491.436 233.813C496.912 237.208 502.373 240.624 507.792 244.059C507.719 244.124 507.662 244.199 507.641 244.319C506.997 248.071 512.301 251.364 514.903 253.176C518.659 255.765 523.086 258.835 527.82 258.881C528.332 258.893 528.917 258.324 528.931 257.825C529.257 248.641 516.69 242.502 508.145 240.636C503.74 236.694 499.134 232.953 494.378 229.366C498.857 230.672 503.503 231.364 508.136 231.195C509.277 231.155 509.533 229.656 508.786 229.002C505.345 225.956 500.989 224.737 496.501 224.122C492.602 223.583 488.35 222.351 484.415 222.225C480.232 219.368 475.95 216.634 471.604 213.969C477.387 214.601 483.022 214.091 486.795 212.213C487.747 211.749 487.857 210.709 487.151 209.976C483.704 206.368 456.313 195.542 454.772 204.309C453.797 203.777 452.81 203.271 451.826 202.746C451.761 202.655 451.685 202.595 451.623 202.51C451.362 202.174 451.026 202.09 450.705 202.135C443.981 198.548 437.174 195.101 430.326 191.719C432.516 192.034 434.707 192.203 436.711 192.347C442.379 192.758 448.417 193.146 453.916 191.462C455.083 191.107 454.808 189.651 453.979 189.148C445.061 183.705 432.696 181.945 422.742 185.422C421.922 185.7 421.688 186.429 421.857 187.085C421.618 186.971 421.371 186.876 421.151 186.743C420.831 186.564 420.535 186.663 420.283 186.839C412.127 182.899 403.98 179.022 395.946 175.147C404.776 177.237 414.937 177.125 421.956 173.515C422.872 173.047 423.387 171.664 422.372 170.957C411.427 163.413 396.364 162.143 383.686 165.472C382.012 165.904 382.585 168.28 384.016 168.573C385.229 168.805 386.442 168.973 387.661 169.184C387.748 169.326 387.888 169.433 388.095 169.461C396.322 170.774 404.671 171.244 412.923 172.449C414.334 172.65 414.997 171.251 414.637 170.217C415.81 170.718 416.934 171.268 418.025 171.879C408.116 175.454 395.287 172.711 385.976 169.283C385.41 169.064 384.981 169.334 384.779 169.714C381.153 167.923 377.56 166.123 374.021 164.314C366.99 160.721 359.933 157.177 352.869 153.675C363.026 156.131 374.52 155.951 383.018 150.973C383.846 150.49 383.716 149.284 383.086 148.731C382.303 148.05 381.423 147.444 380.506 146.878C380.412 146.798 380.306 146.727 380.186 146.679C370.892 141.13 355.47 141.172 345.505 145.53C344.162 145.67 342.826 145.829 341.516 146.016C340.608 146.134 340.331 147.111 340.688 147.747C330.499 142.829 320.253 138.035 309.952 133.401C320.695 135.964 333.738 134.922 342.485 129.029C343.263 128.502 343.116 127.498 342.541 126.912C334.232 118.38 316.138 118.262 305.813 125.09C303.666 125.521 301.539 125.977 299.483 126.458C298.486 126.697 298.244 128.302 299.44 128.406C300.291 128.482 301.136 128.47 301.983 128.495C301.769 128.922 301.747 129.412 301.914 129.867C290.169 124.712 278.328 119.785 266.362 115.126C275.201 117.514 291.192 112.08 296.494 109.482C297.682 108.89 297.516 107.288 296.23 106.984C287.025 104.826 277.184 104.871 267.722 106.581C262.204 107.017 256.741 107.958 251.486 109.517C238.199 104.657 224.77 100.139 211.13 96.1019C173.721 85.0155 135.31 76.1564 96.5697 70.0506C122.975 66.824 149.251 63.1618 175.308 59.3708C175.515 59.8552 176.121 60.1748 176.658 59.8149C177.043 59.566 177.42 59.2863 177.8 59.0244C178.096 58.9853 178.376 58.9406 178.672 58.9015C183.856 58.1428 189.027 57.3439 194.19 56.5111C189.735 66.1981 219.027 78.9184 225.181 80.1547C226.387 80.4003 227.41 78.8334 226.597 77.8725C225.119 76.1101 223.502 74.4651 221.805 72.8955C222.119 72.4645 222.257 71.9143 222.025 71.3423C218.376 62.1445 207.008 58.3201 197.879 55.8906C203.552 54.9508 209.221 53.9715 214.868 52.9524C215.095 53.4591 215.781 53.7331 216.267 53.3478C216.587 53.0865 216.863 52.7896 217.169 52.5299C221.95 51.6534 226.722 50.7728 231.489 49.8682C231.446 49.9486 231.449 50.0777 231.42 50.1751C231.341 50.1641 231.254 50.1341 231.185 50.1199C230.554 49.9929 230.127 50.8932 230.663 51.2808C230.999 51.5213 231.356 51.735 231.702 51.9607C233.995 59.82 245.779 63.1068 254.714 65.2452C255.189 65.8655 255.612 66.5359 256.007 67.2392C247.519 68.3584 233.005 62.1173 230.105 54.3574C229.688 53.2215 228.064 53.9062 228.383 55.0352C231.165 64.9774 248.965 71.6086 258.267 69.2461C258.894 69.0902 259.204 68.2277 258.959 67.6794C258.725 67.1233 258.423 66.5859 258.114 66.0584C259.184 66.3115 260.182 66.5625 261.056 66.805C262.254 67.136 262.793 65.4341 261.99 64.7421C260.756 63.663 254.87 60.0409 248.851 57.1163C244.017 54.0606 238.37 51.8595 233.45 50.6378C233.42 50.5073 233.352 50.3839 233.322 50.2535C233.28 49.9487 233.13 49.7299 232.934 49.5961C254.249 45.5268 275.521 41.1493 296.858 36.792C296.816 36.8788 296.773 36.944 296.757 37.0475C295.703 37.2067 295.442 38.7937 296.478 39.1909C296.642 39.2659 296.815 39.3152 296.985 39.3768C299.827 49.4232 323.571 52.552 331.266 51.9959C332.278 51.9239 332.83 50.6355 332.216 49.8484C325.329 41.0114 310.128 36.593 298.77 36.9601C298.758 36.953 298.749 36.9604 298.755 36.9465C298.752 36.7163 298.63 36.5986 298.524 36.4565C300.944 35.9545 303.362 35.4647 305.792 34.9666C315.088 33.088 324.476 31.7009 333.814 30.0567C334.053 30.5663 334.539 30.9842 335.079 31.1201C335.351 31.2132 335.644 31.2204 335.925 31.2613C338.268 37.2635 358.079 38.7456 361.841 39.3265C363.098 39.5188 363.981 37.7852 362.889 36.9954C357.91 33.4087 352.236 31.3602 346.306 29.888C345.22 29.6224 343.667 29.0399 342.006 28.521C348.742 27.1799 355.428 25.6036 361.997 23.4896C363.252 23.0817 364.498 22.6579 365.748 22.2476C365.864 22.4531 366.038 22.6292 366.295 22.7021C367.933 23.1436 369.642 23.2031 371.36 23.1693C375.3 29.3152 390.148 27.2647 395.432 25.7724C396.667 25.428 396.485 23.716 395.508 23.2366C389.927 20.4757 381.389 18.9281 373.986 19.4726C383.774 16.1384 393.546 12.784 403.551 10.2591C401.978 11.313 400.442 12.405 399.014 13.642C397.598 14.8818 398.775 17.6863 400.699 16.714C404.075 14.9962 407.422 12.6955 410.887 10.6631C415.311 11.1905 426.136 6.85206 427.506 6.14895C428.732 5.50895 428.688 3.71762 427.212 3.43402C425.953 3.18661 424.737 3.08282 423.538 3.08874C423.277 2.65484 422.812 2.3743 422.115 2.52326" fill="#FEBC71"/>
</svg>
