<svg width="272" height="344" viewBox="0 0 272 344" fill="none" xmlns="http://www.w3.org/2000/svg">
<path d="M162.027 70.6118C161.844 70.4775 161.607 70.4349 161.39 70.5314C162.08 69.7395 162.821 69.0146 163.608 68.3572C163.167 69.1456 162.613 69.8958 162.027 70.6118L162.027 70.6118ZM169.913 77.3442C167.41 78.3476 163.821 79.3869 161.806 78.6532C162.48 78.4454 163.15 78.2463 163.814 78.0918C165.846 77.6194 167.872 77.2815 169.913 77.3442ZM125.719 89.9977C127.475 88.0945 129.427 86.3859 131.648 85.2594C131.332 85.937 130.911 86.5696 130.439 87.1782C130.286 87.0103 130.036 86.9384 129.786 87.1135C128.417 88.0654 127.074 89.0327 125.719 89.9977L125.719 89.9977ZM104.359 100.901C106.207 96.9011 109.15 91.7626 113.102 90.5544C112.752 91.7351 112.281 92.8815 111.696 93.9839C111.55 93.9017 111.377 93.8713 111.225 94.0131C108.805 96.1726 107.083 99.1721 104.359 100.901L104.359 100.901ZM86.8549 108.52C87.2768 107.955 87.7361 107.411 88.2697 106.9C89.9516 105.286 91.7903 103.885 93.8211 102.778C93.0828 104.103 92.0599 105.329 90.8731 106.422C89.3803 106.868 88.0399 107.57 86.855 108.52L86.8549 108.52ZM69.4818 117.032C69.2797 117.113 69.0744 117.191 68.8758 117.275C70.4411 115.427 71.9215 113.512 73.3227 111.547C71.9669 113.781 70.5149 115.963 69.4818 117.032L69.4818 117.032ZM56.2964 143.987C58.0626 144.163 59.8537 144.385 61.5471 144.914C61.8924 145.025 66.5048 146.28 64.3249 146.944C63.1428 147.301 61.774 147.568 60.3117 147.741C60.2955 147.725 60.2918 147.694 60.2648 147.678C58.2324 146.428 55.6749 146.115 53.352 145.755C51.5984 145.485 49.5522 144.989 47.5977 144.836C50.3614 143.884 53.3671 143.69 56.2966 143.987L56.2964 143.987ZM52.8493 147.004C54.7362 147.187 56.7799 147.351 58.6328 147.882C57.5142 147.955 56.3701 147.994 55.2153 147.941C54.4293 147.615 53.6358 147.313 52.8493 147.004ZM50.0669 148.343C50.1142 148.356 50.1758 148.363 50.224 148.377C50.694 148.707 51.1702 149.046 51.6524 149.41C51.579 149.535 51.5519 149.684 51.6411 149.808C53.6404 152.626 57.1136 154.52 58.07 157.917C54.4589 155.95 51.6982 152.177 50.0668 148.343L50.0669 148.343ZM68.6811 154.204C72.7321 156.608 77.5403 157.809 82.1251 158.765C77.6522 159.059 72.0927 157.034 68.6811 154.204ZM71.2867 159.446C72.3928 160.318 73.4116 161.401 74.2818 162.638C74.3175 162.69 74.3559 162.74 74.3908 162.795C75.2941 164.111 76.012 165.571 76.5241 167.065C74.147 165.145 71.9828 162.353 71.2844 159.447L71.2867 159.446ZM72.6163 164.912C73.8959 166.555 75.4543 167.97 77.0563 169.028C77.2091 169.789 77.2894 170.545 77.305 171.287C75.2052 169.636 73.6538 167.39 72.6163 164.912ZM79.1664 156.776C77.0847 156.235 75.0189 155.574 73.0385 154.741C75.147 155.262 77.2215 155.862 79.1664 156.776ZM84.8422 166.738C84.905 166.782 84.9674 166.821 85.0298 166.866C86.5023 170.653 90.5404 173.675 94.6229 174.662C95.0982 175.339 95.5072 176.055 95.876 176.789C91.4566 175.184 85.6418 171.478 84.8423 166.738L84.8422 166.738ZM92.9498 172.638C90.9171 171.755 89.0235 170.353 87.6905 168.665C88.6343 169.304 89.5804 169.945 90.5254 170.592C90.6136 170.656 90.7103 170.657 90.797 170.632C91.5574 171.254 92.2806 171.924 92.9498 172.638L92.9498 172.638ZM123.515 144.62C125.664 147.647 129.83 148.991 131.986 152.096C128.554 151.159 124.867 148.005 123.515 144.62ZM134.072 152.007C134.954 153.104 135.626 154.272 135.979 155.512C134.987 155.141 133.952 154.686 132.905 154.156C133.194 154.195 133.482 154.234 133.765 154.248C134.375 154.273 134.783 153.511 134.58 152.995C134.442 152.644 134.245 152.334 134.072 152.007L134.072 152.007ZM145.962 149.446C149.611 151.869 153.438 154.002 156.488 157.133C152.887 155.955 149.458 153.708 146.979 150.788C146.77 150.529 146.559 150.27 146.351 150.005C146.212 149.83 146.095 149.633 145.963 149.446L145.962 149.446ZM154.303 158.113C155.756 158.718 157.247 159.194 158.749 159.46C158.753 159.459 158.761 159.459 158.773 159.456C158.926 159.982 159.007 160.531 159.049 161.089C157.364 160.257 155.783 159.256 154.306 158.113L154.303 158.113ZM172.022 147.212C174.53 146.423 176.95 145.398 179.211 144.28C177.167 145.729 174.671 146.672 172.022 147.212ZM172.925 145.002C170.593 145.844 168.172 146.479 165.762 146.75C168.15 146.199 170.53 145.556 172.925 145.002ZM171.033 154.335C173.688 156.016 176.908 157.264 178.688 159.712C177.27 159.278 175.755 158.635 174.377 157.795C174.251 157.686 174.12 157.581 173.989 157.473C172.885 156.48 171.935 155.419 171.033 154.335L171.033 154.335ZM193.315 159.691C195.543 161.589 198.084 163.073 199.988 165.309C197.124 164.663 194.428 162.402 193.315 159.691ZM216.096 168.785C216.844 169.035 217.62 169.163 218.416 169.105C219.177 170.049 219.796 171.061 220.196 172.15C218.581 171.261 217.25 170.105 216.096 168.785ZM241.461 162.622C238.999 164.066 235.175 164.757 231.572 164.603C231.448 164.57 231.323 164.534 231.201 164.494C231.226 164.494 231.249 164.492 231.275 164.494C231.453 164.472 231.56 164.363 231.624 164.229C233.617 164.164 235.612 164.15 237.602 164.014C238.158 163.972 238.116 163.226 237.651 163.121L237.657 163.087C236.078 162.871 234.466 162.782 232.846 162.77C232.843 162.765 232.843 162.765 232.843 162.765C233.323 162.646 233.811 162.538 234.303 162.467C234.619 162.416 234.59 161.926 234.268 161.969C233.319 162.091 232.397 162.376 231.437 162.429C231.253 162.444 231.15 162.609 231.15 162.774C230.195 162.791 229.237 162.82 228.288 162.867C227.921 162.886 227.703 163.134 227.629 163.423C227.463 163.373 227.306 163.322 227.139 163.276C228.674 160.371 237.745 161.322 241.461 162.622L241.461 162.622ZM233.447 170.907C234.176 171.695 234.791 172.575 235.219 173.532C234.174 172.934 233.18 172.216 232.23 171.478C232.465 171.567 232.696 171.66 232.94 171.722C233.414 171.856 233.699 171.258 233.447 170.907L233.447 170.907ZM253.913 169.546C252.084 169.832 250.218 169.874 248.364 169.733C250.21 169.519 252.101 169.258 253.913 169.546ZM242.289 172.175C245.765 173.774 249.831 175.029 250.24 179.038C248.588 178.309 247.067 177.213 245.739 176.019C244.565 174.961 243.135 173.671 242.289 172.175ZM258.648 177.201C259.204 177.402 259.759 177.581 260.312 177.777C260.811 177.95 261.165 177.494 261.027 177.11C264.088 177.523 267.307 177.936 268.857 180.34C269.737 181.707 268.262 181.089 267.217 180.862C265.944 180.579 264.687 180.215 263.478 179.728C262.38 179.281 259.382 178.35 258.648 177.201ZM190.017 150.876C192.839 150.051 195.829 149.683 198.738 149.886C197.819 149.973 196.908 150.071 195.994 150.185C194.001 150.419 192.012 150.664 190.017 150.876ZM147.467 141.727C150.01 140.667 152.441 139.282 154.678 137.886C155.074 137.635 155.159 137.269 155.063 136.933C155.535 137.047 155.985 137.199 156.418 137.372C154.139 139.583 150.968 140.873 147.926 141.621C147.824 141.643 147.662 141.684 147.467 141.727L147.467 141.727ZM149.899 138.475C146.73 140.182 143.245 141.564 139.763 141.624C143.163 140.599 146.428 139.174 149.899 138.475ZM114.84 138.022C114.789 137.975 114.726 137.94 114.68 137.89C114.969 137.736 115.256 137.58 115.546 137.428C117.95 136.621 120.383 135.931 122.862 135.417C120.242 136.514 117.582 137.498 114.84 138.022L114.84 138.022ZM73.5054 118.883C77.3036 119.643 82.1065 119.378 85.3241 121.67C82.1956 120.389 78.8414 119.623 75.4983 119.552C75.0504 119.543 74.738 119.95 74.6936 120.366C74.0883 119.895 73.6703 119.399 73.5053 118.883L73.5054 118.883ZM84.0327 123.987C84.8644 124.025 85.6901 124.023 86.5198 123.965C87.0552 124.226 87.5797 124.495 88.1 124.786C86.8989 124.603 85.4962 124.329 84.0327 123.987ZM96.6675 112.403C97.2742 112.502 97.8796 112.607 98.4786 112.724C99.2623 112.887 99.9538 113.054 100.447 113.169C101.328 113.411 102.186 113.708 102.998 114.108C99.9401 114.034 96.5192 113.667 94.2212 112.459C94.8 112.252 95.7051 112.278 96.6675 112.403ZM125.287 96.7985C130.612 97.0165 135.936 95.2982 140.857 98.0209C136.653 98.8834 128.391 99.4088 125.287 96.7985ZM144.026 87.1684C145.654 87.0892 148.514 87.3078 149.085 87.3209C150.468 87.3506 151.83 87.4378 153.171 87.6447C149.82 87.9197 145.451 88.0933 144.026 87.1684ZM183.988 62.1644C183.924 62.1967 183.862 62.2376 183.799 62.2716C183.799 62.2716 183.797 62.2685 183.794 62.2678L183.712 62.3168C181.561 63.3892 179.51 64.7122 177.648 66.2645C177.45 66.4116 177.241 66.5564 177.047 66.7109C177.003 66.7456 176.993 66.7999 176.969 66.8453C170.896 69.6972 165.144 73.1073 159.316 76.4901C159.33 76.4445 159.367 76.4165 159.363 76.3566C159.359 76.3519 159.361 76.3487 159.364 76.347C160.666 75.1389 161.849 73.7986 162.194 72.279C162.543 71.9161 162.852 71.5992 163.048 71.3593C164.194 69.9157 165.449 68.3621 165.809 66.5116C165.935 65.8646 165.235 65.4896 164.711 65.7919C160.151 68.4656 156.8 73.4279 154.737 78.1877C154.595 78.5168 154.646 78.8105 154.798 79.0264C150.668 81.2487 146.422 83.176 142.139 85.0161C144.402 83.3543 146.461 81.4443 148.183 79.0885C148.582 78.5388 148.277 77.9299 147.733 77.8037C147.513 77.4317 147.075 77.2018 146.572 77.3675C143.086 78.4689 140.32 81.1757 138.064 84.004C137.249 84.8224 136.46 85.6456 135.693 86.4314C135.336 86.7969 135.434 87.3407 135.729 87.693C135.646 87.7407 135.56 87.7837 135.475 87.8352C133.277 88.7542 131.079 89.6892 128.893 90.6411C131.167 88.881 133.036 86.6849 133.759 83.9831C133.922 83.3805 133.261 82.9242 132.73 83.0982C127.527 84.8081 123.684 89.6136 120.381 93.7321C120.151 94.0155 120.136 94.3344 120.241 94.6005C116.898 96.1628 113.554 97.7034 110.205 99.2513C112.701 96.2973 114.517 92.5215 115.164 89.5924C115.287 89.0374 114.803 88.5306 114.25 88.5731C108.01 89.0143 103.875 97.3483 101.769 102.35C101.656 102.618 101.701 102.876 101.803 103.095C98.6607 104.517 95.5135 105.925 92.3615 107.323C92.3823 107.307 92.4009 107.296 92.4188 107.284C92.5713 107.189 92.6383 107.042 92.6694 106.885C94.2934 105.23 95.6103 103.327 96.2536 101.234C96.4364 100.641 95.7169 100.078 95.172 100.311C92.1458 101.592 89.3297 103.481 87.0208 105.834C85.5629 107.321 83.6835 109.296 82.8937 111.446C79.3047 112.983 75.7076 114.498 72.0947 115.984C74.8753 112.499 77.7586 106.899 78.3022 105.667C78.5056 105.206 78.1658 104.467 77.5725 104.594C72.8701 105.585 69.6957 110.557 67.1335 115.1C66.074 116.405 65.0821 117.743 64.1861 119.142C62.9369 119.64 61.6962 120.151 60.448 120.637C44.6407 126.749 28.7109 132.532 12.715 138.113C7.5269 138.639 2.34136 139.222 -2.81178 139.945C-31.5715 143.98 -61.5498 149.972 -88.2423 161.804C-88.7601 162.037 -88.4899 162.782 -87.9447 162.63C-58.4432 154.338 -29.7438 145.451 0.807187 141.652C1.61791 141.546 2.44131 141.472 3.25311 141.374C0.635356 142.271 -1.97602 143.178 -4.5935 144.069C-26.7324 151.572 -49.4493 157.173 -71.537 164.719C-72.3674 165.006 -71.8985 166.138 -71.0902 165.957C-42.9048 159.727 -14.9928 150.944 12.4712 141.102C22.9552 141.688 33.2448 142.901 43.3008 145.739C43.2952 146.218 43.9329 146.67 44.4303 146.348C44.5294 146.285 44.6405 146.231 44.7409 146.167C44.9125 146.219 45.0825 146.276 45.2528 146.326C46.1327 146.878 47.1316 147.355 48.228 147.757C48.3313 148.06 48.4298 148.36 48.5497 148.668C49.3381 154.501 54.9543 160.587 60.3444 162.31C60.8053 162.455 61.1856 161.974 61.1793 161.57C61.0924 156.872 57.8124 152.704 54.0494 149.485C59.6142 151.792 64.9025 154.486 70.029 157.437C69.8441 157.577 69.7205 157.811 69.7302 158.04C69.8004 159.256 70.1326 160.464 70.634 161.621C71.5571 165.959 73.7795 170.177 77.4896 172.709C77.7701 172.898 78.2843 172.842 78.3249 172.418C78.4172 171.42 78.3486 170.385 78.2087 169.359C78.4121 169.232 78.5512 169.013 78.52 168.775C78.0327 165.276 75.8827 161.995 73.4058 159.422C76.9173 161.538 80.3735 163.762 83.81 166.053C83.9199 172.228 91.6931 176.855 96.8883 178.383C97.3333 178.514 97.7253 177.991 97.57 177.588C97.2102 176.658 96.7396 175.784 96.2217 174.931C96.4132 174.946 96.6073 174.991 96.8019 175.005C97.3654 175.027 97.5323 174.327 97.3118 173.935C95.0205 169.931 90.5628 167.554 86.7102 165.277C86.3447 165.068 86.0366 165.607 86.3202 165.873C86.6156 166.146 86.9315 166.406 87.2407 166.663C86.8197 166.435 86.4046 166.205 85.9783 166.005C85.9516 165.994 85.9255 166.003 85.9024 165.994C85.498 165.68 85.0917 165.361 84.6832 165.048C84.6105 164.847 84.4513 164.726 84.2596 164.72C81.8855 162.91 79.4174 161.178 76.8832 159.511C79.4942 160.134 82.1406 160.262 84.3802 159.736C84.9068 159.613 84.8962 158.937 84.5889 158.627C80.1485 154.139 73.5321 153.026 67.5852 151.767C67.1583 151.676 66.7939 152.01 66.7074 152.387C66.5505 152.357 66.3913 152.335 66.2349 152.309C65.915 152.255 65.7209 152.753 66.0445 152.872C66.3323 152.968 66.6242 153.048 66.9145 153.138C66.8208 153.222 66.7677 153.33 66.7526 153.451C63.9418 151.933 61.0586 150.541 58.1363 149.227C61.458 149.114 64.5779 148.398 66.6891 147.025C66.9925 146.827 67.0249 146.34 66.7418 146.115C61.6557 142.107 51.0908 140.501 45.0513 144.184C37.458 141.775 29.6608 140.154 21.848 139.53C44.2403 137.708 66.8156 137.399 89.1615 138.897C94.7644 139.279 100.368 139.778 105.966 140.375C105.833 140.687 106.099 141.113 106.48 140.954C106.804 140.813 107.128 140.684 107.453 140.546C112.011 141.05 116.566 141.605 121.122 142.244C121.124 142.303 121.136 142.371 121.138 142.437C120.778 142.222 120.176 142.444 120.264 142.943C121.493 150.097 130.575 155.721 136.97 157.728C137.532 157.902 138.073 157.312 138.033 156.783C137.541 150.472 130.403 146.026 124.909 142.788C130.732 143.639 136.552 144.591 142.36 145.637C142.229 145.79 142.158 146 142.277 146.223C142.367 146.393 142.478 146.565 142.575 146.735C142.581 146.761 142.567 146.779 142.577 146.804C143.588 149.366 145.265 151.67 147.327 153.615C150.714 157.609 154.888 161.035 159.483 163.073C159.905 163.26 160.554 163.039 160.596 162.515C161.327 154.052 150.869 148.913 144.248 145.984C151.765 147.364 159.265 148.889 166.738 150.565C166.995 152.035 167.826 153.452 168.869 154.744C169.882 156.669 171.681 158.259 173.725 159.468C176.106 161.48 178.668 163.297 181.501 164.602C182.086 164.868 182.865 164.417 182.776 163.737C181.983 157.262 175.443 153.764 169.999 151.322C176.678 152.854 183.339 154.466 189.97 156.195C189.919 156.25 189.865 156.305 189.846 156.401C189.264 159.376 192.079 162.441 194.118 164.228C196.603 166.401 199.684 168.564 203.074 168.895C203.505 168.936 204.081 168.616 203.974 168.098C202.893 162.831 196.928 158.842 192.307 156.865C191.723 156.616 191.066 157.031 191.102 157.677C191.109 157.799 191.134 157.916 191.148 158.042C190.944 157.508 190.775 156.979 190.68 156.447C190.674 156.409 190.653 156.4 190.641 156.37C197.018 158.043 203.372 159.793 209.69 161.616C211.799 166.972 215.665 172.326 221.082 174.464C221.64 174.684 222.383 174.316 222.297 173.64C221.734 169.24 218.255 165.979 214.707 163.316C214.556 163.195 214.408 163.078 214.255 162.96C217.993 164.063 221.719 165.18 225.435 166.33C225.934 167.93 227.52 169.403 228.623 170.413C230.828 172.439 233.398 174.546 236.172 175.755C236.649 175.963 237.406 175.606 237.284 174.997C236.81 172.618 235.499 170.563 233.741 168.936C235.834 169.604 237.926 170.271 240.008 170.949C240.344 171.168 240.694 171.373 241.063 171.571C242.079 175.542 247.13 179.274 250.614 180.498C251.074 180.66 251.444 180.391 251.475 179.91C251.635 177.231 250.312 175.274 248.357 173.705C251.616 174.795 254.869 175.898 258.104 177.016C258.074 177.059 258.054 177.105 258.057 177.169C258.184 179.196 261.341 180.254 262.914 180.875C265.182 181.758 267.856 182.808 270.319 182.251C270.586 182.194 270.82 181.827 270.766 181.566C269.808 176.759 262.531 175.115 257.867 175.195C255.097 173.69 252.247 172.314 249.338 171.036C251.823 171.164 254.319 170.953 256.703 170.297C257.291 170.136 257.24 169.326 256.772 169.078C254.612 167.92 252.201 167.822 249.796 168.053C247.706 168.252 245.348 168.135 243.29 168.553C240.768 167.583 238.21 166.689 235.627 165.84C238.706 165.458 241.569 164.501 243.296 163.063C243.733 162.706 243.663 162.152 243.207 161.859C240.975 160.409 225.429 158.152 225.705 162.892C225.133 162.735 224.559 162.594 223.984 162.442C223.939 162.403 223.892 162.381 223.85 162.344C223.673 162.202 223.488 162.2 223.327 162.262C219.396 161.226 215.441 160.272 211.471 159.357C212.646 159.252 213.804 159.071 214.862 158.899C217.854 158.417 221.036 157.877 223.684 156.328C224.246 156.001 223.924 155.279 223.433 155.119C218.135 153.389 211.501 153.993 206.761 157.02C206.37 157.265 206.338 157.672 206.506 157.991C206.368 157.962 206.228 157.942 206.098 157.901C205.91 157.847 205.768 157.935 205.659 158.057C200.942 157.013 196.237 156.001 191.592 154.976C196.431 154.976 201.692 153.671 204.892 150.936C205.31 150.58 205.408 149.8 204.794 149.557C198.187 146.985 190.212 148.175 184.041 151.459C183.225 151.888 183.814 153.051 184.593 153.028C185.25 152.999 185.901 152.937 186.56 152.897C186.622 152.96 186.708 152.999 186.819 152.988C191.25 152.66 195.641 151.879 200.073 151.491C200.829 151.422 201.002 150.615 200.688 150.122C201.358 150.239 202.009 150.386 202.651 150.569C197.946 153.641 190.951 153.792 185.697 153.156C185.377 153.111 185.187 153.304 185.129 153.526C183.027 153.042 180.941 152.548 178.882 152.044C174.792 151.042 170.693 150.069 166.597 149.118C172.171 149.146 178.114 147.642 181.914 144.015C182.285 143.663 182.069 143.053 181.675 142.843C181.184 142.586 180.653 142.379 180.108 142.198C180.049 142.168 179.985 142.144 179.917 142.134C174.412 140.394 166.412 142.309 161.775 145.794C161.095 146.032 160.421 146.278 159.764 146.536C159.307 146.709 159.283 147.25 159.547 147.536C153.655 146.235 147.748 145.004 141.832 143.863C147.723 143.874 154.365 141.732 158.182 137.6C158.521 137.231 158.322 136.728 157.951 136.495C152.591 133.086 143.185 135.245 138.664 140.057C137.602 140.544 136.555 141.042 135.546 141.544C135.058 141.79 135.129 142.654 135.763 142.56C136.214 142.495 136.651 142.386 137.094 142.295C137.035 142.542 137.084 142.8 137.227 143.015C130.498 141.781 123.747 140.677 116.964 139.728C121.845 139.882 129.478 135.099 131.911 133.1C132.455 132.647 132.172 131.836 131.468 131.835C126.425 131.845 121.322 133.076 116.621 135.126C113.81 136.029 111.09 137.188 108.554 138.642C101.061 137.751 93.5358 137.054 85.9608 136.633C65.1828 135.47 44.1583 135.587 23.3006 137.173C36.6103 132.257 49.7991 127.131 62.8586 121.964C63.0255 122.19 63.3793 122.282 63.614 122.029C63.7834 121.853 63.9446 121.661 64.1094 121.479C64.2587 121.422 64.3985 121.364 64.5472 121.308C67.1446 120.278 69.7308 119.228 72.3082 118.162C71.1851 123.737 87.9504 126.744 91.2964 126.631C91.9526 126.61 92.2912 125.671 91.7512 125.272C90.7679 124.539 89.7263 123.884 88.6529 123.277C88.763 123.015 88.7674 122.712 88.5768 122.444C85.5538 118.118 79.1838 117.528 74.1469 117.388C76.9763 116.203 79.7987 114.999 82.6044 113.777C82.7843 114.012 83.1739 114.07 83.3792 113.811C83.5131 113.636 83.6201 113.448 83.7469 113.275C86.121 112.234 88.4899 111.191 90.8531 110.136C90.8403 110.183 90.8582 110.25 90.8548 110.304C90.8125 110.308 90.7637 110.303 90.726 110.304C90.3828 110.316 90.2718 110.835 90.5976 110.971C90.8017 111.054 91.0132 111.121 91.2203 111.196C93.375 114.994 99.8951 115.254 104.795 115.267C105.118 115.53 105.42 115.826 105.711 116.143C101.443 117.766 93.1435 116.308 90.6854 112.636C90.3297 112.098 89.5711 112.652 89.8749 113.199C92.5396 118.018 102.593 119.275 107.131 116.907C107.437 116.749 107.492 116.264 107.298 116.009C107.108 115.749 106.885 115.507 106.66 115.272C107.247 115.272 107.795 115.279 108.279 115.298C108.941 115.323 109.012 114.373 108.51 114.113C107.737 113.704 104.238 112.546 100.754 111.767C97.8702 110.774 94.6691 110.325 91.9652 110.295C91.9337 110.231 91.8833 110.175 91.8519 110.111C91.7923 109.958 91.6877 109.863 91.5696 109.818C102.134 105.089 112.638 100.206 123.177 95.3252C123.167 95.3753 123.152 95.4144 123.157 95.4702C122.629 95.6822 122.689 96.5379 123.275 96.617C123.369 96.6358 123.465 96.6401 123.561 96.6513C126.269 101.517 138.978 100.226 142.903 98.9933C143.42 98.8317 143.548 98.0952 143.133 97.7621C138.474 94.0206 130.041 93.5931 124.191 95.1778C124.184 95.1755 124.18 95.1804 124.181 95.1725C124.151 95.0534 124.074 95.0072 124.001 94.9466C125.196 94.3889 126.391 93.8379 127.591 93.2811C132.185 91.1649 136.888 89.2926 141.533 87.293C141.719 87.5282 142.023 87.6854 142.32 87.6897C142.473 87.7046 142.625 87.6725 142.777 87.6591C144.729 90.487 155.194 88.8245 157.218 88.6643C157.894 88.6099 158.14 87.6016 157.476 87.3257C154.452 86.0752 151.255 85.7084 147.996 85.6721C147.4 85.6675 146.522 85.5559 145.597 85.4904C148.928 83.9675 152.205 82.3286 155.355 80.425C155.957 80.0592 156.551 79.6864 157.15 79.32C157.235 79.4123 157.347 79.4825 157.489 79.4887C158.394 79.5168 159.288 79.3379 160.176 79.1094C162.975 81.816 170.43 78.929 172.99 77.5059C173.588 77.1756 173.284 76.3094 172.718 76.1804C169.482 75.4324 164.861 75.6772 161.085 76.8684C165.756 73.9364 170.417 70.9958 175.3 68.4571C174.613 69.1973 173.949 69.9527 173.36 70.77C172.777 71.5873 173.733 72.8984 174.612 72.1576C176.153 70.8516 177.608 69.2466 179.157 67.7664C181.518 67.4971 186.604 63.9166 187.229 63.3834C187.787 62.9008 187.544 61.9763 186.743 62.0103C186.059 62.0365 185.416 62.1318 184.794 62.2821C184.605 62.0889 184.33 62.0003 183.986 62.1633" fill="#FEBC71"/>
</svg>
