<svg width="39" height="32" viewBox="0 0 39 32" fill="none" xmlns="http://www.w3.org/2000/svg">
<path d="M15.1206 21.9637C15.1206 23.6781 14.235 26.4836 12.1387 26.4836C10.0425 26.4836 9.15687 23.6781 9.15687 21.9637C9.15687 20.2492 10.0425 17.4438 12.1387 17.4438C14.235 17.4438 15.1206 20.2492 15.1206 21.9637ZM39 17.8211C39 20.4379 38.74 23.2106 37.5781 25.6141C34.4987 31.8977 26.0325 31.75 19.9712 31.75C13.8125 31.75 4.8425 31.9715 1.64125 25.6141C0.455 23.2352 0 20.4379 0 17.8211C0 14.384 1.12937 11.1355 3.37187 8.50235C2.94937 7.20625 2.74625 5.84453 2.74625 4.49922C2.74625 2.73555 3.14438 1.84961 3.9325 0.25C7.61312 0.25 9.96937 0.988281 12.7725 3.20313C15.1287 2.63711 17.55 2.38281 19.9794 2.38281C22.1731 2.38281 24.3831 2.6207 26.5119 3.1375C29.2744 0.947265 31.6306 0.25 35.2706 0.25C36.0669 1.84961 36.4569 2.73555 36.4569 4.49922C36.4569 5.84453 36.2456 7.18164 35.8312 8.45313C38.0656 11.1109 39 14.384 39 17.8211ZM33.7756 21.9637C33.7756 18.3625 31.6062 15.1879 27.8037 15.1879C26.2681 15.1879 24.7975 15.4668 23.2537 15.6801C22.0431 15.8688 20.8325 15.9426 19.5894 15.9426C18.3544 15.9426 17.1437 15.8688 15.925 15.6801C14.4056 15.4668 12.9187 15.1879 11.375 15.1879C7.5725 15.1879 5.40312 18.3625 5.40312 21.9637C5.40312 29.166 11.9356 30.2734 17.6231 30.2734H21.5394C27.2512 30.2734 33.7756 29.1742 33.7756 21.9637ZM27.0644 17.4438C24.9681 17.4438 24.0825 20.2492 24.0825 21.9637C24.0825 23.6781 24.9681 26.4836 27.0644 26.4836C29.1606 26.4836 30.0462 23.6781 30.0462 21.9637C30.0462 20.2492 29.1606 17.4438 27.0644 17.4438Z" fill="#141115"/>
</svg>
