<svg width="57" height="46" viewBox="0 0 57 46" fill="none" xmlns="http://www.w3.org/2000/svg">
<path d="M22.0994 31.5195C22.0994 33.9688 20.805 37.9766 17.7412 37.9766C14.6775 37.9766 13.3831 33.9688 13.3831 31.5195C13.3831 29.0703 14.6775 25.0625 17.7412 25.0625C20.805 25.0625 22.0994 29.0703 22.0994 31.5195ZM57 25.6016C57 29.3398 56.62 33.3008 54.9219 36.7344C50.4212 45.7109 38.0475 45.5 29.1887 45.5C20.1875 45.5 7.0775 45.8164 2.39875 36.7344C0.665 33.3359 0 29.3398 0 25.6016C0 20.6914 1.65062 16.0508 4.92812 12.2891C4.31063 10.4375 4.01375 8.49219 4.01375 6.57031C4.01375 4.05078 4.59562 2.78516 5.7475 0.5C11.1269 0.5 14.5706 1.55469 18.6675 4.71875C22.1112 3.91016 25.65 3.54688 29.2006 3.54688C32.4069 3.54688 35.6369 3.88672 38.7481 4.625C42.7856 1.49609 46.2294 0.5 51.5494 0.5C52.7131 2.78516 53.2831 4.05078 53.2831 6.57031C53.2831 8.49219 52.9744 10.4023 52.3687 12.2188C55.6344 16.0156 57 20.6914 57 25.6016ZM49.3644 31.5195C49.3644 26.375 46.1938 21.8398 40.6362 21.8398C38.3919 21.8398 36.2425 22.2383 33.9863 22.543C32.2169 22.8125 30.4475 22.918 28.6306 22.918C26.8256 22.918 25.0562 22.8125 23.275 22.543C21.0544 22.2383 18.8813 21.8398 16.625 21.8398C11.0675 21.8398 7.89687 26.375 7.89687 31.5195C7.89687 41.8086 17.4444 43.3906 25.7569 43.3906H31.4806C39.8288 43.3906 49.3644 41.8203 49.3644 31.5195ZM39.5556 25.0625C36.4919 25.0625 35.1975 29.0703 35.1975 31.5195C35.1975 33.9688 36.4919 37.9766 39.5556 37.9766C42.6194 37.9766 43.9137 33.9688 43.9137 31.5195C43.9137 29.0703 42.6194 25.0625 39.5556 25.0625Z" fill="#FFF1E1"/>
</svg>
