<svg width="84" height="83" viewBox="0 0 84 83" fill="none" xmlns="http://www.w3.org/2000/svg">
<path d="M0 0V83H84V0H0ZM63.9333 37.6662C68.9467 37.6662 72.56 39.3921 75.16 43.911L69.0133 47.8106C67.6533 45.4129 66.2 44.4643 63.9333 44.4643C61.6267 44.4643 60.16 45.9135 60.16 47.8106C60.16 50.1557 61.6267 51.0911 65.0133 52.5403L66.9867 53.3835C73.6933 56.216 77.48 59.1144 77.48 65.6359C77.48 72.6579 71.8933 76.5049 64.4 76.5049C57.0667 76.5049 52.3333 73.0532 50.0133 68.5211L56.4267 64.8454C58.12 67.5725 60.32 69.5751 64.2133 69.5751C67.48 69.5751 69.5733 67.9678 69.5733 65.7281C69.5733 63.0537 67.4267 62.1183 63.8267 60.5505L61.8533 59.7205C56.16 57.3227 52.3733 54.3189 52.3733 47.9687C52.3733 42.1192 56.88 37.6662 63.9333 37.6662V37.6662ZM37.8533 38.1141H45.7467V64.74C45.7467 72.816 40.9467 76.4917 33.96 76.4917C27.64 76.4917 23.9733 73.2508 22.12 69.3643L28.5467 65.5173C29.7867 67.6911 30.9067 69.5356 33.6267 69.5356C36.2133 69.5356 37.8533 68.5343 37.8533 64.6346V38.1141V38.1141Z" fill="black"/>
</svg>
