<svg width="64" height="87" viewBox="0 0 64 87" fill="none" xmlns="http://www.w3.org/2000/svg">
<path d="M20.5923 67.2882C20.5923 67.2882 17.2689 69.2253 22.9492 69.871C29.8334 70.6526 33.3433 70.5506 40.9227 69.1063C40.9227 69.1063 42.9235 70.3637 45.7043 71.4512C28.7143 78.7408 7.24779 71.0264 20.5923 67.2882ZM18.5236 57.7557C18.5236 57.7557 14.8102 60.5084 20.4905 61.1031C27.8325 61.8677 33.6485 61.9187 43.6865 59.9816C43.6865 59.9816 45.0769 61.392 47.2643 62.1566C26.6965 68.1887 3.8057 62.6494 18.5236 57.7557V57.7557ZM36.0224 41.5963C40.2105 46.422 34.9202 50.772 34.9202 50.772C34.9202 50.772 45.5517 45.2666 40.6683 38.3848C36.1071 31.9619 32.6142 28.7674 51.5372 17.7736C51.5542 17.7736 21.8301 25.2161 36.0224 41.5963V41.5963ZM58.5062 74.3228C58.5062 74.3228 60.9648 76.3449 55.8102 77.9251C45.9926 80.8987 14.9798 81.7993 6.36607 78.0441C3.2631 76.7017 9.07906 74.8156 10.9103 74.4248C12.8094 74.017 13.9116 74.085 13.9116 74.085C10.4695 71.6551 -8.35186 78.8597 4.34829 80.9157C38.9727 86.5571 67.493 78.3839 58.5062 74.3228V74.3228ZM22.1862 47.8833C22.1862 47.8833 6.39999 51.6386 16.5906 52.9979C20.8975 53.5757 29.4773 53.4397 37.4636 52.777C43.9918 52.2333 50.5538 51.0439 50.5538 51.0439C50.5538 51.0439 48.2477 52.0294 46.586 53.1678C30.5625 57.3988 -0.38247 55.4278 8.5195 51.1118C16.065 47.4755 22.1862 47.8833 22.1862 47.8833V47.8833ZM50.5029 63.7369C66.7978 55.2579 59.2523 47.1017 53.9959 48.2062C52.7072 48.4781 52.1307 48.716 52.1307 48.716C52.1307 48.716 52.6055 47.9683 53.5211 47.6455C63.9152 43.9752 71.9185 58.4524 50.1638 64.1786C50.1638 64.1617 50.4181 63.9408 50.5029 63.7369ZM40.6683 0C40.6683 0 49.689 9.03972 32.1055 22.9391C18.0149 34.0859 28.8838 40.4579 32.1055 47.7134C23.8818 40.2709 17.8454 33.729 21.8979 27.6289C27.8495 18.7082 44.3139 14.3582 40.6683 0ZM23.797 86.727C39.4305 87.7295 63.4404 86.1662 64 78.7577C64 78.7577 62.9148 81.5614 51.0794 83.8044C37.7349 86.3192 21.2705 86.0303 11.5207 84.4161C11.5207 84.3991 13.5216 86.0643 23.797 86.727" fill="black"/>
</svg>
