<svg width="48" height="52" viewBox="0 0 48 52" fill="none" xmlns="http://www.w3.org/2000/svg">
<path d="M44.5714 3.25H3.41786C1.53214 3.25 0 4.72266 0 6.53047V45.4695C0 47.2773 1.53214 48.75 3.41786 48.75H44.5714C46.4571 48.75 48 47.2773 48 45.4695V6.53047C48 4.72266 46.4571 3.25 44.5714 3.25ZM14.5071 42.25H7.39286V20.5359H14.5179V42.25H14.5071ZM10.95 17.5703C8.66786 17.5703 6.825 15.8133 6.825 13.6602C6.825 11.507 8.66786 9.75 10.95 9.75C13.2214 9.75 15.075 11.507 15.075 13.6602C15.075 15.8234 13.2321 17.5703 10.95 17.5703ZM41.175 42.25H34.0607V31.6875C34.0607 29.1688 34.0071 25.9289 30.3643 25.9289C26.6571 25.9289 26.0893 28.6711 26.0893 31.5047V42.25H18.975V20.5359H25.8V23.5016H25.8964C26.85 21.7953 29.175 19.9977 32.6357 19.9977C39.8357 19.9977 41.175 24.4969 41.175 30.3469V42.25Z" fill="#FFF1E1"/>
</svg>
