<svg width="71" height="81" viewBox="0 0 71 81" fill="none" xmlns="http://www.w3.org/2000/svg">
<path d="M32.4063 80.1674L22.6095 74.3022C21.1492 73.4767 21.8635 73.1812 22.346 73.011C24.2952 72.3268 24.6921 72.1694 26.7714 70.9713C26.9905 70.8492 27.2762 70.8942 27.5048 71.0291L35.0286 75.5485C35.3048 75.7027 35.6857 75.7027 35.9397 75.5485L65.2762 58.4186C65.5492 58.2612 65.7238 57.94 65.7238 57.6156V23.3589C65.7238 23.0249 65.5492 22.7101 65.2698 22.5398L35.946 5.42277C35.673 5.26217 35.3143 5.26217 35.0413 5.42277L5.72381 22.5463C5.43809 22.7101 5.26032 23.0345 5.26032 23.3589V57.6188C5.26032 57.9464 5.43809 58.2547 5.72063 58.4121L13.7587 63.1082C18.1206 65.3149 20.7905 62.7163 20.7905 60.1049V26.2819C20.7905 25.8033 21.1714 25.4275 21.6444 25.4275H25.3651C25.8286 25.4275 26.2127 25.8033 26.2127 26.2819V60.1049C26.2127 65.9926 23.0444 69.3717 17.527 69.3717C15.8317 69.3717 14.4952 69.3717 10.7683 67.5119L3.07619 63.0311C1.17778 61.9197 0 59.8415 0 57.6155V23.3589C0 21.133 1.17778 19.058 3.07619 17.9498L32.4159 0.797394C34.273 -0.265798 36.7397 -0.265798 38.581 0.797394L67.9175 17.9498C69.819 19.0612 71 21.1362 71 23.3589V57.6155C71 59.8415 69.819 61.9101 67.9175 63.0311L38.5809 80.1674C36.5038 81.3375 34.4475 81.2159 32.4063 80.1674ZM57.1524 35.8314H53.3429C52.9492 35.8314 52.6032 35.5487 52.5206 35.16C51.6063 31.0486 49.3841 29.7349 43.3587 29.7349C36.6095 29.7349 35.8254 32.1118 35.8254 33.8945C35.8254 36.0562 36.7524 36.6858 45.8603 37.9031C54.8762 39.1077 59.1619 40.8165 59.1619 47.2245C59.1619 53.6936 53.8381 57.3971 44.5429 57.3971C31.7016 57.3971 29.0159 51.4323 29.0159 46.4312C29.0159 45.9558 29.3905 45.5768 29.8603 45.5768H33.654C34.0762 45.5768 34.4317 45.8851 34.4952 46.3027C35.0667 50.2085 36.7714 52.184 44.5397 52.184C50.7175 52.184 53.3492 50.7674 53.3492 47.4526C53.3492 45.5382 52.6063 44.1217 43 43.1677C34.9746 42.3647 30.0063 40.5692 30.0063 34.0744C30.0063 28.0839 34.9968 24.5121 43.3619 24.5121C52.7619 24.5121 57.4095 27.8108 58 34.8966C58.0496 35.3225 57.6711 35.8355 57.1524 35.8314Z" fill="black"/>
</svg>
