<svg width="92" height="82" viewBox="0 0 92 82" fill="none" xmlns="http://www.w3.org/2000/svg">
<path d="M37.7957 40.9088C37.7957 36.3649 41.4802 32.6741 46.0164 32.6741C50.5525 32.6741 54.2371 36.3649 54.2371 40.9088C54.2371 45.4526 50.5525 49.1434 46.0164 49.1434C41.4802 49.1434 37.7957 45.4526 37.7957 40.9088ZM92 40.9088C92 46.568 85.335 52.2929 74.5924 55.8525C74.0356 56.033 73.4624 56.2134 72.8729 56.3938C73.0858 57.2304 73.2659 58.0506 73.4297 58.8544C74.4286 63.9395 74.5924 68.6638 73.8882 72.5023C73.1349 76.5868 71.4318 79.4902 68.9754 80.9174C67.7472 81.6391 66.2898 82 64.6686 82C60.2143 82 54.5646 79.3098 48.6693 74.2246C47.8341 73.5029 47.0153 72.7483 46.1801 71.9445C45.5415 72.5679 44.9028 73.1584 44.2642 73.7161C40.3667 77.1281 36.3546 79.6215 32.6864 80.9174C30.7704 81.6063 28.969 81.9508 27.3642 81.9508C25.6938 81.9508 24.22 81.5899 22.9754 80.8681C18.2755 78.1451 16.6379 70.3042 18.6194 59.8878C18.8159 58.8216 19.0616 57.7225 19.34 56.6071C18.4721 56.361 17.6369 56.0986 16.8345 55.8197C11.9381 54.1465 7.77857 51.9156 4.81452 49.3731C1.67035 46.6829 0 43.7466 0 40.9088C0 35.4627 5.96084 30.1315 15.9665 26.654C17.0637 26.2767 18.21 25.9158 19.3891 25.5713C19.1271 24.5379 18.8978 23.5208 18.7013 22.5202C17.7351 17.5663 17.555 13.0225 18.1773 9.36446C18.8651 5.37837 20.4863 2.54053 22.8936 1.14622C27.7736 -1.69162 36.0762 1.22824 44.5262 8.75753C45.0338 9.21683 45.5415 9.69254 46.0655 10.1846C46.8352 9.44648 47.6048 8.74112 48.3581 8.06857C52.1574 4.75503 56.0057 2.32728 59.4774 1.04779C63.2602 -0.346519 66.5354 -0.346519 68.9263 1.03139C73.8227 3.85283 75.4439 12.514 73.1513 23.6029C73.0203 24.2754 72.8565 24.948 72.6928 25.6369C73.7081 25.9322 74.6906 26.2439 75.6404 26.5719C80.4058 28.2123 84.4179 30.3448 87.2674 32.7069C90.3624 35.2987 92 38.1365 92 40.9088V40.9088ZM48.8167 12.9897C51.4368 15.8111 54.057 19.0919 56.5789 22.7007C60.9185 23.1108 65.0616 23.7669 68.8936 24.6527C69.0409 24.0294 69.1883 23.4224 69.303 22.8155C71.4482 12.3663 69.5977 5.9689 66.9612 4.44336C65.6184 3.67238 63.4404 3.77081 60.8202 4.73862C57.7907 5.85408 54.3681 8.03577 50.9292 11.0376C50.225 11.6446 49.5208 12.3007 48.8167 12.9897V12.9897ZM24.2036 53.7693C26.8238 54.3434 29.6568 54.8027 32.67 55.1308C31.6874 53.5888 30.7213 52.0141 29.7878 50.4065C28.8708 48.8317 28.0028 47.2406 27.1841 45.6494C26.0214 48.4052 25.0061 51.1447 24.2036 53.7693ZM29.7878 31.6079C30.7049 30.0331 31.6383 28.4748 32.6045 26.9656C29.6896 27.3265 26.8893 27.8186 24.2528 28.3927C25.0552 30.9845 26.0377 33.6583 27.1841 36.3813C28.0028 34.7902 28.8708 33.199 29.7878 31.6079ZM33.194 48.4381C34.6187 50.8986 36.1253 53.2935 37.6974 55.5737C40.3667 55.7377 43.1506 55.8361 46.0164 55.8361C48.8985 55.8361 51.7152 55.7377 54.4336 55.5408C55.9238 53.2935 57.3977 50.915 58.8551 48.4052C60.2962 45.9119 61.6226 43.4021 62.8181 40.9416C61.6226 38.5302 60.3126 36.0697 58.8551 33.5599C57.4304 31.0829 55.9402 28.7208 54.4172 26.4571C51.6824 26.2439 48.8658 26.1454 46.0164 26.1454C43.1997 26.1454 40.3831 26.2603 37.6319 26.4735C36.0926 28.7372 34.586 31.1158 33.1776 33.5763C31.7693 36.0205 30.4592 38.5138 29.2638 41.0072C30.4592 43.4841 31.7693 45.9775 33.194 48.4381V48.4381ZM59.4446 55.0651C62.4742 54.7043 65.3564 54.2122 68.0256 53.6052C67.2068 51.0298 66.1752 48.3068 64.9306 45.4854C64.0954 47.1094 63.1947 48.7497 62.2613 50.3737C61.3279 51.9812 60.3944 53.556 59.4446 55.0651V55.0651ZM67.8291 28.442C65.1762 27.835 62.3596 27.3429 59.4283 26.9656C60.3781 28.4584 61.3115 30.0003 62.2286 31.5751C63.162 33.199 64.0463 34.8066 64.8815 36.3813C66.0441 33.6583 67.0431 30.9845 67.8291 28.442ZM40.5959 22.3398C42.3809 22.2578 44.1823 22.2086 46 22.2086C47.8505 22.2086 49.6682 22.2578 51.4859 22.3398C49.701 19.9612 47.8832 17.7632 46.0655 15.7947C44.215 17.7796 42.3809 19.9777 40.5959 22.3398V22.3398ZM22.566 21.7657C22.7462 22.7007 22.9591 23.6357 23.2047 24.6035C27.0203 23.7341 31.1634 23.0944 35.503 22.6843C38.0249 19.1247 40.6614 15.8603 43.3307 12.9733C42.8722 12.5304 42.4137 12.1039 41.9551 11.7102C33.9637 4.6238 27.5116 3.03264 24.875 4.55818C23.5322 5.32916 22.5333 7.2812 22.0584 10.037C21.518 13.2193 21.6817 17.2874 22.566 21.7657ZM24.9242 41.0236C23.1064 37.0539 21.5835 33.1334 20.4372 29.377C19.34 29.6886 18.2919 30.0167 17.2766 30.3776C8.07334 33.5927 3.9466 37.9889 3.9466 40.9252C3.9466 43.9762 8.38448 48.7825 18.1118 52.1125C18.8487 52.3585 19.602 52.6046 20.388 52.8342C21.5507 49.0122 23.0737 45.0425 24.9242 41.0236V41.0236ZM43.429 69.1395C40.727 66.2525 38.074 62.9553 35.5358 59.3629C31.0488 59.002 26.8893 58.3951 23.1556 57.5585C22.8936 58.6083 22.6807 59.6254 22.4842 60.6096C20.6664 70.2057 22.4187 75.9798 24.9405 77.4398C27.5771 78.9653 33.9473 77.5218 41.6931 70.7307C42.2499 70.2386 42.8394 69.6972 43.429 69.1395V69.1395ZM51.5678 59.6418C49.7501 59.7238 47.8832 59.773 46.0164 59.773C44.1823 59.773 42.3973 59.7402 40.6451 59.6746C42.4628 62.0695 44.3133 64.284 46.1801 66.3017C47.9651 64.3168 49.7828 62.1023 51.5678 59.6418V59.6418ZM69.5977 59.6254C69.4503 58.8872 69.2866 58.149 69.0901 57.3781C65.2909 58.2639 61.0986 58.9036 56.6444 59.2973C54.1061 62.9881 51.5023 66.2853 48.9313 69.1067C49.701 69.8613 50.487 70.5666 51.2403 71.2228C58.6258 77.5874 64.4884 78.9653 67.0267 77.489C69.6632 75.9798 71.5956 69.73 69.5977 59.6254V59.6254ZM88.0862 40.9088C88.0862 39.3504 86.9071 37.5132 84.7618 35.7252C82.2891 33.6583 78.6864 31.7719 74.3795 30.2792C73.4952 29.9839 72.5781 29.6886 71.6447 29.4098C70.5148 33.0678 69.0082 36.9555 67.1577 40.9252C69.0901 45.0097 70.6622 48.9302 71.8085 52.5882C72.3325 52.4241 72.8565 52.2601 73.3642 52.0961C83.4681 48.7497 88.0862 43.9434 88.0862 40.9088V40.9088Z" fill="black"/>
</svg>
